<?xml version="1.0" standalone="no"?>
<!DOCTYPE svg PUBLIC "-//W3C//DTD SVG 1.1//EN" "http://www.w3.org/Graphics/SVG/1.1/DTD/svg11.dtd" >
<svg>
<metadata>
Created by FontForge 20120731 at Sat Aug 31 04:23:19 2019
 By www
LL Circular Air font files are proprietary and protected by copyright of LINETO GMBH. They are for exclusive use by licensed users and appointed third parties only, to carry out work for and on behalf of AirBnB under the limited license expiring on 15 June 2018.
Use by unauthorised or unlicensed users and third parties is prohibited and constitutes a criminal offence. It is strictly prohibited to modify, adapt or translate the encoding, reproduce, decompile, disassemble, change, modify or otherwise attempt to reveal the source code of the font software.
</metadata>
<defs>
<font id="CircularAir-Bold" horiz-adv-x="625" >
  <font-face 
    font-family="Circular Air Bold"
    font-weight="700"
    font-stretch="normal"
    units-per-em="1000"
    panose-1="2 0 8 1 0 0 0 1 0 1"
    ascent="809"
    descent="-191"
    x-height="492"
    cap-height="709"
    bbox="-55 -255 1548 1039"
    underline-thickness="80"
    underline-position="-195"
    unicode-range="U+000D-FEFF"
  />
<missing-glyph horiz-adv-x="584" 
d="M71 0v709h442v-709h-442zM180 109h224v491h-224v-491z" />
    <glyph glyph-name="f_f" unicode="ff" horiz-adv-x="680" 
d="M553 546v-54h111v-114h-111v-378h-133v378h-190v-378h-134v378h-82v114h82v56q0 83 48.5 133t130.5 50q44 0 66 -10v-112q-12 5 -42 5q-27 0 -48 -15.5t-21 -52.5v-54h190v56q0 83 48.5 133t130.5 50q44 0 66 -10v-112q-12 5 -42 5q-27 0 -48.5 -15.5t-21.5 -52.5z" />
    <glyph glyph-name="f_f_i" unicode="ffi" horiz-adv-x="957" 
d="M737 654q0 35 23.5 59t57.5 24q35 0 59 -24t24 -59q0 -34 -24 -57.5t-59 -23.5q-34 0 -57.5 23.5t-23.5 57.5zM420 492v58q0 82 48.5 131.5t129.5 49.5q44 0 66 -10v-112q-12 5 -42 5q-27 0 -48 -15.5t-21 -52.5v-54h332v-492h-133v378h-199v-378h-133v378h-190v-378
h-134v378h-82v114h82v56q0 83 48.5 133t130.5 50q44 0 66 -10v-112q-12 5 -42 5q-27 0 -48 -15.5t-21 -52.5v-54h190z" />
    <glyph glyph-name="f_f_l" unicode="ffl" horiz-adv-x="957" 
d="M420 492v56q0 84 48.5 133.5t129.5 49.5q44 0 66 -10v-112q-12 5 -42 5q-27 0 -48 -15.5t-21 -52.5v-54h200v232h133v-724h-133v378h-200v-378h-133v378h-190v-378h-134v378h-82v114h82v56q0 83 48.5 133t130.5 50q44 0 66 -10v-112q-12 5 -42 5q-27 0 -48 -15.5
t-21 -52.5v-54h190z" />
    <glyph glyph-name="f_i" unicode="fi" horiz-adv-x="631" 
d="M427 378h-197v-378h-134v378h-82v114h82v56q0 83 48.5 133t130.5 50q44 0 66 -10v-112q-12 5 -42 5q-27 0 -48 -15.5t-21 -52.5v-54h329v-492h-132v378zM411 654q0 35 24 59t58 24t58 -24t24 -59q0 -34 -24 -57.5t-58 -23.5t-58 23.5t-24 57.5z" />
    <glyph glyph-name="f_l" unicode="fl" horiz-adv-x="630" 
d="M299 614q-27 0 -48 -15.5t-21 -52.5v-54h196v232h133v-724h-133v378h-196v-378h-134v378h-82v114h82v56q0 83 48.5 133t130.5 50q44 0 66 -10v-112q-12 5 -42 5z" />
    <glyph glyph-name=".notdef" horiz-adv-x="584" 
d="M71 0v709h442v-709h-442zM180 109h224v491h-224v-491z" />
    <glyph glyph-name=".null" horiz-adv-x="0" 
 />
    <glyph glyph-name=".null" horiz-adv-x="0" 
 />
    <glyph glyph-name="nonmarkingreturn" horiz-adv-x="333" 
 />
    <glyph glyph-name="CR" unicode="&#xd;" horiz-adv-x="247" 
 />
    <glyph glyph-name="space" unicode=" " horiz-adv-x="247" 
 />
    <glyph glyph-name="exclam" unicode="!" horiz-adv-x="334" 
d="M247 709l-32 -493h-97l-32 493h161zM88 71q0 33 23 56.5t55 23.5q33 0 56.5 -23.5t23.5 -56.5t-23.5 -56t-56.5 -23q-32 0 -55 23t-23 56z" />
    <glyph glyph-name="quotedbl" unicode="&#x22;" horiz-adv-x="402" 
d="M34 645q0 33 21.5 54.5t53.5 21.5t53 -21.5t21 -54.5q0 -17 -4 -26l-47 -183h-47l-47 183q-4 20 -4 26zM219 645q0 33 21.5 54.5t53.5 21.5t53 -21.5t21 -54.5q0 -17 -4 -26l-47 -183h-47l-47 183q-4 20 -4 26z" />
    <glyph glyph-name="numbersign" unicode="#" horiz-adv-x="807" 
d="M345 436l-34 -160h146l34 160h-146zM101 436v99h157l38 174h107l-38 -174h146l38 174h109l-38 -174h141v-99h-162l-34 -160h141v-99h-162l-38 -177h-108l38 177h-147l-38 -177h-107l38 177h-134v99h155l34 160h-136z" />
    <glyph glyph-name="dollar" unicode="$" horiz-adv-x="649" 
d="M393 -100h-111v87q-106 15 -165.5 79.5t-66.5 142.5l126 33q6 -62 46 -99t115 -37q54 0 87 24t33 63q0 31 -21.5 53t-64.5 31l-105 23q-89 21 -139 73t-50 130q0 83 58.5 143.5t146.5 72.5v90h111v-93q85 -17 132 -67t61 -114l-124 -38q-8 42 -39 74t-92 32
q-57 0 -87 -26.5t-30 -63.5q0 -63 82 -81l98 -22q98 -23 149 -78.5t51 -131.5q0 -77 -54 -137t-147 -74v-89z" />
    <glyph glyph-name="percent" unicode="%" horiz-adv-x="925" 
d="M52 545q0 73 53 124t126 51t126 -51t53 -124q0 -74 -53 -125t-127 -51q-73 0 -125.5 51t-52.5 125zM272 0h-119l502 709h118zM155 545q0 -35 21.5 -57t54.5 -22q32 0 53 22t21 57q0 34 -21 55.5t-53 21.5q-33 0 -54.5 -22t-21.5 -55zM516 165q0 73 53 124.5t126 51.5
t126 -51.5t53 -124.5q0 -74 -53 -125t-127 -51q-73 0 -125.5 51t-52.5 125zM619 165q0 -35 21.5 -57t54.5 -22q32 0 53 22t21 57q0 34 -21 56t-53 22t-54 -22t-22 -56z" />
    <glyph glyph-name="ampersand" unicode="&#x26;" horiz-adv-x="717" 
d="M545 0l-73 77q-87 -90 -190 -90q-99 0 -157 57t-58 133q0 62 29.5 105t91.5 89l5 3l-11 12q-78 78 -78 154q0 85 59 135t137 50q86 0 141.5 -50t55.5 -129q0 -89 -100 -162l-27 -20l107 -113l179 187v-166l-99 -104l160 -168h-172zM284 103q51 0 108 59l-121 128l-15 -11
q-57 -41 -57 -94q0 -32 24 -57t61 -25zM230 544q0 -35 42 -77l19 -21l35 26q45 33 45 75q0 30 -20 49t-52 19q-27 0 -48 -18.5t-21 -52.5z" />
    <glyph glyph-name="quotesingle" unicode="'" horiz-adv-x="217" 
d="M34 645q0 33 21.5 54.5t53.5 21.5t53 -21.5t21 -54.5q0 -17 -4 -26l-47 -183h-47l-47 183q-4 20 -4 26z" />
    <glyph glyph-name="parenleft" unicode="(" horiz-adv-x="330" 
d="M43 322q0 292 210 497l77 -71q-175 -188 -175 -426q0 -242 175 -427l-77 -70q-210 206 -210 497z" />
    <glyph glyph-name="parenright" unicode=")" horiz-adv-x="330" 
d="M287 322q0 -291 -210 -497l-77 70q175 185 175 427q0 238 -175 426l77 71q210 -205 210 -497z" />
    <glyph glyph-name="asterisk" unicode="*" horiz-adv-x="455" 
d="M281 709v-127l116 39l33 -98l-118 -38l74 -100l-83 -61l-76 101l-74 -101l-83 62l73 99l-118 38l32 98l117 -39v127h107z" />
    <glyph glyph-name="plus" unicode="+" horiz-adv-x="589" 
d="M49 389h189v195h112v-195h190v-109h-190v-196h-112v196h-189v109z" />
    <glyph glyph-name="comma" unicode="," horiz-adv-x="312" 
d="M61 80q0 36 26 60t65 24q46 0 72.5 -32.5t26.5 -82.5q0 -100 -54.5 -155.5t-121.5 -62.5v64q36 9 64.5 38.5t30.5 69.5q-8 -6 -26 -6q-37 0 -60 23.5t-23 59.5z" />
    <glyph glyph-name="hyphen" unicode="-" horiz-adv-x="380" 
d="M335 238h-290v118h290v-118z" />
    <glyph glyph-name="period" unicode="." horiz-adv-x="311" 
d="M64 84q0 38 26.5 64.5t64.5 26.5q39 0 65.5 -26.5t26.5 -64.5t-26.5 -64.5t-65.5 -26.5q-38 0 -64.5 26.5t-26.5 64.5z" />
    <glyph glyph-name="slash" unicode="/" horiz-adv-x="475" 
d="M475 718l-355 -727h-120l354 727h121z" />
    <glyph glyph-name="zero" unicode="0" horiz-adv-x="677" 
d="M48 354q0 160 62 253q77 117 228 117q152 0 229 -117q63 -97 63 -253q0 -155 -63 -252q-77 -117 -229 -117q-151 0 -228 117q-62 93 -62 252zM186 354q0 -131 44 -192q40 -55 108 -55q69 0 109 55q45 62 45 192t-45 192q-40 55 -109 55q-68 0 -108 -55q-44 -61 -44 -192z
" />
    <glyph glyph-name="one" unicode="1" horiz-adv-x="419" 
d="M339 0h-137v482h-170v94q75 2 126 39.5t61 93.5h120v-709z" />
    <glyph glyph-name="two" unicode="2" horiz-adv-x="589" 
d="M179 439l-133 7q-4 15 -4 44q0 97 68.5 165.5t185.5 68.5q114 0 182.5 -65t68.5 -159q0 -137 -136 -220l-138 -85q-54 -35 -67 -74h345v-121h-515q0 96 38.5 168t129.5 128l116 72q87 56 87 129q0 45 -29.5 75t-84.5 30q-58 0 -88 -34.5t-30 -90.5q0 -22 4 -38z" />
    <glyph glyph-name="three" unicode="3" horiz-adv-x="600" 
d="M237 319l-63 100l192 170h-318v120h495v-114l-189 -163q85 -2 147 -61t62 -154q0 -97 -72 -164.5t-195 -67.5q-117 0 -191 66t-80 158l134 27q2 -58 40.5 -95t95.5 -37q59 0 93.5 32.5t34.5 81.5q0 57 -37 86t-87 29q-32 0 -62 -14z" />
    <glyph glyph-name="four" unicode="4" horiz-adv-x="644" 
d="M36 153v148l299 408h175v-435h117v-121h-117v-153h-137v153h-337zM373 274v294l-214 -294h214z" />
    <glyph glyph-name="five" unicode="5" horiz-adv-x="602" 
d="M33 199l130 31q4 -55 41.5 -90.5t96.5 -35.5q55 0 92 33.5t37 89.5q0 60 -38 93t-93 33q-73 0 -115 -49q-7 2 -37 12.5t-56.5 20t-35.5 13.5l86 359h391v-120h-297l-41 -169q48 45 133 45q108 0 175 -63t67 -173q0 -103 -73.5 -173.5t-194.5 -70.5q-112 0 -185.5 63
t-82.5 151z" />
    <glyph glyph-name="six" unicode="6" horiz-adv-x="634" 
d="M583 689l-39 -112q-64 27 -119 27q-99 0 -164 -59t-75 -159q22 36 68 59.5t109 23.5q107 0 173.5 -64.5t66.5 -172.5q0 -110 -77.5 -178.5t-193.5 -68.5q-121 0 -202.5 84.5t-81.5 241.5q0 189 107 301t278 112q96 0 150 -35zM200 228q0 -55 39 -90.5t93 -35.5
q56 0 94.5 34.5t38.5 91.5t-39 92.5t-94 35.5q-56 0 -94 -35t-38 -93z" />
    <glyph glyph-name="seven" unicode="7" horiz-adv-x="542" 
d="M537 709v-119q-255 -220 -288 -590h-143q20 242 148 440q55 86 124 149h-373v120h532z" />
    <glyph glyph-name="eight" unicode="8" horiz-adv-x="617" 
d="M308 -15q-119 0 -191.5 58t-72.5 147q0 59 35.5 106t91.5 67q-50 17 -80.5 63t-30.5 97q0 88 70 144.5t178 56.5t178.5 -56.5t70.5 -144.5q0 -50 -31 -96t-81 -64q57 -21 92.5 -67.5t35.5 -105.5q0 -89 -72.5 -147t-192.5 -58zM308 414q51 2 81.5 30t30.5 70
q0 40 -31 67.5t-81 27.5t-80.5 -27.5t-30.5 -67.5q0 -42 30 -70t81 -30zM308 100q60 0 94 30t34 74q0 45 -34 75.5t-94 30.5t-93.5 -30.5t-33.5 -75.5q0 -43 34 -73.5t93 -30.5z" />
    <glyph glyph-name="nine" unicode="9" horiz-adv-x="635" 
d="M434 481q0 55 -38.5 90t-91.5 35q-54 0 -92 -35t-38 -90q0 -57 37.5 -91.5t92.5 -34.5q53 0 91.5 35.5t38.5 90.5zM59 24l36 112q54 -30 127 -30q105 0 165 56t65 156q-21 -35 -66 -57t-103 -22q-101 0 -172.5 65t-71.5 173t76.5 177.5t191.5 69.5q120 0 200.5 -86
t80.5 -246q0 -194 -93.5 -300.5t-271.5 -106.5q-45 0 -91.5 10.5t-72.5 28.5z" />
    <glyph glyph-name="colon" unicode=":" horiz-adv-x="312" 
d="M67 82q0 38 26 64t63 26q38 0 64.5 -26t26.5 -64q0 -37 -26.5 -63t-64.5 -26q-37 0 -63 26t-26 63zM66 409q0 38 26 64t63 26q38 0 64.5 -26t26.5 -64q0 -37 -26.5 -63t-64.5 -26q-37 0 -63 26t-26 63z" />
    <glyph glyph-name="semicolon" unicode=";" horiz-adv-x="314" 
d="M68 75q0 34 24.5 57t61.5 23q44 0 69 -31t25 -78q0 -96 -51.5 -148.5t-115.5 -59.5v61q35 8 62.5 37t27.5 66q-7 -6 -24 -6q-35 0 -57 22.5t-22 56.5zM67 409q0 38 26 64t63 26q38 0 64.5 -26t26.5 -64q0 -37 -26.5 -63t-64.5 -26q-37 0 -63 26t-26 63z" />
    <glyph glyph-name="less" unicode="&#x3c;" horiz-adv-x="497" 
d="M35 284v101l430 217v-123l-296 -143l296 -143v-125z" />
    <glyph glyph-name="equal" unicode="=" horiz-adv-x="603" 
d="M544 381h-485v107h485v-107zM544 182h-485v108h485v-108z" />
    <glyph glyph-name="greater" unicode="&#x3e;" horiz-adv-x="497" 
d="M462 385v-100l-430 -217v123l296 143l-296 143v125z" />
    <glyph glyph-name="question" unicode="?" horiz-adv-x="529" 
d="M303 216h-108q-4 17 -4 41q0 85 79 145l48 36q43 31 43 79q0 37 -26 63.5t-74 26.5q-50 0 -76 -33.5t-26 -79.5q0 -21 4 -32l-126 5q-5 19 -5 45q0 86 61.5 149t167.5 63q110 0 173 -59t63 -140q0 -106 -99 -177l-41 -29q-54 -39 -54 -97v-6zM172 71q0 33 23 56.5
t56 23.5t56.5 -23.5t23.5 -56.5t-23.5 -56t-56.5 -23t-56 23t-23 56z" />
    <glyph glyph-name="at" unicode="@" horiz-adv-x="827" 
d="M589 139q-40 0 -65 17t-32 44q-18 -30 -49.5 -46.5t-66.5 -16.5q-66 0 -109 48.5t-43 124.5q0 97 58 161t139 64q32 0 59 -14.5t38 -42.5l8 44h95l-52 -245q-2 -14 -2 -18q0 -14 8.5 -23.5t23.5 -9.5q38 0 68 49.5t30 119.5q0 106 -73.5 172.5t-190.5 66.5
q-127 0 -210 -83.5t-83 -217.5q0 -127 81.5 -209.5t219.5 -82.5q107 0 184 59l48 -68q-40 -36 -105.5 -58t-126.5 -22q-177 0 -289.5 105t-112.5 274q0 171 114 282.5t279 111.5q154 0 257 -94t103 -235q0 -111 -60.5 -183t-142.5 -74zM496 366q0 37 -17.5 58t-50.5 21
q-44 0 -72.5 -37t-28.5 -89q0 -92 71 -92q42 0 69 39t29 100z" />
    <glyph glyph-name="A" unicode="A" horiz-adv-x="722" 
d="M562 0l-59 162h-288l-59 -162h-146l272 709h160l270 -709h-150zM359 556l-98 -268h196z" />
    <glyph glyph-name="B" unicode="B" horiz-adv-x="610" 
d="M81 709h255q101 0 158.5 -53.5t57.5 -137.5q0 -54 -28.5 -95.5t-74.5 -56.5q53 -12 89 -58.5t36 -109.5q0 -87 -60 -142.5t-159 -55.5h-274v709zM217 416h98q48 0 74.5 23.5t26.5 65.5t-26 65t-76 23h-97v-177zM217 115h112q51 0 79 24.5t28 67.5t-27.5 69t-77.5 26h-114
v-187z" />
    <glyph glyph-name="C" unicode="C" horiz-adv-x="764" 
d="M402 -15q-152 0 -257.5 102t-105.5 267t106.5 267.5t254.5 102.5q137 0 218.5 -68.5t106.5 -166.5l-130 -41q-14 59 -62 101t-133 42q-88 0 -153 -62t-65 -175q0 -108 64.5 -171t155.5 -63q83 0 133 43.5t66 101.5l129 -39q-10 -43 -34.5 -83.5t-63.5 -77t-99 -58.5
t-131 -22z" />
    <glyph glyph-name="D" unicode="D" horiz-adv-x="724" 
d="M219 128h110q93 0 153 57.5t60 168.5q0 110 -60 168.5t-152 58.5h-111v-453zM334 0h-253v709h254q155 0 252.5 -95t97.5 -260q0 -164 -98 -259t-253 -95z" />
    <glyph glyph-name="E" unicode="E" horiz-adv-x="582" 
d="M525 0h-444v709h444v-130h-306v-162h277v-123h-277v-164h306v-130z" />
    <glyph glyph-name="F" unicode="F" horiz-adv-x="562" 
d="M220 0h-139v709h448v-131h-310v-175h276v-127h-275v-276z" />
    <glyph glyph-name="G" unicode="G" horiz-adv-x="781" 
d="M723 0h-112l-9 81q-27 -41 -80.5 -68.5t-128.5 -27.5q-148 0 -251 101t-103 268q0 166 106.5 268t256.5 102q130 0 212 -63t112 -155l-132 -47q-16 55 -64.5 95.5t-127.5 40.5q-90 0 -156.5 -62t-66.5 -179q0 -115 64.5 -179t159.5 -64q88 0 135 44t55 94h-224v120h354
v-369z" />
    <glyph glyph-name="H" unicode="H" horiz-adv-x="748" 
d="M667 0h-139v294h-309v-294h-138v709h138v-285h309v285h139v-709z" />
    <glyph glyph-name="I" unicode="I" horiz-adv-x="302" 
d="M221 0h-140v709h140v-709z" />
    <glyph glyph-name="J" unicode="J" horiz-adv-x="557" 
d="M20 216v47l133 24v-65q1 -53 27.5 -79.5t70.5 -26.5t69 27.5t25 75.5v490h138v-490q0 -98 -64.5 -166t-166.5 -68q-105 0 -168.5 63.5t-63.5 167.5z" />
    <glyph glyph-name="K" unicode="K" horiz-adv-x="698" 
d="M513 0l-206 294l-88 -97v-197h-138v709h138v-321l284 321h181l-281 -309l283 -400h-173z" />
    <glyph glyph-name="L" unicode="L" horiz-adv-x="560" 
d="M535 0h-454v709h138v-577h316v-132z" />
    <glyph glyph-name="M" unicode="M" horiz-adv-x="953" 
d="M872 0h-136v497l-204 -497h-115l-204 493v-493h-132v709h182l213 -512l208 512h188v-709z" />
    <glyph glyph-name="N" unicode="N" horiz-adv-x="767" 
d="M686 0h-145l-322 503v-503h-138v709h172l295 -469v469h138v-709z" />
    <glyph glyph-name="O" unicode="O" horiz-adv-x="807" 
d="M182 355q0 -113 66 -174.5t155 -61.5q90 0 156 61.5t66 174.5t-66 174.5t-156 61.5q-89 0 -155 -61.5t-66 -174.5zM39 354q0 166 107 268t257 102q151 0 258 -102t107 -268q0 -165 -107 -267t-258 -102q-150 0 -257 102t-107 267z" />
    <glyph glyph-name="P" unicode="P" horiz-adv-x="606" 
d="M220 386h109q51 0 81 27.5t30 73.5q0 48 -29.5 75t-81.5 27h-109v-203zM346 267h-127v-267h-138v709h265q104 0 168.5 -62t64.5 -159t-64.5 -159t-168.5 -62z" />
    <glyph glyph-name="Q" unicode="Q" horiz-adv-x="807" 
d="M39 354q0 166 107 268t257 102q151 0 258 -102t107 -268q0 -145 -87 -245l85 -94l-91 -78l-87 96q-87 -48 -185 -48q-150 0 -257 102t-107 267zM182 355q0 -113 66 -174.5t155 -61.5q49 0 91 18l-111 122l92 79l111 -124q39 58 39 141q0 113 -66 174.5t-156 61.5
q-89 0 -155 -61.5t-66 -174.5z" />
    <glyph glyph-name="R" unicode="R" 
d="M431 0l-139 273h-72v-273h-139v709h277q102 0 164 -62t62 -156q0 -74 -40.5 -127.5t-110.5 -73.5l152 -290h-154zM220 392h112q53 0 82 26.5t29 71.5q0 46 -29 72.5t-82 26.5h-112v-197z" />
    <glyph glyph-name="S" unicode="S" horiz-adv-x="604" 
d="M558 540l-124 -38q-8 40 -38 70t-91 30q-49 0 -80 -26.5t-31 -63.5q0 -64 77 -80l99 -19q94 -18 146 -75.5t52 -133.5q0 -88 -69.5 -153.5t-186.5 -65.5q-67 0 -121 20t-87 53.5t-51.5 71t-22.5 77.5l128 34q4 -56 44 -94.5t111 -38.5q55 0 85 24t30 63q0 31 -22.5 53.5
t-63.5 30.5l-99 20q-86 18 -136 70.5t-50 132.5q0 93 73 157.5t174 64.5q116 0 177.5 -55.5t76.5 -128.5z" />
    <glyph glyph-name="T" unicode="T" horiz-adv-x="619" 
d="M603 578h-224v-578h-139v578h-224v131h587v-131z" />
    <glyph glyph-name="U" unicode="U" horiz-adv-x="693" 
d="M346 -16q-118 0 -195 70.5t-77 196.5v458h138v-448q0 -69 35.5 -105.5t98.5 -36.5q64 0 99.5 36.5t35.5 105.5v448h138v-458q0 -126 -77 -196.5t-196 -70.5z" />
    <glyph glyph-name="V" unicode="V" horiz-adv-x="687" 
d="M346 182l185 527h146l-263 -709h-142l-262 709h151z" />
    <glyph glyph-name="W" unicode="W" horiz-adv-x="1027" 
d="M746 219l128 490h141l-196 -709h-142l-162 505l-162 -505h-144l-197 709h146l130 -488l157 488h143z" />
    <glyph glyph-name="X" unicode="X" horiz-adv-x="669" 
d="M651 709l-232 -355l233 -354h-167l-153 245l-154 -245h-162l233 355l-232 354h166l152 -245l155 245h161z" />
    <glyph glyph-name="Y" unicode="Y" horiz-adv-x="655" 
d="M257 298l-247 411h162l159 -281l159 281h155l-250 -411v-298h-138v298z" />
    <glyph glyph-name="Z" unicode="Z" horiz-adv-x="640" 
d="M597 0h-558v134l369 444h-356v131h540v-129l-375 -448h380v-132z" />
    <glyph glyph-name="bracketleft" unicode="[" horiz-adv-x="317" 
d="M312 -164h-231v974h231v-101h-120v-770h120v-103z" />
    <glyph glyph-name="backslash" unicode="\" horiz-adv-x="476" 
d="M354 -9l-354 727h123l353 -727h-122z" />
    <glyph glyph-name="bracketright" unicode="]" horiz-adv-x="317" 
d="M236 -164h-231v103h119v770h-119v101h231v-974z" />
    <glyph glyph-name="asciicircum" unicode="^" horiz-adv-x="530" 
d="M514 351h-125l-123 231l-123 -231h-127l198 358h102z" />
    <glyph glyph-name="underscore" unicode="_" horiz-adv-x="523" 
d="M517 -109h-511v109h511v-109z" />
    <glyph glyph-name="grave" unicode="`" horiz-adv-x="296" 
d="M162 551l-136 150h154l90 -150h-108z" />
    <glyph glyph-name="a" unicode="a" horiz-adv-x="539" 
d="M41 134q0 63 40.5 101t106.5 48l121 18q37 5 37 35q0 28 -21.5 46t-61.5 18q-42 0 -66.5 -23t-27.5 -57l-118 25q7 64 62.5 113t148.5 49q110 0 162 -52.5t52 -134.5v-242q0 -44 6 -78h-122q-5 22 -5 59q-47 -73 -145 -73q-76 0 -122.5 44t-46.5 104zM238 85
q47 0 77.5 26.5t30.5 87.5v22l-111 -17q-61 -9 -61 -62q0 -24 17 -40.5t47 -16.5z" />
    <glyph glyph-name="b" unicode="b" horiz-adv-x="612" 
d="M200 0h-129v724h131v-286q19 28 58 47.5t91 19.5q106 0 166.5 -72t60.5 -185t-64 -186.5t-168 -73.5q-101 0 -146 72v-60zM445 247q0 66 -34.5 102.5t-87.5 36.5t-88 -36.5t-35 -102.5q0 -64 35.5 -102t87.5 -38q53 0 87.5 37t34.5 103z" />
    <glyph glyph-name="c" unicode="c" horiz-adv-x="550" 
d="M292 384q-53 0 -89 -37t-36 -101t36.5 -101.5t89.5 -37.5q47 0 75 24.5t38 58.5l117 -39q-17 -68 -78 -117t-152 -49q-110 0 -184.5 74.5t-74.5 186.5q0 113 73 187t182 74q94 0 154 -48.5t77 -117.5l-119 -40q-10 35 -37 59t-72 24z" />
    <glyph glyph-name="d" unicode="d" horiz-adv-x="613" 
d="M540 724v-635q0 -62 4 -89h-127q-5 18 -5 57q-41 -69 -138 -69q-105 0 -172.5 73.5t-67.5 185.5q0 109 66.5 183t169.5 74q57 0 92 -18.5t47 -42.5v281h131zM168 247q0 -65 34 -102.5t88 -37.5q53 0 87 38t34 103q0 64 -34 100.5t-87 36.5t-87.5 -37t-34.5 -101z" />
    <glyph glyph-name="e" unicode="e" horiz-adv-x="553" 
d="M168 302h220q-3 41 -30 69t-80 28q-48 0 -77.5 -30t-32.5 -67zM401 174l111 -33q-19 -68 -78.5 -112t-145.5 -44q-106 0 -180 71.5t-74 191.5q0 114 72 186.5t170 72.5q114 0 178.5 -67.5t64.5 -187.5q0 -8 -0.5 -17.5t-1 -16t-0.5 -7.5h-352q2 -48 38 -80t86 -32
q85 0 112 75z" />
    <glyph glyph-name="f" unicode="f" horiz-adv-x="356" 
d="M299 614q-28 0 -48.5 -15.5t-20.5 -52.5v-54h111v-114h-111v-378h-134v378h-82v114h82v56q0 83 48.5 133t130.5 50q44 0 66 -10v-112q-12 5 -42 5z" />
    <glyph glyph-name="g" unicode="g" horiz-adv-x="597" 
d="M36 -27l120 32q7 -42 37.5 -67.5t77.5 -25.5q131 0 131 137v36q-39 -63 -137 -63t-163.5 68t-65.5 171q0 100 64.5 170t164.5 70q105 0 140 -67v58h128v-439q0 -111 -64 -184.5t-194 -73.5q-98 0 -163.5 52t-75.5 126zM288 136q51 0 83.5 34t32.5 91q0 56 -33.5 90
t-82.5 34q-51 0 -84.5 -34t-33.5 -90q0 -57 33 -91t85 -34z" />
    <glyph glyph-name="h" unicode="h" horiz-adv-x="584" 
d="M204 289v-289h-133v724h133v-273q44 54 133 54q90 0 136.5 -54.5t46.5 -140.5v-310h-133v287q0 44 -22.5 71t-68.5 27q-41 0 -65.5 -26.5t-26.5 -69.5z" />
    <glyph glyph-name="i" unicode="i" horiz-adv-x="275" 
d="M204 0h-133v492h133v-492zM55 653q0 35 24 59t58 24q35 0 58.5 -24t23.5 -59q0 -33 -23.5 -57t-58.5 -24q-34 0 -58 24t-24 57z" />
    <glyph glyph-name="j" unicode="j" horiz-adv-x="275" 
d="M71 -30v522h133v-535q0 -72 -41.5 -117t-112.5 -45q-49 0 -75 11v111q15 -5 41 -5q55 0 55 58zM55 654q0 35 24 59t58 24q35 0 58.5 -24t23.5 -59q0 -34 -23.5 -57.5t-58.5 -23.5q-34 0 -58 23.5t-24 57.5z" />
    <glyph glyph-name="k" unicode="k" horiz-adv-x="559" 
d="M548 492l-197 -207l201 -285h-163l-130 188l-55 -58v-130h-133v724h133v-415l170 183h174z" />
    <glyph glyph-name="l" unicode="l" horiz-adv-x="275" 
d="M204 0h-133v724h133v-724z" />
    <glyph glyph-name="m" unicode="m" horiz-adv-x="886" 
d="M204 0h-133v492h127v-60q19 34 60 54t84 20q107 0 146 -82q53 82 156 82q75 0 126.5 -47t51.5 -140v-319h-129v292q0 42 -21.5 67.5t-65.5 25.5q-41 0 -66 -28t-25 -69v-288h-132v292q0 42 -22 67.5t-65 25.5t-67.5 -27t-24.5 -70v-288z" />
    <glyph glyph-name="n" unicode="n" horiz-adv-x="584" 
d="M204 283v-283h-133v492h129v-61q22 36 61 55t81 19q88 0 133 -54.5t45 -140.5v-310h-133v287q0 44 -22.5 71t-68.5 27q-43 0 -67.5 -29t-24.5 -73z" />
    <glyph glyph-name="o" unicode="o" horiz-adv-x="584" 
d="M292 106q52 0 88.5 37t36.5 103t-36.5 103t-88.5 37t-88.5 -37t-36.5 -103t36.5 -103t88.5 -37zM292 507q111 0 184.5 -73.5t73.5 -187.5q0 -113 -73.5 -187t-184.5 -74t-184.5 74t-73.5 187q0 114 73.5 187.5t184.5 73.5z" />
    <glyph glyph-name="p" unicode="p" horiz-adv-x="612" 
d="M204 -190h-133v682h129v-60q18 31 57.5 51t93.5 20q105 0 166 -71.5t61 -184.5t-64 -186t-168 -73q-98 0 -142 60v-238zM447 246q0 64 -34.5 101t-87.5 37t-88 -37.5t-35 -100.5t35 -101t88 -38t87.5 37.5t34.5 101.5z" />
    <glyph glyph-name="q" unicode="q" horiz-adv-x="608" 
d="M541 -190h-130v239q-38 -61 -137 -61q-104 0 -172 73.5t-68 185.5q0 110 65.5 183.5t170.5 73.5q58 0 94.5 -21.5t49.5 -47.5v57h127v-682zM168 247q0 -64 34.5 -102t87.5 -38t87.5 38t34.5 102t-34.5 101t-87.5 37t-87.5 -37t-34.5 -101z" />
    <glyph glyph-name="r" unicode="r" horiz-adv-x="391" 
d="M371 494v-134q-17 4 -40 4q-57 0 -92 -32.5t-35 -106.5v-225h-133v492h129v-73q36 77 140 77q9 0 31 -2z" />
    <glyph glyph-name="s" unicode="s" horiz-adv-x="461" 
d="M29 137l114 25q2 -32 25 -53.5t65 -21.5q32 0 48.5 14t16.5 35q0 37 -53 48l-65 15q-69 15 -103.5 54t-34.5 93q0 67 52.5 114t131.5 47q93 0 140.5 -45.5t52.5 -96.5l-111 -25q-11 66 -81 66q-26 0 -44.5 -14t-18.5 -35q0 -36 45 -44l70 -15q71 -15 108.5 -55t37.5 -96
q0 -66 -50 -114t-141 -48q-52 0 -93 15.5t-63.5 40t-34.5 49t-14 47.5z" />
    <glyph glyph-name="t" unicode="t" horiz-adv-x="373" 
d="M235 639v-147h99v-118h-99v-206q0 -31 14 -44t44 -13q32 0 41 4v-110q-29 -12 -75 -12q-72 0 -114 40t-42 112v229h-89v118h25q37 0 56.5 21.5t19.5 56.5v69h120z" />
    <glyph glyph-name="u" unicode="u" horiz-adv-x="586" 
d="M520 0h-127q-4 15 -4 53q-38 -66 -136 -66q-87 0 -137 55.5t-50 138.5v311h133v-284q0 -45 22.5 -72t67.5 -27q44 0 68.5 26.5t24.5 70.5v286h133v-403q0 -61 5 -89z" />
    <glyph glyph-name="v" unicode="v" horiz-adv-x="545" 
d="M535 492l-191 -492h-133l-201 492h146l122 -330l117 330h140z" />
    <glyph glyph-name="w" unicode="w" horiz-adv-x="831" 
d="M350 492h140l106 -317l91 317h132l-154 -492h-133l-115 336l-113 -336h-135l-157 492h140l91 -316z" />
    <glyph glyph-name="x" unicode="x" horiz-adv-x="532" 
d="M12 0l175 247l-175 245h158q8 -14 49 -73.5t49 -72.5l97 146h151l-172 -241l178 -251h-156l-103 151q-73 -105 -101 -151h-150z" />
    <glyph glyph-name="y" unicode="y" horiz-adv-x="560" 
d="M241 -194h-141l116 256l-209 430h149l131 -288l121 288h142z" />
    <glyph glyph-name="z" unicode="z" horiz-adv-x="481" 
d="M444 0h-407v117l233 260h-227v115h397v-111l-240 -265h244v-116z" />
    <glyph glyph-name="braceleft" unicode="{" horiz-adv-x="375" 
d="M45 271v111q100 0 100 93v142q0 97 50.5 145t143.5 48h31v-101h-30q-83 0 -83 -89v-168q0 -48 -26.5 -80.5t-74.5 -45.5q48 -12 74.5 -45t26.5 -81v-167q0 -90 83 -90h30v-101h-31q-93 0 -143.5 48.5t-50.5 145.5v142q0 93 -100 93z" />
    <glyph glyph-name="bar" unicode="|" horiz-adv-x="273" 
d="M192 -158h-111v968h111v-968z" />
    <glyph glyph-name="braceright" unicode="}" horiz-adv-x="375" 
d="M330 382v-111q-101 0 -101 -93v-142q0 -97 -50.5 -145.5t-142.5 -48.5h-31v101h29q84 0 84 90v167q0 48 26 81t74 45q-100 27 -100 126v168q0 89 -84 89h-29v101h31q92 0 142.5 -48t50.5 -145v-142q0 -93 101 -93z" />
    <glyph glyph-name="asciitilde" unicode="~" horiz-adv-x="583" 
d="M286 273l-47 26q-25 13 -50 13q-55 0 -89 -52l-74 59q57 105 166 105q52 0 104 -28l47 -26q22 -14 53 -14q54 0 88 51l73 -59q-57 -104 -165 -104q-55 0 -106 29z" />
    <glyph glyph-name="uni00A0" unicode="&#xa0;" horiz-adv-x="247" 
 />
    <glyph glyph-name="exclamdown" unicode="&#xa1;" horiz-adv-x="302" 
d="M200 283l31 -493h-160l32 493h97zM72 428q0 32 23 55.5t56 23.5q32 0 55.5 -23.5t23.5 -55.5q0 -33 -23.5 -56.5t-55.5 -23.5q-33 0 -56 23.5t-23 56.5z" />
    <glyph glyph-name="cent" unicode="&#xa2;" horiz-adv-x="597" 
d="M437 293l113 -39q-17 -57 -67 -103t-123 -57v-94h-111v98q-89 20 -145 91t-56 165q0 98 56.5 167.5t144.5 87.5v100h111v-97q76 -11 122 -55.5t64 -105.5l-114 -38q-27 87 -121 87q-61 0 -98 -41t-37 -105t37 -105.5t98 -41.5q97 0 126 86z" />
    <glyph glyph-name="sterling" unicode="&#xa3;" horiz-adv-x="646" 
d="M71 404h69q-23 61 -23 111q0 86 63.5 147.5t163.5 61.5q61 0 107 -18.5t71 -49.5t37.5 -64.5t13.5 -69.5l-125 -20q-1 53 -27.5 80.5t-74.5 27.5q-40 0 -69 -25.5t-29 -71.5q0 -42 28 -109h202v-106h-169q1 -9 1 -25q0 -106 -85 -155h183q44 0 68.5 27.5t24.5 70.5
l122 -12q0 -89 -52.5 -146.5t-138.5 -57.5h-366v116q55 20 86 58t31 85q0 14 -5 39h-107v106z" />
    <glyph glyph-name="currency" unicode="&#xa4;" horiz-adv-x="638" 
d="M87 325q0 64 34 121l-80 82l82 81l81 -83q53 31 118 31q64 0 114 -29l79 81l82 -81l-77 -79q37 -56 37 -124t-36 -123l76 -77l-81 -80l-78 78q-55 -30 -116 -30q-66 0 -119 33l-81 -81l-81 80l79 81q-33 54 -33 119zM199 325q0 -53 35.5 -87.5t87.5 -34.5t86.5 34
t34.5 88q0 53 -34.5 87.5t-86.5 34.5q-54 0 -88.5 -34t-34.5 -88z" />
    <glyph glyph-name="yen" unicode="&#xa5;" horiz-adv-x="660" 
d="M589 153h-191v-153h-131v153h-186v96h186v79h-186v96h117l-173 284h154l156 -272l151 272h149l-171 -284h125v-96h-191v-79h191v-96z" />
    <glyph glyph-name="brokenbar" unicode="&#xa6;" horiz-adv-x="273" 
d="M81 810h111v-398h-111v398zM81 240h111v-398h-111v398z" />
    <glyph glyph-name="section" unicode="&#xa7;" horiz-adv-x="561" 
d="M491 251q0 -81 -77 -125q77 -56 77 -143q0 -85 -63.5 -138.5t-148.5 -53.5q-97 0 -152.5 50.5t-59.5 136.5l125 21q0 -47 23.5 -71t64.5 -24q34 0 55.5 19t21.5 51q0 38 -44 62l-102 53q-67 33 -104 73t-37 102q0 81 77 125q-77 56 -77 143q0 85 64 138.5t149 53.5
q95 0 151 -51.5t60 -135.5l-126 -21q0 47 -23 71t-63 24q-35 0 -56.5 -19.5t-21.5 -50.5q0 -42 44 -62l101 -52q69 -37 105.5 -75t36.5 -101zM326 292l-102 54q-32 -25 -32 -57q0 -44 43 -66l102 -54q32 25 32 57q0 43 -43 66z" />
    <glyph glyph-name="dieresis" unicode="&#xa8;" horiz-adv-x="405" 
d="M27 628q0 29 20.5 50t49.5 21t50 -21t21 -50t-21 -49.5t-50 -20.5t-49.5 20.5t-20.5 49.5zM237 628q0 30 20 50.5t50 20.5q29 0 50 -21t21 -50t-21 -49.5t-50 -20.5q-30 0 -50 20.5t-20 49.5z" />
    <glyph glyph-name="copyright" unicode="&#xa9;" horiz-adv-x="816" 
d="M124 354q0 -122 82 -206.5t201 -84.5t201 84.5t82 206.5q0 123 -82 207.5t-201 84.5t-201 -84.5t-82 -207.5zM39 354q0 153 107.5 262t260.5 109t261.5 -109t108.5 -262q0 -152 -108.5 -261t-261.5 -109t-260.5 108.5t-107.5 261.5zM411 458q-41 0 -68 -27.5t-27 -77.5
q0 -49 27.5 -77.5t68.5 -28.5q36 0 57.5 19t28.5 45l89 -30q-13 -52 -59 -89t-116 -37q-83 0 -140 56.5t-57 141.5q0 86 56 142.5t138 56.5q71 0 117 -37t59 -89l-91 -31q-18 63 -83 63z" />
    <glyph glyph-name="ordfeminine" unicode="&#xaa;" horiz-adv-x="423" 
d="M55 457q0 86 103 104l83 14q25 4 25 24q0 17 -14 28t-39 11q-28 0 -44 -15t-18 -37l-89 18q3 43 43 79t108 36q79 0 115.5 -37t36.5 -96v-170q0 -36 5 -54h-93q-3 15 -3 40q-33 -50 -100 -50q-54 0 -86.5 31.5t-32.5 73.5zM198 426q68 0 68 73v16l-70 -11q-40 -5 -40 -41
q0 -15 11 -26t31 -11z" />
    <glyph glyph-name="guillemotleft" unicode="&#xab;" horiz-adv-x="524" 
d="M290 101h-126l-137 194l138 197h125l-136 -198zM506 101h-126l-136 194l137 197h126l-137 -198z" />
    <glyph glyph-name="logicalnot" unicode="&#xac;" horiz-adv-x="590" 
d="M534 176h-114v195h-375v110h489v-305z" />
    <glyph glyph-name="uni00AD" unicode="&#xad;" horiz-adv-x="380" 
d="M335 238h-290v118h290v-118z" />
    <glyph glyph-name="registered" unicode="&#xae;" horiz-adv-x="816" 
d="M39 354q0 153 107.5 262t260.5 109t261.5 -109t108.5 -262q0 -152 -108.5 -261t-261.5 -109t-260.5 108.5t-107.5 261.5zM124 354q0 -122 82 -206.5t201 -84.5t201 84.5t82 206.5q0 123 -82 207.5t-201 84.5t-201 -84.5t-82 -207.5zM467 157l-69 139h-29v-139h-95v400
h158q58 0 97.5 -38t39.5 -92q0 -39 -20.5 -70t-56.5 -46l80 -154h-105zM369 374h46q27 0 42.5 14t15.5 38q0 25 -15.5 39t-42.5 14h-46v-105z" />
    <glyph glyph-name="macron" unicode="&#xaf;" horiz-adv-x="335" 
d="M308 577h-281v97h281v-97z" />
    <glyph glyph-name="degree" unicode="&#xb0;" horiz-adv-x="373" 
d="M120 559q0 -32 19 -51t47 -19q29 0 47.5 19.5t18.5 50.5t-18.5 50t-47.5 19q-28 0 -47 -19.5t-19 -49.5zM20 559q0 68 49 116t117 48t117.5 -48t49.5 -116q0 -69 -49.5 -116t-117.5 -47q-69 0 -117.5 47t-48.5 116z" />
    <glyph glyph-name="plusminus" unicode="&#xb1;" horiz-adv-x="592" 
d="M62 461h178v123h112v-123h178v-108h-178v-123h-112v123h-178v108zM62 193h468v-109h-468v109z" />
    <glyph glyph-name="twosuperior" unicode="&#xb2;" horiz-adv-x="394" 
d="M149 565l-91 -1q-4 9 -4 29q0 54 37.5 89t106.5 35q66 0 104 -35t38 -87q0 -64 -79 -112l-70 -42q-12 -7 -12 -15h164v-85h-291v12q0 105 89 157l60 35q38 23 38 51q0 16 -11 27.5t-31 11.5q-23 0 -37 -13.5t-14 -38.5q0 -9 3 -18z" />
    <glyph glyph-name="threesuperior" unicode="&#xb3;" horiz-adv-x="411" 
d="M51 448l91 21q2 -24 18.5 -38.5t42.5 -14.5q24 0 39 12.5t15 31.5q0 22 -15.5 33.5t-37.5 11.5q-18 0 -32 -6l-33 68l87 59h-161v83h284v-82l-90 -61q47 -6 74 -33.5t27 -74.5q0 -52 -43 -88.5t-114 -36.5q-64 0 -105 33.5t-47 81.5z" />
    <glyph glyph-name="acute" unicode="&#xb4;" horiz-adv-x="295" 
d="M269 701l-136 -150h-107l91 150h152z" />
    <glyph glyph-name="mu" unicode="&#xb5;" horiz-adv-x="594" 
d="M526 0h-127q-4 15 -4 53q-38 -66 -136 -66q-33 0 -54 7v-184h-133v682h133v-284q0 -45 22.5 -72t67.5 -27q44 0 68.5 26.5t24.5 70.5v286h133v-403q0 -67 5 -89z" />
    <glyph glyph-name="paragraph" unicode="&#xb6;" horiz-adv-x="666" 
d="M351 607v-801h-104v495h-17q-84 0 -144 58.5t-60 141.5q0 97 68 152.5t169 55.5h387v-102h-97v-801h-106v801h-96z" />
    <glyph glyph-name="periodcentered" unicode="&#xb7;" horiz-adv-x="288" 
d="M61 309q0 36 25 60.5t61 24.5t61 -24.5t25 -60.5t-25 -60t-61 -24t-61 24t-25 60z" />
    <glyph glyph-name="cedilla" unicode="&#xb8;" horiz-adv-x="298" 
d="M119 -108l-36 45l48 76h83l-39 -61q43 -1 70 -24.5t27 -61.5t-32 -66.5t-96 -28.5q-39 0 -71 15.5t-48 36.5l43 54q37 -37 75 -37q41 0 41 28q0 12 -10.5 20t-27.5 8q-16 0 -27 -4z" />
    <glyph glyph-name="onesuperior" unicode="&#xb9;" horiz-adv-x="303" 
d="M232 342h-103v223h-91v66q44 0 70 23.5t33 54.5h91v-367z" />
    <glyph glyph-name="ordmasculine" unicode="&#xba;" horiz-adv-x="482" 
d="M242 445q34 0 57.5 23.5t23.5 67.5q0 43 -23.5 66.5t-57.5 23.5t-57.5 -23.5t-23.5 -66.5q0 -44 23.5 -67.5t57.5 -23.5zM242 719q78 0 130.5 -51.5t52.5 -131.5t-52.5 -132t-130.5 -52q-79 0 -131.5 52t-52.5 132t52.5 131.5t131.5 51.5z" />
    <glyph glyph-name="guillemotright" unicode="&#xbb;" horiz-adv-x="524" 
d="M360 101h-126l136 193l-136 198h125l138 -197zM144 101h-126l135 193l-136 198h125l138 -197z" />
    <glyph glyph-name="onequarter" unicode="&#xbc;" horiz-adv-x="809" 
d="M232 342h-103v223h-91v66q44 0 70 23.5t33 54.5h91v-367zM419 71v99l169 198h109v-218h61v-79h-61v-71h-100v71h-178zM597 150v114l-97 -114h97zM194 0h-116l500 709h116z" />
    <glyph glyph-name="onehalf" unicode="&#xbd;" horiz-adv-x="823" 
d="M232 342h-103v223h-91v66q44 0 70 23.5t33 54.5h91v-367zM194 0h-116l500 709h116zM578 224l-91 -1q-4 9 -4 29q0 54 37.5 89t106.5 35q66 0 104 -35t38 -87q0 -64 -79 -112l-70 -42q-12 -8 -12 -15h164v-85h-291v12q0 105 89 157l60 35q38 23 38 51q0 16 -11 27.5
t-31 11.5q-24 0 -37.5 -14t-13.5 -38q0 -9 3 -18z" />
    <glyph glyph-name="threequarters" unicode="&#xbe;" horiz-adv-x="876" 
d="M51 448l91 21q2 -24 18.5 -38.5t42.5 -14.5q24 0 39 12.5t15 31.5q0 22 -15.5 33.5t-37.5 11.5q-18 0 -32 -6l-33 68l87 59h-161v83h284v-82l-90 -61q47 -6 74 -33.5t27 -74.5q0 -52 -43 -88.5t-114 -36.5q-64 0 -105 33.5t-47 81.5zM486 71v99l169 198h109v-218h61v-79
h-61v-71h-100v71h-178zM664 150v114l-97 -114h97zM261 0h-116l500 709h116z" />
    <glyph glyph-name="questiondown" unicode="&#xbf;" horiz-adv-x="493" 
d="M206 284h108q3 -20 3 -41q0 -90 -77 -146l-48 -35q-42 -31 -42 -79q0 -38 25.5 -63.5t73.5 -25.5q49 0 76 31.5t27 74.5q0 25 -6 41l128 -12q5 -25 5 -44q0 -86 -61.5 -148t-168.5 -62q-110 0 -172.5 59t-62.5 140q0 111 97 178l41 29q54 37 54 97v6zM179 428
q0 33 23.5 56t56.5 23t56 -23t23 -56t-23 -56t-56 -23t-56.5 23t-23.5 56z" />
    <glyph glyph-name="Agrave" unicode="&#xc0;" horiz-adv-x="722" 
d="M562 0l-59 162h-288l-59 -162h-146l272 709h160l270 -709h-150zM359 556l-98 -268h196zM310 759l-145 127h163l104 -127h-122z" />
    <glyph glyph-name="Aacute" unicode="&#xc1;" horiz-adv-x="722" 
d="M562 0l-59 162h-288l-59 -162h-146l272 709h160l270 -709h-150zM359 556l-98 -268h196zM558 886l-145 -127h-122l103 127h164z" />
    <glyph glyph-name="Acircumflex" unicode="&#xc2;" horiz-adv-x="722" 
d="M562 0l-59 162h-288l-59 -162h-146l272 709h160l270 -709h-150zM359 556l-98 -268h196zM291 759h-121l120 127h136l122 -127h-125l-67 65z" />
    <glyph glyph-name="Atilde" unicode="&#xc3;" horiz-adv-x="722" 
d="M562 0l-59 162h-288l-59 -162h-146l272 709h160l270 -709h-150zM359 556l-98 -268h196zM525 890v-28q0 -53 -28.5 -81.5t-72.5 -28.5q-38 0 -75 24l-6 4q-35 20 -48 20q-29 0 -29 -43h-80v27q0 52 28.5 80.5t72.5 28.5q36 0 76 -23l6 -4q5 -2 16 -8t17.5 -8.5t13.5 -2.5
q29 0 29 31v12h80z" />
    <glyph glyph-name="Adieresis" unicode="&#xc4;" horiz-adv-x="722" 
d="M128 823q0 30 20.5 51t50.5 21q31 0 52 -21t21 -51q0 -31 -21 -51.5t-52 -20.5t-51 20.5t-20 51.5zM446 823q0 30 20.5 51t51.5 21t52 -21t21 -51q0 -31 -21 -51.5t-52 -20.5t-51.5 20.5t-20.5 51.5zM562 0l-59 162h-288l-59 -162h-146l272 709h160l270 -709h-150z
M359 556l-98 -268h196z" />
    <glyph glyph-name="Aring" unicode="&#xc5;" horiz-adv-x="722" 
d="M409 759q0 23 -14.5 37t-35.5 14t-35.5 -14t-14.5 -37t14 -36.5t36 -13.5q21 0 35.5 13.5t14.5 36.5zM359 556l-98 -268h196zM562 0l-59 162h-288l-59 -162h-146l255 664q-42 37 -42 95q0 56 40.5 94t95.5 38t95.5 -38t40.5 -94q0 -53 -38 -91l255 -668h-150z" />
    <glyph glyph-name="AE" unicode="&#xc6;" horiz-adv-x="1060" 
d="M1003 0h-445v167h-274l-107 -167h-169l470 709h524v-130h-305v-162h276v-123h-276v-164h306v-130zM358 283h200v312z" />
    <glyph glyph-name="Ccedilla" unicode="&#xc7;" horiz-adv-x="764" 
d="M370 -108l-36 45l32 50q-140 12 -233.5 112t-93.5 255q0 165 106.5 267.5t254.5 102.5q137 0 218.5 -68.5t106.5 -166.5l-130 -41q-14 59 -62 101t-133 42q-88 0 -153 -62t-65 -175q0 -108 64.5 -171t155.5 -63q83 0 133 43.5t66 101.5l129 -39q-21 -86 -93 -155.5
t-188 -82.5l-23 -36q43 -1 70 -24.5t27 -61.5t-32 -66.5t-96 -28.5q-39 0 -71 15.5t-48 36.5l43 54q37 -37 75 -37q41 0 41 28q0 12 -10.5 20t-27.5 8q-18 0 -27 -4z" />
    <glyph glyph-name="Egrave" unicode="&#xc8;" horiz-adv-x="582" 
d="M273 759l-145 127h163l104 -127h-122zM525 0h-444v709h444v-130h-306v-162h277v-123h-277v-164h306v-130z" />
    <glyph glyph-name="Eacute" unicode="&#xc9;" horiz-adv-x="582" 
d="M491 886l-145 -127h-122l103 127h164zM525 0h-444v709h444v-130h-306v-162h277v-123h-277v-164h306v-130z" />
    <glyph glyph-name="Ecircumflex" unicode="&#xca;" horiz-adv-x="582" 
d="M233 759h-121l120 127h136l122 -127h-125l-67 65zM525 0h-444v709h444v-130h-306v-162h277v-123h-277v-164h306v-130z" />
    <glyph glyph-name="Edieresis" unicode="&#xcb;" horiz-adv-x="582" 
d="M121 823q0 30 20.5 51t50.5 21q31 0 52 -21t21 -51q0 -31 -21 -51.5t-52 -20.5t-51 20.5t-20 51.5zM346 823q0 30 20.5 51t50.5 21q31 0 52 -21t21 -51q0 -31 -21 -51.5t-52 -20.5t-51 20.5t-20 51.5zM525 0h-444v709h444v-130h-306v-162h277v-123h-277v-164h306v-130z
" />
    <glyph glyph-name="Igrave" unicode="&#xcc;" horiz-adv-x="302" 
d="M221 0h-140v709h140v-709zM97 759l-145 127h163l104 -127h-122z" />
    <glyph glyph-name="Iacute" unicode="&#xcd;" horiz-adv-x="302" 
d="M221 0h-140v709h140v-709zM350 886l-145 -127h-122l103 127h164z" />
    <glyph glyph-name="Icircumflex" unicode="&#xce;" horiz-adv-x="302" 
d="M221 0h-140v709h140v-709zM87 759h-121l120 127h136l122 -127h-125l-67 65z" />
    <glyph glyph-name="Idieresis" unicode="&#xcf;" horiz-adv-x="302" 
d="M-12 823q0 30 19.5 50t49.5 20q29 0 50 -20.5t21 -49.5q0 -30 -20.5 -50t-50.5 -20t-49.5 20t-19.5 50zM177 823q0 29 20 49.5t49 20.5q30 0 50.5 -20.5t20.5 -49.5q0 -30 -20.5 -50t-50.5 -20q-29 0 -49 20t-20 50zM221 0h-140v709h140v-709z" />
    <glyph glyph-name="Eth" unicode="&#xd0;" horiz-adv-x="747" 
d="M357 0h-253v315h-88v102h88v292h254q155 0 252.5 -95t97.5 -260q0 -164 -98 -259t-253 -95zM242 128h110q93 0 153 57.5t60 168.5q0 110 -60 168.5t-152 58.5h-111v-164h137v-102h-137v-187z" />
    <glyph glyph-name="Ntilde" unicode="&#xd1;" horiz-adv-x="767" 
d="M555 890v-28q0 -53 -28.5 -81.5t-72.5 -28.5q-38 0 -75 24l-6 4q-35 20 -48 20q-29 0 -29 -43h-80v27q0 52 28.5 80.5t72.5 28.5q36 0 76 -23l6 -4q5 -2 16 -8t17.5 -8.5t13.5 -2.5q29 0 29 31v12h80zM686 0h-145l-322 503v-503h-138v709h172l295 -469v469h138v-709z" />
    <glyph glyph-name="Ograve" unicode="&#xd2;" horiz-adv-x="807" 
d="M346 759l-145 127h163l104 -127h-122zM182 355q0 -113 66 -174.5t155 -61.5q90 0 156 61.5t66 174.5t-66 174.5t-156 61.5q-89 0 -155 -61.5t-66 -174.5zM39 354q0 166 107 268t257 102q151 0 258 -102t107 -268q0 -165 -107 -267t-258 -102q-150 0 -257 102t-107 267z
" />
    <glyph glyph-name="Oacute" unicode="&#xd3;" horiz-adv-x="807" 
d="M600 886l-145 -127h-122l103 127h164zM182 355q0 -113 66 -174.5t155 -61.5q90 0 156 61.5t66 174.5t-66 174.5t-156 61.5q-89 0 -155 -61.5t-66 -174.5zM39 354q0 166 107 268t257 102q151 0 258 -102t107 -268q0 -165 -107 -267t-258 -102q-150 0 -257 102t-107 267z
" />
    <glyph glyph-name="Ocircumflex" unicode="&#xd4;" horiz-adv-x="807" 
d="M336 759h-121l120 127h136l122 -127h-125l-67 65zM182 355q0 -113 66 -174.5t155 -61.5q90 0 156 61.5t66 174.5t-66 174.5t-156 61.5q-89 0 -155 -61.5t-66 -174.5zM39 354q0 166 107 268t257 102q151 0 258 -102t107 -268q0 -165 -107 -267t-258 -102q-150 0 -257 102
t-107 267z" />
    <glyph glyph-name="Otilde" unicode="&#xd5;" horiz-adv-x="807" 
d="M571 890v-28q0 -53 -28.5 -81.5t-72.5 -28.5q-38 0 -75 24l-6 4q-35 20 -48 20q-29 0 -29 -43h-80v27q0 52 28.5 80.5t72.5 28.5q36 0 76 -23l6 -4q5 -2 16 -8t17.5 -8.5t13.5 -2.5q29 0 29 31v12h80zM182 355q0 -113 66 -174.5t155 -61.5q90 0 156 61.5t66 174.5
t-66 174.5t-156 61.5q-89 0 -155 -61.5t-66 -174.5zM39 354q0 166 107 268t257 102q151 0 258 -102t107 -268q0 -165 -107 -267t-258 -102q-150 0 -257 102t-107 267z" />
    <glyph glyph-name="Odieresis" unicode="&#xd6;" horiz-adv-x="807" 
d="M165 823q0 30 20.5 51t51.5 21t52 -21t21 -51q0 -31 -21 -51.5t-52 -20.5t-51.5 20.5t-20.5 51.5zM498 823q0 30 20.5 51t51.5 21q30 0 51 -21t21 -51q0 -31 -21 -51.5t-51 -20.5q-31 0 -51.5 20.5t-20.5 51.5zM182 355q0 -113 66 -174.5t155 -61.5q90 0 156 61.5
t66 174.5t-66 174.5t-156 61.5q-89 0 -155 -61.5t-66 -174.5zM39 354q0 166 107 268t257 102q151 0 258 -102t107 -268q0 -165 -107 -267t-258 -102q-150 0 -257 102t-107 267z" />
    <glyph glyph-name="multiply" unicode="&#xd7;" horiz-adv-x="563" 
d="M447 87l-166 168l-165 -167l-79 79l165 168l-165 168l80 79l164 -167l165 167l80 -78l-166 -169l166 -168z" />
    <glyph glyph-name="Oslash" unicode="&#xd8;" horiz-adv-x="807" 
d="M39 354q0 166 107 268t257 102q99 0 181 -46l70 90l88 -66l-70 -91q96 -102 96 -257q0 -165 -107 -267t-258 -102q-96 0 -181 45l-68 -88l-90 65l71 91q-96 102 -96 256zM182 355q0 -86 40 -144l278 359q-45 21 -97 21q-89 0 -155 -61.5t-66 -174.5zM625 355
q0 86 -40 144l-278 -359q45 -21 96 -21q90 0 156 61.5t66 174.5z" />
    <glyph glyph-name="Ugrave" unicode="&#xd9;" horiz-adv-x="693" 
d="M303 759l-145 127h163l104 -127h-122zM346 -16q-118 0 -195 70.5t-77 196.5v458h138v-448q0 -69 35.5 -105.5t98.5 -36.5q64 0 99.5 36.5t35.5 105.5v448h138v-458q0 -126 -77 -196.5t-196 -70.5z" />
    <glyph glyph-name="Uacute" unicode="&#xda;" horiz-adv-x="693" 
d="M528 886l-145 -127h-122l103 127h164zM346 -16q-118 0 -195 70.5t-77 196.5v458h138v-448q0 -69 35.5 -105.5t98.5 -36.5q64 0 99.5 36.5t35.5 105.5v448h138v-458q0 -126 -77 -196.5t-196 -70.5z" />
    <glyph glyph-name="Ucircumflex" unicode="&#xdb;" horiz-adv-x="693" 
d="M279 759h-121l120 127h136l122 -127h-125l-67 65zM346 -16q-118 0 -195 70.5t-77 196.5v458h138v-448q0 -69 35.5 -105.5t98.5 -36.5q64 0 99.5 36.5t35.5 105.5v448h138v-458q0 -126 -77 -196.5t-196 -70.5z" />
    <glyph glyph-name="Udieresis" unicode="&#xdc;" horiz-adv-x="693" 
d="M155 823q0 30 20.5 51t51.5 21q30 0 51 -21t21 -51q0 -31 -21 -51.5t-51 -20.5q-31 0 -51.5 20.5t-20.5 51.5zM395 823q0 30 20.5 51t51.5 21q30 0 51 -21t21 -51q0 -31 -21 -51.5t-51 -20.5q-31 0 -51.5 20.5t-20.5 51.5zM346 -16q-118 0 -195 70.5t-77 196.5v458h138
v-448q0 -69 35.5 -105.5t98.5 -36.5q64 0 99.5 36.5t35.5 105.5v448h138v-458q0 -126 -77 -196.5t-196 -70.5z" />
    <glyph glyph-name="Yacute" unicode="&#xdd;" horiz-adv-x="655" 
d="M257 298l-247 411h162l159 -281l159 281h155l-250 -411v-298h-138v298zM516 886l-145 -127h-122l103 127h164z" />
    <glyph glyph-name="Thorn" unicode="&#xde;" horiz-adv-x="604" 
d="M220 257h109q51 0 81 27.5t30 73.5q0 48 -29.5 75.5t-81.5 27.5h-109v-204zM342 139h-123v-139h-138v709h138v-129h122q102 0 170 -63.5t68 -157.5t-68 -157t-169 -63z" />
    <glyph glyph-name="germandbls" unicode="&#xdf;" horiz-adv-x="596" 
d="M401 343q0 -9 5.5 -15.5t11 -9.5t20.5 -10l30 -13q52 -21 82 -61t30 -93q0 -59 -45.5 -107.5t-132.5 -48.5q-83 0 -125.5 45t-42.5 98l107 21q0 -24 15.5 -43.5t46.5 -19.5q25 0 39 13.5t14 32.5q0 35 -48 56l-30 12q-110 45 -110 134q0 71 67 116l20 13q49 31 49 72
q0 30 -24 51t-70 21t-77 -32.5t-31 -97.5v-477h-131v486q0 115 69 176.5t170 61.5t163.5 -53t62.5 -130q0 -93 -88 -150l-20 -12q-27 -17 -27 -36z" />
    <glyph glyph-name="agrave" unicode="&#xe0;" horiz-adv-x="539" 
d="M41 134q0 63 40.5 101t106.5 48l121 18q37 5 37 35q0 28 -21.5 46t-61.5 18q-42 0 -66.5 -23t-27.5 -57l-118 25q7 64 62.5 113t148.5 49q110 0 162 -52.5t52 -134.5v-242q0 -44 6 -78h-122q-5 22 -5 59q-47 -73 -145 -73q-76 0 -122.5 44t-46.5 104zM238 85
q47 0 77.5 26.5t30.5 87.5v22l-111 -17q-61 -9 -61 -62q0 -24 17 -40.5t47 -16.5zM227 551l-136 150h154l90 -150h-108z" />
    <glyph glyph-name="aacute" unicode="&#xe1;" horiz-adv-x="539" 
d="M41 134q0 63 40.5 101t106.5 48l121 18q37 5 37 35q0 28 -21.5 46t-61.5 18q-42 0 -66.5 -23t-27.5 -57l-118 25q7 64 62.5 113t148.5 49q110 0 162 -52.5t52 -134.5v-242q0 -44 6 -78h-122q-5 22 -5 59q-47 -73 -145 -73q-76 0 -122.5 44t-46.5 104zM238 85
q47 0 77.5 26.5t30.5 87.5v22l-111 -17q-61 -9 -61 -62q0 -24 17 -40.5t47 -16.5zM443 701l-136 -150h-107l91 150h152z" />
    <glyph glyph-name="acircumflex" unicode="&#xe2;" horiz-adv-x="539" 
d="M41 134q0 63 40.5 101t106.5 48l121 18q37 5 37 35q0 28 -21.5 46t-61.5 18q-42 0 -66.5 -23t-27.5 -57l-118 25q7 64 62.5 113t148.5 49q110 0 162 -52.5t52 -134.5v-242q0 -44 6 -78h-122q-5 22 -5 59q-47 -73 -145 -73q-76 0 -122.5 44t-46.5 104zM238 85
q47 0 77.5 26.5t30.5 87.5v22l-111 -17q-61 -9 -61 -62q0 -24 17 -40.5t47 -16.5zM193 552h-104l110 147h132l110 -147h-107l-71 75z" />
    <glyph glyph-name="atilde" unicode="&#xe3;" horiz-adv-x="539" 
d="M41 134q0 63 40.5 101t106.5 48l121 18q37 5 37 35q0 28 -21.5 46t-61.5 18q-42 0 -66.5 -23t-27.5 -57l-118 25q7 64 62.5 113t148.5 49q110 0 162 -52.5t52 -134.5v-242q0 -44 6 -78h-122q-5 22 -5 59q-47 -73 -145 -73q-76 0 -122.5 44t-46.5 104zM238 85
q47 0 77.5 26.5t30.5 87.5v22l-111 -17q-61 -9 -61 -62q0 -24 17 -40.5t47 -16.5zM443 696v-18q0 -61 -29 -92t-78 -31q-39 0 -71 22l-6 4q-29 18 -47 18q-34 0 -35 -43h-82v21q0 58 30.5 89.5t78.5 31.5q30 0 72 -22l6 -4q29 -19 48 -19q33 0 33 43h80z" />
    <glyph glyph-name="adieresis" unicode="&#xe4;" horiz-adv-x="539" 
d="M41 134q0 63 40.5 101t106.5 48l121 18q37 5 37 35q0 28 -21.5 46t-61.5 18q-42 0 -66.5 -23t-27.5 -57l-118 25q7 64 62.5 113t148.5 49q110 0 162 -52.5t52 -134.5v-242q0 -44 6 -78h-122q-5 22 -5 59q-47 -73 -145 -73q-76 0 -122.5 44t-46.5 104zM238 85
q47 0 77.5 26.5t30.5 87.5v22l-111 -17q-61 -9 -61 -62q0 -24 17 -40.5t47 -16.5zM91 628q0 29 20.5 50t49.5 21t50 -21t21 -50t-21 -49.5t-50 -20.5t-49.5 20.5t-20.5 49.5zM301 628q0 30 20 50.5t50 20.5q29 0 50 -21t21 -50t-21 -49.5t-50 -20.5q-30 0 -50 20.5t-20 49.5
z" />
    <glyph glyph-name="aring" unicode="&#xe5;" horiz-adv-x="539" 
d="M41 134q0 63 40.5 101t106.5 48l121 18q37 5 37 35q0 28 -21.5 46t-61.5 18q-42 0 -66.5 -23t-27.5 -57l-118 25q7 64 62.5 113t148.5 49q110 0 162 -52.5t52 -134.5v-242q0 -44 6 -78h-122q-5 22 -5 59q-47 -73 -145 -73q-76 0 -122.5 44t-46.5 104zM238 85
q47 0 77.5 26.5t30.5 87.5v22l-111 -17q-61 -9 -61 -62q0 -24 17 -40.5t47 -16.5zM375 653q0 -47 -34 -78.5t-81 -31.5t-81 31.5t-34 78.5t34 79.5t81 32.5t81 -32.5t34 -79.5zM300 653q0 19 -12 30.5t-29 11.5t-28.5 -11.5t-11.5 -30.5q0 -18 11.5 -29.5t28.5 -11.5
t29 11.5t12 29.5z" />
    <glyph glyph-name="ae" unicode="&#xe6;" horiz-adv-x="871" 
d="M715 176l112 -35q-19 -67 -80 -111.5t-146 -44.5q-118 0 -191 88q-66 -88 -187 -88q-84 0 -133 44t-49 105q0 63 40.5 101t106.5 48l126 18q37 5 37 35q0 28 -22 46.5t-64 18.5q-43 0 -69 -23t-29 -57l-116 24q6 65 64.5 113.5t150.5 48.5q114 0 167 -64q69 64 162 64
q113 0 176 -67.5t63 -187.5q0 -32 -3 -41h-353q2 -50 37.5 -81.5t86.5 -31.5q87 0 113 78zM242 85q45 0 77 27t32 86v23l-116 -17q-63 -9 -63 -62q0 -23 18.5 -40t51.5 -17zM481 302h222q-3 41 -30.5 69t-81.5 28q-48 0 -77.5 -30t-32.5 -67z" />
    <glyph glyph-name="ccedilla" unicode="&#xe7;" horiz-adv-x="550" 
d="M258 -108l-36 45l32 51q-95 12 -157.5 84.5t-62.5 173.5q0 113 73 187t182 74q94 0 154 -48.5t77 -117.5l-119 -40q-10 35 -37 59t-72 24q-53 0 -89 -37t-36 -101t36.5 -101.5t89.5 -37.5q47 0 75 24.5t38 58.5l117 -39q-17 -60 -64.5 -106t-121.5 -57l-23 -36
q43 -1 70 -24.5t27 -61.5t-32 -66.5t-96 -28.5q-39 0 -71 15.5t-48 36.5l43 54q37 -37 75 -37q41 0 41 28q0 12 -10.5 20t-27.5 8q-18 0 -27 -4z" />
    <glyph glyph-name="egrave" unicode="&#xe8;" horiz-adv-x="553" 
d="M168 302h220q-3 41 -30 69t-80 28q-48 0 -77.5 -30t-32.5 -67zM401 174l111 -33q-19 -68 -78.5 -112t-145.5 -44q-106 0 -180 71.5t-74 191.5q0 114 72 186.5t170 72.5q114 0 178.5 -67.5t64.5 -187.5q0 -8 -0.5 -17.5t-1 -16t-0.5 -7.5h-352q2 -48 38 -80t86 -32
q85 0 112 75zM240 551l-136 150h154l90 -150h-108z" />
    <glyph glyph-name="eacute" unicode="&#xe9;" horiz-adv-x="553" 
d="M458 701l-136 -150h-107l91 150h152zM168 302h220q-3 41 -30 69t-80 28q-48 0 -77.5 -30t-32.5 -67zM401 174l111 -33q-19 -68 -78.5 -112t-145.5 -44q-106 0 -180 71.5t-74 191.5q0 114 72 186.5t170 72.5q114 0 178.5 -67.5t64.5 -187.5q0 -8 -0.5 -17.5t-1 -16
t-0.5 -7.5h-352q2 -48 38 -80t86 -32q85 0 112 75z" />
    <glyph glyph-name="ecircumflex" unicode="&#xea;" horiz-adv-x="553" 
d="M210 552h-104l110 147h132l110 -147h-107l-71 75zM168 302h220q-3 41 -30 69t-80 28q-48 0 -77.5 -30t-32.5 -67zM401 174l111 -33q-19 -68 -78.5 -112t-145.5 -44q-106 0 -180 71.5t-74 191.5q0 114 72 186.5t170 72.5q114 0 178.5 -67.5t64.5 -187.5q0 -8 -0.5 -17.5
t-1 -16t-0.5 -7.5h-352q2 -48 38 -80t86 -32q85 0 112 75z" />
    <glyph glyph-name="edieresis" unicode="&#xeb;" horiz-adv-x="553" 
d="M107 628q0 29 20.5 50t49.5 21t50 -21t21 -50t-21 -49.5t-50 -20.5t-49.5 20.5t-20.5 49.5zM317 628q0 30 20 50.5t50 20.5q29 0 50 -21t21 -50t-21 -49.5t-50 -20.5q-30 0 -50 20.5t-20 49.5zM168 302h220q-3 41 -30 69t-80 28q-48 0 -77.5 -30t-32.5 -67zM401 174
l111 -33q-19 -68 -78.5 -112t-145.5 -44q-106 0 -180 71.5t-74 191.5q0 114 72 186.5t170 72.5q114 0 178.5 -67.5t64.5 -187.5q0 -8 -0.5 -17.5t-1 -16t-0.5 -7.5h-352q2 -48 38 -80t86 -32q85 0 112 75z" />
    <glyph glyph-name="igrave" unicode="&#xec;" horiz-adv-x="275" 
d="M204 0h-133v492h133v-492zM94 551l-136 150h154l90 -150h-108z" />
    <glyph glyph-name="iacute" unicode="&#xed;" horiz-adv-x="275" 
d="M321 701l-136 -150h-107l91 150h152zM204 0h-133v492h133v-492z" />
    <glyph glyph-name="icircumflex" unicode="&#xee;" horiz-adv-x="275" 
d="M66 552h-104l110 147h132l110 -147h-107l-71 75zM204 0h-133v492h133v-492z" />
    <glyph glyph-name="idieresis" unicode="&#xef;" horiz-adv-x="275" 
d="M-21 628q0 29 19.5 49t48.5 20t49 -20t20 -49t-20 -48.5t-49 -19.5t-48.5 19.5t-19.5 48.5zM158 628q0 29 19.5 49t48.5 20t49 -20t20 -49t-20 -48.5t-49 -19.5t-48.5 19.5t-19.5 48.5zM204 0h-133v492h133v-492z" />
    <glyph glyph-name="eth" unicode="&#xf0;" horiz-adv-x="581" 
d="M512 622l-77 -32q113 -126 113 -313q0 -125 -67.5 -208.5t-190.5 -83.5q-110 0 -183 69.5t-73 174.5q0 108 72.5 170.5t168.5 62.5q81 0 117 -38q-21 66 -74 117l-137 -58l-32 80l87 37q-51 28 -111 46l41 100q113 -28 198 -91l114 48zM290 105q52 0 88.5 33.5t36.5 92.5
t-36.5 92.5t-88.5 33.5q-51 0 -87.5 -34.5t-36.5 -91.5t36.5 -91.5t87.5 -34.5z" />
    <glyph glyph-name="ntilde" unicode="&#xf1;" horiz-adv-x="584" 
d="M204 283v-283h-133v492h129v-61q22 36 61 55t81 19q88 0 133 -54.5t45 -140.5v-310h-133v287q0 44 -22.5 71t-68.5 27q-43 0 -67.5 -29t-24.5 -73zM474 696v-18q0 -61 -29 -92t-78 -31q-39 0 -71 22l-6 4q-29 18 -47 18q-34 0 -35 -43h-82v21q0 58 30.5 89.5t78.5 31.5
q30 0 72 -22l6 -4q29 -19 48 -19q33 0 33 43h80z" />
    <glyph glyph-name="ograve" unicode="&#xf2;" horiz-adv-x="584" 
d="M292 106q52 0 88.5 37t36.5 103t-36.5 103t-88.5 37t-88.5 -37t-36.5 -103t36.5 -103t88.5 -37zM292 507q111 0 184.5 -73.5t73.5 -187.5q0 -113 -73.5 -187t-184.5 -74t-184.5 74t-73.5 187q0 114 73.5 187.5t184.5 73.5zM245 551l-136 150h154l90 -150h-108z" />
    <glyph glyph-name="oacute" unicode="&#xf3;" horiz-adv-x="584" 
d="M467 701l-136 -150h-107l91 150h152zM292 106q52 0 88.5 37t36.5 103t-36.5 103t-88.5 37t-88.5 -37t-36.5 -103t36.5 -103t88.5 -37zM292 507q111 0 184.5 -73.5t73.5 -187.5q0 -113 -73.5 -187t-184.5 -74t-184.5 74t-73.5 187q0 114 73.5 187.5t184.5 73.5z" />
    <glyph glyph-name="ocircumflex" unicode="&#xf4;" horiz-adv-x="584" 
d="M222 552h-104l110 147h132l110 -147h-107l-71 75zM292 106q52 0 88.5 37t36.5 103t-36.5 103t-88.5 37t-88.5 -37t-36.5 -103t36.5 -103t88.5 -37zM292 507q111 0 184.5 -73.5t73.5 -187.5q0 -113 -73.5 -187t-184.5 -74t-184.5 74t-73.5 187q0 114 73.5 187.5
t184.5 73.5z" />
    <glyph glyph-name="otilde" unicode="&#xf5;" horiz-adv-x="584" 
d="M292 106q52 0 88.5 37t36.5 103t-36.5 103t-88.5 37t-88.5 -37t-36.5 -103t36.5 -103t88.5 -37zM292 507q111 0 184.5 -73.5t73.5 -187.5q0 -113 -73.5 -187t-184.5 -74t-184.5 74t-73.5 187q0 114 73.5 187.5t184.5 73.5zM467 696v-18q0 -61 -29 -92t-78 -31
q-39 0 -71 22l-6 4q-29 18 -47 18q-34 0 -35 -43h-82v21q0 58 30.5 89.5t78.5 31.5q30 0 72 -22l6 -4q29 -19 48 -19q33 0 33 43h80z" />
    <glyph glyph-name="odieresis" unicode="&#xf6;" horiz-adv-x="584" 
d="M116 628q0 29 20.5 50t49.5 21t50 -21t21 -50t-21 -49.5t-50 -20.5t-49.5 20.5t-20.5 49.5zM326 628q0 30 20 50.5t50 20.5q29 0 50 -21t21 -50t-21 -49.5t-50 -20.5q-30 0 -50 20.5t-20 49.5zM292 106q52 0 88.5 37t36.5 103t-36.5 103t-88.5 37t-88.5 -37t-36.5 -103
t36.5 -103t88.5 -37zM292 507q111 0 184.5 -73.5t73.5 -187.5q0 -113 -73.5 -187t-184.5 -74t-184.5 74t-73.5 187q0 114 73.5 187.5t184.5 73.5z" />
    <glyph glyph-name="divide" unicode="&#xf7;" horiz-adv-x="587" 
d="M213 152q0 32 22.5 54.5t55.5 22.5t55.5 -22.5t22.5 -54.5t-22.5 -55t-55.5 -23t-55.5 23t-22.5 55zM213 518q0 32 22.5 54.5t55.5 22.5t55.5 -22.5t22.5 -54.5t-22.5 -55t-55.5 -23t-55.5 23t-22.5 55zM49 279v111h489v-111h-489z" />
    <glyph glyph-name="oslash" unicode="&#xf8;" horiz-adv-x="584" 
d="M292 507q74 0 132 -34l53 65l64 -54l-52 -65q61 -70 61 -173q0 -113 -73.5 -187t-184.5 -74q-68 0 -128 31l-50 -62l-66 54l50 61q-64 75 -64 177q0 114 73.5 187.5t184.5 73.5zM167 246q0 -42 15 -72l163 201q-28 11 -53 11q-52 0 -88.5 -37t-36.5 -103zM292 106
q52 0 88.5 37t36.5 103q0 38 -13 68l-160 -199q22 -9 48 -9z" />
    <glyph glyph-name="ugrave" unicode="&#xf9;" horiz-adv-x="586" 
d="M520 0h-127q-4 15 -4 53q-38 -66 -136 -66q-87 0 -137 55.5t-50 138.5v311h133v-284q0 -45 22.5 -72t67.5 -27q44 0 68.5 26.5t24.5 70.5v286h133v-403q0 -61 5 -89zM258 551l-136 150h154l90 -150h-108z" />
    <glyph glyph-name="uacute" unicode="&#xfa;" horiz-adv-x="586" 
d="M450 701l-136 -150h-107l91 150h152zM520 0h-127q-4 15 -4 53q-38 -66 -136 -66q-87 0 -137 55.5t-50 138.5v311h133v-284q0 -45 22.5 -72t67.5 -27q44 0 68.5 26.5t24.5 70.5v286h133v-403q0 -61 5 -89z" />
    <glyph glyph-name="ucircumflex" unicode="&#xfb;" horiz-adv-x="586" 
d="M220 552h-104l110 147h132l110 -147h-107l-71 75zM520 0h-127q-4 15 -4 53q-38 -66 -136 -66q-87 0 -137 55.5t-50 138.5v311h133v-284q0 -45 22.5 -72t67.5 -27q44 0 68.5 26.5t24.5 70.5v286h133v-403q0 -61 5 -89z" />
    <glyph glyph-name="udieresis" unicode="&#xfc;" horiz-adv-x="586" 
d="M118 628q0 29 20.5 50t49.5 21t50 -21t21 -50t-21 -49.5t-50 -20.5t-49.5 20.5t-20.5 49.5zM328 628q0 30 20 50.5t50 20.5q29 0 50 -21t21 -50t-21 -49.5t-50 -20.5q-30 0 -50 20.5t-20 49.5zM520 0h-127q-4 15 -4 53q-38 -66 -136 -66q-87 0 -137 55.5t-50 138.5v311
h133v-284q0 -45 22.5 -72t67.5 -27q44 0 68.5 26.5t24.5 70.5v286h133v-403q0 -61 5 -89z" />
    <glyph glyph-name="yacute" unicode="&#xfd;" horiz-adv-x="560" 
d="M241 -194h-141l116 256l-209 430h149l131 -288l121 288h142zM449 701l-136 -150h-107l91 150h152z" />
    <glyph glyph-name="thorn" unicode="&#xfe;" horiz-adv-x="612" 
d="M204 -190h-133v914h133v-286q19 28 57.5 46.5t89.5 18.5q105 0 166 -71.5t61 -184.5t-64 -186t-168 -73q-98 0 -142 60v-238zM447 246q0 64 -34.5 101t-87.5 37t-88 -37.5t-35 -100.5t35 -101t88 -38t87.5 37.5t34.5 101.5z" />
    <glyph glyph-name="ydieresis" unicode="&#xff;" horiz-adv-x="560" 
d="M241 -194h-141l116 256l-209 430h149l131 -288l121 288h142zM107 628q0 29 20.5 50t49.5 21t50 -21t21 -50t-21 -49.5t-50 -20.5t-49.5 20.5t-20.5 49.5zM317 628q0 30 20 50.5t50 20.5q29 0 50 -21t21 -50t-21 -49.5t-50 -20.5q-30 0 -50 20.5t-20 49.5z" />
    <glyph glyph-name="Amacron" unicode="&#x100;" horiz-adv-x="722" 
d="M562 0l-59 162h-288l-59 -162h-146l272 709h160l270 -709h-150zM359 556l-98 -268h196zM511 774h-305v100h305v-100z" />
    <glyph glyph-name="amacron" unicode="&#x101;" horiz-adv-x="539" 
d="M41 134q0 63 40.5 101t106.5 48l121 18q37 5 37 35q0 28 -21.5 46t-61.5 18q-42 0 -66.5 -23t-27.5 -57l-118 25q7 64 62.5 113t148.5 49q110 0 162 -52.5t52 -134.5v-242q0 -44 6 -78h-122q-5 22 -5 59q-47 -73 -145 -73q-76 0 -122.5 44t-46.5 104zM238 85
q47 0 77.5 26.5t30.5 87.5v22l-111 -17q-61 -9 -61 -62q0 -24 17 -40.5t47 -16.5zM409 577h-281v97h281v-97z" />
    <glyph glyph-name="Abreve" unicode="&#x102;" horiz-adv-x="722" 
d="M562 0l-59 162h-288l-59 -162h-146l272 709h160l270 -709h-150zM359 556l-98 -268h196zM359 753q-76 0 -118 40.5t-45 94.5h102q1 -22 16.5 -36.5t44.5 -14.5t44.5 14.5t16.5 36.5h102q-3 -54 -45 -94.5t-118 -40.5z" />
    <glyph glyph-name="abreve" unicode="&#x103;" horiz-adv-x="539" 
d="M41 134q0 63 40.5 101t106.5 48l121 18q37 5 37 35q0 28 -21.5 46t-61.5 18q-42 0 -66.5 -23t-27.5 -57l-118 25q7 64 62.5 113t148.5 49q110 0 162 -52.5t52 -134.5v-242q0 -44 6 -78h-122q-5 22 -5 59q-47 -73 -145 -73q-76 0 -122.5 44t-46.5 104zM238 85
q47 0 77.5 26.5t30.5 87.5v22l-111 -17q-61 -9 -61 -62q0 -24 17 -40.5t47 -16.5zM263 549q-75 0 -117 44t-44 107h89q1 -23 19 -41t53 -18q34 0 51.5 17.5t20.5 41.5h89q-2 -63 -44 -107t-117 -44z" />
    <glyph glyph-name="Aogonek" unicode="&#x104;" horiz-adv-x="722" 
d="M562 0l-59 162h-288l-59 -162h-146l272 709h160l270 -709q-79 -40 -79 -94q0 -22 13.5 -33.5t35.5 -11.5q19 0 30 3v-79q-21 -8 -52 -8q-54 0 -88.5 29.5t-34.5 77.5q0 75 73 116h-48zM359 556l-98 -268h196z" />
    <glyph glyph-name="aogonek" unicode="&#x105;" horiz-adv-x="539" 
d="M452 -139q21 0 30 3v-79q-21 -8 -52 -8q-54 0 -88.5 29.5t-34.5 77.5q0 71 72 116h-19q-5 25 -5 59q-47 -73 -145 -73q-76 0 -122.5 44t-46.5 104q0 63 40.5 101t106.5 48l121 18q37 5 37 35q0 28 -21.5 46t-61.5 18q-42 0 -66.5 -23t-27.5 -57l-118 25q7 64 62.5 113
t148.5 49q110 0 162 -52.5t52 -134.5v-242q0 -46 6 -78q-79 -40 -79 -94q0 -22 13.5 -33.5t35.5 -11.5zM238 85q47 0 77.5 26.5t30.5 87.5v22l-111 -17q-61 -9 -61 -62q0 -24 17 -40.5t47 -16.5z" />
    <glyph glyph-name="Cacute" unicode="&#x106;" horiz-adv-x="764" 
d="M402 -15q-152 0 -257.5 102t-105.5 267t106.5 267.5t254.5 102.5q137 0 218.5 -68.5t106.5 -166.5l-130 -41q-14 59 -62 101t-133 42q-88 0 -153 -62t-65 -175q0 -108 64.5 -171t155.5 -63q83 0 133 43.5t66 101.5l129 -39q-10 -43 -34.5 -83.5t-63.5 -77t-99 -58.5
t-131 -22zM597 886l-145 -127h-122l103 127h164z" />
    <glyph glyph-name="cacute" unicode="&#x107;" horiz-adv-x="550" 
d="M467 701l-136 -150h-107l91 150h152zM292 384q-53 0 -89 -37t-36 -101t36.5 -101.5t89.5 -37.5q47 0 75 24.5t38 58.5l117 -39q-17 -68 -78 -117t-152 -49q-110 0 -184.5 74.5t-74.5 186.5q0 113 73 187t182 74q94 0 154 -48.5t77 -117.5l-119 -40q-10 35 -37 59t-72 24z
" />
    <glyph glyph-name="Ccircumflex" unicode="&#x108;" horiz-adv-x="764" 
d="M334 759h-121l120 127h136l122 -127h-125l-67 65zM402 -15q-152 0 -257.5 102t-105.5 267t106.5 267.5t254.5 102.5q137 0 218.5 -68.5t106.5 -166.5l-130 -41q-14 59 -62 101t-133 42q-88 0 -153 -62t-65 -175q0 -108 64.5 -171t155.5 -63q83 0 133 43.5t66 101.5
l129 -39q-10 -43 -34.5 -83.5t-63.5 -77t-99 -58.5t-131 -22z" />
    <glyph glyph-name="ccircumflex" unicode="&#x109;" horiz-adv-x="550" 
d="M218 552h-104l110 147h132l110 -147h-107l-71 75zM292 384q-53 0 -89 -37t-36 -101t36.5 -101.5t89.5 -37.5q47 0 75 24.5t38 58.5l117 -39q-17 -68 -78 -117t-152 -49q-110 0 -184.5 74.5t-74.5 186.5q0 113 73 187t182 74q94 0 154 -48.5t77 -117.5l-119 -40
q-10 35 -37 59t-72 24z" />
    <glyph glyph-name="Cdotaccent" unicode="&#x10a;" horiz-adv-x="764" 
d="M402 -15q-152 0 -257.5 102t-105.5 267t106.5 267.5t254.5 102.5q137 0 218.5 -68.5t106.5 -166.5l-130 -41q-14 59 -62 101t-133 42q-88 0 -153 -62t-65 -175q0 -108 64.5 -171t155.5 -63q83 0 133 43.5t66 101.5l129 -39q-10 -43 -34.5 -83.5t-63.5 -77t-99 -58.5
t-131 -22zM319 839q0 34 23.5 57t56.5 23q34 0 57.5 -23t23.5 -57q0 -33 -23.5 -56t-57.5 -23q-33 0 -56.5 23t-23.5 56z" />
    <glyph glyph-name="cdotaccent" unicode="&#x10b;" horiz-adv-x="550" 
d="M292 384q-53 0 -89 -37t-36 -101t36.5 -101.5t89.5 -37.5q47 0 75 24.5t38 58.5l117 -39q-17 -68 -78 -117t-152 -49q-110 0 -184.5 74.5t-74.5 186.5q0 113 73 187t182 74q94 0 154 -48.5t77 -117.5l-119 -40q-10 35 -37 59t-72 24zM208 628q0 33 23.5 56t56.5 23
t56.5 -23t23.5 -56t-23.5 -55.5t-56.5 -22.5t-56.5 22.5t-23.5 55.5z" />
    <glyph glyph-name="Ccaron" unicode="&#x10c;" horiz-adv-x="764" 
d="M213 886h124l66 -64l67 64h121l-122 -127h-136zM402 -15q-152 0 -257.5 102t-105.5 267t106.5 267.5t254.5 102.5q137 0 218.5 -68.5t106.5 -166.5l-130 -41q-14 59 -62 101t-133 42q-88 0 -153 -62t-65 -175q0 -108 64.5 -171t155.5 -63q83 0 133 43.5t66 101.5l129 -39
q-10 -43 -34.5 -83.5t-63.5 -77t-99 -58.5t-131 -22z" />
    <glyph glyph-name="ccaron" unicode="&#x10d;" horiz-adv-x="550" 
d="M107 700h107l70 -75l70 75h105l-109 -148h-133zM292 384q-53 0 -89 -37t-36 -101t36.5 -101.5t89.5 -37.5q47 0 75 24.5t38 58.5l117 -39q-17 -68 -78 -117t-152 -49q-110 0 -184.5 74.5t-74.5 186.5q0 113 73 187t182 74q94 0 154 -48.5t77 -117.5l-119 -40
q-10 35 -37 59t-72 24z" />
    <glyph glyph-name="Dcaron" unicode="&#x10e;" horiz-adv-x="724" 
d="M166 886h124l66 -64l67 64h121l-122 -127h-136zM219 128h110q93 0 153 57.5t60 168.5q0 110 -60 168.5t-152 58.5h-111v-453zM334 0h-253v709h254q155 0 252.5 -95t97.5 -260q0 -164 -98 -259t-253 -95z" />
    <glyph glyph-name="dcaron" unicode="&#x10f;" horiz-adv-x="708" 
d="M741 724l-72 -198h-89l29 198h132zM540 724v-635q0 -62 4 -89h-127q-5 18 -5 57q-41 -69 -138 -69q-105 0 -172.5 73.5t-67.5 185.5q0 109 66.5 183t169.5 74q57 0 92 -18.5t47 -42.5v281h131zM168 247q0 -65 34 -102.5t88 -37.5q53 0 87 38t34 103q0 64 -34 100.5
t-87 36.5t-87.5 -37t-34.5 -101z" />
    <glyph glyph-name="Dcroat" unicode="&#x110;" horiz-adv-x="747" 
d="M357 0h-253v315h-88v102h88v292h254q155 0 252.5 -95t97.5 -260q0 -164 -98 -259t-253 -95zM242 128h110q93 0 153 57.5t60 168.5q0 110 -60 168.5t-152 58.5h-111v-164h137v-102h-137v-187z" />
    <glyph glyph-name="dcroat" unicode="&#x111;" horiz-adv-x="624" 
d="M540 724v-78h71v-95h-71v-462q0 -64 4 -89h-127q-5 18 -5 57q-41 -69 -138 -69q-105 0 -172.5 73.5t-67.5 185.5q0 109 66.5 183t169.5 74q57 0 92 -18.5t47 -42.5v108h-115v95h115v78h131zM168 247q0 -65 34 -102.5t88 -37.5q53 0 87 38t34 103q0 64 -34 100.5t-87 36.5
t-87.5 -37t-34.5 -101z" />
    <glyph glyph-name="Emacron" unicode="&#x112;" horiz-adv-x="582" 
d="M525 0h-444v709h444v-130h-306v-162h277v-123h-277v-164h306v-130zM454 774h-305v100h305v-100z" />
    <glyph glyph-name="emacron" unicode="&#x113;" horiz-adv-x="553" 
d="M168 302h220q-3 41 -30 69t-80 28q-48 0 -77.5 -30t-32.5 -67zM401 174l111 -33q-19 -68 -78.5 -112t-145.5 -44q-106 0 -180 71.5t-74 191.5q0 114 72 186.5t170 72.5q114 0 178.5 -67.5t64.5 -187.5q0 -8 -0.5 -17.5t-1 -16t-0.5 -7.5h-352q2 -48 38 -80t86 -32
q85 0 112 75zM422 577h-281v97h281v-97z" />
    <glyph glyph-name="Ebreve" unicode="&#x114;" horiz-adv-x="582" 
d="M525 0h-444v709h444v-130h-306v-162h277v-123h-277v-164h306v-130zM300 753q-76 0 -118 40.5t-45 94.5h102q1 -22 16.5 -36.5t44.5 -14.5t44.5 14.5t16.5 36.5h102q-3 -54 -45 -94.5t-118 -40.5z" />
    <glyph glyph-name="ebreve" unicode="&#x115;" horiz-adv-x="553" 
d="M168 302h220q-3 41 -30 69t-80 28q-48 0 -77.5 -30t-32.5 -67zM401 174l111 -33q-19 -68 -78.5 -112t-145.5 -44q-106 0 -180 71.5t-74 191.5q0 114 72 186.5t170 72.5q114 0 178.5 -67.5t64.5 -187.5q0 -8 -0.5 -17.5t-1 -16t-0.5 -7.5h-352q2 -48 38 -80t86 -32
q85 0 112 75zM280 549q-75 0 -117 44t-44 107h89q1 -23 19 -41t53 -18q34 0 51.5 17.5t20.5 41.5h89q-2 -63 -44 -107t-117 -44z" />
    <glyph glyph-name="Edotaccent" unicode="&#x116;" horiz-adv-x="582" 
d="M221 833q0 34 23.5 57t56.5 23q34 0 57.5 -23t23.5 -57q0 -33 -23.5 -56t-57.5 -23q-33 0 -56.5 23t-23.5 56zM525 0h-444v709h444v-130h-306v-162h277v-123h-277v-164h306v-130z" />
    <glyph glyph-name="edotaccent" unicode="&#x117;" horiz-adv-x="553" 
d="M168 302h220q-3 41 -30 69t-80 28q-48 0 -77.5 -30t-32.5 -67zM401 174l111 -33q-19 -68 -78.5 -112t-145.5 -44q-106 0 -180 71.5t-74 191.5q0 114 72 186.5t170 72.5q114 0 178.5 -67.5t64.5 -187.5q0 -8 -0.5 -17.5t-1 -16t-0.5 -7.5h-352q2 -48 38 -80t86 -32
q85 0 112 75zM202 627q0 33 23.5 56t56.5 23t56.5 -23t23.5 -56t-23.5 -55.5t-56.5 -22.5t-56.5 22.5t-23.5 55.5z" />
    <glyph glyph-name="Eogonek" unicode="&#x118;" horiz-adv-x="582" 
d="M473 -223q-54 0 -88.5 29.5t-34.5 77.5q0 75 73 116h-342v709h444v-130h-306v-162h277v-123h-277v-164h306v-130q-79 -40 -79 -94q0 -22 13.5 -33.5t35.5 -11.5q21 0 30 3v-79q-21 -8 -52 -8z" />
    <glyph glyph-name="eogonek" unicode="&#x119;" horiz-adv-x="553" 
d="M401 174l111 -33q-32 -105 -134 -141q-79 -40 -79 -94q0 -22 13.5 -33.5t35.5 -11.5q19 0 30 3v-79q-21 -8 -52 -8q-54 0 -88.5 29.5t-34.5 77.5q0 62 52 103q-95 10 -158 80.5t-63 180.5q0 114 72 186.5t170 72.5q114 0 178.5 -67.5t64.5 -187.5q0 -8 -0.5 -17.5t-1 -16
t-0.5 -7.5h-352q2 -48 38 -80t86 -32q85 0 112 75zM168 302h220q-3 41 -30 69t-80 28q-48 0 -77.5 -30t-32.5 -67z" />
    <glyph glyph-name="Ecaron" unicode="&#x11a;" horiz-adv-x="582" 
d="M116 886h124l66 -64l67 64h121l-122 -127h-136zM525 0h-444v709h444v-130h-306v-162h277v-123h-277v-164h306v-130z" />
    <glyph glyph-name="ecaron" unicode="&#x11b;" horiz-adv-x="553" 
d="M103 700h107l70 -75l70 75h105l-109 -148h-133zM168 302h220q-3 41 -30 69t-80 28q-48 0 -77.5 -30t-32.5 -67zM401 174l111 -33q-19 -68 -78.5 -112t-145.5 -44q-106 0 -180 71.5t-74 191.5q0 114 72 186.5t170 72.5q114 0 178.5 -67.5t64.5 -187.5q0 -8 -0.5 -17.5
t-1 -16t-0.5 -7.5h-352q2 -48 38 -80t86 -32q85 0 112 75z" />
    <glyph glyph-name="Gcircumflex" unicode="&#x11c;" horiz-adv-x="781" 
d="M332 759h-121l120 127h136l122 -127h-125l-67 65zM723 0h-112l-9 81q-27 -41 -80.5 -68.5t-128.5 -27.5q-148 0 -251 101t-103 268q0 166 106.5 268t256.5 102q130 0 212 -63t112 -155l-132 -47q-16 55 -64.5 95.5t-127.5 40.5q-90 0 -156.5 -62t-66.5 -179
q0 -115 64.5 -179t159.5 -64q88 0 135 44t55 94h-224v120h354v-369z" />
    <glyph glyph-name="gcircumflex" unicode="&#x11d;" horiz-adv-x="597" 
d="M222 552h-104l110 147h132l110 -147h-107l-71 75zM36 -27l120 32q7 -42 37.5 -67.5t77.5 -25.5q131 0 131 137v36q-39 -63 -137 -63t-163.5 68t-65.5 171q0 100 64.5 170t164.5 70q105 0 140 -67v58h128v-439q0 -111 -64 -184.5t-194 -73.5q-98 0 -163.5 52t-75.5 126z
M288 136q51 0 83.5 34t32.5 91q0 56 -33.5 90t-82.5 34q-51 0 -84.5 -34t-33.5 -90q0 -57 33 -91t85 -34z" />
    <glyph glyph-name="Gbreve" unicode="&#x11e;" horiz-adv-x="781" 
d="M398 753q-76 0 -118 40.5t-45 94.5h102q1 -22 16.5 -36.5t44.5 -14.5t44.5 14.5t16.5 36.5h102q-3 -54 -45 -94.5t-118 -40.5zM723 0h-112l-9 81q-27 -41 -80.5 -68.5t-128.5 -27.5q-148 0 -251 101t-103 268q0 166 106.5 268t256.5 102q130 0 212 -63t112 -155l-132 -47
q-16 55 -64.5 95.5t-127.5 40.5q-90 0 -156.5 -62t-66.5 -179q0 -115 64.5 -179t159.5 -64q88 0 135 44t55 94h-224v120h354v-369z" />
    <glyph glyph-name="gbreve" unicode="&#x11f;" horiz-adv-x="597" 
d="M36 -27l120 32q7 -42 37.5 -67.5t77.5 -25.5q131 0 131 137v36q-39 -63 -137 -63t-163.5 68t-65.5 171q0 100 64.5 170t164.5 70q105 0 140 -67v58h128v-439q0 -111 -64 -184.5t-194 -73.5q-98 0 -163.5 52t-75.5 126zM288 136q51 0 83.5 34t32.5 91q0 56 -33.5 90
t-82.5 34q-51 0 -84.5 -34t-33.5 -90q0 -57 33 -91t85 -34zM287 549q-75 0 -117 44t-44 107h89q1 -23 19 -41t53 -18q34 0 51.5 17.5t20.5 41.5h89q-2 -63 -44 -107t-117 -44z" />
    <glyph glyph-name="Gdotaccent" unicode="&#x120;" horiz-adv-x="781" 
d="M320 836q0 34 23.5 57t56.5 23q34 0 57.5 -23t23.5 -57q0 -33 -23.5 -56t-57.5 -23q-33 0 -56.5 23t-23.5 56zM723 0h-112l-9 81q-27 -41 -80.5 -68.5t-128.5 -27.5q-148 0 -251 101t-103 268q0 166 106.5 268t256.5 102q130 0 212 -63t112 -155l-132 -47
q-16 55 -64.5 95.5t-127.5 40.5q-90 0 -156.5 -62t-66.5 -179q0 -115 64.5 -179t159.5 -64q88 0 135 44t55 94h-224v120h354v-369z" />
    <glyph glyph-name="gdotaccent" unicode="&#x121;" horiz-adv-x="597" 
d="M36 -27l120 32q7 -42 37.5 -67.5t77.5 -25.5q131 0 131 137v36q-39 -63 -137 -63t-163.5 68t-65.5 171q0 100 64.5 170t164.5 70q105 0 140 -67v58h128v-439q0 -111 -64 -184.5t-194 -73.5q-98 0 -163.5 52t-75.5 126zM288 136q51 0 83.5 34t32.5 91q0 56 -33.5 90
t-82.5 34q-51 0 -84.5 -34t-33.5 -90q0 -57 33 -91t85 -34zM202 627q0 33 23.5 56t56.5 23t56.5 -23t23.5 -56t-23.5 -55.5t-56.5 -22.5t-56.5 22.5t-23.5 55.5z" />
    <glyph glyph-name="Gcommaaccent" unicode="&#x122;" horiz-adv-x="781" 
d="M328 -105q0 27 20.5 45.5t52.5 18.5q34 0 57.5 -24.5t23.5 -62.5q0 -69 -42.5 -98t-98.5 -29v48q35 0 56.5 13t24.5 34q-9 -7 -29 -7q-30 0 -47.5 17t-17.5 45zM723 0h-112l-9 81q-27 -41 -80.5 -68.5t-128.5 -27.5q-148 0 -251 101t-103 268q0 166 106.5 268t256.5 102
q130 0 212 -63t112 -155l-132 -47q-16 55 -64.5 95.5t-127.5 40.5q-90 0 -156.5 -62t-66.5 -179q0 -115 64.5 -179t159.5 -64q88 0 135 44t55 94h-224v120h354v-369z" />
    <glyph glyph-name="gcommaaccent" unicode="&#x123;" horiz-adv-x="597" 
d="M356 605q0 -28 -20.5 -46t-52.5 -18q-35 0 -58 24t-23 62q0 65 43.5 96t97.5 31v-48q-35 0 -57 -13.5t-24 -32.5q7 7 28 7q31 0 48.5 -17.5t17.5 -44.5zM36 -27l120 32q7 -42 37.5 -67.5t77.5 -25.5q131 0 131 137v36q-39 -63 -137 -63t-163.5 68t-65.5 171
q0 100 64.5 170t164.5 70q105 0 140 -67v58h128v-439q0 -111 -64 -184.5t-194 -73.5q-98 0 -163.5 52t-75.5 126zM288 136q51 0 83.5 34t32.5 91q0 56 -33.5 90t-82.5 34q-51 0 -84.5 -34t-33.5 -90q0 -57 33 -91t85 -34z" />
    <glyph glyph-name="Hcircumflex" unicode="&#x124;" horiz-adv-x="748" 
d="M667 0h-139v294h-309v-294h-138v709h138v-285h309v285h139v-709zM306 759h-121l120 127h136l122 -127h-125l-67 65z" />
    <glyph glyph-name="hcircumflex" unicode="&#x125;" horiz-adv-x="584" 
d="M228 769h-121l120 127h136l122 -127h-125l-67 65zM204 289v-289h-133v724h133v-273q44 54 133 54q90 0 136.5 -54.5t46.5 -140.5v-310h-133v287q0 44 -22.5 71t-68.5 27q-41 0 -65.5 -26.5t-26.5 -69.5z" />
    <glyph glyph-name="Hbar" unicode="&#x126;" horiz-adv-x="770" 
d="M678 0h-139v294h-309v-294h-138v517h-71v87h71v105h138v-105h309v105h139v-105h71v-87h-71v-517zM230 424h309v93h-309v-93z" />
    <glyph glyph-name="hbar" unicode="&#x127;" horiz-adv-x="601" 
d="M221 289v-289h-133v552h-79v95h79v77h133v-77h111v-95h-111v-101q44 54 133 54q90 0 136.5 -54.5t46.5 -140.5v-310h-133v287q0 44 -22.5 71t-68.5 27q-41 0 -65.5 -26.5t-26.5 -69.5z" />
    <glyph glyph-name="Itilde" unicode="&#x128;" horiz-adv-x="302" 
d="M221 0h-140v709h140v-709zM323 890v-28q0 -53 -28.5 -81.5t-72.5 -28.5q-38 0 -75 24l-6 4q-35 20 -48 20q-29 0 -29 -43h-80v27q0 52 28.5 80.5t72.5 28.5q36 0 76 -23l6 -4q5 -2 16 -8t17.5 -8.5t13.5 -2.5q29 0 29 31v12h80z" />
    <glyph glyph-name="itilde" unicode="&#x129;" horiz-adv-x="275" 
d="M204 0h-133v492h133v-492zM310 696v-18q0 -61 -29 -92t-78 -31q-39 0 -71 22l-6 4q-29 18 -47 18q-34 0 -35 -43h-82v21q0 58 30.5 89.5t78.5 31.5q30 0 72 -22l6 -4q29 -19 48 -19q33 0 33 43h80z" />
    <glyph glyph-name="Imacron" unicode="&#x12a;" horiz-adv-x="302" 
d="M221 0h-140v709h140v-709zM304 774h-305v100h305v-100z" />
    <glyph glyph-name="imacron" unicode="&#x12b;" horiz-adv-x="275" 
d="M204 0h-133v492h133v-492zM278 577h-281v97h281v-97z" />
    <glyph glyph-name="Ibreve" unicode="&#x12c;" horiz-adv-x="302" 
d="M221 0h-140v709h140v-709zM151 753q-76 0 -118 40.5t-45 94.5h102q1 -22 16.5 -36.5t44.5 -14.5t44.5 14.5t16.5 36.5h102q-3 -54 -45 -94.5t-118 -40.5z" />
    <glyph glyph-name="ibreve" unicode="&#x12d;" horiz-adv-x="275" 
d="M204 0h-133v492h133v-492zM137 549q-75 0 -117 44t-44 107h89q1 -23 19 -41t53 -18q34 0 51.5 17.5t20.5 41.5h89q-2 -63 -44 -107t-117 -44z" />
    <glyph glyph-name="Iogonek" unicode="&#x12e;" horiz-adv-x="302" 
d="M169 -223q-54 0 -88.5 29.5t-34.5 77.5q0 75 73 116h-38v709h140v-709q-79 -40 -79 -94q0 -45 50 -45q20 0 29 3v-79q-21 -8 -52 -8z" />
    <glyph glyph-name="iogonek" unicode="&#x12f;" horiz-adv-x="275" 
d="M152 -223q-54 0 -88.5 29.5t-34.5 77.5q0 71 72 116h-30v492h133v-492q-79 -40 -79 -94q0 -22 13.5 -33.5t35.5 -11.5q19 0 30 3v-79q-21 -8 -52 -8zM55 653q0 35 24 59t58 24q35 0 58.5 -24t23.5 -59q0 -33 -23.5 -57t-58.5 -24q-34 0 -58 24t-24 57z" />
    <glyph glyph-name="Idotaccent" unicode="&#x130;" horiz-adv-x="302" 
d="M221 0h-140v709h140v-709zM70 833q0 34 23.5 57t56.5 23q34 0 57.5 -23t23.5 -57q0 -33 -23.5 -56t-57.5 -23q-33 0 -56.5 23t-23.5 56z" />
    <glyph glyph-name="dotlessi" unicode="&#x131;" horiz-adv-x="275" 
d="M204 0h-133v492h133v-492z" />
    <glyph glyph-name="IJ" unicode="&#x132;" horiz-adv-x="614" 
d="M214 308h-140v401h140v-401zM74 216l140 24v-18q0 -53 25 -79.5t69 -26.5q45 0 69.5 27.5t24.5 75.5v490h138v-490q0 -98 -64.5 -166t-166.5 -68q-105 0 -170 63.5t-65 167.5z" />
    <glyph glyph-name="ij" unicode="&#x133;" horiz-adv-x="551" 
d="M204 0h-133v492h133v-492zM55 653q0 35 24 59t58 24q35 0 58.5 -24t23.5 -59q0 -33 -23.5 -57t-58.5 -24q-34 0 -58 24t-24 57zM347 -30v522h133v-535q0 -72 -41.5 -117t-112.5 -45q-49 0 -75 11v111q15 -5 41 -5q55 0 55 58zM331 654q0 35 24 59t58 24q35 0 58.5 -24
t23.5 -59q0 -34 -23.5 -57.5t-58.5 -23.5q-34 0 -58 23.5t-24 57.5z" />
    <glyph glyph-name="Jcircumflex" unicode="&#x134;" horiz-adv-x="557" 
d="M346 759h-121l120 127h136l122 -127h-125l-67 65zM20 216v47l133 24v-65q1 -53 27.5 -79.5t70.5 -26.5t69 27.5t25 75.5v490h138v-490q0 -98 -64.5 -166t-166.5 -68q-105 0 -168.5 63.5t-63.5 167.5z" />
    <glyph glyph-name="jcircumflex" unicode="&#x135;" horiz-adv-x="275" 
d="M64 552h-104l110 147h132l110 -147h-107l-71 75zM71 -30v522h133v-535q0 -72 -41.5 -117t-112.5 -45q-49 0 -75 11v111q13 -5 41 -5q55 0 55 58z" />
    <glyph glyph-name="Kcommaaccent" unicode="&#x136;" horiz-adv-x="698" 
d="M513 0l-206 294l-88 -97v-197h-138v709h138v-321l284 321h181l-281 -309l283 -400h-173zM291 -99q0 27 20.5 45.5t52.5 18.5q34 0 57.5 -24.5t23.5 -62.5q0 -69 -42.5 -98t-98.5 -29v48q35 0 56.5 13t24.5 34q-9 -7 -29 -7q-30 0 -47.5 17t-17.5 45z" />
    <glyph glyph-name="kcommaaccent" unicode="&#x137;" horiz-adv-x="559" 
d="M548 492l-197 -207l201 -285h-163l-130 188l-55 -58v-130h-133v724h133v-415l170 183h174zM231 -102q0 27 20.5 45.5t52.5 18.5q34 0 57.5 -24.5t23.5 -62.5q0 -69 -42.5 -98t-98.5 -29v48q35 0 56.5 13t24.5 34q-9 -7 -29 -7q-30 0 -47.5 17t-17.5 45z" />
    <glyph glyph-name="kgreenlandic" unicode="&#x138;" horiz-adv-x="559" 
d="M548 492l-197 -207l201 -285h-163l-130 188l-55 -58v-130h-133v492h133v-183l170 183h174z" />
    <glyph glyph-name="Lacute" unicode="&#x139;" horiz-adv-x="560" 
d="M360 886l-145 -127h-122l103 127h164zM535 0h-454v709h138v-577h316v-132z" />
    <glyph glyph-name="lacute" unicode="&#x13a;" horiz-adv-x="275" 
d="M338 896l-145 -127h-122l103 127h164zM204 0h-133v724h133v-724z" />
    <glyph glyph-name="Lcommaaccent" unicode="&#x13b;" horiz-adv-x="560" 
d="M535 0h-454v709h138v-577h316v-132zM237 -102q0 27 20.5 45.5t52.5 18.5q34 0 57.5 -24.5t23.5 -62.5q0 -69 -42.5 -98t-98.5 -29v48q35 0 56.5 13t24.5 34q-9 -7 -29 -7q-30 0 -47.5 17t-17.5 45z" />
    <glyph glyph-name="lcommaaccent" unicode="&#x13c;" horiz-adv-x="275" 
d="M204 0h-133v724h133v-724zM60 -102q0 27 20.5 45.5t52.5 18.5q34 0 57.5 -24.5t23.5 -62.5q0 -69 -42.5 -98t-98.5 -29v48q35 0 56.5 13t24.5 34q-9 -7 -29 -7q-30 0 -47.5 17t-17.5 45z" />
    <glyph glyph-name="Lcaron" unicode="&#x13d;" horiz-adv-x="560" 
d="M476 760l-75 -208h-94l31 208h138zM535 0h-454v709h138v-577h316v-132z" />
    <glyph glyph-name="lcaron" unicode="&#x13e;" horiz-adv-x="372" 
d="M403 724l-72 -198h-89l29 198h132zM204 0h-133v724h133v-724z" />
    <glyph glyph-name="Ldot" unicode="&#x13f;" horiz-adv-x="560" 
d="M303 404q0 32 23 54t55 22t54.5 -22t22.5 -54t-22.5 -54t-54.5 -22t-55 22t-23 54zM535 0h-454v709h138v-577h316v-132z" />
    <glyph glyph-name="ldot" unicode="&#x140;" horiz-adv-x="435" 
d="M204 0h-133v724h133v-724zM254 329q0 33 23.5 56t56.5 23t56.5 -23t23.5 -56t-23.5 -55.5t-56.5 -22.5t-56.5 22.5t-23.5 55.5z" />
    <glyph glyph-name="Lslash" unicode="&#x141;" horiz-adv-x="582" 
d="M557 0h-454v259l-92 -42v111l92 42v339h138v-276l161 73v-111l-161 -73v-190h316v-132z" />
    <glyph glyph-name="lslash" unicode="&#x142;" horiz-adv-x="327" 
d="M229 0h-133v258l-85 -39v111l85 39v355h133v-295l87 40v-111l-87 -40v-318z" />
    <glyph glyph-name="Nacute" unicode="&#x143;" horiz-adv-x="767" 
d="M556 886l-145 -127h-122l103 127h164zM686 0h-145l-322 503v-503h-138v709h172l295 -469v469h138v-709z" />
    <glyph glyph-name="nacute" unicode="&#x144;" horiz-adv-x="584" 
d="M453 701l-136 -150h-107l91 150h152zM204 283v-283h-133v492h129v-61q22 36 61 55t81 19q88 0 133 -54.5t45 -140.5v-310h-133v287q0 44 -22.5 71t-68.5 27q-43 0 -67.5 -29t-24.5 -73z" />
    <glyph glyph-name="Ncommaaccent" unicode="&#x145;" horiz-adv-x="767" 
d="M327 -102q0 27 20.5 45.5t52.5 18.5q34 0 57.5 -24.5t23.5 -62.5q0 -69 -42.5 -98t-98.5 -29v48q35 0 56.5 13t24.5 34q-9 -7 -29 -7q-30 0 -47.5 17t-17.5 45zM686 0h-145l-322 503v-503h-138v709h172l295 -469v469h138v-709z" />
    <glyph glyph-name="ncommaaccent" unicode="&#x146;" horiz-adv-x="584" 
d="M224 -100q0 27 20.5 45.5t52.5 18.5q34 0 57.5 -24.5t23.5 -62.5q0 -69 -42.5 -98t-98.5 -29v48q35 0 56.5 13t24.5 34q-9 -7 -29 -7q-30 0 -47.5 17t-17.5 45zM204 283v-283h-133v492h129v-61q22 36 61 55t81 19q88 0 133 -54.5t45 -140.5v-310h-133v287q0 44 -22.5 71
t-68.5 27q-43 0 -67.5 -29t-24.5 -73z" />
    <glyph glyph-name="Ncaron" unicode="&#x147;" horiz-adv-x="767" 
d="M193 886h124l66 -64l67 64h121l-122 -127h-136zM686 0h-145l-322 503v-503h-138v709h172l295 -469v469h138v-709z" />
    <glyph glyph-name="ncaron" unicode="&#x148;" horiz-adv-x="584" 
d="M109 700h107l70 -75l70 75h105l-109 -148h-133zM204 283v-283h-133v492h129v-61q22 36 61 55t81 19q88 0 133 -54.5t45 -140.5v-310h-133v287q0 44 -22.5 71t-68.5 27q-43 0 -67.5 -29t-24.5 -73z" />
    <glyph glyph-name="napostrophe" unicode="&#x149;" horiz-adv-x="584" 
d="M58 682q0 27 20.5 45.5t52.5 18.5q34 0 57.5 -24t23.5 -62t-13.5 -64.5t-36.5 -39t-45 -18t-46 -5.5v47q35 0 56.5 12.5t24.5 33.5q-21 -7 -29 -7q-30 0 -47.5 17.5t-17.5 45.5zM204 283v-283h-133v492h129v-61q22 36 61 55t81 19q88 0 133 -54.5t45 -140.5v-310h-133
v287q0 44 -22.5 71t-68.5 27q-43 0 -67.5 -29t-24.5 -73z" />
    <glyph glyph-name="Eng" unicode="&#x14a;" horiz-adv-x="767" 
d="M548 -8l-329 511v-503h-138v709h172l295 -466v466h138v-746q0 -73 -44.5 -118.5t-116.5 -45.5q-54 0 -80 11v113q13 -5 45 -5q58 0 58 56v18z" />
    <glyph glyph-name="eng" unicode="&#x14b;" horiz-adv-x="584" 
d="M204 283v-283h-133v492h129v-61q22 36 61 55t81 19q88 0 133 -54.5t45 -140.5v-350q0 -72 -43 -117t-114 -45q-57 0 -76 11v110q13 -5 42 -5q58 0 58 59v314q0 44 -22.5 71t-68.5 27q-43 0 -67.5 -29t-24.5 -73z" />
    <glyph glyph-name="Omacron" unicode="&#x14c;" horiz-adv-x="807" 
d="M568 774h-329v100h329v-100zM182 355q0 -113 66 -174.5t155 -61.5q90 0 156 61.5t66 174.5t-66 174.5t-156 61.5q-89 0 -155 -61.5t-66 -174.5zM39 354q0 166 107 268t257 102q151 0 258 -102t107 -268q0 -165 -107 -267t-258 -102q-150 0 -257 102t-107 267z" />
    <glyph glyph-name="omacron" unicode="&#x14d;" horiz-adv-x="584" 
d="M433 577h-281v97h281v-97zM292 106q52 0 88.5 37t36.5 103t-36.5 103t-88.5 37t-88.5 -37t-36.5 -103t36.5 -103t88.5 -37zM292 507q111 0 184.5 -73.5t73.5 -187.5q0 -113 -73.5 -187t-184.5 -74t-184.5 74t-73.5 187q0 114 73.5 187.5t184.5 73.5z" />
    <glyph glyph-name="Obreve" unicode="&#x14e;" horiz-adv-x="807" 
d="M406 753q-76 0 -118 40.5t-45 94.5h102q1 -22 16.5 -36.5t44.5 -14.5t44.5 14.5t16.5 36.5h102q-3 -54 -45 -94.5t-118 -40.5zM182 355q0 -113 66 -174.5t155 -61.5q90 0 156 61.5t66 174.5t-66 174.5t-156 61.5q-89 0 -155 -61.5t-66 -174.5zM39 354q0 166 107 268
t257 102q151 0 258 -102t107 -268q0 -165 -107 -267t-258 -102q-150 0 -257 102t-107 267z" />
    <glyph glyph-name="obreve" unicode="&#x14f;" horiz-adv-x="584" 
d="M292 106q52 0 88.5 37t36.5 103t-36.5 103t-88.5 37t-88.5 -37t-36.5 -103t36.5 -103t88.5 -37zM292 507q111 0 184.5 -73.5t73.5 -187.5q0 -113 -73.5 -187t-184.5 -74t-184.5 74t-73.5 187q0 114 73.5 187.5t184.5 73.5zM292 549q-75 0 -117 44t-44 107h89
q1 -23 19 -41t53 -18q34 0 51.5 17.5t20.5 41.5h89q-2 -63 -44 -107t-117 -44z" />
    <glyph glyph-name="Ohungarumlaut" unicode="&#x150;" horiz-adv-x="807" 
d="M451 886l-94 -127h-86l53 127h127zM622 886l-108 -127h-88l67 127h129zM182 355q0 -113 66 -174.5t155 -61.5q90 0 156 61.5t66 174.5t-66 174.5t-156 61.5q-89 0 -155 -61.5t-66 -174.5zM39 354q0 166 107 268t257 102q151 0 258 -102t107 -268q0 -165 -107 -267
t-258 -102q-150 0 -257 102t-107 267z" />
    <glyph glyph-name="ohungarumlaut" unicode="&#x151;" horiz-adv-x="584" 
d="M292 106q52 0 88.5 37t36.5 103t-36.5 103t-88.5 37t-88.5 -37t-36.5 -103t36.5 -103t88.5 -37zM292 507q111 0 184.5 -73.5t73.5 -187.5q0 -113 -73.5 -187t-184.5 -74t-184.5 74t-73.5 187q0 114 73.5 187.5t184.5 73.5zM349 701l-97 -150h-84l52 150h129zM516 701
l-112 -150h-85l66 150h131z" />
    <glyph glyph-name="OE" unicode="&#x152;" horiz-adv-x="1126" 
d="M182 355q0 -113 66 -174.5t155 -61.5q90 0 156 61.5t66 174.5t-66 174.5t-156 61.5q-89 0 -155 -61.5t-66 -174.5zM1069 0h-444v71q-84 -86 -222 -86q-150 0 -257 102t-107 267q0 166 107 268t257 102q137 0 222 -87v72h444v-130h-306v-162h277v-123h-277v-164h306v-130z
" />
    <glyph glyph-name="oe" unicode="&#x153;" horiz-adv-x="937" 
d="M552 302h220q-3 41 -30 69t-80 28q-48 0 -77.5 -30t-32.5 -67zM292 106q52 0 88.5 37t36.5 103t-36.5 103t-88.5 37t-88.5 -37t-36.5 -103t36.5 -103t88.5 -37zM292 507q116 0 190 -80q74 80 178 80q114 0 178.5 -67.5t64.5 -187.5q0 -8 -0.5 -17.5t-1 -16t-0.5 -7.5
h-352q2 -48 38 -80t86 -32q85 0 112 75l111 -33q-19 -68 -78.5 -112t-145.5 -44q-117 0 -189 81q-75 -81 -191 -81q-111 0 -184.5 74t-73.5 187q0 114 73.5 187.5t184.5 73.5z" />
    <glyph glyph-name="Racute" unicode="&#x154;" 
d="M489 886l-145 -127h-122l103 127h164zM431 0l-139 273h-72v-273h-139v709h277q102 0 164 -62t62 -156q0 -74 -40.5 -127.5t-110.5 -73.5l152 -290h-154zM220 392h112q53 0 82 26.5t29 71.5q0 46 -29 72.5t-82 26.5h-112v-197z" />
    <glyph glyph-name="racute" unicode="&#x155;" horiz-adv-x="391" 
d="M356 701l-136 -150h-107l91 150h152zM371 494v-134q-17 4 -40 4q-57 0 -92 -32.5t-35 -106.5v-225h-133v492h129v-73q36 77 140 77q9 0 31 -2z" />
    <glyph glyph-name="Rcommaaccent" unicode="&#x156;" 
d="M431 0l-139 273h-72v-273h-139v709h277q102 0 164 -62t62 -156q0 -74 -40.5 -127.5t-110.5 -73.5l152 -290h-154zM220 392h112q53 0 82 26.5t29 71.5q0 46 -29 72.5t-82 26.5h-112v-197zM257 -99q0 27 20.5 45.5t52.5 18.5q34 0 57.5 -24.5t23.5 -62.5q0 -69 -42.5 -98
t-98.5 -29v48q35 0 56.5 13t24.5 34q-9 -7 -29 -7q-30 0 -47.5 17t-17.5 45z" />
    <glyph glyph-name="rcommaaccent" unicode="&#x157;" horiz-adv-x="391" 
d="M371 494v-134q-17 4 -40 4q-57 0 -92 -32.5t-35 -106.5v-225h-133v492h129v-73q36 77 140 77q9 0 31 -2zM62 -102q0 27 20.5 45.5t52.5 18.5q34 0 57.5 -24.5t23.5 -62.5q0 -69 -42.5 -98t-98.5 -29v48q35 0 56.5 13t24.5 34q-9 -7 -29 -7q-30 0 -47.5 17t-17.5 45z" />
    <glyph glyph-name="Rcaron" unicode="&#x158;" 
d="M123 886h124l66 -64l67 64h121l-122 -127h-136zM431 0l-139 273h-72v-273h-139v709h277q102 0 164 -62t62 -156q0 -74 -40.5 -127.5t-110.5 -73.5l152 -290h-154zM220 392h112q53 0 82 26.5t29 71.5q0 46 -29 72.5t-82 26.5h-112v-197z" />
    <glyph glyph-name="rcaron" unicode="&#x159;" horiz-adv-x="391" 
d="M36 700h107l70 -75l70 75h105l-109 -148h-133zM371 494v-134q-17 4 -40 4q-57 0 -92 -32.5t-35 -106.5v-225h-133v492h129v-73q36 77 140 77q9 0 31 -2z" />
    <glyph glyph-name="Sacute" unicode="&#x15a;" horiz-adv-x="604" 
d="M506 886l-145 -127h-122l103 127h164zM558 540l-124 -38q-8 40 -38 70t-91 30q-49 0 -80 -26.5t-31 -63.5q0 -64 77 -80l99 -19q94 -18 146 -75.5t52 -133.5q0 -88 -69.5 -153.5t-186.5 -65.5q-67 0 -121 20t-87 53.5t-51.5 71t-22.5 77.5l128 34q4 -56 44 -94.5
t111 -38.5q55 0 85 24t30 63q0 31 -22.5 53.5t-63.5 30.5l-99 20q-86 18 -136 70.5t-50 132.5q0 93 73 157.5t174 64.5q116 0 177.5 -55.5t76.5 -128.5z" />
    <glyph glyph-name="sacute" unicode="&#x15b;" horiz-adv-x="461" 
d="M415 701l-136 -150h-107l91 150h152zM29 137l114 25q2 -32 25 -53.5t65 -21.5q32 0 48.5 14t16.5 35q0 37 -53 48l-65 15q-69 15 -103.5 54t-34.5 93q0 67 52.5 114t131.5 47q93 0 140.5 -45.5t52.5 -96.5l-111 -25q-11 66 -81 66q-26 0 -44.5 -14t-18.5 -35
q0 -36 45 -44l70 -15q71 -15 108.5 -55t37.5 -96q0 -66 -50 -114t-141 -48q-52 0 -93 15.5t-63.5 40t-34.5 49t-14 47.5z" />
    <glyph glyph-name="Scircumflex" unicode="&#x15c;" horiz-adv-x="604" 
d="M251 759h-121l120 127h136l122 -127h-125l-67 65zM558 540l-124 -38q-8 40 -38 70t-91 30q-49 0 -80 -26.5t-31 -63.5q0 -64 77 -80l99 -19q94 -18 146 -75.5t52 -133.5q0 -88 -69.5 -153.5t-186.5 -65.5q-67 0 -121 20t-87 53.5t-51.5 71t-22.5 77.5l128 34
q4 -56 44 -94.5t111 -38.5q55 0 85 24t30 63q0 31 -22.5 53.5t-63.5 30.5l-99 20q-86 18 -136 70.5t-50 132.5q0 93 73 157.5t174 64.5q116 0 177.5 -55.5t76.5 -128.5z" />
    <glyph glyph-name="scircumflex" unicode="&#x15d;" horiz-adv-x="461" 
d="M167 552h-104l110 147h132l110 -147h-107l-71 75zM29 137l114 25q2 -32 25 -53.5t65 -21.5q32 0 48.5 14t16.5 35q0 37 -53 48l-65 15q-69 15 -103.5 54t-34.5 93q0 67 52.5 114t131.5 47q93 0 140.5 -45.5t52.5 -96.5l-111 -25q-11 66 -81 66q-26 0 -44.5 -14t-18.5 -35
q0 -36 45 -44l70 -15q71 -15 108.5 -55t37.5 -96q0 -66 -50 -114t-141 -48q-52 0 -93 15.5t-63.5 40t-34.5 49t-14 47.5z" />
    <glyph glyph-name="Scedilla" unicode="&#x15e;" horiz-adv-x="604" 
d="M278 -108l-36 45l31 50q-112 11 -173 75t-70 145l128 34q4 -56 44 -94.5t111 -38.5q55 0 85 24t30 63q0 31 -22.5 53.5t-63.5 30.5l-99 20q-86 18 -136 70.5t-50 132.5q0 93 73 157.5t174 64.5q116 0 177.5 -55.5t76.5 -128.5l-124 -38q-8 40 -38 70t-91 30
q-49 0 -80 -26.5t-31 -63.5q0 -64 77 -80l99 -19q94 -18 146 -75.5t52 -133.5q0 -79 -56.5 -140.5t-154.5 -75.5l-23 -36q43 -1 70 -24.5t27 -61.5t-32 -66.5t-96 -28.5q-39 0 -71 15.5t-48 36.5l43 54q37 -37 75 -37q41 0 41 28q0 12 -10.5 20t-27.5 8q-18 0 -27 -4z" />
    <glyph glyph-name="scedilla" unicode="&#x15f;" horiz-adv-x="461" 
d="M197 -108l-36 45l32 51q-79 11 -119 55.5t-45 93.5l114 25q2 -32 25 -53.5t65 -21.5q32 0 48.5 14t16.5 35q0 37 -53 48l-65 15q-69 15 -103.5 54t-34.5 93q0 67 52.5 114t131.5 47q93 0 140.5 -45.5t52.5 -96.5l-111 -25q-11 66 -81 66q-26 0 -44.5 -14t-18.5 -35
q0 -36 45 -44l70 -15q71 -15 108.5 -55t37.5 -96q0 -57 -39 -102.5t-110 -56.5l-23 -36q43 -1 70 -24.5t27 -61.5t-32 -66.5t-96 -28.5q-39 0 -71 15.5t-48 36.5l43 54q37 -37 75 -37q41 0 41 28q0 12 -10.5 20t-27.5 8q-18 0 -27 -4z" />
    <glyph glyph-name="Scaron" unicode="&#x160;" horiz-adv-x="604" 
d="M121 886h124l66 -64l67 64h121l-122 -127h-136zM558 540l-124 -38q-8 40 -38 70t-91 30q-49 0 -80 -26.5t-31 -63.5q0 -64 77 -80l99 -19q94 -18 146 -75.5t52 -133.5q0 -88 -69.5 -153.5t-186.5 -65.5q-67 0 -121 20t-87 53.5t-51.5 71t-22.5 77.5l128 34
q4 -56 44 -94.5t111 -38.5q55 0 85 24t30 63q0 31 -22.5 53.5t-63.5 30.5l-99 20q-86 18 -136 70.5t-50 132.5q0 93 73 157.5t174 64.5q116 0 177.5 -55.5t76.5 -128.5z" />
    <glyph glyph-name="scaron" unicode="&#x161;" horiz-adv-x="461" 
d="M55 700h107l70 -75l70 75h105l-109 -148h-133zM29 137l114 25q2 -32 25 -53.5t65 -21.5q32 0 48.5 14t16.5 35q0 37 -53 48l-65 15q-69 15 -103.5 54t-34.5 93q0 67 52.5 114t131.5 47q93 0 140.5 -45.5t52.5 -96.5l-111 -25q-11 66 -81 66q-26 0 -44.5 -14t-18.5 -35
q0 -36 45 -44l70 -15q71 -15 108.5 -55t37.5 -96q0 -66 -50 -114t-141 -48q-52 0 -93 15.5t-63.5 40t-34.5 49t-14 47.5z" />
    <glyph glyph-name="Tcommaaccent" unicode="&#x162;" horiz-adv-x="619" 
d="M269 -108l-36 45l40 63h-33v578h-224v131h587v-131h-224v-578h-24l-30 -48q43 -1 70 -24.5t27 -61.5t-32 -66.5t-96 -28.5q-39 0 -71 15.5t-48 36.5l43 54q37 -37 75 -37q41 0 41 28q0 12 -10.5 20t-27.5 8q-16 0 -27 -4z" />
    <glyph glyph-name="tcommaaccent" unicode="&#x163;" horiz-adv-x="373" 
d="M179 -108l-36 45l44 69q-84 36 -84 139v229h-89v118h25q37 0 56.5 21.5t19.5 56.5v69h120v-147h99v-118h-99v-206q0 -31 14 -44t44 -13q32 0 41 4v-110q-29 -12 -73 -12l-26 -41q43 -1 70 -24.5t27 -61.5t-32 -66.5t-96 -28.5q-39 0 -71 15.5t-48 36.5l43 54
q37 -37 75 -37q41 0 41 28q0 12 -10.5 20t-27.5 8q-16 0 -27 -4z" />
    <glyph glyph-name="Tcaron" unicode="&#x164;" horiz-adv-x="619" 
d="M120 886h124l66 -64l67 64h121l-122 -127h-136zM603 578h-224v-578h-139v578h-224v131h587v-131z" />
    <glyph glyph-name="tcaron" unicode="&#x165;" horiz-adv-x="431" 
d="M448 754l-72 -198h-89l29 198h132zM235 639v-147h99v-118h-99v-206q0 -31 14 -44t44 -13q32 0 41 4v-110q-29 -12 -75 -12q-72 0 -114 40t-42 112v229h-89v118h25q37 0 56.5 21.5t19.5 56.5v69h120z" />
    <glyph glyph-name="Tbar" unicode="&#x166;" horiz-adv-x="619" 
d="M603 578h-224v-206h122v-103h-122v-269h-139v269h-118v103h118v206h-224v131h587v-131z" />
    <glyph glyph-name="tbar" unicode="&#x167;" horiz-adv-x="383" 
d="M239 639v-147h99v-118h-99v-81h98v-96h-98v-29q0 -31 14 -44t44 -13q32 0 41 4v-110q-33 -12 -75 -12q-72 0 -114 40t-42 112v52h-90v96h90v81h-89v118h25q37 0 56.5 21.5t19.5 56.5v69h120z" />
    <glyph glyph-name="Utilde" unicode="&#x168;" horiz-adv-x="693" 
d="M346 -16q-118 0 -195 70.5t-77 196.5v458h138v-448q0 -69 35.5 -105.5t98.5 -36.5q64 0 99.5 36.5t35.5 105.5v448h138v-458q0 -126 -77 -196.5t-196 -70.5zM515 890v-28q0 -53 -28.5 -81.5t-72.5 -28.5q-38 0 -75 24l-6 4q-35 20 -48 20q-29 0 -29 -43h-80v27
q0 52 28.5 80.5t72.5 28.5q36 0 76 -23l6 -4q5 -2 16 -8t17.5 -8.5t13.5 -2.5q29 0 29 31v12h80z" />
    <glyph glyph-name="utilde" unicode="&#x169;" horiz-adv-x="586" 
d="M520 0h-127q-4 15 -4 53q-38 -66 -136 -66q-87 0 -137 55.5t-50 138.5v311h133v-284q0 -45 22.5 -72t67.5 -27q44 0 68.5 26.5t24.5 70.5v286h133v-403q0 -61 5 -89zM467 696v-18q0 -61 -29 -92t-78 -31q-39 0 -71 22l-6 4q-29 18 -47 18q-34 0 -35 -43h-82v21
q0 58 30.5 89.5t78.5 31.5q30 0 72 -22l6 -4q29 -19 48 -19q33 0 33 43h80z" />
    <glyph glyph-name="Umacron" unicode="&#x16a;" horiz-adv-x="693" 
d="M346 -16q-118 0 -195 70.5t-77 196.5v458h138v-448q0 -69 35.5 -105.5t98.5 -36.5q64 0 99.5 36.5t35.5 105.5v448h138v-458q0 -126 -77 -196.5t-196 -70.5zM499 774h-305v100h305v-100z" />
    <glyph glyph-name="umacron" unicode="&#x16b;" horiz-adv-x="586" 
d="M520 0h-127q-4 15 -4 53q-38 -66 -136 -66q-87 0 -137 55.5t-50 138.5v311h133v-284q0 -45 22.5 -72t67.5 -27q44 0 68.5 26.5t24.5 70.5v286h133v-403q0 -61 5 -89zM431 577h-281v97h281v-97z" />
    <glyph glyph-name="Ubreve" unicode="&#x16c;" horiz-adv-x="693" 
d="M346 -16q-118 0 -195 70.5t-77 196.5v458h138v-448q0 -69 35.5 -105.5t98.5 -36.5q64 0 99.5 36.5t35.5 105.5v448h138v-458q0 -126 -77 -196.5t-196 -70.5zM347 753q-76 0 -118 40.5t-45 94.5h102q1 -22 16.5 -36.5t44.5 -14.5t44.5 14.5t16.5 36.5h102
q-3 -54 -45 -94.5t-118 -40.5z" />
    <glyph glyph-name="ubreve" unicode="&#x16d;" horiz-adv-x="586" 
d="M520 0h-127q-4 15 -4 53q-38 -66 -136 -66q-87 0 -137 55.5t-50 138.5v311h133v-284q0 -45 22.5 -72t67.5 -27q44 0 68.5 26.5t24.5 70.5v286h133v-403q0 -61 5 -89zM289 549q-75 0 -117 44t-44 107h89q1 -23 19 -41t53 -18q34 0 51.5 17.5t20.5 41.5h89q-2 -63 -44 -107
t-117 -44z" />
    <glyph glyph-name="Uring" unicode="&#x16e;" horiz-adv-x="693" 
d="M346 -16q-118 0 -195 70.5t-77 196.5v458h138v-448q0 -69 35.5 -105.5t98.5 -36.5q64 0 99.5 36.5t35.5 105.5v448h138v-458q0 -126 -77 -196.5t-196 -70.5zM478 857q0 -54 -38.5 -90.5t-92.5 -36.5q-52 0 -91.5 36.5t-39.5 90.5t39.5 90.5t91.5 36.5q54 0 92.5 -36.5
t38.5 -90.5zM394 857q0 21 -13 34t-34 13t-34.5 -13t-13.5 -34t13.5 -34.5t34.5 -13.5t34 13.5t13 34.5z" />
    <glyph glyph-name="uring" unicode="&#x16f;" horiz-adv-x="586" 
d="M407 648q0 -47 -34 -78.5t-81 -31.5t-81 31.5t-34 78.5t34 79.5t81 32.5t81 -32.5t34 -79.5zM332 648q0 18 -12 30t-29 12t-28.5 -11.5t-11.5 -30.5q0 -18 11.5 -29.5t28.5 -11.5t29 11.5t12 29.5zM520 0h-127q-4 15 -4 53q-38 -66 -136 -66q-87 0 -137 55.5t-50 138.5
v311h133v-284q0 -45 22.5 -72t67.5 -27q44 0 68.5 26.5t24.5 70.5v286h133v-403q0 -61 5 -89z" />
    <glyph glyph-name="Uhungarumlaut" unicode="&#x170;" horiz-adv-x="693" 
d="M394 886l-94 -127h-86l53 127h127zM565 886l-108 -127h-88l67 127h129zM346 -16q-118 0 -195 70.5t-77 196.5v458h138v-448q0 -69 35.5 -105.5t98.5 -36.5q64 0 99.5 36.5t35.5 105.5v448h138v-458q0 -126 -77 -196.5t-196 -70.5z" />
    <glyph glyph-name="uhungarumlaut" unicode="&#x171;" horiz-adv-x="586" 
d="M520 0h-127q-4 15 -4 53q-38 -66 -136 -66q-87 0 -137 55.5t-50 138.5v311h133v-284q0 -45 22.5 -72t67.5 -27q44 0 68.5 26.5t24.5 70.5v286h133v-403q0 -61 5 -89zM336 701l-97 -150h-84l52 150h129zM503 701l-112 -150h-85l66 150h131z" />
    <glyph glyph-name="Uogonek" unicode="&#x172;" horiz-adv-x="693" 
d="M397 -223q-54 0 -88.5 29.5t-34.5 77.5q0 60 50 101q-110 6 -180 76t-70 190v458h138v-448q0 -69 35.5 -105.5t98.5 -36.5q64 0 99.5 36.5t35.5 105.5v448h138v-458q0 -97 -45.5 -160t-124.5 -91q-33 -12 -56 -35.5t-23 -55.5q0 -23 13.5 -35.5t35.5 -12.5q21 0 30 3v-79
q-21 -8 -52 -8z" />
    <glyph glyph-name="uogonek" unicode="&#x173;" horiz-adv-x="586" 
d="M468 -223q-54 0 -88.5 29.5t-34.5 77.5q0 71 72 116h-24q-4 15 -4 53q-38 -66 -136 -66q-87 0 -137 55.5t-50 138.5v311h133v-284q0 -45 22.5 -72t67.5 -27q44 0 68.5 26.5t24.5 70.5v286h133v-403q0 -61 5 -89q-79 -40 -79 -94q0 -22 13.5 -33.5t35.5 -11.5q19 0 30 3
v-79q-21 -8 -52 -8z" />
    <glyph glyph-name="Wcircumflex" unicode="&#x174;" horiz-adv-x="1027" 
d="M446 759h-121l120 127h136l122 -127h-125l-67 65zM746 219l128 490h141l-196 -709h-142l-162 505l-162 -505h-144l-197 709h146l130 -488l157 488h143z" />
    <glyph glyph-name="wcircumflex" unicode="&#x175;" horiz-adv-x="831" 
d="M346 552h-104l110 147h132l110 -147h-107l-71 75zM350 492h140l106 -317l91 317h132l-154 -492h-133l-115 336l-113 -336h-135l-157 492h140l91 -316z" />
    <glyph glyph-name="Ycircumflex" unicode="&#x176;" horiz-adv-x="655" 
d="M257 298l-247 411h162l159 -281l159 281h155l-250 -411v-298h-138v298zM259 759h-121l120 127h136l122 -127h-125l-67 65z" />
    <glyph glyph-name="ycircumflex" unicode="&#x177;" horiz-adv-x="560" 
d="M241 -194h-141l116 256l-209 430h149l131 -288l121 288h142zM208 552h-104l110 147h132l110 -147h-107l-71 75z" />
    <glyph glyph-name="Ydieresis" unicode="&#x178;" horiz-adv-x="655" 
d="M139 823q0 30 20.5 51t51.5 21t52 -21t21 -51q0 -31 -21 -51.5t-52 -20.5t-51.5 20.5t-20.5 51.5zM376 823q0 30 20.5 51t51.5 21q30 0 51 -21t21 -51q0 -31 -21 -51.5t-51 -20.5q-31 0 -51.5 20.5t-20.5 51.5zM257 298l-247 411h162l159 -281l159 281h155l-250 -411
v-298h-138v298z" />
    <glyph glyph-name="Zacute" unicode="&#x179;" horiz-adv-x="640" 
d="M495 886l-145 -127h-122l103 127h164zM597 0h-558v134l369 444h-356v131h540v-129l-375 -448h380v-132z" />
    <glyph glyph-name="zacute" unicode="&#x17a;" horiz-adv-x="481" 
d="M403 701l-136 -150h-107l91 150h152zM444 0h-407v117l233 260h-227v115h397v-111l-240 -265h244v-116z" />
    <glyph glyph-name="Zdotaccent" unicode="&#x17b;" horiz-adv-x="640" 
d="M597 0h-558v134l369 444h-356v131h540v-129l-375 -448h380v-132zM245 833q0 34 23.5 57t56.5 23q34 0 57.5 -23t23.5 -57q0 -33 -23.5 -56t-57.5 -23q-33 0 -56.5 23t-23.5 56z" />
    <glyph glyph-name="zdotaccent" unicode="&#x17c;" horiz-adv-x="481" 
d="M444 0h-407v117l233 260h-227v115h397v-111l-240 -265h244v-116zM162 627q0 33 23.5 56t56.5 23t56.5 -23t23.5 -56t-23.5 -55.5t-56.5 -22.5t-56.5 22.5t-23.5 55.5z" />
    <glyph glyph-name="Zcaron" unicode="&#x17d;" horiz-adv-x="640" 
d="M137 886h124l66 -64l67 64h121l-122 -127h-136zM597 0h-558v134l369 444h-356v131h540v-129l-375 -448h380v-132z" />
    <glyph glyph-name="zcaron" unicode="&#x17e;" horiz-adv-x="481" 
d="M68 700h107l70 -75l70 75h105l-109 -148h-133zM444 0h-407v117l233 260h-227v115h397v-111l-240 -265h244v-116z" />
    <glyph glyph-name="uni018F" unicode="&#x18f;" horiz-adv-x="787" 
d="M389 725q156 0 257.5 -99.5t101.5 -275.5q0 -165 -103.5 -265.5t-253.5 -100.5q-70 0 -133 24t-112.5 69.5t-79 117t-29.5 160.5q0 12 1 25h568q-4 105 -67.5 159.5t-152.5 54.5q-83 0 -140 -45t-73 -102l-128 46q26 94 119.5 163t224.5 69zM592 266h-397q14 -72 67 -113
t131 -41q77 0 131 40.5t68 113.5z" />
    <glyph glyph-name="florin" unicode="&#x192;" horiz-adv-x="513" 
d="M119 27l71 352h-98v112h121l19 92q15 78 68 117.5t119 39.5q43 0 89 -13v-115q-33 7 -62 7q-69 0 -84 -75l-11 -53h117v-112h-140l-79 -392q-16 -78 -68.5 -117.5t-118.5 -39.5q-50 0 -92 14v114q33 -7 65 -7q69 0 84 76z" />
    <glyph glyph-name="uni01B5" unicode="&#x1b5;" horiz-adv-x="640" 
d="M597 0h-558v134l145 175h-119v113h213l130 156h-356v131h540v-129l-133 -158h115v-113h-209l-148 -177h380v-132z" />
    <glyph glyph-name="uni01B6" unicode="&#x1b6;" horiz-adv-x="481" 
d="M444 0h-407v99l88 102h-80v95h162l72 84h-236v112h397v-102l-81 -94h78v-95h-160l-76 -88h243v-113z" />
    <glyph glyph-name="Aringacute" unicode="&#x1fa;" horiz-adv-x="722" 
d="M359 556l-98 -268h196zM563 1039l-145 -127h-122l103 127h164zM406 757q0 21 -13 34t-34 13t-34.5 -13t-13.5 -34t13.5 -34.5t34.5 -13.5t34 13.5t13 34.5zM490 757q0 -49 -34 -86l256 -671h-150l-59 162h-288l-59 -162h-146l256 667q-38 38 -38 90q0 54 39.5 90.5
t91.5 36.5q54 0 92.5 -36.5t38.5 -90.5z" />
    <glyph glyph-name="aringacute" unicode="&#x1fb;" horiz-adv-x="539" 
d="M41 134q0 63 40.5 101t106.5 48l121 18q37 5 37 35q0 28 -21.5 46t-61.5 18q-42 0 -66.5 -23t-27.5 -57l-118 25q7 64 62.5 113t148.5 49q110 0 162 -52.5t52 -134.5v-242q0 -44 6 -78h-122q-5 22 -5 59q-47 -73 -145 -73q-76 0 -122.5 44t-46.5 104zM238 85
q47 0 77.5 26.5t30.5 87.5v22l-111 -17q-61 -9 -61 -62q0 -24 17 -40.5t47 -16.5zM451 935l-136 -150h-107l91 150h152zM381 644q0 -47 -34 -78.5t-81 -31.5t-81 31.5t-34 78.5t34 79.5t81 32.5t81 -32.5t34 -79.5zM306 644q0 18 -12 30t-29 12t-28.5 -11.5t-11.5 -30.5
q0 -18 11.5 -29.5t28.5 -11.5t29 11.5t12 29.5z" />
    <glyph glyph-name="AEacute" unicode="&#x1fc;" horiz-adv-x="1060" 
d="M770 886l-145 -127h-122l103 127h164zM1003 0h-445v167h-274l-107 -167h-169l470 709h524v-130h-305v-162h276v-123h-276v-164h306v-130zM358 283h200v312z" />
    <glyph glyph-name="aeacute" unicode="&#x1fd;" horiz-adv-x="871" 
d="M614 701l-136 -150h-107l91 150h152zM715 176l112 -35q-19 -67 -80 -111.5t-146 -44.5q-118 0 -191 88q-66 -88 -187 -88q-84 0 -133 44t-49 105q0 63 40.5 101t106.5 48l126 18q37 5 37 35q0 28 -22 46.5t-64 18.5q-43 0 -69 -23t-29 -57l-116 24q6 65 64.5 113.5
t150.5 48.5q114 0 167 -64q69 64 162 64q113 0 176 -67.5t63 -187.5q0 -32 -3 -41h-353q2 -50 37.5 -81.5t86.5 -31.5q87 0 113 78zM242 85q45 0 77 27t32 86v23l-116 -17q-63 -9 -63 -62q0 -23 18.5 -40t51.5 -17zM481 302h222q-3 41 -30.5 69t-81.5 28q-48 0 -77.5 -30
t-32.5 -67z" />
    <glyph glyph-name="Oslashacute" unicode="&#x1fe;" horiz-adv-x="807" 
d="M604 886l-145 -127h-122l103 127h164zM39 354q0 166 107 268t257 102q99 0 181 -46l70 90l88 -66l-70 -91q96 -102 96 -257q0 -165 -107 -267t-258 -102q-96 0 -181 45l-68 -88l-90 65l71 91q-96 102 -96 256zM182 355q0 -86 40 -144l278 359q-45 21 -97 21
q-89 0 -155 -61.5t-66 -174.5zM625 355q0 86 -40 144l-278 -359q45 -21 96 -21q90 0 156 61.5t66 174.5z" />
    <glyph glyph-name="oslashacute" unicode="&#x1ff;" horiz-adv-x="584" 
d="M474 701l-136 -150h-107l91 150h152zM292 507q74 0 132 -34l53 65l64 -54l-52 -65q61 -70 61 -173q0 -113 -73.5 -187t-184.5 -74q-68 0 -128 31l-50 -62l-66 54l50 61q-64 75 -64 177q0 114 73.5 187.5t184.5 73.5zM167 246q0 -42 15 -72l163 201q-28 11 -53 11
q-52 0 -88.5 -37t-36.5 -103zM292 106q52 0 88.5 37t36.5 103q0 38 -13 68l-160 -199q22 -9 48 -9z" />
    <glyph glyph-name="Scommaaccent" unicode="&#x218;" horiz-adv-x="604" 
d="M558 540l-124 -38q-8 40 -38 70t-91 30q-49 0 -80 -26.5t-31 -63.5q0 -64 77 -80l99 -19q94 -18 146 -75.5t52 -133.5q0 -88 -69.5 -153.5t-186.5 -65.5q-67 0 -121 20t-87 53.5t-51.5 71t-22.5 77.5l128 34q4 -56 44 -94.5t111 -38.5q55 0 85 24t30 63q0 31 -22.5 53.5
t-63.5 30.5l-99 20q-86 18 -136 70.5t-50 132.5q0 93 73 157.5t174 64.5q116 0 177.5 -55.5t76.5 -128.5zM239 -102q0 27 20.5 45.5t52.5 18.5q34 0 57.5 -24.5t23.5 -62.5q0 -69 -42.5 -98t-98.5 -29v48q35 0 56.5 13t24.5 34q-9 -7 -29 -7q-30 0 -47.5 17t-17.5 45z" />
    <glyph glyph-name="scommaaccent" unicode="&#x219;" horiz-adv-x="461" 
d="M29 137l114 25q2 -32 25 -53.5t65 -21.5q32 0 48.5 14t16.5 35q0 37 -53 48l-65 15q-69 15 -103.5 54t-34.5 93q0 67 52.5 114t131.5 47q93 0 140.5 -45.5t52.5 -96.5l-111 -25q-11 66 -81 66q-26 0 -44.5 -14t-18.5 -35q0 -36 45 -44l70 -15q71 -15 108.5 -55t37.5 -96
q0 -66 -50 -114t-141 -48q-52 0 -93 15.5t-63.5 40t-34.5 49t-14 47.5zM157 -105q0 27 20.5 45.5t52.5 18.5q34 0 57.5 -24.5t23.5 -62.5q0 -69 -42.5 -98t-98.5 -29v48q35 0 56.5 13t24.5 34q-9 -7 -29 -7q-30 0 -47.5 17t-17.5 45z" />
    <glyph glyph-name="uni021A" unicode="&#x21a;" horiz-adv-x="619" 
d="M603 578h-224v-578h-139v578h-224v131h587v-131zM233 -102q0 27 20.5 45.5t52.5 18.5q34 0 57.5 -24.5t23.5 -62.5q0 -69 -42.5 -98t-98.5 -29v48q35 0 56.5 13t24.5 34q-9 -7 -29 -7q-30 0 -47.5 17t-17.5 45z" />
    <glyph glyph-name="uni021B" unicode="&#x21b;" horiz-adv-x="373" 
d="M235 639v-147h99v-118h-99v-206q0 -31 14 -44t44 -13q32 0 41 4v-110q-29 -12 -75 -12q-72 0 -114 40t-42 112v229h-89v118h25q37 0 56.5 21.5t19.5 56.5v69h120zM145 -102q0 27 20.5 45.5t52.5 18.5q34 0 57.5 -24.5t23.5 -62.5q0 -69 -42.5 -98t-98.5 -29v48
q35 0 56.5 13t24.5 34q-9 -7 -29 -7q-30 0 -47.5 17t-17.5 45z" />
    <glyph glyph-name="dotlessj" unicode="&#x237;" horiz-adv-x="275" 
d="M71 -30v522h133v-535q0 -72 -41.5 -117t-112.5 -45q-49 0 -75 11v111q13 -5 41 -5q55 0 55 58z" />
    <glyph glyph-name="uni0259" unicode="&#x259;" horiz-adv-x="557" 
d="M392 189h-227q2 -41 31.5 -69.5t83.5 -28.5q50 0 79 29t33 69zM150 315l-109 39q21 63 84 108t150 45q112 0 180 -72t68 -191q0 -115 -70.5 -187.5t-171.5 -72.5q-111 0 -179 69t-68 185q0 30 3 39h358q-3 54 -35.5 86t-86.5 32q-45 0 -77.5 -22t-45.5 -58z" />
    <glyph glyph-name="circumflex" unicode="&#x2c6;" horiz-adv-x="404" 
d="M130 552h-104l110 147h132l110 -147h-107l-71 75z" />
    <glyph glyph-name="caron" unicode="&#x2c7;" horiz-adv-x="404" 
d="M26 700h107l70 -75l70 75h105l-109 -148h-133z" />
    <glyph glyph-name="uni02C9" unicode="&#x2c9;" horiz-adv-x="335" 
d="M308 577h-281v97h281v-97z" />
    <glyph glyph-name="breve" unicode="&#x2d8;" horiz-adv-x="374" 
d="M187 549q-75 0 -117 44t-44 107h89q1 -23 19 -41t53 -18q34 0 51.5 17.5t20.5 41.5h89q-2 -63 -44 -107t-117 -44z" />
    <glyph glyph-name="dotaccent" unicode="&#x2d9;" horiz-adv-x="192" 
d="M16 627q0 33 23.5 56t56.5 23t56.5 -23t23.5 -56t-23.5 -55.5t-56.5 -22.5t-56.5 22.5t-23.5 55.5z" />
    <glyph glyph-name="ring" unicode="&#x2da;" horiz-adv-x="282" 
d="M256 648q0 -47 -34 -78.5t-81 -31.5t-81 31.5t-34 78.5t34 79.5t81 32.5t81 -32.5t34 -79.5zM181 648q0 18 -11.5 30t-29.5 12q-17 0 -28.5 -11.5t-11.5 -30.5q0 -18 11.5 -29.5t28.5 -11.5t29 11.5t12 29.5z" />
    <glyph glyph-name="ogonek" unicode="&#x2db;" horiz-adv-x="224" 
d="M146 -223q-54 0 -88.5 29.5t-34.5 77.5q0 83 103 132l72 -16q-79 -40 -79 -94q0 -45 51 -45q16 0 28 3v-79q-21 -8 -52 -8z" />
    <glyph glyph-name="tilde" unicode="&#x2dc;" horiz-adv-x="391" 
d="M369 696v-18q0 -61 -29 -92t-78 -31q-39 0 -71 22l-6 4q-29 18 -47 18q-34 0 -35 -43h-82v21q0 58 30.5 89.5t78.5 31.5q30 0 72 -22l6 -4q29 -19 48 -19q33 0 33 43h80z" />
    <glyph glyph-name="hungarumlaut" unicode="&#x2dd;" horiz-adv-x="396" 
d="M205 701l-97 -150h-84l52 150h129zM372 701l-112 -150h-85l66 150h131z" />
    <glyph glyph-name="uni0394" unicode="&#x394;" horiz-adv-x="691" 
d="M0 0l270 709h150l271 -709h-691zM345 559l-154 -431h309z" />
    <glyph glyph-name="uni03A9" unicode="&#x3a9;" horiz-adv-x="782" 
d="M391 595q-83 0 -143 -53.5t-60 -147.5q0 -81 48.5 -135t117.5 -69v-190h-302v126h179q-79 32 -132.5 105t-53.5 172q0 143 102 232.5t244 89.5t244 -89.5t102 -232.5q0 -99 -53.5 -172t-133.5 -105h179v-126h-302v190q69 15 118 69t49 135q0 94 -60 147.5t-143 53.5z" />
    <glyph glyph-name="uni03BC" unicode="&#x3bc;" horiz-adv-x="594" 
d="M526 0h-127q-4 15 -4 53q-38 -66 -136 -66q-33 0 -54 7v-184h-133v682h133v-284q0 -45 22.5 -72t67.5 -27q44 0 68.5 26.5t24.5 70.5v286h133v-403q0 -67 5 -89z" />
    <glyph glyph-name="pi" unicode="&#x3c0;" horiz-adv-x="638" 
d="M597 109v-104q-17 -13 -70 -13q-70 0 -106 39t-36 104v243h-133v-378h-133v378h-83v114h559v-114h-78v-225q0 -47 49 -47q7 0 12 0.5t10 1.5t9 1z" />
    <glyph glyph-name="Wgrave" unicode="&#x1e80;" horiz-adv-x="1027" 
d="M462 759l-145 127h163l104 -127h-122zM746 219l128 490h141l-196 -709h-142l-162 505l-162 -505h-144l-197 709h146l130 -488l157 488h143z" />
    <glyph glyph-name="wgrave" unicode="&#x1e81;" horiz-adv-x="831" 
d="M350 492h140l106 -317l91 317h132l-154 -492h-133l-115 336l-113 -336h-135l-157 492h140l91 -316zM366 551l-136 150h154l90 -150h-108z" />
    <glyph glyph-name="Wacute" unicode="&#x1e82;" horiz-adv-x="1027" 
d="M719 886l-145 -127h-122l103 127h164zM746 219l128 490h141l-196 -709h-142l-162 505l-162 -505h-144l-197 709h146l130 -488l157 488h143z" />
    <glyph glyph-name="wacute" unicode="&#x1e83;" horiz-adv-x="831" 
d="M603 701l-136 -150h-107l91 150h152zM350 492h140l106 -317l91 317h132l-154 -492h-133l-115 336l-113 -336h-135l-157 492h140l91 -316z" />
    <glyph glyph-name="Wdieresis" unicode="&#x1e84;" horiz-adv-x="1027" 
d="M302 823q0 30 20.5 51t51.5 21t52 -21t21 -51q0 -31 -21 -51.5t-52 -20.5t-51.5 20.5t-20.5 51.5zM585 823q0 30 20.5 51t50.5 21q31 0 52 -21t21 -51q0 -31 -21 -51.5t-52 -20.5q-30 0 -50.5 20.5t-20.5 51.5zM746 219l128 490h141l-196 -709h-142l-162 505l-162 -505
h-144l-197 709h146l130 -488l157 488h143z" />
    <glyph glyph-name="wdieresis" unicode="&#x1e85;" horiz-adv-x="831" 
d="M234 628q0 30 20 50.5t50 20.5q29 0 50 -21t21 -50t-21 -49.5t-50 -20.5q-30 0 -50 20.5t-20 49.5zM460 628q0 30 20 50.5t50 20.5q29 0 49.5 -21t20.5 -50t-20.5 -49.5t-49.5 -20.5q-30 0 -50 20.5t-20 49.5zM350 492h140l106 -317l91 317h132l-154 -492h-133l-115 336
l-113 -336h-135l-157 492h140l91 -316z" />
    <glyph glyph-name="uni1E8A" unicode="&#x1e8a;" horiz-adv-x="669" 
d="M651 709l-232 -355l233 -354h-167l-153 245l-154 -245h-162l233 355l-232 354h166l152 -245l155 245h161zM254 833q0 34 23.5 57t56.5 23q34 0 57.5 -23t23.5 -57q0 -33 -23.5 -56t-57.5 -23q-33 0 -56.5 23t-23.5 56z" />
    <glyph glyph-name="uni1E8B" unicode="&#x1e8b;" horiz-adv-x="532" 
d="M12 0l175 247l-175 245h158q8 -14 49 -73.5t49 -72.5l97 146h151l-172 -241l178 -251h-156l-103 151q-73 -105 -101 -151h-150zM186 627q0 33 23.5 56t56.5 23t56.5 -23t23.5 -56t-23.5 -55.5t-56.5 -22.5t-56.5 22.5t-23.5 55.5z" />
    <glyph glyph-name="Ygrave" unicode="&#x1ef2;" horiz-adv-x="655" 
d="M257 298l-247 411h162l159 -281l159 281h155l-250 -411v-298h-138v298zM284 759l-145 127h163l104 -127h-122z" />
    <glyph glyph-name="ygrave" unicode="&#x1ef3;" horiz-adv-x="560" 
d="M241 -194h-141l116 256l-209 430h149l131 -288l121 288h142zM240 551l-136 150h154l90 -150h-108z" />
    <glyph glyph-name="uni2007" unicode="&#x2007;" horiz-adv-x="624" 
 />
    <glyph glyph-name="uni2008" unicode="&#x2008;" horiz-adv-x="311" 
 />
    <glyph glyph-name="uni200B" unicode="&#x200b;" horiz-adv-x="0" 
 />
    <glyph glyph-name="endash" unicode="&#x2013;" horiz-adv-x="640" 
d="M578 239h-516v115h516v-115z" />
    <glyph glyph-name="emdash" unicode="&#x2014;" horiz-adv-x="1084" 
d="M1012 239h-940v115h940v-115z" />
    <glyph glyph-name="quoteleft" unicode="&#x2018;" horiz-adv-x="233" 
d="M199 508q0 -30 -22 -51.5t-56 -21.5q-39 0 -63 27.5t-24 68.5q0 90 48 135t107 50v-61q-32 -6 -56 -28t-26 -55q8 5 21 5q34 0 52.5 -18.5t18.5 -50.5z" />
    <glyph glyph-name="quoteright" unicode="&#x2019;" horiz-adv-x="235" 
d="M34 643q0 30 22.5 51.5t57.5 21.5q39 0 63 -28t24 -69q0 -90 -48.5 -137t-106.5 -52v61q32 6 56 29t26 56q-8 -5 -21 -5q-33 0 -53 19.5t-20 52.5z" />
    <glyph glyph-name="quotesinglbase" unicode="&#x201a;" horiz-adv-x="235" 
d="M34 69q0 30 22.5 51t57.5 21q39 0 63 -27.5t24 -69.5q0 -90 -48.5 -137t-106.5 -52v62q31 4 55.5 27t26.5 57q-8 -5 -21 -5q-33 0 -53 20t-20 53z" />
    <glyph glyph-name="quotedblleft" unicode="&#x201c;" horiz-adv-x="430" 
d="M199 508q0 -30 -22 -51.5t-56 -21.5q-39 0 -63 27.5t-24 68.5q0 90 48 135t107 50v-61q-32 -6 -56 -28t-26 -55q8 5 21 5q34 0 52.5 -18.5t18.5 -50.5zM396 508q0 -30 -22 -51.5t-56 -21.5q-39 0 -63 27.5t-24 68.5q0 90 48 135t107 50v-61q-32 -6 -56 -28t-26 -55
q8 5 21 5q34 0 52.5 -18.5t18.5 -50.5z" />
    <glyph glyph-name="quotedblright" unicode="&#x201d;" horiz-adv-x="429" 
d="M34 643q0 30 22.5 51.5t57.5 21.5q39 0 63 -28t24 -69q0 -90 -48.5 -137t-106.5 -52v61q32 6 56 29t26 56q-8 -5 -21 -5q-33 0 -53 19.5t-20 52.5zM230 643q0 30 22.5 51.5t57.5 21.5q39 0 63 -28t24 -69q0 -90 -48.5 -137t-106.5 -52v61q32 6 56 29t26 56q-8 -5 -21 -5
q-33 0 -53 19.5t-20 52.5z" />
    <glyph glyph-name="quotedblbase" unicode="&#x201e;" horiz-adv-x="429" 
d="M34 70q0 30 22.5 51t57.5 21q39 0 63 -27.5t24 -69.5q0 -90 -48.5 -137t-106.5 -52v62q31 4 55.5 27t26.5 57q-8 -5 -22 -5q-33 0 -52.5 20t-19.5 53zM228 70q0 30 22.5 51t57.5 21q39 0 63 -27.5t24 -69.5q0 -90 -48.5 -137t-106.5 -52v62q31 4 55.5 27t26.5 57
q-8 -5 -22 -5q-33 0 -52.5 20t-19.5 53z" />
    <glyph glyph-name="dagger" unicode="&#x2020;" horiz-adv-x="413" 
d="M262 163h-111v300h-123v104h123v142h111v-142h123v-104h-123v-300z" />
    <glyph glyph-name="daggerdbl" unicode="&#x2021;" horiz-adv-x="453" 
d="M48 247h123v215h-123v103h123v144h111v-144h123v-103h-123v-215h123v-103h-123v-144h-111v144h-123v103z" />
    <glyph glyph-name="bullet" unicode="&#x2022;" horiz-adv-x="532" 
d="M58 299q0 86 61 147.5t147 61.5t147 -61.5t61 -147.5t-61 -147.5t-147 -61.5t-147 61.5t-61 147.5z" />
    <glyph glyph-name="ellipsis" unicode="&#x2026;" horiz-adv-x="921" 
d="M846 70q0 -33 -23.5 -56.5t-57.5 -23.5q-33 0 -56.5 23.5t-23.5 56.5q0 34 23.5 57.5t56.5 23.5q34 0 57.5 -23.5t23.5 -57.5zM541 70q0 -33 -23.5 -56.5t-57.5 -23.5q-33 0 -57 23.5t-24 56.5q0 34 24 57.5t57 23.5q34 0 57.5 -23.5t23.5 -57.5zM236 70q0 -33 -23 -56.5
t-57 -23.5t-57.5 23.5t-23.5 56.5q0 34 23.5 57.5t57.5 23.5t57 -23.5t23 -57.5z" />
    <glyph glyph-name="perthousand" unicode="&#x2030;" horiz-adv-x="1189" 
d="M52 544q0 73 53 124.5t126 51.5t126 -51.5t53 -124.5q0 -74 -53 -124.5t-127 -50.5q-73 0 -125.5 50.5t-52.5 124.5zM272 0h-119l502 709h118zM155 544q0 -35 21.5 -56.5t54.5 -21.5t53.5 21.5t20.5 56.5t-20.5 56.5t-53.5 21.5t-54.5 -21.5t-21.5 -56.5zM514 165
q0 73 53.5 124.5t127.5 51.5q82 0 132 -64q50 64 131 64q74 0 127.5 -51.5t53.5 -124.5q0 -74 -53.5 -125t-127.5 -51q-82 0 -131 62q-49 -62 -133 -62q-74 0 -127 51t-53 125zM618 165q0 -35 22 -57t55 -22t54 22t21 57t-21 56.5t-54 21.5t-55 -21.5t-22 -56.5zM882 165
q0 -35 21.5 -57t54.5 -22t55 22t22 57t-22 56.5t-55 21.5t-54.5 -21.5t-21.5 -56.5z" />
    <glyph glyph-name="guilsinglleft" unicode="&#x2039;" horiz-adv-x="307" 
d="M290 101h-126l-137 194l138 197h125l-136 -198z" />
    <glyph glyph-name="guilsinglright" unicode="&#x203a;" horiz-adv-x="307" 
d="M144 101h-126l135 193l-136 198h126l137 -197z" />
    <glyph glyph-name="uni2042" unicode="&#x2042;" horiz-adv-x="837" 
d="M463 708v-111l101 34l29 -85l-103 -33l65 -87l-72 -53l-67 88l-64 -88l-72 54l63 86l-102 33l28 85l101 -34v111h93zM256 322v-111l101 34l29 -85l-103 -33l65 -87l-72 -53l-67 88l-64 -88l-72 54l63 86l-102 33l28 85l101 -34v111h93zM674 322v-111l101 34l29 -85
l-103 -33l65 -87l-72 -53l-67 88l-64 -88l-72 54l63 86l-102 33l28 85l101 -34v111h93z" />
    <glyph glyph-name="fraction" unicode="&#x2044;" horiz-adv-x="616" 
d="M116 0h-116l500 709h116z" />
    <glyph glyph-name="uni2051" unicode="&#x2051;" horiz-adv-x="428" 
d="M260 708v-111l101 34l29 -85l-103 -33l65 -87l-72 -53l-67 88l-64 -88l-72 54l63 86l-102 33l28 85l101 -34v111h93zM260 325v-111l101 34l29 -85l-103 -33l65 -87l-72 -53l-67 88l-64 -88l-72 54l63 86l-102 33l28 85l101 -34v111h93z" />
    <glyph glyph-name="uni2070" unicode="&#x2070;" horiz-adv-x="434" 
d="M155 525q0 -107 62 -107q63 0 63 107q0 108 -63 108q-62 0 -62 -108zM51 525q0 83 36 131q47 61 130 61q84 0 131 -61q35 -48 35 -131q0 -82 -35 -130q-46 -61 -131 -61q-84 0 -130 61q-36 48 -36 130z" />
    <glyph glyph-name="uni2074" unicode="&#x2074;" horiz-adv-x="441" 
d="M51 412v99l169 198h109v-218h61v-79h-61v-71h-100v71h-178zM229 491v114l-97 -114h97z" />
    <glyph glyph-name="uni2075" unicode="&#x2075;" horiz-adv-x="405" 
d="M51 445l89 23q3 -23 20 -36.5t41 -13.5t38.5 12.5t14.5 35.5q0 51 -56 51q-32 0 -52 -22l-83 25l46 189h222v-83h-162l-15 -63q26 23 71 23q60 0 94.5 -31.5t34.5 -87.5t-40.5 -94t-112.5 -38q-59 0 -101.5 32t-48.5 78z" />
    <glyph glyph-name="uni2076" unicode="&#x2076;" horiz-adv-x="419" 
d="M353 699l-18 -77q-33 12 -65 12q-42 0 -74 -20t-43 -62q30 32 85 32q57 0 93.5 -31t36.5 -88q0 -58 -44 -95.5t-113 -37.5q-68 0 -114 45.5t-46 123.5q0 98 60.5 156t152.5 58q50 0 89 -16zM157 462q0 -21 16 -35t38 -14t38 14t16 35q0 23 -15.5 36.5t-38.5 13.5
q-22 0 -38 -14t-16 -36z" />
    <glyph glyph-name="uni2077" unicode="&#x2077;" horiz-adv-x="409" 
d="M358 709v-85q-18 -14 -35.5 -32.5t-41.5 -52.5t-41.5 -85.5t-23.5 -112.5h-107q9 118 69 211q24 40 59 73h-186v84h307z" />
    <glyph glyph-name="uni2078" unicode="&#x2078;" horiz-adv-x="420" 
d="M210 562q21 0 33 11t12 28q0 14 -11.5 25t-33.5 11t-34 -11t-12 -25q0 -17 12 -28t34 -11zM210 412q28 0 41.5 12t13.5 31q0 16 -14.5 28t-40.5 12q-27 0 -41 -11.5t-14 -28.5q0 -19 13.5 -31t41.5 -12zM210 333q-74 0 -115 30t-41 80q0 30 20 53.5t53 33.5
q-29 9 -45.5 32t-16.5 50q0 46 38.5 75t106.5 29q67 0 105.5 -29t38.5 -75q0 -27 -16.5 -50t-45.5 -32q32 -9 53 -32.5t21 -52.5q0 -51 -41 -81.5t-115 -30.5z" />
    <glyph glyph-name="uni2079" unicode="&#x2079;" horiz-adv-x="418" 
d="M70 349l17 78q33 -12 63 -12q102 0 119 83q-30 -33 -86 -33q-55 0 -93.5 32t-38.5 87q0 60 42.5 96.5t114.5 36.5q68 0 113 -45.5t45 -124.5q0 -101 -57.5 -157.5t-147.5 -56.5q-50 0 -91 16zM259 587q0 21 -16 35t-38 14q-23 0 -38.5 -13.5t-15.5 -35.5q0 -23 15 -37
t39 -14q22 0 38 14t16 37z" />
    <glyph glyph-name="uni2080" unicode="&#x2080;" horiz-adv-x="434" 
d="M155 80q0 -107 62 -107q63 0 63 107q0 108 -63 108q-62 0 -62 -108zM51 80q0 83 36 131q47 61 130 61q84 0 131 -61q35 -48 35 -131q0 -82 -35 -130q-46 -61 -131 -61q-84 0 -130 61q-36 48 -36 130z" />
    <glyph glyph-name="uni2081" unicode="&#x2081;" horiz-adv-x="307" 
d="M232 -104h-103v223h-91v66q44 0 70 23.5t33 54.5h91v-367z" />
    <glyph glyph-name="uni2082" unicode="&#x2082;" horiz-adv-x="394" 
d="M149 120l-91 -1q-4 9 -4 29q0 54 37.5 89t106.5 35q66 0 104 -35t38 -87q0 -64 -79 -112l-70 -42q-12 -8 -12 -15h164v-85h-291v12q0 105 89 157l60 35q38 23 38 51q0 16 -11 27.5t-31 11.5q-23 0 -37 -14t-14 -38q0 -9 3 -18z" />
    <glyph glyph-name="uni2083" unicode="&#x2083;" horiz-adv-x="411" 
d="M51 4l91 21q2 -24 18.5 -38.5t42.5 -14.5q24 0 39 12.5t15 31.5q0 22 -15.5 33.5t-37.5 11.5q-18 0 -32 -6l-33 68l87 59h-161v83h284v-82l-90 -61q47 -6 74 -33.5t27 -74.5q0 -52 -43 -88.5t-114 -36.5q-64 0 -105 33.5t-47 81.5z" />
    <glyph glyph-name="uni2084" unicode="&#x2084;" horiz-adv-x="441" 
d="M51 -33v99l169 198h109v-218h61v-79h-61v-71h-100v71h-178zM229 46v114l-97 -114h97z" />
    <glyph glyph-name="uni2085" unicode="&#x2085;" horiz-adv-x="405" 
d="M51 0l89 23q3 -23 20 -36.5t41 -13.5t38.5 12.5t14.5 35.5q0 51 -56 51q-32 0 -52 -22l-83 25l46 189h222v-83h-162l-15 -63q26 23 71 23q60 0 94.5 -31.5t34.5 -87.5t-40.5 -94t-112.5 -38q-59 0 -101.5 32t-48.5 78z" />
    <glyph glyph-name="uni2086" unicode="&#x2086;" horiz-adv-x="419" 
d="M353 255l-18 -77q-33 12 -65 12q-42 0 -74 -20t-43 -62q30 32 85 32q57 0 93.5 -31t36.5 -88q0 -58 -44 -95.5t-113 -37.5q-68 0 -114 45.5t-46 123.5q0 98 60.5 156t152.5 58q50 0 89 -16zM157 18q0 -21 16 -35t38 -14t38 14t16 35q0 23 -15.5 36.5t-38.5 13.5
q-22 0 -38 -14t-16 -36z" />
    <glyph glyph-name="uni2087" unicode="&#x2087;" horiz-adv-x="409" 
d="M358 263v-85q-18 -14 -35.5 -32.5t-41.5 -52.5t-41.5 -85.5t-23.5 -112.5h-107q9 118 69 211q24 40 59 73h-186v84h307z" />
    <glyph glyph-name="uni2088" unicode="&#x2088;" horiz-adv-x="420" 
d="M210 117q21 0 33 11t12 28q0 14 -11.5 25t-33.5 11t-34 -11t-12 -25q0 -17 12 -28t34 -11zM210 -33q28 0 41.5 12t13.5 31q0 16 -14.5 28t-40.5 12q-27 0 -41 -11.5t-14 -28.5q0 -19 13.5 -31t41.5 -12zM210 -112q-74 0 -115 30t-41 80q0 30 20 53.5t53 33.5
q-29 9 -45.5 32t-16.5 50q0 46 38.5 75t106.5 29q67 0 105.5 -29t38.5 -75q0 -27 -16.5 -50t-45.5 -32q32 -9 53 -32.5t21 -52.5q0 -51 -41 -81.5t-115 -30.5z" />
    <glyph glyph-name="uni2089" unicode="&#x2089;" horiz-adv-x="418" 
d="M70 -95l17 78q33 -12 63 -12q102 0 119 83q-30 -33 -86 -33q-55 0 -93.5 32t-38.5 87q0 60 42.5 96.5t114.5 36.5q68 0 113 -45.5t45 -124.5q0 -101 -57.5 -157.5t-147.5 -56.5q-50 0 -91 16zM259 143q0 21 -16 35t-38 14q-23 0 -38.5 -13.5t-15.5 -35.5q0 -23 15 -37
t39 -14q22 0 38 14t16 37z" />
    <glyph glyph-name="Euro" unicode="&#x20ac;" horiz-adv-x="743" 
d="M658 157l65 -99q-87 -73 -213 -73q-115 0 -207.5 61t-131.5 170h-102v99h81q-1 11 -1 39q0 25 1 36h-81v98h101q37 110 132 173t209 63q111 0 187 -51l-52 -106q-50 36 -135 36q-63 0 -115 -29t-81 -86h294l-48 -98h-272q-2 -7 -2 -36q0 -32 2 -39h242l-46 -99h-166
q57 -109 191 -109q93 0 148 50z" />
    <glyph glyph-name="uni2113" unicode="&#x2113;" horiz-adv-x="429" 
d="M29 154v117q31 7 69 23v202q0 77 42.5 122t109.5 45q70 0 110 -42t40 -117t-48 -149.5t-132 -128.5v-37q0 -40 21 -59t47 -19q52 0 91 25v-111q-30 -30 -105 -30q-85 0 -130.5 48t-45.5 123v5q-40 -12 -69 -17zM279 509q0 41 -29 41q-30 0 -30 -48v-130q59 63 59 137z
" />
    <glyph glyph-name="trademark" unicode="&#x2122;" horiz-adv-x="876" 
d="M334 625h-103v-281h-94v281h-104v84h301v-84zM816 344h-91v222l-89 -222h-68l-90 219v-219h-91v365h128l89 -214l86 214h126v-365z" />
    <glyph glyph-name="Omega" unicode="&#x2126;" horiz-adv-x="782" 
d="M391 595q-83 0 -143 -53.5t-60 -147.5q0 -81 48.5 -135t117.5 -69v-190h-302v126h179q-79 32 -132.5 105t-53.5 172q0 143 102 232.5t244 89.5t244 -89.5t102 -232.5q0 -99 -53.5 -172t-133.5 -105h179v-126h-302v190q69 15 118 69t49 135q0 94 -60 147.5t-143 53.5z" />
    <glyph glyph-name="uni2160" unicode="&#x2160;" horiz-adv-x="498" 
d="M452 649v-117h-134v-415h134v-117h-406v117h135v415h-135v117h406z" />
    <glyph glyph-name="uni2161" unicode="&#x2161;" horiz-adv-x="786" 
d="M740 117v-117h-694v117h137v415h-137v117h694v-117h-136v-415h136zM467 117v415h-147v-415h147z" />
    <glyph glyph-name="uni2162" unicode="&#x2162;" horiz-adv-x="1060" 
d="M1014 117v-117h-968v117h137v415h-137v117h968v-117h-136v-415h136zM741 117v415h-142v-415h142zM320 532v-415h142v415h-142z" />
    <glyph glyph-name="uni2163" unicode="&#x2163;" horiz-adv-x="1053" 
d="M1007 117v-117h-961v117h132v415h-132v117h961v-117h-108l-134 -415h242zM315 532v-415h213l-136 415h-77zM648 166l112 366h-224z" />
    <glyph glyph-name="uni2164" unicode="&#x2164;" horiz-adv-x="808" 
d="M762 649v-117h-106l-134 -415h238v-117h-712v117h237l-136 415h-103v117h716zM405 166l112 366h-224z" />
    <glyph glyph-name="uni2165" unicode="&#x2165;" horiz-adv-x="1050" 
d="M1004 117v-117h-958v117h240l-136 415h-104v117h958v-117h-131v-415h131zM659 532l-135 -415h212v415h-77zM407 166l112 366h-225z" />
    <glyph glyph-name="uni2166" unicode="&#x2166;" horiz-adv-x="1330" 
d="M1284 117v-117h-1238v117h240l-136 415h-104v117h1237v-117h-135v-415h136zM1011 117v415h-139v-415h139zM658 532l-135 -415h212v415h-77zM407 166l111 366h-224z" />
    <glyph glyph-name="uni2167" unicode="&#x2167;" horiz-adv-x="1594" 
d="M1548 117v-117h-1502v117h239l-134 415h-105v117h1501v-117h-133v-415h134zM654 532l-132 -415h211v415h-79zM870 532v-415h135v415h-135zM1142 532v-415h135v415h-135zM405 166l110 366h-220z" />
    <glyph glyph-name="uni2168" unicode="&#x2168;" horiz-adv-x="1026" 
d="M980 117v-117h-934v117h132v415h-132v117h934v-117h-103l-154 -213l149 -202h108zM549 321l-154 211h-80v-415h83zM556 532l81 -115l81 115h-162zM634 225l-77 -108h154z" />
    <glyph glyph-name="uni2169" unicode="&#x2169;" horiz-adv-x="780" 
d="M734 649v-117h-103l-154 -213l149 -202h108v-117h-688v117h106l151 204l-154 211h-103v117h688zM310 532l80 -115l81 115h-161zM388 225l-77 -108h153z" />
    <glyph glyph-name="uni216C" unicode="&#x216c;" horiz-adv-x="658" 
d="M612 292v-292h-566v117h117v415h-117v117h382v-117h-128v-415h181v175h131z" />
    <glyph glyph-name="uni216D" unicode="&#x216d;" horiz-adv-x="736" 
d="M690 245v-245h-134v60q-65 -75 -182 -75q-138 0 -233 94t-95 245q0 150 95.5 245t230.5 95q114 0 180 -73v58h133v-240h-133q-10 54 -52 94t-122 40q-82 0 -140.5 -56.5t-58.5 -162.5q0 -101 58 -158.5t143 -57.5q81 0 124.5 43t51.5 94h134z" />
    <glyph glyph-name="uni216E" unicode="&#x216e;" horiz-adv-x="743" 
d="M46 649h336q142 -2 228.5 -89t86.5 -236q0 -150 -88.5 -237t-231.5 -87h-331v117h123v415h-123v117zM306 117h65q82 0 134.5 54.5t52.5 152.5q0 100 -53.5 154t-135.5 54h-63v-415z" />
    <glyph glyph-name="uni216F" unicode="&#x216f;" horiz-adv-x="1051" 
d="M375 117v-117h-329v117h117v415h-117v117h305l173 -433l169 433h312v-117h-117v-415h117v-117h-335v117h83v330l-179 -441h-101l-178 439v-328h80z" />
    <glyph glyph-name="arrowleft" unicode="&#x2190;" horiz-adv-x="1062" 
d="M254 72l-263 225l263 225v-168h747v-115h-747v-167z" />
    <glyph glyph-name="arrowup" unicode="&#x2191;" horiz-adv-x="486" 
d="M262 800l229 -267h-172v-680h-114v680h-174z" />
    <glyph glyph-name="arrowright" unicode="&#x2192;" horiz-adv-x="1085" 
d="M1050 297l-294 -235v177h-731v115h731v179z" />
    <glyph glyph-name="arrowdown" unicode="&#x2193;" horiz-adv-x="478" 
d="M460 117l-234 -269l-235 269h178v677h114v-677h177z" />
    <glyph glyph-name="uni2196" unicode="&#x2196;" horiz-adv-x="876" 
d="M64 708h332l-125 -126l514 -513l-81 -81l-514 513l-126 -127v334z" />
    <glyph glyph-name="uni2197" unicode="&#x2197;" horiz-adv-x="757" 
d="M334 708h332v-334l-127 127l-513 -513l-81 81l513 513z" />
    <glyph glyph-name="uni2198" unicode="&#x2198;" horiz-adv-x="858" 
d="M767 1h-332l124 125l-513 514l81 81l513 -514l127 128v-334z" />
    <glyph glyph-name="uni2199" unicode="&#x2199;" horiz-adv-x="748" 
d="M368 1h-332v334l126 -128l514 514l81 -81l-514 -514z" />
    <glyph glyph-name="uni21A9" unicode="&#x21a9;" horiz-adv-x="861" 
d="M241 50l-263 224l263 226v-169h360q53 0 89 29t36 74q0 48 -34.5 75.5t-92.5 27.5h-195v115h201q105 0 172 -62t67 -156t-66.5 -156.5t-172.5 -62.5h-364v-165z" />
    <glyph glyph-name="uni21B0" unicode="&#x21b0;" horiz-adv-x="804" 
d="M301 274l-263 225l263 226v-168h422v-557h-114v442h-308v-168z" />
    <glyph glyph-name="uni21B1" unicode="&#x21b1;" horiz-adv-x="749" 
d="M150 0h-115v557h442v168l263 -226l-263 -225v168h-327v-442z" />
    <glyph glyph-name="uni21B2" unicode="&#x21b2;" horiz-adv-x="771" 
d="M578 709h114v-557h-442v-168l-263 226l263 225v-168h328v442z" />
    <glyph glyph-name="uni21B3" unicode="&#x21b3;" horiz-adv-x="851" 
d="M515 435l263 -225l-263 -226v168h-442v557h115v-442h327v168z" />
    <glyph glyph-name="uni21B4" unicode="&#x21b4;" horiz-adv-x="799" 
d="M61 594v115h565v-467h168l-223 -257l-225 257h165v352h-450z" />
    <glyph glyph-name="uni21C6" unicode="&#x21c6;" horiz-adv-x="1167" 
d="M1112 162l-263 -224v167h-757v115h757v168zM327 332l-263 224l263 226v-170h756v-115h-756v-165z" />
    <glyph glyph-name="partialdiff" unicode="&#x2202;" horiz-adv-x="621" 
d="M252 600q-71 0 -145 -34l-46 106q85 49 199 49q42 0 82.5 -8.5t85 -33.5t77.5 -65t54.5 -108.5t21.5 -157.5q0 -163 -74 -263.5t-216 -100.5q-105 0 -180 64.5t-75 179.5q0 105 73.5 168t170.5 63q109 0 161 -56q-6 100 -57.5 148.5t-131.5 48.5zM310 346
q-68 0 -103.5 -34.5t-35.5 -89.5q0 -52 38 -83.5t87 -31.5q75 0 111.5 56.5t36.5 126.5q-50 56 -134 56z" />
    <glyph glyph-name="Delta" unicode="&#x2206;" horiz-adv-x="691" 
d="M0 0l270 709h150l271 -709h-691zM345 559l-154 -431h309z" />
    <glyph glyph-name="product" unicode="&#x220f;" horiz-adv-x="686" 
d="M605 0h-138v582h-248v-582h-138v709h524v-709z" />
    <glyph glyph-name="summation" unicode="&#x2211;" horiz-adv-x="569" 
d="M36 0v125l256 229l-256 230v125h514v-128h-325l252 -227l-261 -226h334v-128h-514z" />
    <glyph glyph-name="minus" unicode="&#x2212;" horiz-adv-x="573" 
d="M524 281h-475v109h475v-109z" />
    <glyph glyph-name="uni2215" unicode="&#x2215;" horiz-adv-x="444" 
d="M444 658l-324 -668h-120l323 668h121z" />
    <glyph glyph-name="uni2219" unicode="&#x2219;" horiz-adv-x="288" 
d="M61 309q0 36 25 60.5t61 24.5t61 -24.5t25 -60.5t-25 -60t-61 -24t-61 24t-25 60z" />
    <glyph glyph-name="radical" unicode="&#x221a;" horiz-adv-x="697" 
d="M729 768h-131l-258 -768h-118l-190 537h130l120 -354l228 696h219v-111z" />
    <glyph glyph-name="infinity" unicode="&#x221e;" horiz-adv-x="831" 
d="M414 241q-88 -96 -180 -96q-83 0 -137.5 52.5t-54.5 132.5t54.5 133t137.5 53q96 0 183 -99q90 99 180 99q83 0 137.5 -53t54.5 -133t-54.5 -132.5t-137.5 -52.5q-97 0 -183 96zM236 402q-34 0 -54.5 -20.5t-20.5 -52.5q0 -31 20.5 -51.5t54.5 -20.5q49 0 107 70
q-30 37 -54.5 56t-52.5 19zM595 257q35 0 55 20.5t20 51.5q0 32 -20.5 52.5t-54.5 20.5q-28 0 -52 -18t-55 -55q61 -72 107 -72z" />
    <glyph glyph-name="integral" unicode="&#x222b;" horiz-adv-x="350" 
d="M109 -17v542q0 85 49.5 135t135.5 50h51v-118h-45q-27 0 -42.5 -16.5t-15.5 -48.5v-542q0 -85 -48.5 -135t-134.5 -50h-54v117h46q27 0 42.5 17t15.5 49z" />
    <glyph glyph-name="approxequal" unicode="&#x2248;" horiz-adv-x="594" 
d="M492 503l70 -59q-56 -100 -162 -100q-54 0 -108 30l-47 26q-29 15 -55 15q-50 0 -86 -48l-72 59q57 101 161 101q53 0 108 -30l48 -26q28 -16 56 -16q51 0 87 48zM492 301l70 -58q-58 -100 -161 -100q-56 0 -109 30l-47 26q-26 14 -52 14q-53 0 -89 -47l-72 59
q57 101 162 101q52 0 107 -30l48 -26q28 -16 57 -16q52 0 86 47z" />
    <glyph glyph-name="notequal" unicode="&#x2260;" horiz-adv-x="603" 
d="M544 182h-279l-63 -97h-120l63 97h-86v108h157l59 91h-216v107h286l60 92h120l-60 -92h79v-107h-149l-59 -91h208v-108z" />
    <glyph glyph-name="lessequal" unicode="&#x2264;" horiz-adv-x="545" 
d="M56 193h430v-109h-430v109zM56 356v108l430 136v-110l-279 -78l279 -79v-112z" />
    <glyph glyph-name="greaterequal" unicode="&#x2265;" horiz-adv-x="545" 
d="M59 193h430v-109h-430v109zM489 464v-108l-430 -135v110l279 78l-279 79v112z" />
    <glyph glyph-name="dotmath" unicode="&#x22c5;" horiz-adv-x="288" 
d="M61 309q0 36 25 60.5t61 24.5t61 -24.5t25 -60.5t-25 -60t-61 -24t-61 24t-25 60z" />
    <glyph glyph-name="uni24C5" unicode="&#x24c5;" horiz-adv-x="816" 
d="M124 354q0 -122 82 -206.5t201 -84.5t201 84.5t82 206.5q0 123 -82 207.5t-201 84.5t-201 -84.5t-82 -207.5zM39 354q0 153 107.5 262t260.5 109t261.5 -109t108.5 -262q0 -152 -108.5 -261t-261.5 -109t-260.5 108.5t-107.5 261.5zM377 370h54q27 0 42.5 14.5t15.5 38.5
q0 25 -15.5 39.5t-42.5 14.5h-54v-107zM448 292h-71v-137h-94v400h165q57 0 97 -39t40 -93t-40 -92.5t-97 -38.5z" />
    <glyph glyph-name="filledbox" unicode="&#x25a0;" horiz-adv-x="908" 
d="M101 0v709h706v-709h-706z" />
    <glyph glyph-name="H22073" unicode="&#x25a1;" horiz-adv-x="908" 
d="M807 0h-706v709h706v-709zM215 597v-486h475v486h-475z" />
    <glyph glyph-name="uni25AF" unicode="&#x25af;" horiz-adv-x="584" 
d="M71 0v709h442v-709h-442zM180 109h224v491h-224v-491z" />
    <glyph glyph-name="triagup" unicode="&#x25b2;" horiz-adv-x="838" 
d="M421 725l417 -725h-838z" />
    <glyph glyph-name="uni25B3" unicode="&#x25b3;" horiz-adv-x="838" 
d="M419 725l419 -725h-838zM639 112l-220 384l-221 -384h441z" />
    <glyph glyph-name="lozenge" unicode="&#x25ca;" horiz-adv-x="617" 
d="M180 354l129 -222l128 222l-128 223zM29 354l207 355h145l207 -355l-207 -354h-145z" />
    <glyph glyph-name="circle" unicode="&#x25cb;" horiz-adv-x="813" 
d="M36 354q0 154 108.5 262.5t262.5 108.5t262 -108.5t108 -262.5t-108 -262t-262 -108t-262.5 108t-108.5 262zM151 354q0 -106 75 -182t181 -76q105 0 179 76t74 182t-74 182t-179 76q-106 0 -181 -76t-75 -182z" />
    <glyph glyph-name="H18533" unicode="&#x25cf;" horiz-adv-x="813" 
d="M36 354q0 154 108 262.5t262 108.5t262.5 -108.5t108.5 -262.5t-108.5 -262t-262.5 -108t-262 108t-108 262z" />
    <glyph glyph-name="uni262E" unicode="&#x262e;" horiz-adv-x="815" 
d="M776 354q0 -153 -108 -261.5t-261 -108.5t-260.5 108.5t-107.5 261.5q0 154 107.5 262.5t260.5 108.5t261 -108.5t108 -262.5zM663 354q0 93 -57 164t-145 92v-194l181 -157q21 47 21 95zM150 354q0 -51 19 -93l180 155v192q-87 -21 -143 -91t-56 -163zM461 274v-175
q68 16 122 65zM349 274l-121 -108q49 -50 121 -67v175z" />
    <glyph glyph-name="uni2713" unicode="&#x2713;" horiz-adv-x="942" 
d="M926 645l-617 -661l-293 324l83 78l214 -233l531 573z" />
    <glyph glyph-name="uni2715" unicode="&#x2715;" horiz-adv-x="755" 
d="M656 -5l-280 279l-277 -279l-80 81l277 279l-277 277l81 80l276 -276l274 276l80 -80l-274 -277l280 -279z" />
    <glyph glyph-name="uni2780" unicode="&#x2780;" horiz-adv-x="822" 
d="M127 354q0 -122 82 -206.5t201 -84.5t201 84.5t82 206.5q0 123 -82 207.5t-201 84.5t-201 -84.5t-82 -207.5zM42 354q0 153 107.5 262t260.5 109t261.5 -109t108.5 -262q0 -152 -108.5 -261t-261.5 -109t-260.5 108.5t-107.5 261.5zM480 173h-103v223h-91v66
q44 0 70 23.5t33 54.5h91v-367z" />
    <glyph glyph-name="uni2781" unicode="&#x2781;" horiz-adv-x="822" 
d="M127 354q0 -122 82 -206.5t201 -84.5t201 84.5t82 206.5q0 123 -82 207.5t-201 84.5t-201 -84.5t-82 -207.5zM42 354q0 153 107.5 262t260.5 109t261.5 -109t108.5 -262q0 -152 -108.5 -261t-261.5 -109t-260.5 108.5t-107.5 261.5zM358 406l-91 -1q-4 9 -4 29
q0 54 37.5 89t106.5 35q66 0 104 -35t38 -87q0 -64 -79 -112l-70 -42q-12 -8 -12 -15h164v-85h-291v12q0 105 89 157l60 35q38 23 38 51q0 16 -11 27.5t-31 11.5q-24 0 -37.5 -14t-13.5 -38q0 -9 3 -18z" />
    <glyph glyph-name="uni2782" unicode="&#x2782;" horiz-adv-x="822" 
d="M127 354q0 -122 82 -206.5t201 -84.5t201 84.5t82 206.5q0 123 -82 207.5t-201 84.5t-201 -84.5t-82 -207.5zM42 354q0 153 107.5 262t260.5 109t261.5 -109t108.5 -262q0 -152 -108.5 -261t-261.5 -109t-260.5 108.5t-107.5 261.5zM253 275l91 21q2 -24 18.5 -38.5
t42.5 -14.5q24 0 39 12.5t15 31.5q0 22 -15.5 33.5t-37.5 11.5q-18 0 -32 -6l-33 68l87 59h-161v83h284v-82l-90 -61q47 -6 74 -33.5t27 -74.5q0 -52 -43 -88.5t-114 -36.5q-64 0 -105 33.5t-47 81.5z" />
    <glyph glyph-name="uni2783" unicode="&#x2783;" horiz-adv-x="822" 
d="M127 354q0 -122 82 -206.5t201 -84.5t201 84.5t82 206.5q0 123 -82 207.5t-201 84.5t-201 -84.5t-82 -207.5zM42 354q0 153 107.5 262t260.5 109t261.5 -109t108.5 -262q0 -152 -108.5 -261t-261.5 -109t-260.5 108.5t-107.5 261.5zM231 249v99l169 198h109v-218h61v-79
h-61v-71h-100v71h-178zM409 328v114l-97 -114h97z" />
    <glyph glyph-name="uni2784" unicode="&#x2784;" horiz-adv-x="822" 
d="M127 354q0 -122 82 -206.5t201 -84.5t201 84.5t82 206.5q0 123 -82 207.5t-201 84.5t-201 -84.5t-82 -207.5zM42 354q0 153 107.5 262t260.5 109t261.5 -109t108.5 -262q0 -152 -108.5 -261t-261.5 -109t-260.5 108.5t-107.5 261.5zM251 269l89 23q3 -23 20 -36.5
t41 -13.5t38.5 12.5t14.5 35.5q0 51 -56 51q-32 0 -52 -22l-83 25l46 189h222v-83h-162l-15 -63q26 23 71 23q60 0 94.5 -31.5t34.5 -87.5t-40.5 -94t-112.5 -38q-59 0 -101.5 32t-48.5 78z" />
    <glyph glyph-name="uni2785" unicode="&#x2785;" horiz-adv-x="822" 
d="M127 354q0 -122 82 -206.5t201 -84.5t201 84.5t82 206.5q0 123 -82 207.5t-201 84.5t-201 -84.5t-82 -207.5zM42 354q0 153 107.5 262t260.5 109t261.5 -109t108.5 -262q0 -152 -108.5 -261t-261.5 -109t-260.5 108.5t-107.5 261.5zM542 531l-18 -77q-33 12 -65 12
q-42 0 -74 -20t-43 -62q30 32 85 32q57 0 93.5 -31t36.5 -88q0 -58 -44 -95.5t-113 -37.5q-68 0 -114 45.5t-46 123.5q0 98 60.5 156t152.5 58q50 0 89 -16zM346 294q0 -21 16 -35t38 -14t38 14t16 35q0 23 -15.5 36.5t-38.5 13.5q-22 0 -38 -14t-16 -36z" />
    <glyph glyph-name="uni2786" unicode="&#x2786;" horiz-adv-x="822" 
d="M127 354q0 -122 82 -206.5t201 -84.5t201 84.5t82 206.5q0 123 -82 207.5t-201 84.5t-201 -84.5t-82 -207.5zM42 354q0 153 107.5 262t260.5 109t261.5 -109t108.5 -262q0 -152 -108.5 -261t-261.5 -109t-260.5 108.5t-107.5 261.5zM562 531v-85q-18 -14 -35.5 -32.5
t-41.5 -52.5t-41.5 -85.5t-23.5 -112.5h-107q9 118 69 211q24 40 59 73h-186v84h307z" />
    <glyph glyph-name="uni2787" unicode="&#x2787;" horiz-adv-x="822" 
d="M127 354q0 -122 82 -206.5t201 -84.5t201 84.5t82 206.5q0 123 -82 207.5t-201 84.5t-201 -84.5t-82 -207.5zM42 354q0 153 107.5 262t260.5 109t261.5 -109t108.5 -262q0 -152 -108.5 -261t-261.5 -109t-260.5 108.5t-107.5 261.5zM411 394q21 0 33 11t12 28
q0 14 -11.5 25t-33.5 11t-34 -11t-12 -25q0 -17 12 -28t34 -11zM411 244q28 0 41.5 12t13.5 31q0 16 -14.5 28t-40.5 12q-27 0 -41 -11.5t-14 -28.5q0 -19 13.5 -31t41.5 -12zM411 165q-74 0 -115 30t-41 80q0 30 20 53.5t53 33.5q-29 9 -45.5 32t-16.5 50q0 46 38.5 75
t106.5 29q67 0 105.5 -29t38.5 -75q0 -27 -16.5 -50t-45.5 -32q32 -9 53 -32.5t21 -52.5q0 -51 -41 -81.5t-115 -30.5z" />
    <glyph glyph-name="uni2788" unicode="&#x2788;" horiz-adv-x="822" 
d="M127 354q0 -122 82 -206.5t201 -84.5t201 84.5t82 206.5q0 123 -82 207.5t-201 84.5t-201 -84.5t-82 -207.5zM42 354q0 153 107.5 262t260.5 109t261.5 -109t108.5 -262q0 -152 -108.5 -261t-261.5 -109t-260.5 108.5t-107.5 261.5zM278 180l17 78q33 -12 63 -12
q102 0 119 83q-30 -33 -86 -33q-55 0 -93.5 32t-38.5 87q0 60 42.5 96.5t114.5 36.5q68 0 113 -45.5t45 -124.5q0 -101 -57.5 -157.5t-147.5 -56.5q-50 0 -91 16zM467 418q0 21 -16 35t-38 14q-23 0 -38.5 -13.5t-15.5 -35.5q0 -23 15 -37t39 -14q22 0 38 14t16 37z" />
    <glyph glyph-name="uniE000" unicode="&#xe000;" horiz-adv-x="745" 
d="M222 -15l-223 257h168v467h565v-115h-450v-352h165z" />
    <glyph glyph-name="uniE002" unicode="&#xe002;" horiz-adv-x="956" 
d="M506 354l214 251l215 -251h-151q0 -154 -108 -262t-262 -108q-153 0 -261.5 108t-108.5 262t108.5 262.5t261.5 108.5q85 0 158 -35l-46 -106q-54 26 -111 26q-106 0 -181 -75t-75 -181q0 -105 75 -181t181 -76q105 0 179 76t74 181h-162z" />
    <glyph glyph-name="uniE021" unicode="&#xe021;" horiz-adv-x="1110" 
d="M251 104l-215 250h153q0 153 109 262t261 109q91 0 174 -43l-53 -102q-57 30 -120 30q-106 0 -181 -75t-75 -181h161zM1080 354h-154q0 -154 -108 -262t-262 -108q-90 0 -173 43l52 102q60 -31 121 -31q105 0 179.5 75t74.5 181h-159l214 251z" />
    <glyph glyph-name="uniFB00" unicode="&#xfb00;" horiz-adv-x="680" 
d="M553 546v-54h111v-114h-111v-378h-133v378h-190v-378h-134v378h-82v114h82v56q0 83 48.5 133t130.5 50q44 0 66 -10v-112q-12 5 -42 5q-27 0 -48 -15.5t-21 -52.5v-54h190v56q0 83 48.5 133t130.5 50q44 0 66 -10v-112q-12 5 -42 5q-27 0 -48.5 -15.5t-21.5 -52.5z" />
    <glyph glyph-name="fi" unicode="&#xfb01;" horiz-adv-x="631" 
d="M427 378h-197v-378h-134v378h-82v114h82v56q0 83 48.5 133t130.5 50q44 0 66 -10v-112q-12 5 -42 5q-27 0 -48 -15.5t-21 -52.5v-54h329v-492h-132v378zM411 654q0 35 24 59t58 24t58 -24t24 -59q0 -34 -24 -57.5t-58 -23.5t-58 23.5t-24 57.5z" />
    <glyph glyph-name="fl" unicode="&#xfb02;" horiz-adv-x="630" 
d="M299 614q-27 0 -48 -15.5t-21 -52.5v-54h196v232h133v-724h-133v378h-196v-378h-134v378h-82v114h82v56q0 83 48.5 133t130.5 50q44 0 66 -10v-112q-12 5 -42 5z" />
    <glyph glyph-name="uniFB03" unicode="&#xfb03;" horiz-adv-x="957" 
d="M737 654q0 35 23.5 59t57.5 24q35 0 59 -24t24 -59q0 -34 -24 -57.5t-59 -23.5q-34 0 -57.5 23.5t-23.5 57.5zM420 492v58q0 82 48.5 131.5t129.5 49.5q44 0 66 -10v-112q-12 5 -42 5q-27 0 -48 -15.5t-21 -52.5v-54h332v-492h-133v378h-199v-378h-133v378h-190v-378
h-134v378h-82v114h82v56q0 83 48.5 133t130.5 50q44 0 66 -10v-112q-12 5 -42 5q-27 0 -48 -15.5t-21 -52.5v-54h190z" />
    <glyph glyph-name="uniFB04" unicode="&#xfb04;" horiz-adv-x="957" 
d="M420 492v56q0 84 48.5 133.5t129.5 49.5q44 0 66 -10v-112q-12 5 -42 5q-27 0 -48 -15.5t-21 -52.5v-54h200v232h133v-724h-133v378h-200v-378h-133v378h-190v-378h-134v378h-82v114h82v56q0 83 48.5 133t130.5 50q44 0 66 -10v-112q-12 5 -42 5q-27 0 -48 -15.5
t-21 -52.5v-54h190z" />
    <glyph glyph-name="uniFEFF" unicode="&#xfeff;" horiz-adv-x="0" 
 />
    <glyph glyph-name="i.latn_TRK" horiz-adv-x="275" 
d="M204 0h-133v492h133v-492zM55 653q0 35 24 59t58 24q35 0 58.5 -24t23.5 -59q0 -33 -23.5 -57t-58.5 -24q-34 0 -58 24t-24 57z" />
    <glyph glyph-name="Ldot.latn_CAT" horiz-adv-x="560" 
d="M535 0h-454v709h138v-577h316v-132z" />
    <glyph glyph-name="ldot.latn_CAT" horiz-adv-x="435" 
d="M204 0h-133v724h133v-724zM254 329q0 33 23.5 56t56.5 23t56.5 -23t23.5 -56t-23.5 -55.5t-56.5 -22.5t-56.5 22.5t-23.5 55.5z" />
    <glyph glyph-name="zero.numr" horiz-adv-x="434" 
d="M155 525q0 -107 62 -107q63 0 63 107q0 108 -63 108q-62 0 -62 -108zM51 525q0 83 36 131q47 61 130 61q84 0 131 -61q35 -48 35 -131q0 -82 -35 -130q-46 -61 -131 -61q-84 0 -130 61q-36 48 -36 130z" />
    <glyph glyph-name="one.numr" horiz-adv-x="313" 
d="M232 342h-103v223h-91v66q44 0 70 23.5t33 54.5h91v-367z" />
    <glyph glyph-name="two.numr" horiz-adv-x="394" 
d="M149 565l-91 -1q-4 9 -4 29q0 54 37.5 89t106.5 35q66 0 104 -35t38 -87q0 -64 -79 -112l-70 -42q-12 -7 -12 -15h164v-85h-291v12q0 105 89 157l60 35q38 23 38 51q0 16 -11 27.5t-31 11.5q-23 0 -37 -13.5t-14 -38.5q0 -9 3 -18z" />
    <glyph glyph-name="three.numr" horiz-adv-x="411" 
d="M51 448l91 21q2 -24 18.5 -38.5t42.5 -14.5q24 0 39 12.5t15 31.5q0 22 -15.5 33.5t-37.5 11.5q-18 0 -32 -6l-33 68l87 59h-161v83h284v-82l-90 -61q47 -6 74 -33.5t27 -74.5q0 -52 -43 -88.5t-114 -36.5q-64 0 -105 33.5t-47 81.5z" />
    <glyph glyph-name="four.numr" horiz-adv-x="441" 
d="M51 412v99l169 198h109v-218h61v-79h-61v-71h-100v71h-178zM229 491v114l-97 -114h97z" />
    <glyph glyph-name="five.numr" horiz-adv-x="395" 
d="M51 445l89 23q3 -23 20 -36.5t41 -13.5t38.5 12.5t14.5 35.5q0 51 -56 51q-32 0 -52 -22l-83 25l46 189h222v-83h-162l-15 -63q26 23 71 23q60 0 94.5 -31.5t34.5 -87.5t-40.5 -94t-112.5 -38q-59 0 -101.5 32t-48.5 78z" />
    <glyph glyph-name="six.numr" horiz-adv-x="419" 
d="M353 699l-18 -77q-33 12 -65 12q-42 0 -74 -20t-43 -62q30 32 85 32q57 0 93.5 -31t36.5 -88q0 -58 -44 -95.5t-113 -37.5q-68 0 -114 45.5t-46 123.5q0 98 60.5 156t152.5 58q50 0 89 -16zM157 462q0 -21 16 -35t38 -14t38 14t16 35q0 23 -15.5 36.5t-38.5 13.5
q-22 0 -38 -14t-16 -36z" />
    <glyph glyph-name="seven.numr" horiz-adv-x="409" 
d="M358 709v-85q-18 -14 -35.5 -32.5t-41.5 -52.5t-41.5 -85.5t-23.5 -112.5h-107q9 118 69 211q24 40 59 73h-186v84h307z" />
    <glyph glyph-name="eight.numr" horiz-adv-x="420" 
d="M210 562q21 0 33 11t12 28q0 14 -11.5 25t-33.5 11t-34 -11t-12 -25q0 -17 12 -28t34 -11zM210 412q28 0 41.5 12t13.5 31q0 16 -14.5 28t-40.5 12q-27 0 -41 -11.5t-14 -28.5q0 -19 13.5 -31t41.5 -12zM210 333q-74 0 -115 30t-41 80q0 30 20 53.5t53 33.5
q-29 9 -45.5 32t-16.5 50q0 46 38.5 75t106.5 29q67 0 105.5 -29t38.5 -75q0 -27 -16.5 -50t-45.5 -32q32 -9 53 -32.5t21 -52.5q0 -51 -41 -81.5t-115 -30.5z" />
    <glyph glyph-name="nine.numr" horiz-adv-x="418" 
d="M70 348l17 78q33 -12 63 -12q102 0 119 83q-30 -33 -86 -33q-55 0 -93.5 32t-38.5 87q0 60 42.5 96.5t114.5 36.5q68 0 113 -45.5t45 -124.5q0 -101 -57.5 -157.5t-147.5 -56.5q-50 0 -91 16zM259 586q0 21 -16 35t-38 14q-23 0 -38.5 -13.5t-15.5 -35.5q0 -23 15 -37
t39 -14q22 0 38 14t16 37z" />
    <glyph glyph-name="zero.dnom" horiz-adv-x="434" 
d="M155 183q0 -107 62 -107q63 0 63 107q0 108 -63 108q-62 0 -62 -108zM51 183q0 83 36 131q47 61 130 61q84 0 131 -61q35 -48 35 -131q0 -82 -35 -130q-46 -61 -131 -61q-84 0 -130 61q-36 48 -36 130z" />
    <glyph glyph-name="one.dnom" horiz-adv-x="307" 
d="M232 0h-103v223h-91v66q44 0 70 23.5t33 54.5h91v-367z" />
    <glyph glyph-name="two.dnom" horiz-adv-x="394" 
d="M149 224l-91 -1q-4 9 -4 29q0 54 37.5 89t106.5 35q66 0 104 -35t38 -87q0 -64 -79 -112l-70 -42q-12 -8 -12 -15h164v-85h-291v12q0 105 89 157l60 35q38 23 38 51q0 16 -11 27.5t-31 11.5q-23 0 -37 -14t-14 -38q0 -9 3 -18z" />
    <glyph glyph-name="three.dnom" horiz-adv-x="411" 
d="M51 107l91 21q2 -24 18.5 -38.5t42.5 -14.5q24 0 39 12.5t15 31.5q0 22 -15.5 33.5t-37.5 11.5q-18 0 -32 -6l-33 68l87 59h-161v83h284v-82l-90 -61q47 -6 74 -33.5t27 -74.5q0 -52 -43 -88.5t-114 -36.5q-64 0 -105 33.5t-47 81.5z" />
    <glyph glyph-name="four.dnom" horiz-adv-x="441" 
d="M51 71v99l169 198h109v-218h61v-79h-61v-71h-100v71h-178zM229 150v114l-97 -114h97z" />
    <glyph glyph-name="five.dnom" horiz-adv-x="405" 
d="M51 103l89 23q3 -23 20 -36.5t41 -13.5t38.5 12.5t14.5 35.5q0 51 -56 51q-32 0 -52 -22l-83 25l46 189h222v-83h-162l-15 -63q26 23 71 23q60 0 94.5 -31.5t34.5 -87.5t-40.5 -94t-112.5 -38q-59 0 -101.5 32t-48.5 78z" />
    <glyph glyph-name="six.dnom" horiz-adv-x="419" 
d="M353 359l-18 -77q-33 12 -65 12q-42 0 -74 -20t-43 -62q30 32 85 32q57 0 93.5 -31t36.5 -88q0 -58 -44 -95.5t-113 -37.5q-68 0 -114 45.5t-46 123.5q0 98 60.5 156t152.5 58q50 0 89 -16zM157 122q0 -21 16 -35t38 -14t38 14t16 35q0 23 -15.5 36.5t-38.5 13.5
q-22 0 -38 -14t-16 -36z" />
    <glyph glyph-name="seven.dnom" horiz-adv-x="409" 
d="M358 368v-85q-18 -14 -35.5 -32.5t-41.5 -52.5t-41.5 -85.5t-23.5 -112.5h-107q9 118 69 211q24 40 59 73h-186v84h307z" />
    <glyph glyph-name="eight.dnom" horiz-adv-x="420" 
d="M210 221q21 0 33 11t12 28q0 14 -11.5 25t-33.5 11t-34 -11t-12 -25q0 -17 12 -28t34 -11zM210 71q28 0 41.5 12t13.5 31q0 16 -14.5 28t-40.5 12q-27 0 -41 -11.5t-14 -28.5q0 -19 13.5 -31t41.5 -12zM210 -8q-74 0 -115 30t-41 80q0 30 20 53.5t53 33.5q-29 9 -45.5 32
t-16.5 50q0 46 38.5 75t106.5 29q67 0 105.5 -29t38.5 -75q0 -27 -16.5 -50t-45.5 -32q32 -9 53 -32.5t21 -52.5q0 -51 -41 -81.5t-115 -30.5z" />
    <glyph glyph-name="nine.dnom" horiz-adv-x="418" 
d="M70 8l17 78q33 -12 63 -12q102 0 119 83q-30 -33 -86 -33q-55 0 -93.5 32t-38.5 87q0 60 42.5 96.5t114.5 36.5q68 0 113 -45.5t45 -124.5q0 -101 -57.5 -157.5t-147.5 -56.5q-50 0 -91 16zM259 246q0 21 -16 35t-38 14q-23 0 -38.5 -13.5t-15.5 -35.5q0 -23 15 -37
t39 -14q22 0 38 14t16 37z" />
    <glyph glyph-name="space.frac" horiz-adv-x="49" 
 />
    <glyph glyph-name="a.ordn" horiz-adv-x="423" 
d="M55 397q0 86 103 104l83 14q25 4 25 24q0 17 -14 28t-39 11q-28 0 -44 -15t-18 -37l-89 18q3 43 43 79t108 36q79 0 115.5 -37t36.5 -96v-170q0 -36 5 -54h-93q-3 15 -3 40q-33 -50 -100 -50q-54 0 -86.5 31.5t-32.5 73.5zM198 366q68 0 68 73v16l-70 -11q-40 -5 -40 -41
q0 -15 11 -26t31 -11z" />
    <glyph glyph-name="b.ordn" horiz-adv-x="503" 
d="M181 302h-98v507h100v-195q12 18 39.5 31t62.5 13q74 0 117.5 -51t43.5 -131q0 -79 -46.5 -130.5t-118.5 -51.5q-70 0 -100 48v-40zM344 476q0 43 -23 66.5t-59 23.5q-34 0 -57 -23.5t-23 -66.5t23 -67t57 -24q35 0 58.5 24t23.5 67z" />
    <glyph glyph-name="c.ordn" horiz-adv-x="461" 
d="M242 565q-35 0 -58.5 -23.5t-23.5 -66.5t23.5 -66.5t60.5 -23.5q58 0 74 54l90 -28q-13 -49 -56 -84t-108 -35q-79 0 -132.5 52t-53.5 131q0 80 52.5 132t129.5 52q67 0 110 -35t56 -84l-92 -29q-15 54 -72 54z" />
    <glyph glyph-name="d.ordn" horiz-adv-x="505" 
d="M161 476q0 -43 23 -67t58 -24q34 0 57 24t23 67t-23 66.5t-57 23.5q-35 0 -58 -23.5t-23 -66.5zM421 809v-445q0 -26 3 -62h-98q-2 16 -2 38q-26 -46 -95 -46q-74 0 -122.5 51t-48.5 131q0 78 47.5 130t120.5 52q72 0 95 -39v190h100z" />
    <glyph glyph-name="e.ordn" horiz-adv-x="453" 
d="M156 516h144q-1 26 -18.5 44t-53.5 18q-32 0 -50.5 -19t-21.5 -43zM308 426l86 -24q-15 -48 -56 -79t-104 -31q-75 0 -127.5 50.5t-52.5 134.5q0 80 51.5 131t121.5 51q81 0 126.5 -47t45.5 -132q0 -25 -2 -31h-243q2 -31 25.5 -51t56.5 -20q53 0 72 48z" />
    <glyph glyph-name="f.ordn" horiz-adv-x="343" 
d="M288 563h-76v-261h-103v261h-56v86h56v33q0 61 35 97t96 36q31 0 50 -7v-85q-9 4 -32 4q-18 0 -32 -10.5t-14 -34.5v-33h76v-86z" />
    <glyph glyph-name="g.ordn" horiz-adv-x="467" 
d="M58 282l90 26q14 -60 78 -60q88 0 88 92v18q-31 -41 -94 -41q-70 0 -116 47.5t-46 120.5q0 70 46 120t116 50q71 0 96 -45v38h98v-305q0 -80 -46 -132t-138 -52q-71 0 -117 36t-55 87zM238 406q34 0 55.5 21.5t21.5 57.5q0 37 -22.5 59t-54.5 22q-33 0 -55 -22t-22 -59
q0 -36 21.5 -57.5t55.5 -21.5z" />
    <glyph glyph-name="h.ordn" horiz-adv-x="487" 
d="M185 506v-204h-102v507h102v-185q30 34 90 34q64 0 97.5 -38.5t33.5 -99.5v-218h-102v201q0 28 -15 45t-44 17q-26 0 -42 -16t-18 -43z" />
    <glyph glyph-name="i.ordn" horiz-adv-x="285" 
d="M194 302h-102v346h102v-346zM82 757q0 26 17.5 43.5t42.5 17.5q26 0 44 -17.5t18 -43.5q0 -25 -18 -42.5t-44 -17.5q-25 0 -42.5 17.5t-17.5 42.5z" />
    <glyph glyph-name="j.ordn" horiz-adv-x="327" 
d="M138 286v362h102v-373q0 -52 -31 -84t-82 -32q-42 0 -57 9v85q9 -4 31 -4q37 0 37 37zM128 758q0 25 17.5 43t42.5 18q26 0 44 -18t18 -43q0 -26 -18 -43.5t-44 -17.5q-25 0 -42.5 17.5t-17.5 43.5z" />
    <glyph glyph-name="k.ordn" horiz-adv-x="463" 
d="M428 648l-137 -145l139 -201h-124l-86 125l-35 -37v-88h-102v507h102v-281l110 120h133z" />
    <glyph glyph-name="l.ordn" horiz-adv-x="267" 
d="M185 302h-102v507h102v-507z" />
    <glyph glyph-name="m.ordn" horiz-adv-x="701" 
d="M185 302h-102v346h98v-40q12 23 41 37t58 14q74 0 104 -56q37 56 107 56q53 0 90.5 -33.5t37.5 -98.5v-225h-99v202q0 61 -57 61q-28 0 -44 -18t-16 -44v-201h-101v202q0 28 -14.5 44.5t-43.5 16.5q-28 0 -43.5 -18t-15.5 -44v-201z" />
    <glyph glyph-name="n.ordn" horiz-adv-x="487" 
d="M185 501v-199h-102v346h99v-40q13 25 40.5 37.5t57.5 12.5q62 0 94 -39t32 -99v-218h-102v201q0 28 -15 45t-44 17q-28 0 -44 -17.5t-16 -46.5z" />
    <glyph glyph-name="o.ordn" horiz-adv-x="482" 
d="M242 385q34 0 57.5 23.5t23.5 67.5q0 43 -23.5 66.5t-57.5 23.5t-57.5 -23.5t-23.5 -66.5q0 -44 23.5 -67.5t57.5 -23.5zM242 659q78 0 130.5 -51.5t52.5 -131.5t-52.5 -132t-130.5 -52q-79 0 -131.5 52t-52.5 132t52.5 131.5t131.5 51.5z" />
    <glyph glyph-name="p.ordn" horiz-adv-x="503" 
d="M185 169h-102v479h98v-37q31 46 104 46q74 0 117.5 -50.5t43.5 -130.5q0 -79 -46.5 -130.5t-118.5 -51.5q-68 0 -96 37v-162zM345 476q0 42 -23 65.5t-57 23.5q-35 0 -58.5 -23.5t-23.5 -65.5q0 -43 23.5 -67t58.5 -24q34 0 57 24t23 67z" />
    <glyph glyph-name="q.ordn" horiz-adv-x="500" 
d="M422 169h-100v163q-26 -38 -93 -38q-74 0 -122.5 51.5t-48.5 130.5q0 78 47 129.5t121 51.5q41 0 65.5 -14t32.5 -30v35h98v-479zM161 476q0 -43 23.5 -67t57.5 -24t57.5 24t23.5 67t-23.5 66t-57.5 23q-35 0 -58 -23t-23 -66z" />
    <glyph glyph-name="r.ordn" horiz-adv-x="305" 
d="M296 649v-101q-5 2 -23 2q-92 0 -92 -95v-153h-102v346h99v-47q26 51 94 51q12 0 24 -3z" />
    <glyph glyph-name="s.ordn" horiz-adv-x="399" 
d="M59 400l87 16q1 -20 15.5 -34t41.5 -14q42 0 42 31q0 24 -35 30l-41 9q-102 24 -102 106q0 48 38 81.5t94 33.5q68 0 100.5 -32t37.5 -70l-85 -16q-6 43 -52 43q-16 0 -28 -8.5t-12 -22.5q0 -21 29 -28l47 -10q53 -11 79.5 -39t26.5 -68q0 -47 -36 -81.5t-102 -34.5
q-71 0 -106.5 34.5t-38.5 73.5z" />
    <glyph glyph-name="t.ordn" horiz-adv-x="327" 
d="M202 751v-103h68v-89h-68v-135q0 -37 39 -37q15 0 29 2v-84q-12 -9 -55 -9q-54 0 -84 29.5t-30 80.5v153h-62v89h18q26 0 40 16t14 40v47h91z" />
    <glyph glyph-name="u.ordn" horiz-adv-x="462" 
d="M384 302h-97q-3 21 -3 36q-27 -44 -94 -44q-61 0 -96.5 38.5t-35.5 96.5v219h102v-197q0 -28 15 -46t43 -18q29 0 45 17.5t16 45.5v198h102v-284q0 -30 3 -62z" />
    <glyph glyph-name="v.ordn" horiz-adv-x="421" 
d="M399 648l-133 -346h-102l-142 346h111l82 -220l77 220h107z" />
    <glyph glyph-name="w.ordn" horiz-adv-x="628" 
d="M263 648h108l70 -210l59 210h101l-108 -346h-101l-78 228l-76 -228h-103l-109 346h107l59 -210z" />
    <glyph glyph-name="x.ordn" horiz-adv-x="424" 
d="M30 302l121 173l-122 173h121q9 -14 35 -53l28 -42l64 95h114l-119 -169l123 -177h-119l-67 100l-66 -100h-113z" />
    <glyph glyph-name="y.ordn" horiz-adv-x="433" 
d="M197 168h-107l79 179l-146 301h114l88 -191l79 191h108z" />
    <glyph glyph-name="z.ordn" horiz-adv-x="406" 
d="M348 302h-290v90l156 169h-152v87h283v-84l-162 -174h165v-88z" />
    <glyph glyph-name="space.tf" horiz-adv-x="578" 
 />
    <glyph glyph-name="numbersign.tf" 
d="M267 434l-33 -154h119l32 154h-118zM554 709l-38 -174h99v-101h-120l-32 -154h97v-103h-120l-37 -177h-110l37 177h-118l-38 -177h-110l38 177h-92v103h114l33 154h-94v101h115l38 174h110l-38 -174h118l38 174h110z" />
    <glyph glyph-name="dollar.tf" 
d="M383 -100h-111v94q-101 13 -159.5 77.5t-65.5 139.5l124 32q5 -60 46.5 -96.5t113.5 -36.5q54 0 85 22.5t31 61.5q0 30 -21.5 52t-63.5 31l-103 23q-88 21 -136.5 72t-48.5 128q0 81 56.5 139.5t141.5 70.5v99h111v-101q84 -14 130.5 -64t60.5 -113l-122 -37
q-18 103 -132 103q-54 0 -83 -25.5t-29 -62.5q0 -61 81 -79l97 -22q95 -21 145 -76t50 -130q0 -76 -53 -135t-145 -73v-94z" />
    <glyph glyph-name="percent.tf" 
d="M22 571q0 62 45 105.5t108 43.5q62 0 107.5 -43.5t45.5 -105.5q0 -63 -45.5 -106.5t-107.5 -43.5q-63 0 -108 43.5t-45 106.5zM115 571q0 -28 17 -46t43 -18t43.5 18t17.5 46q0 29 -17 45.5t-44 16.5t-43.5 -16.5t-16.5 -45.5zM573 587v-106l-525 -356v103zM296 138
q0 63 45 106.5t108 43.5q62 0 107.5 -44t45.5 -106t-45.5 -105.5t-108.5 -43.5t-107.5 43.5t-44.5 105.5zM388 138q0 -28 17.5 -45.5t43.5 -17.5t43 17.5t17 45.5q0 29 -16.5 46.5t-43.5 17.5t-44 -17.5t-17 -46.5z" />
    <glyph glyph-name="plus.tf" horiz-adv-x="626" 
d="M67 389h189v195h112v-195h190v-109h-190v-196h-112v196h-189v109z" />
    <glyph glyph-name="comma.tf" horiz-adv-x="578" 
d="M182 90q0 40 29.5 67t72.5 27q52 0 81.5 -36.5t29.5 -92.5q0 -58 -18.5 -105.5t-48.5 -75.5t-63.5 -44t-66.5 -19v71q41 10 72.5 43.5t33.5 77.5q-9 -6 -29 -6q-41 0 -67 26t-26 67z" />
    <glyph glyph-name="period.tf" horiz-adv-x="578" 
d="M187 94q0 43 29.5 72.5t72.5 29.5t73 -30t30 -72t-30 -72t-73 -30t-72.5 30t-29.5 72z" />
    <glyph glyph-name="zero.tf" 
d="M35 354q0 171 56 257q77 113 221 113q147 0 222 -113q56 -88 56 -257t-56 -257q-74 -112 -222 -112q-147 0 -221 112q-56 85 -56 257zM173 354q0 -33 1.5 -56.5t5.5 -55t13.5 -53.5t24 -42t38.5 -30.5t56 -10.5q38 0 65 16.5t41.5 39t22.5 59.5t9.5 65t1.5 68t-1.5 68
t-9.5 64.5t-22.5 59.5t-41.5 39t-65 16q-32 0 -56 -10t-38.5 -30.5t-24 -42t-13.5 -53t-5.5 -55t-1.5 -56.5z" />
    <glyph glyph-name="one.tf" 
d="M98 119h178v363h-166v94q74 2 123.5 39t59.5 94h120v-590h166v-119h-481v119z" />
    <glyph glyph-name="two.tf" horiz-adv-x="604" 
d="M199 439l-133 7q-3 11 -3 44q0 97 68 165.5t185 68.5q114 0 182.5 -65t68.5 -159q0 -137 -136 -220l-137 -85q-55 -36 -68 -74h346v-121h-516q0 96 38.5 168t129.5 128l117 72q87 57 87 129q0 45 -30 75t-85 30q-57 0 -87.5 -35t-30.5 -90q0 -22 4 -38z" />
    <glyph glyph-name="three.tf" horiz-adv-x="603" 
d="M243 319l-62 100l192 170h-318v120h495v-114l-189 -163q85 -2 147 -61t62 -154q0 -97 -72 -164.5t-195 -67.5q-117 0 -191 66t-80 158l134 27q2 -58 40.5 -95t95.5 -37q59 0 93.5 32.5t34.5 81.5q0 57 -37 86t-87 29q-30 0 -63 -14z" />
    <glyph glyph-name="four.tf" 
d="M36 153v148l297 408h174v-435h106v-121h-106v-153h-136v153h-335zM371 274v294l-212 -294h212z" />
    <glyph glyph-name="five.tf" horiz-adv-x="603" 
d="M40 199l131 31q2 -55 40 -90.5t97 -35.5q55 0 92 33.5t37 89.5q0 60 -38.5 93t-93.5 33q-71 0 -115 -49q-5 2 -60.5 21.5t-67.5 24.5l86 359h391v-120h-297l-41 -169q48 45 133 45q107 0 174 -63t67 -173q0 -102 -73.5 -173t-193.5 -71q-111 0 -186.5 63.5t-81.5 150.5z
" />
    <glyph glyph-name="six.tf" 
d="M575 689l-39 -112q-54 26 -121 26q-97 0 -162.5 -59t-75.5 -159q22 36 67.5 60t108.5 24q106 0 172 -65t66 -172q0 -108 -77.5 -177.5t-191.5 -69.5q-119 0 -200.5 84.5t-81.5 240.5q0 190 107 302t278 112q96 0 150 -35zM192 228q0 -55 39 -90.5t91 -35.5q55 0 93 34.5
t38 91.5t-38.5 92.5t-92.5 35.5t-92 -35.5t-38 -92.5z" />
    <glyph glyph-name="seven.tf" 
d="M587 709v-119q-266 -229 -298 -590h-144q20 243 153 440q59 87 131 149h-398v120h556z" />
    <glyph glyph-name="eight.tf" 
d="M312 -15q-119 0 -191.5 58t-72.5 147q0 59 35.5 106t91.5 67q-50 17 -80.5 63t-30.5 97q0 88 70 144.5t178 56.5t178.5 -56.5t70.5 -144.5q0 -50 -31 -96t-81 -64q57 -21 92.5 -67.5t35.5 -105.5q0 -89 -72.5 -147t-192.5 -58zM312 414q51 2 81 29.5t30 70.5
q0 40 -30.5 67.5t-80.5 27.5t-80.5 -27.5t-30.5 -67.5q0 -42 30 -70t81 -30zM312 100q60 0 93.5 30t33.5 74q0 45 -33.5 75.5t-93.5 30.5t-93.5 -30.5t-33.5 -75.5q0 -43 34 -73.5t93 -30.5z" />
    <glyph glyph-name="nine.tf" 
d="M432 481q0 55 -38 89.5t-90 34.5t-90 -34.5t-38 -89.5q0 -57 37.5 -91.5t90.5 -34.5q52 0 90 35.5t38 90.5zM58 24l36 112q54 -30 126 -30q105 0 165 56t66 156q-22 -35 -65.5 -57t-101.5 -22q-100 0 -171.5 65t-71.5 173t76.5 177.5t189.5 69.5q118 0 198.5 -86
t80.5 -246q0 -193 -93.5 -300t-271.5 -107q-44 0 -91 11t-72 28z" />
    <glyph glyph-name="colon.tf" horiz-adv-x="578" 
d="M190 83q0 41 28.5 69t69.5 28t69.5 -28t28.5 -69t-28.5 -69t-69.5 -28t-69.5 28t-28.5 69zM190 410q0 41 28.5 69t69.5 28t69.5 -28t28.5 -69t-28.5 -69t-69.5 -28t-69.5 28t-28.5 69z" />
    <glyph glyph-name="semicolon.tf" horiz-adv-x="578" 
d="M191 86q0 38 27 63t67 25q48 0 76 -34t28 -86q0 -104 -57.5 -162t-126.5 -65v67q38 8 67.5 39.5t31.5 72.5q-8 -6 -27 -6q-38 0 -62 24.5t-24 61.5zM191 407q0 41 28.5 69t69.5 28t69.5 -28t28.5 -69t-28.5 -69t-69.5 -28t-69.5 28t-28.5 69z" />
    <glyph glyph-name="less.tf" 
d="M95 284v101l430 217v-123l-296 -143l296 -143v-125z" />
    <glyph glyph-name="equal.tf" 
d="M555 381h-485v107h485v-107zM555 182h-485v108h485v-108z" />
    <glyph glyph-name="greater.tf" 
d="M529 385v-100l-430 -217v123l296 143l-296 143v125z" />
    <glyph glyph-name="cent.tf" 
d="M457 293l113 -39q-17 -57 -67 -103t-123 -57v-94h-111v98q-89 20 -145 91t-56 165q0 98 56.5 167.5t144.5 87.5v100h111v-97q76 -11 122 -55.5t64 -105.5l-114 -38q-27 87 -121 87q-61 0 -98 -41t-37 -105t37 -105.5t98 -41.5q97 0 126 86z" />
    <glyph glyph-name="sterling.tf" 
d="M67 404h70q-24 57 -24 111q0 87 61.5 148t162.5 61q114 0 167.5 -60t56.5 -139v-3l-125 -20v3q0 51 -25 78t-72 27q-40 0 -67 -25.5t-27 -71.5q0 -48 27 -109h196v-106h-163q1 -9 1 -25q0 -106 -85 -155h155q44 0 68.5 27.5t24.5 70.5l122 -12q0 -89 -52.5 -146.5
t-138.5 -57.5h-338v116q55 20 86 58t31 85q0 23 -5 39h-107v106z" />
    <glyph glyph-name="currency.tf" 
d="M81 325q0 64 34 121l-80 82l82 81l81 -83q53 31 118 31q64 0 114 -29l79 81l82 -81l-77 -79q37 -56 37 -124t-36 -123l76 -77l-81 -80l-78 78q-55 -30 -116 -30q-66 0 -119 33l-81 -81l-81 80l79 81q-33 54 -33 119zM193 325q0 -53 35.5 -87.5t87.5 -34.5t86.5 34
t34.5 88q0 53 -34.5 87.5t-86.5 34.5q-54 0 -88.5 -34t-34.5 -88z" />
    <glyph glyph-name="yen.tf" 
d="M563 153h-182v-153h-132v153h-178v96h178v79h-178v96h111l-168 285h154l149 -273l144 273h150l-165 -285h117v-96h-182v-79h182v-96z" />
    <glyph glyph-name="section.tf" horiz-adv-x="626" 
d="M523 251q0 -81 -77 -125q77 -56 77 -143q0 -85 -63.5 -138.5t-148.5 -53.5q-97 0 -152.5 50.5t-59.5 136.5l125 21q0 -47 23.5 -71t64.5 -24q34 0 55.5 19t21.5 51q0 38 -44 62l-102 53q-67 33 -104 73t-37 102q0 81 77 125q-77 56 -77 143q0 85 64 138.5t149 53.5
q95 0 151 -51.5t60 -135.5l-126 -21q0 47 -23 71t-63 24q-35 0 -56.5 -19.5t-21.5 -50.5q0 -42 44 -62l101 -52q69 -37 105.5 -75t36.5 -101zM358 292l-102 54q-32 -25 -32 -57q0 -44 43 -66l102 -54q32 25 32 57q0 43 -43 66z" />
    <glyph glyph-name="logicalnot.tf" 
d="M543 176h-114v195h-375v110h489v-305z" />
    <glyph glyph-name="plusminus.tf" 
d="M78 461h178v123h112v-123h178v-108h-178v-123h-112v123h-178v108zM78 193h468v-109h-468v109z" />
    <glyph glyph-name="multiply.tf" 
d="M477 87l-166 168l-165 -167l-79 79l165 168l-165 168l80 79l164 -167l165 167l80 -78l-166 -169l166 -168z" />
    <glyph glyph-name="divide.tf" 
d="M231 514q0 32 22.5 54.5t55.5 22.5t55.5 -22.5t22.5 -54.5t-22.5 -55t-55.5 -23t-55.5 23t-22.5 55zM67 275v111h489v-111h-489zM231 147q0 32 23 55t55 23t55 -23t23 -55t-22.5 -55t-55.5 -23t-55.5 23t-22.5 55z" />
    <glyph glyph-name="florin.tf" 
d="M183 27l71 352h-98v112h121l19 92q15 78 68 117.5t119 39.5q43 0 89 -13v-115q-33 7 -62 7q-69 0 -84 -75l-11 -53h117v-112h-140l-79 -392q-16 -78 -68.5 -117.5t-118.5 -39.5q-50 0 -92 14v114q33 -7 65 -7q69 0 84 76z" />
    <glyph glyph-name="uni2007.tf" horiz-adv-x="578" 
 />
    <glyph glyph-name="uni2008.tf" horiz-adv-x="578" 
 />
    <glyph glyph-name="perthousand.tf" 
d="M22 588q0 56 39.5 94t94.5 38t95 -38.5t40 -93.5t-40 -93t-95 -38q-57 0 -95.5 37.5t-38.5 93.5zM579 675v-105l-531 -389v103zM101 588q0 -25 16 -41t39 -16t38.5 16t15.5 41t-15.5 41t-38.5 16t-39 -16t-16 -41zM144 120q0 56 39 94.5t94 38.5q56 0 95 -41q39 41 95 41
q55 0 95 -38.5t40 -94.5q0 -55 -40 -93t-95 -38q-57 0 -95 39q-38 -39 -95 -39q-55 0 -94 38t-39 93zM467 177q-24 0 -39 -15.5t-15 -41.5q0 -25 15.5 -40.5t38.5 -15.5t38.5 15.5t15.5 40.5q0 26 -15 41.5t-39 15.5zM277 177q-24 0 -39 -15.5t-15 -41.5q0 -25 15.5 -40.5
t38.5 -15.5q24 0 39 15.5t15 40.5q0 26 -15 41.5t-39 15.5z" />
    <glyph glyph-name="Euro.tf" horiz-adv-x="615" 
d="M101 353q0 14 2 36h-75v98h95q36 110 131.5 173.5t209.5 63.5q70 0 128 -21l-34 -115q-37 15 -94 15q-63 0 -115.5 -29.5t-80.5 -86.5h262l-29 -98h-260q-2 -9 -2 -36q0 -30 2 -39h243l-28 -99h-185q57 -107 193 -107q59 0 95 15l33 -115q-55 -23 -128 -23
q-115 0 -209 60.5t-131 169.5h-96v99h75q-2 22 -2 39z" />
    <glyph glyph-name="minus.tf" 
d="M549 281h-475v109h475v-109z" />
    <glyph glyph-name="approxequal.tf" 
d="M506 503l71 -59q-58 -100 -162 -100q-54 0 -108 30l-48 26q-27 15 -54 15q-52 -2 -86 -48l-73 59q61 101 162 101q52 0 108 -30l47 -26q29 -15 57 -16q52 0 86 48zM506 301l71 -58q-57 -100 -163 -100q-53 0 -107 30l-48 26q-24 14 -55 14q-50 0 -85 -47l-73 59
q57 99 160 101q53 0 110 -30l47 -26q29 -16 57 -16q51 0 86 47z" />
    <glyph glyph-name="notequal.tf" 
d="M555 182h-275l-63 -97h-120l63 97h-90v108h161l59 91h-220v107h290l60 92h120l-60 -92h75v-107h-145l-59 -91h204v-108z" />
    <glyph glyph-name="lessequal.tf" 
d="M97 193h430v-109h-430v109zM97 356v108l430 136v-110l-279 -78l279 -79v-112z" />
    <glyph glyph-name="greaterequal.tf" 
d="M97 193h430v-109h-430v109zM527 464v-108l-430 -135v110l279 78l-279 79v112z" />
    <glyph glyph-name="parenleft.case" horiz-adv-x="315" 
d="M43 354q0 268 194 466l78 -67q-81 -91 -121 -184.5t-40 -214.5t40 -215t121 -185l-78 -66q-194 194 -194 466z" />
    <glyph glyph-name="parenright.case" horiz-adv-x="315" 
d="M272 354q0 -272 -194 -466l-78 66q81 95 121 187t40 213q0 120 -40 212t-121 187l78 67q194 -198 194 -466z" />
    <glyph glyph-name="hyphen.case" horiz-adv-x="380" 
d="M335 288h-290v118h290v-118z" />
    <glyph glyph-name="bracketleft.case" horiz-adv-x="317" 
d="M312 -109h-231v925h231v-101h-120v-721h120v-103z" />
    <glyph glyph-name="bracketright.case" horiz-adv-x="317" 
d="M236 -109h-231v103h119v721h-119v101h231v-925z" />
    <glyph glyph-name="braceleft.case" horiz-adv-x="375" 
d="M45 299v111q100 0 100 93v120q0 97 50.5 145t143.5 48h31v-101h-30q-83 0 -83 -89v-145q0 -48 -26.5 -81t-74.5 -45q48 -13 74.5 -45.5t26.5 -80.5v-146q0 -89 83 -89h30v-101h-31q-93 0 -143.5 48.5t-50.5 144.5v120q0 93 -100 93z" />
    <glyph glyph-name="braceright.case" horiz-adv-x="375" 
d="M330 410v-111q-101 0 -101 -93v-120q0 -96 -50.5 -144.5t-142.5 -48.5h-31v101h29q84 0 84 89v146q0 99 100 126q-48 12 -74 45t-26 81v145q0 89 -84 89h-29v101h31q92 0 142.5 -48t50.5 -145v-120q0 -93 101 -93z" />
    <glyph glyph-name="exclamdown.case" horiz-adv-x="316" 
d="M207 493l31 -493h-160l32 493h97zM79 638q0 32 23 55.5t56 23.5q32 0 55.5 -23.5t23.5 -55.5q0 -33 -23.5 -56.5t-55.5 -23.5q-33 0 -56 23.5t-23 56.5z" />
    <glyph glyph-name="guillemotleft.case" horiz-adv-x="524" 
d="M290 151h-126l-137 194l138 197h125l-136 -198zM506 151h-126l-136 194l137 197h126l-137 -198z" />
    <glyph glyph-name="uni00AD.case" horiz-adv-x="380" 
d="M335 295h-290v118h290v-118z" />
    <glyph glyph-name="guillemotright.case" horiz-adv-x="524" 
d="M360 151h-126l136 193l-136 198h125l138 -197zM144 151h-126l135 193l-136 198h125l138 -197z" />
    <glyph glyph-name="questiondown.case" horiz-adv-x="517" 
d="M218 494h108q3 -20 3 -41q0 -90 -77 -146l-48 -35q-42 -31 -42 -79q0 -38 25.5 -63.5t73.5 -25.5q49 0 76 31.5t27 74.5q0 25 -6 41l128 -12q5 -25 5 -44q0 -86 -61.5 -148t-168.5 -62q-110 0 -172.5 59t-62.5 140q0 111 97 178l41 29q54 37 54 97v6zM191 638
q0 33 23.5 56t56.5 23t56 -23t23 -56t-23 -56t-56 -23t-56.5 23t-23.5 56z" />
    <glyph glyph-name="endash.case" horiz-adv-x="632" 
d="M574 289h-516v115h516v-115z" />
    <glyph glyph-name="emdash.case" horiz-adv-x="1076" 
d="M1008 289h-940v115h940v-115z" />
    <glyph glyph-name="guilsinglleft.case" horiz-adv-x="307" 
d="M290 151h-126l-137 194l138 197h125l-136 -198z" />
    <glyph glyph-name="guilsinglright.case" horiz-adv-x="307" 
d="M144 151h-126l135 193l-136 198h126l137 -197z" />
    <glyph glyph-name="G.ss01" horiz-adv-x="774" 
d="M405 -15q-154 0 -260 102.5t-106 266.5q0 163 106.5 266.5t256.5 103.5q133 0 218 -67.5t109 -162.5l-135 -38q-14 57 -62 98.5t-130 41.5q-90 0 -156 -62t-66 -180q0 -114 65 -178t160 -64q72 0 124 36t64 97h-250v120h394q3 -16 3 -51q-2 -141 -92.5 -235t-242.5 -94z
" />
    <glyph glyph-name="Gcircumflex.ss01" horiz-adv-x="774" 
d="M405 -15q-154 0 -260 102.5t-106 266.5q0 163 106.5 266.5t256.5 103.5q133 0 218 -67.5t109 -162.5l-135 -38q-14 57 -62 98.5t-130 41.5q-90 0 -156 -62t-66 -180q0 -114 65 -178t160 -64q72 0 124 36t64 97h-250v120h394q3 -16 3 -51q-2 -141 -92.5 -235t-242.5 -94z
M344 759h-121l120 127h136l122 -127h-125l-67 65z" />
    <glyph glyph-name="Gbreve.ss01" horiz-adv-x="774" 
d="M405 -15q-154 0 -260 102.5t-106 266.5q0 163 106.5 266.5t256.5 103.5q133 0 218 -67.5t109 -162.5l-135 -38q-14 57 -62 98.5t-130 41.5q-90 0 -156 -62t-66 -180q0 -114 65 -178t160 -64q72 0 124 36t64 97h-250v120h394q3 -16 3 -51q-2 -141 -92.5 -235t-242.5 -94z
M396 753q-76 0 -118 40.5t-45 94.5h102q1 -22 16.5 -36.5t44.5 -14.5t44.5 14.5t16.5 36.5h102q-3 -54 -45 -94.5t-118 -40.5z" />
    <glyph glyph-name="Gdotaccent.ss01" horiz-adv-x="774" 
d="M405 -15q-154 0 -260 102.5t-106 266.5q0 163 106.5 266.5t256.5 103.5q133 0 218 -67.5t109 -162.5l-135 -38q-14 57 -62 98.5t-130 41.5q-90 0 -156 -62t-66 -180q0 -114 65 -178t160 -64q72 0 124 36t64 97h-250v120h394q3 -16 3 -51q-2 -141 -92.5 -235t-242.5 -94z
M322 836q0 34 23.5 57t56.5 23q34 0 57.5 -23t23.5 -57q0 -33 -23.5 -56t-57.5 -23q-33 0 -56.5 23t-23.5 56z" />
    <glyph glyph-name="Gcommaaccent.ss01" horiz-adv-x="774" 
d="M405 -15q-154 0 -260 102.5t-106 266.5q0 163 106.5 266.5t256.5 103.5q133 0 218 -67.5t109 -162.5l-135 -38q-14 57 -62 98.5t-130 41.5q-90 0 -156 -62t-66 -180q0 -114 65 -178t160 -64q72 0 124 36t64 97h-250v120h394q3 -16 3 -51q-2 -141 -92.5 -235t-242.5 -94z
M336 -102q0 27 20.5 45.5t52.5 18.5q34 0 57.5 -24.5t23.5 -62.5q0 -69 -42.5 -98t-98.5 -29v48q35 0 56.5 13t24.5 34q-9 -7 -29 -7q-30 0 -47.5 17t-17.5 45z" />
    <glyph glyph-name="a.ss02" horiz-adv-x="612" 
d="M168 248q0 -66 34.5 -106.5t88.5 -40.5q53 0 87 40t34 107t-33.5 105t-87.5 38q-55 0 -89 -38t-34 -105zM413 61v6q-16 -36 -52.5 -58.5t-85.5 -22.5q-107 0 -174 74.5t-67 187.5q0 110 66 184t171 74q103 0 141 -75v61h129v-403q0 -45 4 -89h-127q-5 18 -5 61z" />
    <glyph glyph-name="agrave.ss02" horiz-adv-x="612" 
d="M168 248q0 -66 34.5 -106.5t88.5 -40.5q53 0 87 40t34 107t-33.5 105t-87.5 38q-55 0 -89 -38t-34 -105zM413 61v6q-16 -36 -52.5 -58.5t-85.5 -22.5q-107 0 -174 74.5t-67 187.5q0 110 66 184t171 74q103 0 141 -75v61h129v-403q0 -45 4 -89h-127q-5 18 -5 61zM254 551
l-136 150h154l90 -150h-108z" />
    <glyph glyph-name="aacute.ss02" horiz-adv-x="612" 
d="M452 701l-136 -150h-107l91 150h152zM168 248q0 -66 34.5 -106.5t88.5 -40.5q53 0 87 40t34 107t-33.5 105t-87.5 38q-55 0 -89 -38t-34 -105zM413 61v6q-16 -36 -52.5 -58.5t-85.5 -22.5q-107 0 -174 74.5t-67 187.5q0 110 66 184t171 74q103 0 141 -75v61h129v-403
q0 -45 4 -89h-127q-5 18 -5 61z" />
    <glyph glyph-name="acircumflex.ss02" horiz-adv-x="612" 
d="M227 552h-104l110 147h132l110 -147h-107l-71 75zM168 248q0 -66 34.5 -106.5t88.5 -40.5q53 0 87 40t34 107t-33.5 105t-87.5 38q-55 0 -89 -38t-34 -105zM413 61v6q-16 -36 -52.5 -58.5t-85.5 -22.5q-107 0 -174 74.5t-67 187.5q0 110 66 184t171 74q103 0 141 -75v61
h129v-403q0 -45 4 -89h-127q-5 18 -5 61z" />
    <glyph glyph-name="atilde.ss02" horiz-adv-x="612" 
d="M168 248q0 -66 34.5 -106.5t88.5 -40.5q53 0 87 40t34 107t-33.5 105t-87.5 38q-55 0 -89 -38t-34 -105zM413 61v6q-16 -36 -52.5 -58.5t-85.5 -22.5q-107 0 -174 74.5t-67 187.5q0 110 66 184t171 74q103 0 141 -75v61h129v-403q0 -45 4 -89h-127q-5 18 -5 61zM475 696
v-18q0 -61 -29 -92t-78 -31q-39 0 -71 22l-6 4q-29 18 -47 18q-34 0 -35 -43h-82v21q0 58 30.5 89.5t78.5 31.5q30 0 72 -22l6 -4q29 -19 48 -19q33 0 33 43h80z" />
    <glyph glyph-name="adieresis.ss02" horiz-adv-x="612" 
d="M121 628q0 29 20.5 50t49.5 21t50 -21t21 -50t-21 -49.5t-50 -20.5t-49.5 20.5t-20.5 49.5zM331 628q0 30 20 50.5t50 20.5q29 0 50 -21t21 -50t-21 -49.5t-50 -20.5q-30 0 -50 20.5t-20 49.5zM168 248q0 -66 34.5 -106.5t88.5 -40.5q53 0 87 40t34 107t-33.5 105
t-87.5 38q-55 0 -89 -38t-34 -105zM413 61v6q-16 -36 -52.5 -58.5t-85.5 -22.5q-107 0 -174 74.5t-67 187.5q0 110 66 184t171 74q103 0 141 -75v61h129v-403q0 -45 4 -89h-127q-5 18 -5 61z" />
    <glyph glyph-name="aring.ss02" horiz-adv-x="612" 
d="M404 648q0 -47 -34 -78.5t-81 -31.5t-81 31.5t-34 78.5t34 79.5t81 32.5t81 -32.5t34 -79.5zM329 648q0 18 -11.5 30t-29.5 12q-17 0 -28.5 -11.5t-11.5 -30.5q0 -18 11.5 -29.5t28.5 -11.5t29 11.5t12 29.5zM168 248q0 -66 34.5 -106.5t88.5 -40.5q53 0 87 40t34 107
t-33.5 105t-87.5 38q-55 0 -89 -38t-34 -105zM413 61v6q-16 -36 -52.5 -58.5t-85.5 -22.5q-107 0 -174 74.5t-67 187.5q0 110 66 184t171 74q103 0 141 -75v61h129v-403q0 -45 4 -89h-127q-5 18 -5 61z" />
    <glyph glyph-name="amacron.ss02" horiz-adv-x="612" 
d="M168 248q0 -66 34.5 -106.5t88.5 -40.5q53 0 87 40t34 107t-33.5 105t-87.5 38q-55 0 -89 -38t-34 -105zM413 61v6q-16 -36 -52.5 -58.5t-85.5 -22.5q-107 0 -174 74.5t-67 187.5q0 110 66 184t171 74q103 0 141 -75v61h129v-403q0 -45 4 -89h-127q-5 18 -5 61zM430 577
h-281v97h281v-97z" />
    <glyph glyph-name="abreve.ss02" horiz-adv-x="612" 
d="M168 248q0 -66 34.5 -106.5t88.5 -40.5q53 0 87 40t34 107t-33.5 105t-87.5 38q-55 0 -89 -38t-34 -105zM413 61v6q-16 -36 -52.5 -58.5t-85.5 -22.5q-107 0 -174 74.5t-67 187.5q0 110 66 184t171 74q103 0 141 -75v61h129v-403q0 -45 4 -89h-127q-5 18 -5 61zM294 549
q-75 0 -117 44t-44 107h89q1 -23 19 -41t53 -18q34 0 51.5 17.5t20.5 41.5h89q-2 -63 -44 -107t-117 -44z" />
    <glyph glyph-name="aogonek.ss02" horiz-adv-x="612" 
d="M493 -223q-54 0 -88.5 29.5t-34.5 77.5q0 71 72 116h-24q-5 18 -5 61v6q-16 -36 -52.5 -58.5t-85.5 -22.5q-107 0 -174 74.5t-67 187.5q0 110 66 184t171 74q103 0 141 -75v61h129v-403q0 -61 4 -89q-79 -40 -79 -94q0 -22 13.5 -33.5t35.5 -11.5q17 0 30 3v-79
q-21 -8 -52 -8zM168 248q0 -66 34.5 -106.5t88.5 -40.5q53 0 87 40t34 107t-33.5 105t-87.5 38q-55 0 -89 -38t-34 -105z" />
    <glyph glyph-name="aringacute.ss02" horiz-adv-x="612" 
d="M477 934l-136 -150h-107l91 150h152zM405 644q0 -47 -34 -78.5t-81 -31.5t-81 31.5t-34 78.5t34 79.5t81 32.5t81 -32.5t34 -79.5zM330 644q0 18 -12 30t-29 12t-28.5 -11.5t-11.5 -30.5q0 -18 11.5 -29.5t28.5 -11.5t29 11.5t12 29.5zM168 248q0 -66 34.5 -106.5
t88.5 -40.5q53 0 87 40t34 107t-33.5 105t-87.5 38q-55 0 -89 -38t-34 -105zM413 61v6q-16 -36 -52.5 -58.5t-85.5 -22.5q-107 0 -174 74.5t-67 187.5q0 110 66 184t171 74q103 0 141 -75v61h129v-403q0 -45 4 -89h-127q-5 18 -5 61z" />
    <glyph glyph-name="r.ss03" horiz-adv-x="397" 
d="M204 492v-79q2 36 27.5 61t61.5 25q38 0 63.5 -25.5t25.5 -63.5t-25.5 -63.5t-63.5 -25.5q-36 0 -61.5 24.5t-27.5 60.5v-406h-133v492h133z" />
    <glyph glyph-name="racute.ss03" horiz-adv-x="397" 
d="M347 701l-136 -150h-107l91 150h152zM204 492v-79q2 36 27.5 61t61.5 25q38 0 63.5 -25.5t25.5 -63.5t-25.5 -63.5t-63.5 -25.5q-36 0 -61.5 24.5t-27.5 60.5v-406h-133v492h133z" />
    <glyph glyph-name="rcommaaccent.ss03" horiz-adv-x="397" 
d="M62 -102q0 27 20.5 45.5t52.5 18.5q34 0 57.5 -24.5t23.5 -62.5q0 -69 -42.5 -98t-98.5 -29v48q35 0 56.5 13t24.5 34q-9 -7 -29 -7q-30 0 -47.5 17t-17.5 45zM204 492v-79q2 36 27.5 61t61.5 25q38 0 63.5 -25.5t25.5 -63.5t-25.5 -63.5t-63.5 -25.5q-36 0 -61.5 24.5
t-27.5 60.5v-406h-133v492h133z" />
    <glyph glyph-name="rcaron.ss03" horiz-adv-x="397" 
d="M44 700h107l70 -75l70 75h105l-109 -148h-133zM204 492v-79q2 36 27.5 61t61.5 25q38 0 63.5 -25.5t25.5 -63.5t-25.5 -63.5t-63.5 -25.5q-36 0 -61.5 24.5t-27.5 60.5v-406h-133v492h133z" />
    <glyph glyph-name="ampersand.ss04" horiz-adv-x="707" 
d="M385 233v114h289v-114h-73v-4q-4 -104 -76.5 -174t-197.5 -70q-124 0 -197.5 60.5t-73.5 154.5q0 70 43 119.5t102 65.5q-48 16 -78.5 57t-30.5 94q0 81 62.5 134.5t159.5 53.5q113 0 171 -56.5t62 -139.5l-132 -16q-5 99 -100 99q-36 0 -62.5 -22t-26.5 -58
q0 -42 29.5 -64.5t62.5 -22.5h11v-114q-53 0 -93 -29t-40 -89q0 -45 34.5 -77.5t99.5 -32.5q60 0 95.5 33.5t37.5 93.5v4h-78z" />
    <glyph glyph-name="one.ss05" horiz-adv-x="524" 
d="M44 119h169v363h-165v94q75 2 123 38.5t60 94.5h119v-590h164v-119h-470v119z" />
    <glyph glyph-name="registered.ss06" horiz-adv-x="429" 
d="M23 526q0 79 56 135t135 56t135.5 -56t56.5 -135t-56.5 -135t-135.5 -56t-135 56t-56 135zM76 526q0 -59 40 -100t98 -41t98.5 41t40.5 100t-40.5 100t-98.5 41t-98 -41t-40 -100zM238 431l-28 65h-12v-65h-55v196h84q29 0 49 -19t20 -47q0 -37 -35 -55l36 -75h-59z
M198 541h16q25 0 25 20t-25 20h-16v-40z" />
    <glyph glyph-name="caron.alt" horiz-adv-x="213" 
d="M187 709l-72 -198h-89l29 198h132z" />
    <glyph glyph-name="commaaccent" horiz-adv-x="207" 
d="M26 685q0 27 20.5 45.5t52.5 18.5q34 0 57.5 -24t23.5 -62t-13.5 -64.5t-36.5 -39t-45 -18t-46 -5.5v47q35 0 56.5 12.5t24.5 33.5q-21 -7 -29 -7q-30 0 -47.5 17.5t-17.5 45.5z" />
    <glyph glyph-name="commaturn" horiz-adv-x="186" 
d="M171 605q0 -28 -20.5 -46t-52.5 -18q-35 0 -58 24t-23 62q0 65 43.5 96t97.5 31v-48q-35 0 -57 -13.5t-24 -32.5q7 7 28 7q31 0 48.5 -17.5t17.5 -44.5z" />
    <glyph glyph-name="dieresis.narrow" horiz-adv-x="332" 
d="M15 629q0 28 19.5 47.5t48.5 19.5q28 0 47.5 -19.5t19.5 -47.5q0 -29 -19.5 -48.5t-47.5 -19.5q-29 0 -48.5 19.5t-19.5 48.5zM183 629q0 28 19 47.5t47 19.5q29 0 48.5 -19.5t19.5 -47.5q0 -29 -19.5 -48.5t-48.5 -19.5q-28 0 -47 19.5t-19 48.5z" />
    <glyph glyph-name="dieresis.uc.narrow" horiz-adv-x="353" 
d="M16 823q0 29 19.5 49t48.5 20t49.5 -20t20.5 -49t-20.5 -49t-49.5 -20t-48.5 20t-19.5 49zM200 823q0 29 19.5 49t48.5 20t49 -20t20 -49t-20 -49t-49 -20t-48.5 20t-19.5 49z" />
    <glyph glyph-name="grave.uc" horiz-adv-x="292" 
d="M155 759l-145 127h163l104 -127h-122z" />
    <glyph glyph-name="dieresis.uc" horiz-adv-x="444" 
d="M21 823q0 30 20.5 51t50.5 21q31 0 52 -21t21 -51q0 -31 -21 -51.5t-52 -20.5t-51 20.5t-20 51.5zM279 823q0 30 20.5 51t51.5 21t52 -21t21 -51q0 -31 -21 -51.5t-52 -20.5t-51.5 20.5t-20.5 51.5z" />
    <glyph glyph-name="macron.uc" horiz-adv-x="337" 
d="M321 774h-305v100h305v-100z" />
    <glyph glyph-name="acute.uc" horiz-adv-x="292" 
d="M282 886l-145 -127h-122l103 127h164z" />
    <glyph glyph-name="circumflex.uc" horiz-adv-x="411" 
d="M140 759h-121l120 127h136l122 -127h-125l-67 65z" />
    <glyph glyph-name="caron.uc" horiz-adv-x="411" 
d="M19 886h124l66 -64l67 64h121l-122 -127h-136z" />
    <glyph glyph-name="breve.uc" horiz-adv-x="368" 
d="M184 753q-76 0 -118 40.5t-45 94.5h102q1 -22 16.5 -36.5t44.5 -14.5t44.5 14.5t16.5 36.5h102q-3 -54 -45 -94.5t-118 -40.5z" />
    <glyph glyph-name="dotaccent.uc" horiz-adv-x="193" 
d="M16 833q0 34 23.5 57t56.5 23q34 0 57.5 -23t23.5 -57q0 -33 -23.5 -56t-57.5 -23q-33 0 -56.5 23t-23.5 56z" />
    <glyph glyph-name="ring.uc" horiz-adv-x="294" 
d="M278 870q0 -54 -38.5 -90.5t-92.5 -36.5q-52 0 -91.5 36.5t-39.5 90.5t39.5 90.5t91.5 36.5q54 0 92.5 -36.5t38.5 -90.5zM194 870q0 21 -13 34t-34 13t-34.5 -13t-13.5 -34t13.5 -34.5t34.5 -13.5t34 13t13 35z" />
    <glyph glyph-name="tilde.uc" horiz-adv-x="372" 
d="M356 890v-28q0 -53 -28.5 -81.5t-72.5 -28.5q-38 0 -75 24l-6 4q-35 20 -48 20q-29 0 -29 -43h-80v27q0 52 28.5 80.5t72.5 28.5q36 0 76 -23l6 -4q5 -2 16 -8t17.5 -8.5t13.5 -2.5q29 0 29 31v12h80z" />
    <glyph glyph-name="hungarumlaut.uc" horiz-adv-x="383" 
d="M196 886l-94 -127h-86l53 127h127zM367 886l-108 -127h-88l67 127h129z" />
    <glyph glyph-name="caron.alt.uc" horiz-adv-x="212" 
d="M195 709l-75 -208h-94l31 208h138z" />
    <glyph glyph-name="undercommaaccent" horiz-adv-x="187" 
d="M16 -102q0 27 20.5 45.5t52.5 18.5q34 0 57.5 -24.5t23.5 -62.5q0 -69 -42.5 -98t-98.5 -29v48q35 0 56.5 13t24.5 34q-9 -7 -29 -7q-30 0 -47.5 17t-17.5 45z" />
    </font>
</defs>
</svg>
