<?xml version="1.0" standalone="no"?>
<!DOCTYPE svg PUBLIC "-//W3C//DTD SVG 1.1//EN" "http://www.w3.org/Graphics/SVG/1.1/DTD/svg11.dtd" >
<svg>
<metadata>
Created by FontForge 20120731 at Wed Aug 19 13:00:18 2020
 By www
Theano Didot copyright (c) Alexey Kryukov, 2007-2008 (http://www.thessalonica.org.ru). Henri Didot modified by Rory Harnden, 2014(http://rrry.me).
</metadata>
<defs>
<font id="HenriDidot" horiz-adv-x="0" >
  <font-face 
    font-family="Henri Didot"
    font-weight="400"
    font-stretch="normal"
    units-per-em="2048"
    panose-1="2 6 6 3 6 7 6 2 2 3"
    ascent="1580"
    descent="-468"
    x-height="884"
    cap-height="1434"
    bbox="-862 -630 2134 2049.51"
    underline-thickness="96"
    underline-position="-352"
    unicode-range="U+000D-FB06"
  />
<missing-glyph horiz-adv-x="924" 
d="M878 0h-832v1460h832v-1460zM142 1292v-1124q0 -80 78 -80h484q78 0 78 80v1124q0 80 -78 80h-484q-78 0 -78 -80zM322 980h-96q0 117 68 194q69 76 180 76q105 0 166.5 -55.5t61.5 -150.5q0 -104 -152 -301q-36 -46 -49 -118t-13 -189h-96q0 132 16 211q16 81 77 160
q105 137 105 235q0 52 -35 86t-87 34q-72 0 -108 -49.5t-38 -132.5zM446 358q35 0 59.5 -25t24.5 -59q0 -37 -24.5 -63.5t-59.5 -26.5q-36 0 -61 27t-25 63t25 60t61 24z" />
    <glyph glyph-name="f_f_j" unicode="ffj" horiz-adv-x="1632" 
d="M990 -404q0 59 27.5 92t71.5 33q35 0 55.5 -19t20.5 -55q0 -29 -7.5 -66.5t-15.5 -65.5t-11 -56.5t3.5 -46.5t30.5 -28t67 -8q110 5 110 295v1210h-418v-878h142v-3h-448v3h142v878h-416v-878h142v-3h-448v3h142v878h-146v3h146v94q0 224 90 355q62 90 149 134.5
t186 44.5q199 0 273 -186l6 9q36 50 84 86t87.5 53t84.5 26.5t63.5 10.5t35.5 1q123 0 197 -58q76 -58 76 -146q0 -131 -122 -131q-33 0 -53.5 21.5t-20.5 57.5q0 23 11 65.5t11 64.5q0 57 -26.5 90t-73.5 33q-70 0 -126.5 -35.5t-90.5 -90.5t-57 -126.5t-31.5 -137.5
t-8.5 -129v-106h582v-1043q0 -220 -79 -344q-78 -125 -212 -125q-92 0 -158 63q-67 61 -67 161zM344 884h416v62q0 95 11 147q24 114 105 230q-72 186 -272 186q-57 0 -103 -30t-74.5 -76.5t-48 -105.5t-27 -114t-7.5 -105v-194z" />
    <glyph glyph-name="f_j" unicode="fj" horiz-adv-x="1052" 
d="M390 -404q0 59 27.5 92t71.5 33q35 0 55.5 -19t20.5 -55q0 -29 -7.5 -66.5t-15.5 -65.5t-11 -56.5t3.5 -46.5t30.5 -28t67 -8q110 5 110 295v1210h-398v-878h142v-3h-448v3h142v878h-146v3h146v62v13q0 40 2 67.5t12 79t38 109.5t72 120q36 50 84 86t87.5 53t84.5 26.5
t63.5 10.5t35.5 1q123 0 197 -58q76 -58 76 -146q0 -131 -122 -131q-33 0 -53.5 21.5t-20.5 57.5q0 23 11 65.5t11 64.5q0 57 -26.5 90t-73.5 33q-70 0 -126.5 -35.5t-90.5 -90.5t-57 -126.5t-31.5 -137.5t-8.5 -129v-106h562v-1043q0 -220 -79 -344q-78 -125 -212 -125
q-92 0 -158 63q-67 61 -67 161z" />
    <glyph glyph-name="fi" unicode="fi" horiz-adv-x="1084" 
d="M1067 0h-448v3h142v878h-417v-878h142v-3h-448v3h142v878h-146v3h146q0 126 10 183q23 141 114 268q36 50 84 86t87.5 53t84.5 26.5t63.5 10.5t35.5 1q123 0 197 -58q76 -58 76 -146q0 -131 -122 -131q-33 0 -53.5 21.5t-20.5 57.5q0 23 11 65.5t11 64.5q0 57 -26.5 90
t-73.5 33q-70 0 -126.5 -35.5t-90.5 -90.5t-57 -126.5t-31.5 -137.5t-8.5 -129v-106h581v-881h142v-3z" />
    <glyph glyph-name="ffi" unicode="ffi" horiz-adv-x="1664" 
d="M1645 0h-448v3h142v878h-415v-878h142v-3h-448v3h142v878h-416v-878h142v-3h-448v3h142v878h-146v3h146v94q0 224 90 355q62 90 149 134.5t186 44.5q199 0 273 -186l6 9q36 50 84 86t87.5 53t84.5 26.5t63.5 10.5t35.5 1q123 0 197 -58q76 -58 76 -146q0 -131 -122 -131
q-33 0 -53.5 21.5t-20.5 57.5q0 23 11 65.5t11 64.5q0 57 -26.5 90t-73.5 33q-70 0 -126.5 -35.5t-90.5 -90.5t-57 -126.5t-31.5 -137.5t-8.5 -129v-106h579v-881h142v-3zM344 884h416v62q0 95 11 147q24 114 105 230q-72 186 -272 186q-57 0 -103 -30t-74.5 -76.5
t-48 -105.5t-27 -114t-7.5 -105v-194z" />
    <glyph glyph-name=".notdef" horiz-adv-x="924" 
d="M878 0h-832v1460h832v-1460zM142 1292v-1124q0 -80 78 -80h484q78 0 78 80v1124q0 80 -78 80h-484q-78 0 -78 -80zM322 980h-96q0 117 68 194q69 76 180 76q105 0 166.5 -55.5t61.5 -150.5q0 -104 -152 -301q-36 -46 -49 -118t-13 -189h-96q0 132 16 211q16 81 77 160
q105 137 105 235q0 52 -35 86t-87 34q-72 0 -108 -49.5t-38 -132.5zM446 358q35 0 59.5 -25t24.5 -59q0 -37 -24.5 -63.5t-59.5 -26.5q-36 0 -61 27t-25 63t25 60t61 24z" />
    <glyph glyph-name=".null" 
 />
    <glyph glyph-name="nonmarkingreturn" horiz-adv-x="682" 
 />
    <glyph glyph-name="NULL" 
 />
    <glyph glyph-name="NULL" 
 />
    <glyph glyph-name="CR" unicode="&#xd;" horiz-adv-x="682" 
 />
    <glyph glyph-name="space" unicode=" " horiz-adv-x="528" 
 />
    <glyph glyph-name="exclam" unicode="!" horiz-adv-x="428" 
d="M76 1343q0 75 36 122t102 47t102 -47t36 -122q0 -105 -24 -247q-31 -181 -43 -301l-70 -405h-2l-70 405q-12 120 -43 301q-24 142 -24 247zM123 13q-37 37 -37 91t37 91t91 37t91 -37t37 -91t-37 -91t-91 -37t-91 37z" />
    <glyph glyph-name="quotedbl" unicode="&#x22;" horiz-adv-x="780" 
d="M494 1412q0 47 25.5 76.5t68.5 29.5t68.5 -29.5t25.5 -76.5q0 -34 -10 -113l-83 -445h-2l-83 445q-10 79 -10 113zM120 1412q0 47 25.5 76.5t68.5 29.5t68.5 -29.5t25.5 -76.5q0 -34 -10 -113l-83 -445h-2l-83 445q-10 79 -10 113z" />
    <glyph glyph-name="numbersign" unicode="#" horiz-adv-x="1052" 
d="M328 1027h-316v3h316l88 430h4l-87 -430h502l88 430h3l-87 -430h201v-3h-202l-120 -594h322v-3h-323l-87 -430h-3l87 430h-503l-87 -430h-4l87 430h-195v3h195zM332 1027l-120 -594h502l121 594h-503z" />
    <glyph glyph-name="dollar" unicode="$" horiz-adv-x="1052" 
d="M634 -130h-3v122q-63 -12 -124 -12q-36 0 -67 4v-114h-3v114q-72 7 -140 26.5t-131.5 53.5t-102.5 90t-39 126q0 79 42 128.5t113 49.5q40 0 67 -22t27 -58q0 -70 -83 -105q-31 -13 -42.5 -28.5t-11.5 -44.5q0 -80 79.5 -140.5t221.5 -73.5v684q-136 45 -196.5 75.5
t-99.5 68.5q-85 83 -85 226q0 83 31.5 154t85.5 120.5t121 82.5t143 47v130h3v-130q49 10 103 10q47 0 88 -3v123h3v-124q78 -6 137 -25t82.5 -34.5t56.5 -42.5q82 -69 82 -166q0 -68 -35 -118t-95 -50q-41 0 -67.5 22.5t-26.5 54.5q0 58 62 99q25 16 34.5 29.5t11.5 43.5
q2 36 -6 64t-32.5 54t-75.5 43t-128 23v-626q145 -50 213.5 -84t102.5 -71q76 -82 76 -232q0 -168 -92 -278q-107 -128 -300 -164v-122zM932 351q0 90 -57 144q-51 48 -241 111v-611q81 15 141 51t93 85.5t48.5 104t15.5 115.5zM506 -17q65 0 125 11v613l-97 32
q-83 26 -94 30v-683q32 -3 66 -3zM543 1451q-57 0 -103 -9v-556q57 -20 94 -32l97 -32v626q-41 3 -88 3zM170 1132q0 -78 53.5 -131.5t213.5 -113.5v555q-134 -24 -200.5 -107.5t-66.5 -202.5z" />
    <glyph glyph-name="percent" unicode="%" horiz-adv-x="1440" 
d="M274 -16l2 -1l886 1511l-3 1zM755 314q2 -58 24.5 -116.5t62 -110t102.5 -83.5t138 -32q97 0 173 54t114.5 133t40.5 165q1 48 -12 98.5t-40.5 97.5t-66 84t-93 59.5t-116.5 22.5q-100 0 -178 -58t-115 -142t-34 -172zM46 1141q2 -58 24.5 -116.5t62 -110t102.5 -83.5
t138 -32q97 0 173 54t114.5 133t40.5 165q1 48 -12 98.5t-40.5 97.5t-66 84t-93 59.5t-116.5 22.5q-100 0 -178 -58t-115 -142t-34 -172zM43 1141q-2 65 19.5 131t62.5 120.5t106 89t142 34.5q78 0 143 -34.5t105.5 -88.5t62 -117.5t20.5 -124.5q-2 -86 -41 -166
t-116 -134.5t-174 -54.5q-76 0 -139.5 32.5t-103.5 84t-62.5 111t-24.5 117.5zM752 314q-2 65 19.5 131t62.5 120.5t106 89t142 34.5q78 0 143 -34.5t105.5 -88.5t62 -117.5t20.5 -124.5q-2 -86 -41 -166t-116 -134.5t-174 -54.5q-76 0 -139.5 32.5t-103.5 84t-62.5 111
t-24.5 117.5z" />
    <glyph glyph-name="ampersand" unicode="&#x26;" horiz-adv-x="1514" 
d="M575 -24q-199 0 -334 103t-147 288q-3 50 7 97t27 85t49.5 78t62.5 69.5t79 66t85.5 61.5t94.5 62q-104 166 -113 304q-8 127 74 227.5t205 100.5q109 0 173 -57t70 -158q5 -83 -43 -146.5t-207 -170.5l435 -686l7 -12q65 92 101.5 195t43.5 159t14 167q1 17 2 25h-303
l3 3h564v-3h-261q-1 -11 -3.5 -54.5t-4 -61.5t-7 -61.5t-12 -70t-18.5 -69.5t-27.5 -76.5t-38.5 -75t-51 -80.5q83 -127 170.5 -209t159.5 -82q68 0 129 23l1 -3q-116 -38 -215 -38h-51.5t-45.5 1.5t-46 4.5t-41 8.5t-41.5 14t-37.5 21.5t-40 30t-37 40.5t-39 52.5
q-68 -59 -114 -91t-119.5 -57t-159.5 -25zM963 158l-462 725q-127 -95 -175 -192.5t-40 -220.5q11 -176 134 -282t297 -106q148 0 249 71zM821 1303q1 104 -41.5 158t-114.5 54q-71 0 -105 -69.5t-28 -157.5q3 -54 19 -102t34 -80.5t63 -102.5l9 -15q94 69 128.5 145
t35.5 170z" />
    <glyph glyph-name="quotesingle" unicode="'" horiz-adv-x="428" 
d="M120 1412q0 47 25.5 76.5t68.5 29.5t68.5 -29.5t25.5 -76.5q0 -34 -10 -113l-83 -445h-2l-83 445q-10 79 -10 113z" />
    <glyph glyph-name="parenleft" unicode="(" horiz-adv-x="560" 
d="M444 1512l4 -2q-155 -219 -252.5 -486.5t-97.5 -535.5q0 -269 97 -531.5t253 -490.5l-4 -2q-350 520 -350 1024q0 266 96 530.5t254 493.5z" />
    <glyph glyph-name="parenright" unicode=")" horiz-adv-x="560" 
d="M112 1510l4 2q158 -229 254 -493.5t96 -530.5q0 -504 -350 -1024l-4 2q156 228 253 490.5t97 531.5q0 268 -97.5 535.5t-252.5 486.5z" />
    <glyph glyph-name="asterisk" unicode="*" horiz-adv-x="1004" 
d="M153 954l347 112l-350 120q-60 26 -48 81q9 40 46 61q36 20 66 -4l287 -256l-83 355q-8 60 42 84q44 21 86 -2q46 -24 40 -82l-83 -355l292 259q36 31 77 -5q36 -32 36 -75q0 -42 -40 -58l-364 -123l351 -117q57 -23 48 -77q-7 -43 -43 -65q-36 -23 -66 1l-291 256
l83 -353q8 -60 -43 -84q-45 -22 -87 2q-45 25 -38 82l83 353l-287 -254q-36 -29 -77 3q-37 28 -36 72q0 48 52 69z" />
    <glyph glyph-name="plus" unicode="+" horiz-adv-x="989" 
d="M482 512h-471v4h471v512h3v-512h494v-4h-494v-512h-3v512z" />
    <glyph glyph-name="comma" unicode="," horiz-adv-x="428" 
d="M97 106q0 54 38 91t90 37q44 0 77 -26t45 -66q11 -22 11 -75q0 -109 -73 -241q-75 -135 -202 -250l-2 2q135 119 209 265q65 130 65 224q0 20 -2 42v-3q0 -54 -37 -91t-91 -37t-91 38t-37 90z" />
    <glyph glyph-name="hyphen" unicode="-" horiz-adv-x="728" 
d="M678 416h-628v4h628v-4z" />
    <glyph glyph-name="period" unicode="." horiz-adv-x="428" 
d="M123 13q-37 37 -37 91t37 91t91 37t91 -37t37 -91t-37 -91t-91 -37t-91 37z" />
    <glyph glyph-name="slash" unicode="/" horiz-adv-x="622" 
d="M87 -506l-4 1l460 1954l4 -1z" />
    <glyph glyph-name="zero" unicode="0" horiz-adv-x="1052" 
d="M46 700q0 72 12.5 152.5t37.5 165.5t65.5 162t91.5 137.5t122 96.5t151 36t151 -37t122 -98.5t91.5 -139t65 -162.5t37.5 -164.5t13 -148.5q0 -120 -33.5 -245.5t-93.5 -231.5q-60 -105 -153 -172t-200 -67q-81 0 -152 34.5t-122 93t-91.5 132t-65 155t-37 158
t-12.5 143.5zM252 697q0 -269 27.5 -422.5t86 -220.5t160.5 -67t160.5 67t86 220.5t27.5 422.5q0 273 -14 388q-37 314 -203 355q-27 7 -57 7q-50 0 -90.5 -17t-68.5 -55t-48.5 -75.5t-32.5 -102t-19.5 -110.5t-10.5 -124.5t-3.5 -120t-0.5 -120.5v-25z" />
    <glyph glyph-name="one" unicode="1" horiz-adv-x="1052" 
d="M163 1103l-1 3q101 36 175 77q170 95 267 263h52v-1443h264v-3h-712v3h264v1262l-8 3q-8 -6 -27 -20.5t-31 -24t-31 -22t-36 -21.5q-73 -40 -176 -77z" />
    <glyph glyph-name="two" unicode="2" horiz-adv-x="1052" 
d="M64 1026q0 180 111 302q113 122 299 122q111 0 201 -33.5t145 -93.5q113 -119 113 -291q0 -89 -31.5 -174t-79 -150.5t-119 -137.5t-136.5 -125.5t-147 -125t-136 -125.5l-18 -18h492q172 0 208 205l4 -1l-74 -380h-830q100 83 187 167.5t176.5 192.5t152.5 214.5
t103 231t40 244.5q0 152 -78 243q-56 67 -85 90q-63 50 -144 50q-102 0 -184 -58t-124.5 -147.5t-42.5 -189.5q0 -57 27 -85t66 -28q28 0 62 9.5t48 25.5q38 44 75 44q42 0 67 -25t25 -68q0 -62 -43 -105t-104 -43q-96 0 -161 68q-65 70 -65 195z" />
    <glyph glyph-name="three" unicode="3" horiz-adv-x="1052" 
d="M62 297q0 74 50 127q49 52 112 52q49 0 79.5 -29.5t30.5 -77.5q0 -43 -18 -69.5t-62 -51.5q-18 -10 -31 -19q-33 -24 -33 -59q0 -183 282 -183q70 0 120.5 20.5t88.5 68.5t56.5 131t18.5 203q0 200 -72.5 312t-180.5 76q-40 -14 -198 -47l-1 3q128 26 199 48
q100 32 154.5 118.5t54.5 208.5q0 102 -15 167.5t-46 97.5t-65.5 42.5t-87.5 10.5q-55 0 -104 -14t-85.5 -51.5t-36.5 -91.5q0 -25 11 -40t39 -30q29 -17 39.5 -37t10.5 -53q0 -43 -28 -71.5t-72 -28.5q-57 0 -92.5 37.5t-35.5 99.5q0 97 98 188q46 43 114.5 69t141.5 26
q94 0 171.5 -26.5t126.5 -73.5q100 -94 100 -226q0 -65 -19 -115t-49 -82t-79 -55.5t-96 -36.5t-113 -25q112 0 207.5 -48.5t154 -141t58.5 -208.5q0 -134 -68 -234q-131 -194 -420 -194q-116 0 -206 34q-93 35 -148.5 107.5t-55.5 171.5z" />
    <glyph glyph-name="four" unicode="4" horiz-adv-x="1052" 
d="M578 504h-534q409 353 502 821q11 59 28 106q15 38 38.5 55.5t63.5 20.5q78 0 78 -87q0 -82 -67 -225q-68 -146 -163 -267q-37 -48 -99 -107t-113.5 -102t-135.5 -110.5t-125 -101.5h527v314l168 164h16v-478h230v-3h-230v-501h192v-3h-568v3h192v501z" />
    <glyph glyph-name="five" unicode="5" horiz-adv-x="1052" 
d="M72 272q0 72 40 115q41 44 98 44q61 0 86 -34q27 -33 27 -73q0 -33 -10.5 -55.5t-38.5 -50.5q-20 -21 -28 -34.5t-8 -32.5q0 -89 43 -126.5t138 -37.5q69 0 135.5 45t115.5 107q84 108 84 285q0 153 -33 270q-60 220 -251 224q-96 0 -182.5 -64.5t-139.5 -186.5l72 771
l30 12q138 -142 262 -142q47 0 95 24t87 63.5t68.5 78.5t51.5 79l3 -1q-73 -155 -172 -263q-110 -121 -227 -121q-59 0 -91 7q-61 13 -125 40l-46 -520q50 104 137 170.5t182 84.5t192 -8.5t169 -96.5q124 -121 124 -316q0 -240 -151 -392q-150 -153 -390 -153
q-144 0 -245 85q-102 86 -102 203z" />
    <glyph glyph-name="six" unicode="6" horiz-adv-x="1052" 
d="M72 672q0 214 73 393t197 282t267 103q134 0 221 -69q88 -67 88 -165q0 -62 -33 -100.5t-84 -38.5q-39 0 -66.5 23.5t-27.5 58.5q0 32 30 92q25 50 25 96q0 42 -41.5 71t-111.5 29q-49 0 -90.5 -20t-71.5 -49.5t-55.5 -80.5t-41.5 -94t-28.5 -110.5t-19 -110.5
t-12 -113.5t-7 -99t-3.5 -86.5l6 -3q47 114 131.5 166.5t189.5 52.5t186 -37t127.5 -98.5t69 -133t22.5 -148.5q0 -135 -55 -246q-56 -113 -160 -183q-105 -69 -238 -69q-207 0 -344 172q-68 85 -105.5 218.5t-37.5 297.5zM281 569q0 -56 1.5 -99t7.5 -107t17 -111.5
t32 -100t50 -86.5t74 -56t101 -22q120 0 183.5 131t63.5 369q0 88 -13.5 159t-42 127t-77.5 86.5t-115 30.5q-79 0 -162 -60q-60 -45 -90 -114t-30 -147z" />
    <glyph glyph-name="seven" unicode="7" horiz-adv-x="1052" 
d="M117 997h-3l41 457h3l-11 -125q84 111 208 111q68 0 142 -34t127.5 -74t118 -74t115.5 -34q60 0 85 72q10 32 13 83q1 27 3 39.5t8 21t19 8.5q18 0 24 -13.5t2.5 -29t-10.5 -27.5q-4 -8 -34 -55t-46 -80q-3 -6 -21.5 -39.5t-33.5 -62t-39 -78.5t-44 -100
q-152 -381 -234 -807q-1 -6 -5 -29.5t-5 -29t-5 -24t-7 -23.5t-8.5 -18.5t-11.5 -17.5t-14.5 -12t-19 -10.5t-24 -5t-29.5 -2.5q-43 0 -69.5 29t-26.5 67q0 78 75 207q77 132 255 465.5t226 420.5q-63 -23 -162.5 -23.5t-165.5 16.5q-22 5 -114 33.5t-139 28.5
q-24 0 -48.5 -8.5t-54 -30.5t-51.5 -71.5t-29 -120.5z" />
    <glyph glyph-name="eight" unicode="8" horiz-adv-x="1052" 
d="M66 329q0 114 75.5 202.5t221.5 164.5v6q-127 63 -198 146q-69 84 -69 216q0 114 60 203q59 89 156 136t213 47q172 0 291 -86q120 -86 120 -214q0 -115 -64.5 -203.5t-190.5 -165.5v-4q115 -54 185 -108q134 -97 138 -247q0 -121 -68 -224q-68 -101 -179 -158
q-112 -56 -238 -56q-120 0 -221 40q-102 40 -167 121q-65 80 -65 184zM198 310q0 -147 91.5 -235t229.5 -88q141 0 242.5 84t101.5 214q0 71 -35 130t-95 99q-40 28 -90.5 56t-85 44t-98 44.5t-87.5 39.5q-174 -105 -174 -388zM204 1163q0 -110 71 -179q19 -19 46 -36
t43.5 -25.5t53 -25t46.5 -21.5l210 -96q35 22 60 45t41 50.5t25.5 52.5t14 61t5.5 64t1 74q0 129 -90 223q-90 97 -232 97q-116 0 -206 -84q-89 -84 -89 -200z" />
    <glyph glyph-name="nine" unicode="9" horiz-adv-x="1052" 
d="M40 952q0 135 55 246q56 114 160 182q104 70 238 70q207 0 344 -172q68 -85 105.5 -218.5t37.5 -297.5q0 -212 -74 -393t-197 -283t-266 -102q-133 0 -222 68q-87 69 -87 166q0 62 33 100.5t84 38.5q39 0 66.5 -23.5t27.5 -58.5q0 -25 -13.5 -47t-27.5 -50.5t-14 -68.5
q0 -51 41.5 -86.5t111.5 -35.5q58 0 106.5 29t81.5 74.5t58.5 110t40 128.5t24.5 136.5t13.5 127t4.5 107.5l-6 3q-42 -78 -131.5 -123t-189.5 -45q-105 0 -186 37t-127.5 98.5t-69 133t-22.5 148.5zM248 933q0 -174 62 -278t195 -104q88 0 166 57q58 42 79.5 78.5
t21.5 85.5q0 24 1 75t1.5 85.5t-1.5 87.5t-5.5 91t-12.5 85.5t-22 80.5t-34 67.5t-48 55.5t-65 34t-84 13q-82 0 -140 -66.5t-86 -181.5t-28 -266z" />
    <glyph glyph-name="colon" unicode=":" horiz-adv-x="428" 
d="M123 13q-37 37 -37 91t37 91t91 37t91 -37t37 -91t-37 -91t-91 -37t-91 37zM123 681q-37 37 -37 91t37 91t91 37t91 -37t37 -91t-37 -91t-91 -37t-91 37z" />
    <glyph glyph-name="semicolon" unicode=";" horiz-adv-x="428" 
d="M93 106q0 54 38 91t90 37q44 0 77 -26t45 -66q11 -22 11 -75q0 -109 -73 -241q-75 -135 -202 -250l-2 2q135 119 209 265q65 130 65 224q0 20 -2 42v-3q0 -54 -37 -91t-91 -37t-91 38t-37 90zM123 681q-37 37 -37 91t37 91t91 37t91 -37t37 -91t-37 -91t-91 -37t-91 37z
" />
    <glyph glyph-name="less" unicode="&#x3c;" horiz-adv-x="1052" 
d="M974 -24l-858 490l-83 48l941 538l1 -3l-935 -535l935 -535z" />
    <glyph glyph-name="equal" unicode="=" horiz-adv-x="1052" 
d="M1040 310h-1028v3h1028v-3zM1040 714h-1028v4h1028v-4z" />
    <glyph glyph-name="greater" unicode="&#x3e;" horiz-adv-x="1052" 
d="M892 466l-858 -490l-1 3l935 535l-935 535l1 3l941 -538z" />
    <glyph glyph-name="question" unicode="?" horiz-adv-x="851" 
d="M172 1309q0 64 40 112t96.5 69.5t116.5 21.5q87 0 158.5 -35t117.5 -93t70.5 -131t24.5 -152q0 -81 -22.5 -153.5t-66.5 -131.5t-117 -93.5t-166 -34.5q-48 0 -86 17t-55 34.5t-35 44.5v-445h-3v453h4q25 -49 71.5 -75t103.5 -26q67 0 112.5 30t69 88.5t33 127.5t9.5 164
q0 58 -5 110.5t-20 108.5t-39 96.5t-65 66.5t-94 26q-37 0 -60.5 -11t-33.5 -26.5t-13 -39.5t-0.5 -44t5.5 -46.5t3 -39.5q0 -50 -38.5 -68t-77 4.5t-38.5 70.5zM161 13q-37 37 -37 91t37 91t91 37t91 -37t37 -91t-37 -91t-91 -37t-91 37z" />
    <glyph glyph-name="at" unicode="@" horiz-adv-x="1616" 
d="M492 197q0 113 62.5 174.5t188.5 98.5q63 19 243 73v101v9q0 34 -0.5 51t-3.5 48t-9.5 48t-19 39t-30.5 33.5t-46 20t-64 8.5q-89 0 -133.5 -56.5t-10.5 -134.5q15 -32 15 -62q0 -31 -22.5 -51.5t-62.5 -20.5q-47 0 -71 25t-24 69q0 92 91 162q91 72 221 72
q174 0 254 -93q80 -92 80 -245v-451q0 -50 3 -68q19 -41 49 -52q30 -6 95 5q217 68 217 570q0 171 -46.5 305t-129.5 218.5t-192 128t-238 43.5q-350 0 -552 -228t-202 -650q0 -183 54.5 -332.5t149.5 -247.5t222 -151t274 -53q162 0 326 69.5t283 189.5l2 -3
q-123 -123 -282.5 -191t-328.5 -68q-160 0 -313.5 60t-270.5 161.5t-188.5 246t-71.5 303.5q0 194 72.5 363.5t196.5 287t294 183.5t360 63q182 -2 337.5 -87.5t247.5 -235t92 -329.5q0 -223 -78.5 -392.5t-212.5 -219.5h1l2 1v-3q-48 -15 -101 -15q-31 0 -56 6
q-64 13 -112.5 49t-66.5 93v7q-52 -79 -111.5 -116.5t-148.5 -37.5q-105 0 -170 56q-64 55 -64 153zM666 213q0 -96 36.5 -151.5t105.5 -55.5q44 0 95.5 43.5t82.5 98.5v392l-215 -65q-52 -15 -78.5 -85.5t-26.5 -176.5z" />
    <glyph glyph-name="A" unicode="A" horiz-adv-x="1430" 
d="M558 0h-496v3h202l478 1459l543 -1459h163v-3h-672v3h268l-198 533h-404l-175 -533h291v-3zM632 1115l-189 -576h402z" />
    <glyph glyph-name="B" unicode="B" horiz-adv-x="1240" 
d="M708 0h-636v3h192v1428h-192v3h628q226 0 339.5 -90t113.5 -256q0 -119 -85 -201q-92 -89 -217 -113q163 -20 267 -127q98 -101 98 -253q0 -185 -137 -290q-137 -104 -371 -104zM472 773v-770h182q164 0 246 108.5t82 292.5q0 168 -63 268.5t-187 100.5h-260zM472 1431
v-655h260q50 0 95 29t74 71q44 62 44 200q0 52 -1.5 81.5t-10.5 68.5t-26 68q-35 60 -86.5 98.5t-136.5 38.5h-212z" />
    <glyph glyph-name="C" unicode="C" horiz-adv-x="1386" 
d="M96 712q0 133 37.5 253.5t104.5 212.5q98 134 244 210t302 74q150 0 280 -47q33 -13 63.5 -20.5t66.5 -9t59.5 17.5t27.5 59h3v-471h-3q0 114 -9 154q-10 52 -42 104q-48 78 -124 137q-42 32 -139.5 52.5t-182.5 20.5q-116 0 -195.5 -55.5t-140.5 -172.5
q-62 -119 -90 -237t-28 -282q0 -231 46.5 -393t149.5 -253t258 -91q86 0 183 20.5t138 52.5q72 55 124 141q25 42 37.5 94t13.5 77.5t1 82.5h3v-471h-3q-14 20 -32 38q-34 34 -91 34q-9 0 -17 -1t-13.5 -2t-15.5 -4t-13.5 -4.5t-17 -6.5t-17.5 -7q-130 -47 -280 -47
q-131 0 -254 50.5t-220 143.5q-98 93 -156 235q-58 141 -58 311z" />
    <glyph glyph-name="D" unicode="D" horiz-adv-x="1468" 
d="M745 0h-673v3h192v1428h-192v3h674q98 0 208 -30t187 -87q82 -58 144 -143q64 -86 100.5 -206t36.5 -256t-36.5 -255t-100.5 -204q-92 -123 -232 -188t-308 -65zM472 1431v-1428h273q97 0 176 41.5t129 113.5q49 70 81 172q32 100 44.5 185.5t12.5 196.5q0 112 -12.5 198
t-44.5 187q-47 158 -142.5 246t-243.5 88h-273z" />
    <glyph glyph-name="E" unicode="E" horiz-adv-x="1326" 
d="M1278 0h-1206v3h192v1428h-192v3h1120l10 -376h-3q-3 84 -12.5 143.5t-30 101.5t-45.5 67t-69 38.5t-91 18t-119 4.5h-360v-655h231q59 0 96 10t68.5 39.5t45.5 89t14 153.5h3v-585h-3q0 84 -14.5 141.5t-45 89.5t-69.5 45.5t-95 13.5h-231v-770h337q167 0 236 16
q132 32 187 152q45 100 49 276h3z" />
    <glyph glyph-name="F" unicode="F" horiz-adv-x="1220" 
d="M664 0h-592v3h192v1428h-192v3h1120l22 -456h-3q-4 72 -13 130t-20.5 102t-30.5 78t-37 57.5t-46.5 39.5t-52.5 25t-61 14t-66 6t-74 1h-338v-655h172h2q59 0 86 1.5t67 10t57.5 28t37 54t26.5 89t7 132.5h3v-682h-3q0 108 -17.5 179.5t-55.5 112t-87.5 56.5t-122.5 16
h-172v-770h192v-3z" />
    <glyph glyph-name="G" unicode="G" horiz-adv-x="1460" 
d="M96 712q0 134 37.5 254.5t104.5 211.5q96 133 242.5 208.5t303.5 75.5q147 0 261 -48q71 -29 127 -29q109 0 109 77h3v-471h-3q0 106 -28 188.5t-74 134.5t-111.5 85.5t-134.5 47t-149 13.5q-217 0 -336 -229q-62 -119 -90 -237t-28 -282q0 -366 116.5 -551.5
t337.5 -185.5q150 0 235 112t85 279v195h-282v3h716v-3h-214l-1 -561h-3q-18 39 -40.5 56.5t-58.5 17.5q-48 0 -141 -33q-103 -38 -167 -53.5t-129 -15.5q-131 0 -254 50.5t-220 143.5q-98 93 -156 235q-58 141 -58 311z" />
    <glyph glyph-name="H" unicode="H" horiz-adv-x="1480" 
d="M664 0h-592v3h192v1428h-192v3h592v-3h-192v-655h576v655h-192v3h592v-3h-192v-1428h192v-3h-592v3h192v770h-576v-770h192v-3z" />
    <glyph glyph-name="I" unicode="I" horiz-adv-x="686" 
d="M664 0h-592v3h192v1428h-192v3h592v-3h-192v-1428h192v-3z" />
    <glyph glyph-name="J" unicode="J" horiz-adv-x="830" 
d="M46 192q0 55 37 96q37 42 93 42q47 0 74.5 -27t27.5 -70q0 -20 -10.5 -41t-19.5 -31t-30 -29.5t-23 -21.5q-40 -44 -9.5 -84.5t86.5 -40.5q32 0 60 28.5t44 69t24.5 80t7.5 65.5v1203h-192v3h592v-3h-192v-1045q0 -61 -10.5 -116.5t-35.5 -109t-63.5 -92.5t-98.5 -62.5
t-136 -23.5q-98 0 -162 55t-64 155z" />
    <glyph glyph-name="K" unicode="K" horiz-adv-x="1498" 
d="M664 0h-592v3h192v1428h-192v3h592v-3h-192v-714l102 47l511 667h-272v3h505v-3h-229l-377 -492l637 -936h175v-3h-681v3h240l-508 758l-103 -47v-711h192v-3z" />
    <glyph glyph-name="L" unicode="L" horiz-adv-x="1276" 
d="M1232 0h-1160v3h192v1428h-192v3h592v-3h-192v-1428h298q88 0 150 8t116.5 30.5t90 60t62.5 97.5t41.5 143.5t20.5 197.5h3z" />
    <glyph glyph-name="M" unicode="M" horiz-adv-x="1644" 
d="M463 0h-411v3h204v1428h-204v3h422l378 -1099l335 1099h407v-3h-192v-1428h192v-3h-592v3h192v1428h-5l-445 -1459h-3l-462 1343q-12 36 -12 116h-8v-1428h204v-3z" />
    <glyph glyph-name="N" unicode="N" horiz-adv-x="1426" 
d="M463 0h-411v3h204v1428h-204v3h437l671 -1103v1100h-204v3h411v-3h-204v-1459h-3l-878 1399q-17 29 -17 60h-6v-1428h204v-3z" />
    <glyph glyph-name="O" unicode="O" horiz-adv-x="1518" 
d="M96 712q0 148 51.5 285t141 239.5t219 164t276.5 61.5q151 0 281.5 -63t218.5 -168t138 -240t50 -279q0 -149 -52 -285t-142 -236.5t-219 -159.5t-275 -59q-151 0 -281.5 61.5t-218.5 164.5t-138 236.5t-50 277.5zM330 712q0 -345 117 -541t337 -196q101 0 178.5 33.5
t129.5 95t85 154t47 203.5t14 251q0 73 -4.5 141t-18 144.5t-34.5 141t-56.5 125t-81.5 102.5t-112.5 67.5t-146.5 25.5t-146.5 -25t-112.5 -67t-81.5 -102.5t-56.5 -125t-34.5 -141.5t-18 -144.5t-4.5 -141.5z" />
    <glyph glyph-name="P" unicode="P" horiz-adv-x="1262" 
d="M664 0h-592v3h192v1428h-192v3h603q86 0 162.5 -12.5t150.5 -43.5t126.5 -78.5t85 -123.5t32.5 -173t-27.5 -171.5t-72 -119.5t-108 -74t-128 -39.5t-139.5 -10.5h-285v-585h192v-3zM472 1431v-840h246q93 0 160 56.5t98.5 147.5t31.5 206q0 430 -329 430h-207z" />
    <glyph glyph-name="Q" unicode="Q" horiz-adv-x="1518" 
d="M96 712q0 149 51.5 286t141 239.5t219 163.5t276.5 61q155 0 286.5 -62t218 -166t135 -239t48.5 -283q0 -196 -87 -365t-246 -272t-355 -103q-65 0 -125 11l-1 -5q50 -35 130 -62.5t144.5 -43t133 -54t108.5 -97.5q176 -252 377 -168l1 -3q-82 -32 -190 -32
q-456 0 -583 295q-64 153 -173 183q-160 44 -277.5 154.5t-175 255.5t-57.5 306zM330 712q0 -142 14.5 -254t47 -204.5t87.5 -155t133 -93.5q74 -30 172 -30q127 0 216.5 50.5t141 149.5t74 229.5t22.5 307.5q0 87 -1.5 141.5t-10.5 141.5t-26 143.5t-50.5 123t-80.5 105.5
t-119.5 65.5t-165.5 26.5q-72 0 -132.5 -17t-104.5 -43.5t-79 -70.5t-57 -85.5t-38 -102t-24.5 -106.5t-12.5 -112.5t-5 -107.5t-1 -102z" />
    <glyph glyph-name="R" unicode="R" horiz-adv-x="1390" 
d="M664 0h-592v3h192v1428h-192v3h604q112 0 200.5 -29.5t139.5 -82.5q100 -101 100 -239q0 -245 -284 -310q131 -21 233 -126q39 -40 60 -96t21 -113v-202q0 -134 34 -188t119 -54q45 0 128 26l1 -3q-100 -33 -209 -33q-100 0 -184 49q-97 58 -97 202v234q0 163 -54 230
q-58 74 -188 74h-224v-770h192v-3zM472 1431v-655h256q107 0 146 81q34 72 34 208q0 138 -55 247q-27 56 -77.5 87.5t-115.5 31.5h-188z" />
    <glyph glyph-name="S" unicode="S" horiz-adv-x="1172" 
d="M148 -28l-10 504h3q1 -141 69.5 -257t181.5 -180t245 -64q155 0 241 90q88 89 88 247q0 141 -84 214.5t-280 123.5q-144 36 -241 92q-175 100 -179 307q0 185 115 299t317 114q92 0 164 -31q74 -30 101 -30q26 0 58 16.5t38 44.5h3l4 -371h-3q-2 85 -25.5 151t-60 106
t-86 66t-98 35.5t-100.5 9.5q-78 0 -136 -26t-91 -70t-48.5 -94.5t-15.5 -107.5q0 -95 75 -161q37 -31 92.5 -56.5t85 -34t101.5 -27.5q113 -31 189.5 -67.5t134.5 -89.5q118 -106 118 -309q0 -199 -138 -322q-139 -122 -339 -122q-121 0 -251 63q-39 18 -78 27.5t-76 8
t-59.5 -26t-21.5 -72.5h-3z" />
    <glyph glyph-name="T" unicode="T" horiz-adv-x="1464" 
d="M87 895h-3l24 539h1308l24 -539h-3q-7 111 -19 190t-34.5 141t-54 99.5t-80.5 62t-109.5 34t-145.5 9.5h-128v-1428h192v-3h-592v3h192v1428h-128q-124 0 -201 -23t-129.5 -86t-77 -163t-35.5 -264z" />
    <glyph glyph-name="U" unicode="U" horiz-adv-x="1440" 
d="M230 1431h-192v3h592v-3h-192v-1118q0 -338 318 -338q215 0 347 111t132 320v1025h-204v3h411v-3h-204v-1025q0 -108 -37.5 -192t-103.5 -136.5t-152.5 -79t-188.5 -26.5q-526 0 -526 464v995z" />
    <glyph glyph-name="V" unicode="V" horiz-adv-x="1369" 
d="M182 1431h-164v3h672v-3h-268l412 -1112l364 1112h-230v3h386v-3h-152l-478 -1459z" />
    <glyph glyph-name="W" unicode="W" horiz-adv-x="2027" 
d="M159 1431h-141v3h596v-3h-221l378 -1113l269 778l-111 335h-153v3h596v-3h-212l362 -1113l355 1113h-229v3h362v-3h-130l-464 -1459l-374 1119l-386 -1119z" />
    <glyph glyph-name="X" unicode="X" horiz-adv-x="1466" 
d="M800 885l560 -882h124v-3h-720v3h343l-433 683l-434 -683h332v-3h-550v3h214l436 686l-470 742h-180v3h716v-3h-283l343 -543l345 543h-265v3h488v-3h-219z" />
    <glyph glyph-name="Y" unicode="Y" horiz-adv-x="1362" 
d="M181 1431h-163v3h672v-3h-268l422 -779l389 779h-301v3h460v-3h-156l-390 -783v-645h192v-3h-592v3h192v589z" />
    <glyph glyph-name="Z" unicode="Z" horiz-adv-x="1300" 
d="M113 921h-3l42 513h1022l-793 -1431h391q73 0 130 8.5t111 29.5t93.5 58.5t70.5 93t49 136t23 184.5h3l-22 -513h-1106l793 1431h-353q-108 0 -183.5 -25t-132.5 -84t-89.5 -157t-45.5 -244z" />
    <glyph glyph-name="bracketleft" unicode="[" horiz-adv-x="680" 
d="M634 -520h-452v2016h452v-3h-449v-2010h449v-3z" />
    <glyph glyph-name="backslash" unicode="\" horiz-adv-x="622" 
d="M543 -522l-460 1954l4 1l460 -1954z" />
    <glyph glyph-name="bracketright" unicode="]" horiz-adv-x="680" 
d="M46 -520v3h450v2009h-450v4h452v-2016h-452z" />
    <glyph glyph-name="asciicircum" unicode="^" horiz-adv-x="1052" 
d="M-4 736h-4l486 726l48 71l534 -797h-4l-530 792z" />
    <glyph glyph-name="underscore" unicode="_" horiz-adv-x="1126" 
d="M46 -120v4h1024v-4h-1024z" />
    <glyph glyph-name="grave" unicode="`" horiz-adv-x="780" 
d="M210 1396q0 28 19 47t50 19q72 0 103 -101l90 -298l-3 -1l-208 226q-51 55 -51 108z" />
    <glyph glyph-name="a" unicode="a" horiz-adv-x="890" 
d="M62 193q0 113 62.5 174.5t188.5 98.5q63 19 243 73v101v9q0 34 -0.5 51t-3.5 48t-9.5 48t-19 39t-30.5 33.5t-46 20t-64 8.5q-89 0 -133.5 -56.5t-10.5 -134.5q15 -32 15 -62q0 -31 -22.5 -51.5t-62.5 -20.5q-47 0 -71 25t-24 69q0 92 91 162q91 72 221 72q174 0 254 -93
q80 -92 80 -245v-451q0 -32 1.5 -50t7 -35.5t16.5 -24t30.5 -10.5t47.5 -1t69 11v-3q-46 -17 -99 -15t-100 17t-84.5 49.5t-52.5 81.5v7q-52 -79 -111.5 -116.5t-148.5 -37.5q-105 0 -170 56q-64 55 -64 153zM236 209q0 -96 36.5 -151.5t105.5 -55.5q44 0 95.5 43.5
t82.5 98.5v392l-215 -65q-52 -15 -78.5 -85.5t-26.5 -176.5z" />
    <glyph glyph-name="b" unicode="b" horiz-adv-x="1050" 
d="M334 0h-306v3h142v1490h-142v3h306v-774l14 -2q106 180 287 180q99 0 181 -50q90 -55 139 -160.5t49 -247.5t-49 -247.5t-139 -160.5q-82 -50 -181 -50q-181 0 -287 180l-14 -2v-162zM580 -4q60 0 106.5 30.5t73 76.5t43 109t22 117.5t5.5 112.5q0 60 -5.5 115.5
t-22.5 117t-43.5 106t-72.5 73.5t-106 29q-130 0 -229 -165q-11 -18 -17.5 -44t-8.5 -59t-2.5 -57.5t0.5 -63.5t1 -52q0 -5 -0.5 -54t0 -66.5t3 -54t8.5 -60t16 -41.5q41 -75 105 -122.5t124 -47.5z" />
    <glyph glyph-name="c" unicode="c" horiz-adv-x="844" 
d="M46 432q0 125 56.5 232t158 171.5t223.5 64.5q70 0 130 -23.5t95 -61.5q71 -74 71 -152q0 -51 -28 -86t-78 -35q-57 -1 -75.5 43t6.5 97q13 33 13 71q0 21 -1 34.5t-8.5 36.5t-21 37t-42 25t-68.5 11q-53 0 -94.5 -21.5t-67 -59t-43.5 -81t-26.5 -96t-12 -94.5t-3.5 -85
q0 -193 70 -305q37 -60 82 -86.5t124 -26.5q158 0 223.5 75t65.5 213h3q-2 -107 -39 -184q-24 -50 -56 -82q-77 -80 -227 -80q-194 0 -312 124t-118 324z" />
    <glyph glyph-name="d" unicode="d" horiz-adv-x="1040" 
d="M234 850q82 50 181 50q181 0 287 -180l14 2v771h-206v3h370v-1493h142v-3h-306v162l-19 5q-36 -84 -115 -133.5t-167 -49.5q-99 0 -181 50q-90 55 -139 160.5t-49 247.5t49 247.5t139 160.5zM470 -4q49 0 108.5 38t95.5 94q20 30 30 83t11 92t1 113v26q0 244 -17 276
q-40 77 -108.5 125t-120.5 48q-58 0 -103 -33t-70 -81t-41 -112.5t-21 -117.5t-5 -105q0 -55 5.5 -109t21.5 -117t41.5 -110t70 -78.5t101.5 -31.5z" />
    <glyph glyph-name="e" unicode="e" horiz-adv-x="862" 
d="M46 430q0 129 53 236t153 170.5t227 63.5q78 0 145 -31t110 -83q86 -105 86 -206q0 -44 -15.5 -62t-58.5 -18h-516q0 -158 25 -254q18 -67 64.5 -116t105.5 -71t124 -19t120 30.5t94.5 86.5t47.5 141h3q-13 -143 -106 -228.5t-232 -85.5q-128 0 -227 61t-151 162t-52 223
zM231 503h350q40 0 53.5 21.5t13.5 75.5q0 45 -3 81.5t-15 78.5t-31.5 70.5t-55.5 47.5t-85 19q-59 0 -104 -39.5t-70 -102.5t-37.5 -126t-15.5 -126z" />
    <glyph glyph-name="f" unicode="f" horiz-adv-x="598" 
d="M180 881h-146v3h146v70q0 219 89 362q54 87 135 141q82 55 166 55q92 0 153 -48t61 -132q0 -59 -28 -94t-71 -35q-76 0 -76 71q0 32 27 59q27 26 34.5 67t-17.5 75t-83 34q-64 0 -111.5 -49t-70.5 -125t-33.5 -146t-10.5 -133v-172h216v-3h-216v-878h142v-3h-448v3h142
v878z" />
    <glyph glyph-name="g" unicode="g" horiz-adv-x="1060" 
d="M78 -376q0 144 214 252q-45 0 -89 16q-46 13 -76.5 53t-32.5 109q0 96 47 172t128 114v4q-125 95 -125 240q0 136 105 226t253 90q83 0 155 -30t123 -84q44 62 75 87q31 27 81 27q58 0 92 -35.5t34 -90.5q0 -33 -18.5 -56.5t-47.5 -23.5q-31 0 -47 30t-18.5 66.5
t-11 66.5t-26.5 30q-23 0 -54 -32t-57 -72q78 -74 78 -199q0 -136 -105 -226t-253 -90q-49 0 -112.5 22t-114.5 50q-64 -27 -108.5 -82.5t-58.5 -117.5q-7 -30 27 -53.5t84.5 -35t100.5 -11.5q46 0 161 15q113 15 161 15q136 0 204 -74t68 -209q0 -174 -129 -295
q-130 -122 -329 -122q-70 0 -135.5 15t-121 44.5t-88.5 80t-33 114.5zM713 -474q73 92 73 200q0 74 -46 127t-149 53q-42 0 -133 -8.5t-164 -21.5q-92 -53 -130 -86q-83 -74 -83 -166q0 -71 38.5 -121t98.5 -71t134 -24.5t144 11t129 42.5t88 65zM308 581q0 -49 3 -87.5
t15 -82.5t32 -72.5t57 -48t87 -19.5t87 20.5t57 50t32 74.5t15 82t3 83q0 59 -9 110.5t-29.5 100t-60.5 77t-95 28.5q-59 0 -100 -29.5t-60 -80.5t-26.5 -100t-7.5 -106z" />
    <glyph glyph-name="h" unicode="h" horiz-adv-x="1066" 
d="M476 0h-448v3h142v1490h-142v3h306v-982q7 178 84 276q86 110 240 110q124 0 193 -85q63 -78 63 -207v-605h142v-3h-448v3h142v641q0 103 -44.5 182t-118.5 64q-102 -21 -167 -102q-49 -62 -67.5 -153.5t-18.5 -222.5v-409h142v-3z" />
    <glyph glyph-name="i" unicode="i" horiz-adv-x="500" 
d="M482 0h-448v3h142v878h-142v3h306v-881h142v-3zM172 1270q-36 36 -36 88t36 88t88 36t88 -36t36 -88t-36 -88t-88 -36t-88 36z" />
    <glyph glyph-name="j" unicode="j" horiz-adv-x="480" 
d="M-164 -404q0 59 27.5 92t71.5 33q35 0 55.5 -19t20.5 -55q0 -29 -7.5 -66.5t-15.5 -65.5t-11 -56.5t3.5 -46.5t30.5 -28t67 -8q110 5 110 295v1210h-142v3h306v-1043q0 -220 -79 -344q-78 -125 -212 -125q-92 0 -158 63q-67 61 -67 161zM170 1270q-36 36 -36 88t36 88
t88 36t88 -36t36 -88t-36 -88t-88 -36t-88 36z" />
    <glyph glyph-name="k" unicode="k" horiz-adv-x="1056" 
d="M476 0h-448v3h142v1490h-142v3h306v-1024h97l293 409h-176v3h354v-3h-175l-195 -274l396 -604h126v-3h-496v3h165l-292 466h-97v-466h142v-3z" />
    <glyph glyph-name="l" unicode="l" horiz-adv-x="494" 
d="M476 0h-448v3h142v1490h-142v3h306v-1493h142v-3z" />
    <glyph glyph-name="m" unicode="m" horiz-adv-x="1604" 
d="M482 0h-448v3h142v878h-142v3h306v-233q51 114 128.5 181.5t169.5 67.5q117 0 176 -79q80 -107 80 -177q49 119 121.5 187.5t165.5 68.5q68 0 122.5 -25.5t85.5 -69.5q63 -86 63 -186v-616h142v-3h-448v3h142v639q0 59 -15 112.5t-51 92.5t-86 39q-84 0 -171 -117
q-24 -32 -68 -125q-1 -24 -1 -232v-409h142v-3h-448v3h142v623q0 108 -38.5 181.5t-109.5 73.5q-45 0 -96 -36.5t-92 -98.5q-24 -36 -56 -102v-641h142v-3z" />
    <glyph glyph-name="n" unicode="n" horiz-adv-x="1072" 
d="M482 0h-448v3h142v878h-142v3h306v-242q49 115 136.5 186.5t187.5 71.5q124 0 193 -85q63 -78 63 -207v-605h142v-3h-448v3h142v641q0 66 -12.5 118t-46 88.5t-85.5 36.5q-41 0 -98.5 -35.5t-97.5 -87.5q-23 -30 -37 -52.5t-25 -45.5t-14 -29v-634h142v-3z" />
    <glyph glyph-name="o" unicode="o" horiz-adv-x="940" 
d="M168 114q-122 131 -122 328t122 328q123 130 302 130q180 0 301 -130q123 -131 123 -328q0 -198 -123 -328q-121 -130 -301 -130q-179 0 -302 130zM232 442q0 -455 238 -455t238 455t-238 455t-238 -455z" />
    <glyph glyph-name="p" unicode="p" horiz-adv-x="1040" 
d="M18 -612v3h142v1490h-142v3h306v-162l14 -2q106 180 287 180q99 0 181 -50q90 -55 139 -160.5t49 -247.5t-49 -247.5t-139 -160.5q-82 -50 -181 -50q-181 0 -287 180l-14 -2v-771h206v-3h-512zM570 -3q58 0 102.5 30.5t70 76.5t41.5 108.5t21 117t5 112.5q0 60 -5.5 116
t-21.5 118t-41.5 107t-69.5 74.5t-102 29.5q-65 0 -128.5 -50.5t-102.5 -121.5q-9 -17 -12 -62t-3 -211q0 -180 2 -215.5t15 -60.5q34 -64 99.5 -116.5t129.5 -52.5z" />
    <glyph glyph-name="q" unicode="q" horiz-adv-x="1040" 
d="M234 850q-90 -55 -139 -160.5t-49 -247.5t49 -247.5t139 -160.5q82 -50 181 -50q92 0 171 51t116 138l14 -11v-771h-206v-3h512v3h-142v1490h142v3h-142l-190 -132h-9q-103 148 -266 148q-99 0 -181 -50zM474 -5q-53 -4 -101 38.5t-76.5 100t-44.5 121.5q-22 89 -22 215
q0 55 6 111t22.5 119.5t42.5 109t71 70t102 12.5q130 -28 204 -143q23 -35 33.5 -77.5t12 -74.5t1.5 -102v-25v-45.5v-47.5t-0.5 -43t-2 -44.5t-4.5 -39t-7.5 -40t-11 -34t-15.5 -33.5q-37 -65 -99.5 -105t-110.5 -43z" />
    <glyph glyph-name="r" unicode="r" horiz-adv-x="784" 
d="M482 0h-448v3h142v878h-142v3h306v-210l10 -3q51 123 110 176q61 53 152 53q71 0 114.5 -45t43.5 -115q0 -52 -27 -93q-27 -39 -75 -39q-26 0 -44 15.5t-18 40.5q0 22 8 63t8 61q0 36 -15.5 65.5t-51.5 29.5q-98 0 -173 -152q-30 -58 -36 -90t-6 -120v-518h142v-3z" />
    <glyph glyph-name="s" unicode="s" horiz-adv-x="740" 
d="M78 -16h-2v348h3q0 -142 89.5 -243.5t209.5 -101.5q102 0 155 50.5t53 144.5q0 44 -12 67.5t-41 46.5q-52 43 -191 87q-123 38 -189 94q-75 63 -75 187q0 107 70 171q71 65 166 65q88 0 159 -35q22 -10 48 -16t51.5 -5t42.5 15t17 41h3v-281h-3q-29 75 -70 149
q-71 129 -248 129q-65 0 -98.5 -47.5t-33.5 -119.5q0 -28 6 -47.5t11.5 -27.5t19.5 -24q15 -15 31.5 -26.5t42 -22.5t37 -15.5t45 -16t37.5 -12.5q161 -56 227 -117q67 -61 67 -169q0 -120 -81 -194q-80 -74 -247 -74q-67 0 -137 38q-25 13 -50 21.5t-52 10t-44 -16
t-17 -53.5z" />
    <glyph glyph-name="t" unicode="t" horiz-adv-x="670" 
d="M180 881h-174v3q89 0 155 23t104 64.5t56 92t18 110.5h3v-290h228v-3h-228v-691q0 -76 30 -133.5t84 -57.5q35 0 73 30t63 75q20 36 32.5 87t12.5 81h3q-4 -56 -19.5 -105.5t-44 -91.5t-74.5 -66.5t-105 -24.5q-93 0 -155 51t-62 161v685z" />
    <glyph glyph-name="u" unicode="u" horiz-adv-x="1056" 
d="M152 881h-142v3h306v-644q0 -98 43 -166t121 -68q66 0 127 52.5t93 115.5t32 107v600h-142v3h306v-881h142v-3h-306v210l-12 3q-48 -111 -128.5 -170t-183.5 -59q-124 0 -193 85q-63 78 -63 207v605z" />
    <glyph glyph-name="v" unicode="v" horiz-adv-x="883" 
d="M129 881h-117v3h436v-3h-142l235 -653l222 653h-129v3h235v-3h-102l-306 -899z" />
    <glyph glyph-name="w" unicode="w" horiz-adv-x="1312" 
d="M107 881h-117v3h436v-3h-142l226 -660l172 575l-29 85h-117v3h400v-3h-142l223 -659l198 659h-129v3h238v-3h-106l-271 -899l-263 809l-240 -809z" />
    <glyph glyph-name="x" unicode="x" horiz-adv-x="1000" 
d="M537 531l346 -528h131v-3h-527v3h207l-256 387l-274 -387h227v-3h-381v3h149l277 391l-322 487h-81v3h455v-3h-180l227 -347l246 347h-197v3h318v-3h-117z" />
    <glyph glyph-name="y" unicode="y" horiz-adv-x="924" 
d="M-2 -465q0 49 29 80t77 31q34 0 55 -20t21 -48q0 -17 -8 -51q-8 -32 -8 -52q0 -49 68 -49q48 0 82.5 43t62.5 126l135 386l-424 900h-98v3h458v-3h-182l328 -665l232 665h-143v3h255v-3h-109l-449 -1289q-20 -58 -55 -120q-44 -78 -125.5 -94.5t-145.5 35.5
q-56 42 -56 122z" />
    <glyph glyph-name="z" unicode="z" horiz-adv-x="834" 
d="M38 580h-4l22 304h660l-460 -881h266q57 0 94 5t69.5 20t51.5 39.5t33.5 68t21 101t9.5 141.5h3l-14 -378h-720l459 881h-251q-51 0 -82.5 -3.5t-59 -16t-42 -31t-26.5 -55t-18 -80.5t-12 -115z" />
    <glyph glyph-name="braceleft" unicode="{" horiz-adv-x="680" 
d="M132 486v3q58 0 101 15t68.5 40t40 62.5t18.5 77t0 89t-12 92.5t-21 93q-41 166 -41 251q0 59 20.5 107.5t54 81.5t80 57.5t93 37.5t98.5 19l1 -3q-112 -19 -164.5 -71.5t-50.5 -150.5q2 -95 38 -236q22 -84 30 -158.5t-2.5 -150.5t-43.5 -130.5t-101 -89t-168 -34.5
q84 1 146.5 -23t97 -68t53.5 -98.5t19.5 -120.5t-7 -128t-24.5 -126q-36 -141 -38 -236t50.5 -148.5t164.5 -72.5l-1 -3q-72 10 -131 31t-109 55.5t-78 90t-28 126.5q0 85 41 251q13 50 21 93t12 92.5t0 88.5t-18.5 76.5t-40 62.5t-68.5 40t-101 15z" />
    <glyph glyph-name="bar" unicode="|" horiz-adv-x="412" 
d="M206 -520h-3v1954h3v-1954z" />
    <glyph glyph-name="braceright" unicode="}" horiz-adv-x="680" 
d="M551 490v-3q-58 0 -101 -15t-68.5 -40t-40 -62.5t-18.5 -77t0 -89t12 -92.5t21 -93q41 -166 41 -251q0 -59 -20.5 -107.5t-54 -81.5t-80 -57.5t-93 -37.5t-98.5 -19l-1 3q112 19 164.5 71.5t50.5 150.5q-2 95 -38 236q-22 83 -30 158t2.5 151t43.5 130.5t101 89t168 34.5
q-84 0 -146.5 24.5t-97 68t-53.5 97.5t-20 119.5t7 127t25 127.5q36 141 38 236t-50.5 148.5t-164.5 72.5l1 3q72 -10 131 -31t109 -55.5t78 -90t28 -126.5q0 -85 -41 -251q-13 -50 -21 -93t-12 -92.5t0 -88.5t18.5 -76.5t40 -62.5t68.5 -40t101 -15z" />
    <glyph glyph-name="asciitilde" unicode="~" horiz-adv-x="1052" 
d="M65 420l-3 2q130 208 308 208q63 0 124 -27t122.5 -58.5t114.5 -38.5q86 -11 151 9t106 93l2 -2q-130 -208 -308 -208q-49 0 -104 20.5t-95.5 45t-91 45.5t-91.5 23q-90 4 -144.5 -22t-90.5 -90z" />
    <glyph glyph-name="uni00A0" unicode="&#xa0;" horiz-adv-x="528" 
 />
    <glyph glyph-name="exclamdown" unicode="&#xa1;" horiz-adv-x="428" 
d="M352 -459q0 -75 -36 -122t-102 -47t-102 47t-36 122q0 105 24 247q31 181 43 301l70 405h2l70 -405q12 -120 43 -301q24 -142 24 -247zM305 871q37 -37 37 -91t-37 -91t-91 -37t-91 37t-37 91t37 91t91 37t91 -37z" />
    <glyph glyph-name="cent" unicode="&#xa2;" horiz-adv-x="1052" 
d="M297 -126l-4 1l62 161q-52 30 -91 72q-118 124 -118 324q0 125 56.5 232t158 171.5t223.5 64.5q52 0 99 -14l53 136l4 -1l-53 -136q78 -23 122 -70q71 -74 71 -152q0 -51 -28 -86t-78 -35q-57 -1 -75.5 43t6.5 97q13 33 13 71q0 82 -38 114l-277 -717q37 -57 81 -82.5
t122 -25.5q158 0 223.5 75t65.5 213h3q-2 -107 -39 -184q-24 -50 -56 -82q-77 -80 -227 -80q-126 0 -217 50zM577 897q-53 0 -94.5 -21.5t-67 -59t-43.5 -81t-26.5 -96t-12 -94.5t-3.5 -85q0 -193 70 -305l1 -1l276 715q-35 28 -100 28z" />
    <glyph glyph-name="sterling" unicode="&#xa3;" horiz-adv-x="1320" 
d="M333 727h-196v3h195q-43 104 -55 184q-22 150 34 273t173.5 193t271.5 70q117 0 204 -57.5t100 -163.5q12 -95 -41.5 -156t-136.5 -61q-115 0 -121 98q-3 44 20 70.5t60 29.5q23 2 41.5 -9.5t28.5 -26.5t23.5 -27.5t28.5 -12.5q20 0 35 26t17 79q3 69 -37.5 118
t-98.5 69.5t-123 20.5q-61 0 -106 -30t-69.5 -74.5t-38.5 -107t-17.5 -116.5t-1.5 -113q4 -136 24 -276h445v-3h-444q6 -42 18.5 -119.5t17.5 -117t9 -94.5t-0.5 -96.5t-16.5 -78.5q205 -57 347 -57q56 0 104.5 24.5t75.5 62t22.5 88t-48.5 96.5l2 2q31 -31 51 -76.5
t20 -92.5q0 -129 -70.5 -206.5t-194.5 -77.5q-67 0 -135.5 21.5t-112.5 45t-112 66.5q-71 -133 -283 -133q-80 0 -143.5 41.5t-63.5 112.5q0 78 52 123t127 45q47 0 93.5 -10t109 -30.5t76.5 -24.5q6 47 -9.5 111.5t-36 113t-59 134.5t-55.5 127zM38 138q0 -71 63 -111
t141 -40q164 0 226 169q-13 10 -46.5 38t-52 41.5t-48 32.5t-55.5 27t-52 8q-79 0 -127.5 -47t-48.5 -118z" />
    <glyph glyph-name="currency" unicode="&#xa4;" horiz-adv-x="1052" 
d="M159 167l67 67q-104 112 -104 278q0 182 123 297l-67 68l2 2l67 -68q113 105 279 105q163 0 277 -103l68 68l2 -2l-68 -68q125 -117 125 -299q0 -164 -105 -279l68 -67l-2 -2l-68 67q-115 -123 -297 -123t-298 124l-67 -67zM125 512q0 -176 115 -288.5t286 -112.5
q176 0 288.5 115t112.5 286q0 176 -115 288.5t-286 112.5q-176 0 -288.5 -115t-112.5 -286z" />
    <glyph glyph-name="yen" unicode="&#xa5;" horiz-adv-x="1052" 
d="M110 537v3h315v192l-30 57h-285v3h283l-333 639h-123v3h632v-3h-268l330 -639l328 639h-301v3h430v-3h-126l-327 -639h305v-3h-307v-1v-248h307v-3h-307v-534h192v-3h-592v3h192v534h-315z" />
    <glyph glyph-name="brokenbar" unicode="&#xa6;" horiz-adv-x="412" 
d="M205 -520v768h3v-768h-3zM208 666h-3v768h3v-768z" />
    <glyph glyph-name="section" unicode="&#xa7;" horiz-adv-x="942" 
d="M138 559q-3 135 96 248l-8 10q-88 113 -91 233q-2 108 47 201q37 80 115.5 131t191.5 54q58 1 116.5 -15t107.5 -46.5t80.5 -81.5t32.5 -113q2 -62 -42 -115t-111 -54q-48 -1 -77 23t-30 66q-1 25 11.5 45t30.5 33.5t36 26.5t30.5 31.5t11.5 41.5q-1 36 -9.5 62.5t-29 49
t-60.5 33.5t-98 10q-75 -2 -129.5 -27t-82.5 -64.5t-41 -88t-8 -98.5t20.5 -95t39.5 -77q41 -55 120 -119t165.5 -131.5t135.5 -122.5q100 -115 103 -270q3 -136 -96 -249l8 -9q88 -113 91 -233q2 -108 -47 -200q-38 -81 -116 -132t-191 -54q-58 -1 -116.5 15t-107.5 46.5
t-80.5 81.5t-32.5 113q-2 62 42 115t111 54q48 1 77 -23t30 -66q1 -25 -11.5 -45t-30.5 -33.5t-36 -26t-30.5 -31t-11.5 -41.5q2 -76 43.5 -117t153.5 -39q75 2 129.5 27t82.5 64.5t41 88t8 98.5t-20.5 95t-39.5 77q-41 55 -120 119t-165.5 131.5t-135.5 122.5
q-100 115 -103 270zM479 291q164 -116 235 -198q143 148 -40 341q-82 87 -203 174q-165 116 -236 197q-142 -149 41 -340q86 -91 203 -174z" />
    <glyph glyph-name="dieresis" unicode="&#xa8;" horiz-adv-x="780" 
d="M119 1139q-27 27 -27 69t27 69t69 27t69 -27t27 -69t-27 -69t-69 -27t-69 27zM523 1139q-27 27 -27 69t27 69t69 27t69 -27t27 -69t-27 -69t-69 -27t-69 27z" />
    <glyph glyph-name="copyright" unicode="&#xa9;" horiz-adv-x="1572" 
d="M75 444q-61 141 -61 300t61 300q122 289 411 411q141 61 300 61t300 -61q289 -122 411 -411q61 -141 61 -300t-61 -300q-122 -289 -411 -411q-141 -61 -300 -61t-300 61q-289 122 -411 411zM78 445q122 -287 409 -409q141 -61 299 -61t299 61q287 122 409 409
q61 141 61 299t-61 299q-122 287 -409 409q-141 61 -299 61t-299 -61q-287 -122 -409 -409q-61 -141 -61 -299t61 -299zM395 719q0 125 56.5 232t158 171.5t223.5 64.5q70 0 130 -23.5t95 -61.5q71 -74 71 -152q0 -51 -28 -86t-78 -35q-57 -1 -75.5 43t6.5 97q13 33 13 71
q0 21 -1 34.5t-8.5 36.5t-21 37t-42 25t-68.5 11q-53 0 -94.5 -21.5t-67 -59t-43.5 -81t-26.5 -96t-12 -94.5t-3.5 -85q0 -193 70 -305q37 -60 82 -86.5t124 -26.5q158 0 223.5 75t65.5 213h3q-2 -107 -39 -184q-24 -50 -56 -82q-77 -80 -227 -80q-194 0 -312 124t-118 324z
" />
    <glyph glyph-name="ordfeminine" unicode="&#xaa;" horiz-adv-x="680" 
d="M114 1035q0 49 19 82t55.5 50.5t70.5 26t85 17.5t78 17v67q0 148 -108 148q-32 0 -52.5 -8t-28 -23.5t-9.5 -26t-2 -27.5q0 -14 9 -30q16 -26 5 -50.5t-52 -24.5q-62 0 -62 55q0 54 56 96t137 42q107 0 161 -52t54 -142v-270q0 -67 60 -67q16 0 45 8l1 -3
q-29 -10 -56 -10q-64 0 -102.5 23.5t-55.5 80.5q-59 -104 -165 -104q-65 0 -104 33.5t-39 91.5zM230 1048q0 -46 21 -80t60 -34q61 0 111 85v205q-95 -25 -124 -42q-68 -40 -68 -134z" />
    <glyph glyph-name="guillemotleft" unicode="&#xab;" horiz-adv-x="842" 
d="M349 718l2 -3q-95 -59 -95 -273t95 -273l-2 -3q-104 50 -156.5 116t-52.5 160t52.5 160t156.5 116zM645 718l2 -3q-95 -59 -95 -273t95 -273l-2 -3q-104 50 -156.5 116t-52.5 160t52.5 160t156.5 116z" />
    <glyph glyph-name="logicalnot" unicode="&#xac;" horiz-adv-x="1052" 
d="M1037 743h-1025v3h1028v-472h-3v469z" />
    <glyph glyph-name="uni00AD" unicode="&#xad;" horiz-adv-x="800" 
d="M714 416h-628v4h628v-4z" />
    <glyph glyph-name="registered" unicode="&#xae;" horiz-adv-x="1572" 
d="M75 444q-61 141 -61 300t61 300q122 289 411 411q141 61 300 61t300 -61q289 -122 411 -411q61 -141 61 -300t-61 -300q-122 -289 -411 -411q-141 -61 -300 -61t-300 61q-289 122 -411 411zM78 445q122 -287 409 -409q141 -61 299 -61t299 61q287 122 409 409
q61 141 61 299t-61 299q-122 287 -409 409q-141 61 -299 61t-299 -61q-287 -122 -409 -409q-61 -141 -61 -299t61 -299zM789 303h-364v3h118v875h-118v3h371q143 0 209 -69q62 -62 62 -147q0 -149 -175 -190q81 -13 143 -77q50 -52 50 -129v-124q0 -82 21 -115t73 -33
q20 0 79 16v-3q-63 -20 -128 -20q-60 0 -113 30q-60 37 -60 124v144q0 100 -33 142q-36 45 -115 45h-138v-472h118v-3zM671 1181v-400h157q67 0 90 49q21 45 21 127q0 85 -34 152q-35 72 -119 72h-115z" />
    <glyph glyph-name="overscore" unicode="&#xaf;" horiz-adv-x="780" 
d="M678 1134h-576v3h576v-3z" />
    <glyph glyph-name="degree" unicode="&#xb0;" horiz-adv-x="1052" 
d="M150 1118q0 163 109 268.5t267 105.5q163 0 269.5 -108t106.5 -266q0 -163 -109 -268.5t-267 -105.5q-163 0 -269.5 108t-106.5 266zM153 1118q0 -159 108 -265t265 -106q163 0 268 108.5t105 262.5q0 159 -107 265t-266 106t-266 -107t-107 -264z" />
    <glyph glyph-name="plusminus" unicode="&#xb1;" horiz-adv-x="1052" 
d="M523 608h-471v4h471v512h3v-512h494v-4h-494v-512h-3v512zM1040 -52h-1028v3h1028v-3z" />
    <glyph glyph-name="twosuperior" unicode="&#xb2;" horiz-adv-x="560" 
d="M10 1222q0 98 65 169q66 71 180 71q124 0 194 -68q69 -68 69 -165q0 -71 -37 -126t-128 -139q-54 -50 -227 -192h301q38 0 61 7.5t34.5 31t14.5 38.5t6 57q1 5 1 8h4l-20 -254h-492v46q173 136 252 210q55 51 72.5 122t17.5 164q0 110 -46 188t-129 65
q-85 -13 -137.5 -79t-52.5 -154q0 -101 132 -101q55 0 82.5 46t5.5 89l5 3q24 -34 24 -86q0 -48 -28 -85q-29 -38 -84 -38q-67 0 -103.5 45t-36.5 127z" />
    <glyph glyph-name="threesuperior" unicode="&#xb3;" horiz-adv-x="560" 
d="M34 809q0 43 24.5 71t63.5 28q23 0 37.5 -14t14.5 -35q0 -32 -38 -61q-23 -17 -23 -41q0 -50 35.5 -81t103.5 -31q158 0 158 247q0 89 -35 140.5t-105 51.5q-55 0 -97 -39l-3 3l262 285l-3 5h-243q-78 0 -109.5 -38.5t-33.5 -129.5h-3l7 272h449q12 0 22 4t16 8.5
t21 16.5l2 -3l-321 -352q17 4 52 4q105 0 183 -60q79 -58 79 -168q0 -115 -89 -183q-88 -67 -209 -67q-89 0 -154 44q-64 43 -64 123z" />
    <glyph glyph-name="acute" unicode="&#xb4;" horiz-adv-x="780" 
d="M310 1062l-3 1l91 298q31 101 103 101q31 0 50 -19t19 -47q0 -53 -51 -108z" />
    <glyph glyph-name="mu" unicode="&#xb5;" horiz-adv-x="1120" 
d="M114 -352q0 85 18 261.5t39 295.5q-23 41 -38 95t-20.5 120.5t-7 110t-1.5 110.5q0 133 30.5 203t90.5 51q41 -13 52.5 -73t-2 -147.5t-33 -172.5t-42 -172.5t-26.5 -122.5q24 -43 63.5 -76t90 -47.5t103 -6.5t108 51t99.5 120q27 47 38 111t10 113t-5.5 125t-4.5 112
q0 75 29 131q30 56 87 56q52 0 77 -44t25 -100t-42 -222q-7 -29 -25.5 -99.5t-30 -116t-15.5 -70.5q22 -61 74.5 -91.5t122.5 -30.5q37 0 67.5 41t49.5 92q43 -42 43 -104t-33.5 -112.5t-90.5 -50.5q-145 0 -235 250q-39 -106 -105 -178t-160 -72q-129 0 -206.5 54.5
t-134.5 159.5q-22 -122 -22 -198q0 -68 20.5 -144.5t42 -124t59.5 -122.5q47 -92 47 -141q0 -101 -80 -101q-66 0 -96 67t-30 210z" />
    <glyph glyph-name="paragraph" unicode="&#xb6;" horiz-adv-x="1056" 
d="M96 1054q0 76 27 140t72.5 107.5t105 74t124 44.5t130.5 14h469v-3h-228v-1430h-3v1430h-238v-1430h-3v673q-80 0 -158.5 23t-146 67.5t-109.5 120t-42 169.5z" />
    <glyph glyph-name="middot" unicode="&#xb7;" horiz-adv-x="252" 
d="M35 505q-37 37 -37 91t37 91t91 37t91 -37t37 -91t-37 -91t-91 -37t-91 37z" />
    <glyph glyph-name="cedilla" unicode="&#xb8;" horiz-adv-x="906" 
d="M364 -478q51 0 78 49t27 118q0 79 -30 113.5t-116 34.5l68 163h3l-67 -160q96 0 162.5 -38t66.5 -112q0 -83 -54.5 -127.5t-137.5 -44.5q-76 0 -132 38q-27 19 -41.5 41t-16 40t4.5 33.5t16.5 24t22.5 8.5q21 0 31.5 -18.5t15 -45.5t11.5 -53.5t28.5 -45t59.5 -18.5z" />
    <glyph glyph-name="onesuperior" unicode="&#xb9;" horiz-adv-x="560" 
d="M72 1085l-2 3q143 143 214 354h86v-779h126v-3h-380v3h126v644l-9 2q-73 -138 -161 -224z" />
    <glyph glyph-name="ordmasculine" unicode="&#xba;" horiz-adv-x="680" 
d="M74 1178q0 114 78 191t188 77q113 0 189.5 -79t76.5 -189q0 -114 -78 -191t-188 -77q-113 0 -189.5 79t-76.5 189zM340 1443q-82 0 -114 -68t-32 -197q0 -130 31.5 -197.5t114.5 -67.5q45 0 75 18.5t45 56t20.5 82t5.5 108.5q0 130 -31.5 197.5t-114.5 67.5z" />
    <glyph glyph-name="guillemotright" unicode="&#xbb;" horiz-adv-x="842" 
d="M493 166l-2 3q95 59 95 273t-95 273l2 3q104 -50 156.5 -116t52.5 -160t-52.5 -160t-156.5 -116zM197 166l-2 3q95 59 95 273t-95 273l2 3q104 -50 156.5 -116t52.5 -160t-52.5 -160t-156.5 -116z" />
    <glyph glyph-name="onequarter" unicode="&#xbc;" horiz-adv-x="1440" 
d="M277 -16h-4l892 1478h6zM1162 228h-268q26 28 73 114q31 56 49 120q36 122 36 296q0 104 80 104q30 0 46 -21t16 -56q0 -103 -127 -335q-24 -44 -84 -118.5t-76 -100.5h255v168l128 135v-303h33q74 0 100 145h3l-28 -148h-108v-224h-128v224zM72 1085l-2 3
q143 143 214 354h86v-779h126v-3h-380v3h126v644l-9 2q-73 -138 -161 -224z" />
    <glyph glyph-name="onehalf" unicode="&#xbd;" horiz-adv-x="1440" 
d="M277 -16h-4l892 1478h6zM890 566q0 98 65 169q66 71 180 71q124 0 194 -68q69 -68 69 -165q0 -71 -37 -126t-128 -139q-54 -50 -227 -192h301q38 0 61 7.5t34.5 31t14.5 38.5t6 57q1 5 1 8h4l-20 -254h-492v46q173 136 252 210q55 51 72.5 122t17.5 164q0 110 -46 188
t-129 65q-85 -13 -137.5 -79t-52.5 -154q0 -101 132 -101q55 0 82.5 46t5.5 89l5 3q24 -35 24 -86q0 -48 -28 -85q-29 -38 -84 -38q-67 0 -103.5 45t-36.5 127zM72 1085l-2 3q143 143 214 354h86v-779h126v-3h-380v3h126v644l-9 2q-73 -138 -161 -224z" />
    <glyph glyph-name="threequarters" unicode="&#xbe;" horiz-adv-x="1440" 
d="M277 -16h-4l892 1478h6zM1162 228h-268q26 28 73 114q31 56 49 120q36 122 36 296q0 104 80 104q30 0 46 -21t16 -56q0 -103 -127 -335q-24 -44 -84 -118.5t-76 -100.5h255v168l128 135v-303h33q74 0 100 145h3l-28 -148h-108v-224h-128v224zM34 809q0 43 24.5 71
t63.5 28q23 0 37.5 -14t14.5 -35q0 -32 -38 -61q-23 -17 -23 -41q0 -50 35.5 -81t103.5 -31q158 0 158 247q0 89 -35 140.5t-105 51.5q-55 0 -97 -39l-3 3l262 285l-3 5h-243q-78 0 -109.5 -38.5t-33.5 -129.5h-3l7 272h449q12 0 22 4t16 8.5t21 16.5l2 -3l-321 -352
q17 4 52 4q105 0 183 -60q79 -58 79 -168q0 -115 -89 -183q-88 -67 -209 -67q-89 0 -154 44q-64 43 -64 123z" />
    <glyph glyph-name="questiondown" unicode="&#xbf;" horiz-adv-x="859" 
d="M681 -425q0 -64 -40 -112t-96.5 -69.5t-116.5 -21.5q-87 0 -158.5 35t-117.5 93t-70.5 131t-24.5 152q0 81 22.5 153.5t66.5 131.5t117 93.5t166 34.5q48 0 86 -17t55 -34.5t35 -44.5v445h3v-453h-4q-25 49 -71.5 75t-103.5 26q-67 0 -112.5 -30t-69 -88.5t-33 -127.5
t-9.5 -164q0 -58 5 -110.5t20 -108.5t39 -96.5t65 -66.5t94 -26q37 0 60.5 11t33.5 26.5t13 39.5t0.5 44t-5.5 46.5t-3 39.5q0 50 38.5 68t77 -4.5t38.5 -70.5zM692 871q37 -37 37 -91t-37 -91t-91 -37t-91 37t-37 91t37 91t91 37t91 -37z" />
    <glyph glyph-name="Agrave" unicode="&#xc0;" horiz-adv-x="1434" 
d="M562 0h-496v3h202l478 1459l543 -1459h163v-3h-672v3h268l-198 533h-404l-175 -533h291v-3zM636 1115l-189 -576h402zM426 1818q0 27 18 48.5t44 21.5q62 0 130 -64l246 -252l-2 -3l-324 135q-112 52 -112 114z" />
    <glyph glyph-name="Aacute" unicode="&#xc1;" horiz-adv-x="1434" 
d="M562 0h-496v3h202l478 1459l543 -1459h163v-3h-672v3h268l-198 533h-404l-175 -533h291v-3zM636 1115l-189 -576h402zM624 1572q132 134 201 201t89.5 83t35.5 22q70 29 101 -22q14 -25 9.5 -50.5t-24.5 -45.5q-11 -12 -34.5 -25t-112.5 -52t-265 -111z" />
    <glyph glyph-name="Acircumflex" unicode="&#xc2;" horiz-adv-x="1434" 
d="M562 0h-496v3h202l478 1459l543 -1459h163v-3h-672v3h268l-198 533h-404l-175 -533h291v-3zM636 1115l-189 -576h402zM402 1564h-4l298 324l49 54l351 -378h-4l-347 374z" />
    <glyph glyph-name="Atilde" unicode="&#xc3;" horiz-adv-x="1434" 
d="M562 0h-496v3h202l478 1459l543 -1459h163v-3h-672v3h268l-198 533h-404l-175 -533h291v-3zM636 1115l-189 -576h402zM375 1634l-3 1q93 218 298 175q26 -5 90 -37t130 -58t112 -23q23 1 41.5 10.5t32 28.5t20.5 32t18 39l2 -1q-74 -183 -224 -183q-49 0 -103 21.5
t-94 47t-93.5 47t-102.5 21.5q-45 0 -73.5 -33.5t-50.5 -87.5z" />
    <glyph glyph-name="Adieresis" unicode="&#xc4;" horiz-adv-x="1434" 
d="M562 0h-496v3h202l478 1459l543 -1459h163v-3h-672v3h268l-198 533h-404l-175 -533h291v-3zM636 1115l-189 -576h402zM433 1659q-25 27 -25 63t25 60q26 24 62 24t61 -24q26 -24 26 -60t-26 -63q-25 -27 -61 -27t-62 27zM931 1659q-25 27 -25 63t25 60q26 24 62 24
t61 -24q26 -24 26 -60t-26 -63q-25 -27 -61 -27t-62 27z" />
    <glyph glyph-name="Aring" unicode="&#xc5;" horiz-adv-x="1434" 
d="M562 0h-496v3h202l477 1457q-99 0 -164.5 67t-65.5 163q0 98 67 164t163 66q98 0 164 -67.5t66 -162.5q0 -98 -67 -163.5t-162 -66.5l543 -1457h163v-3h-672v3h268l-198 533h-404l-175 -533h291v-3zM518 1690q0 -92 64.5 -159.5t162.5 -67.5q96 0 161.5 66t65.5 161
q0 97 -68 162t-159 65q-93 0 -160 -65t-67 -162zM636 1115l-189 -576h402z" />
    <glyph glyph-name="AE" unicode="&#xc6;" horiz-adv-x="2083" 
d="M2049 0h-1206v3h192v770h-366l-427 -770h326v-3h-550v3h221l792 1428h-207v3h1139l10 -376h-3q-3 84 -12.5 143.5t-30 101.5t-45.5 67t-69 38.5t-91 18t-119 4.5h-360v-655h231q59 0 96 10t68.5 39.5t45.5 89t14 153.5h3v-585h-3q0 84 -14.5 141.5t-45 89.5t-69.5 45.5
t-95 13.5h-231v-770h337q167 0 236 16q132 32 187 152q45 100 49 276h3zM1035 1431l-363 -655h363v655z" />
    <glyph glyph-name="Ccedilla" unicode="&#xc7;" horiz-adv-x="1386" 
d="M96 712q0 133 37.5 253.5t104.5 212.5q98 134 244 210t302 74q150 0 280 -47q33 -13 63.5 -20.5t66.5 -9t59.5 17.5t27.5 59h3v-471h-3q0 114 -9 154q-10 52 -42 104q-48 78 -124 137q-42 32 -139.5 52.5t-182.5 20.5q-116 0 -195.5 -55.5t-140.5 -172.5
q-62 -119 -90 -237t-28 -282q0 -231 46.5 -393t149.5 -253t258 -91q86 0 183 20.5t138 52.5q72 55 124 141q25 42 37.5 94t13.5 77.5t1 82.5h3v-471h-3q-14 20 -32 38q-34 34 -91 34q-9 0 -17 -1t-13.5 -2t-15.5 -4t-13.5 -4.5t-17 -6.5t-17.5 -7q-129 -46 -276 -47
l-83 -197q120 0 202.5 -47.5t82.5 -138.5q0 -103 -68 -158.5t-171 -55.5q-94 0 -164 47q-34 24 -52 51t-19 49.5t6 41.5t20.5 30t27.5 11q23 0 36 -16.5t17 -41.5t11 -54.5t16.5 -54.5t35 -41.5t65.5 -16.5q64 0 97.5 61t33.5 147q0 98 -37 140.5t-145 42.5l84 201
q-131 0 -254 50.5t-220 143.5q-98 93 -156 235q-58 141 -58 311z" />
    <glyph glyph-name="Egrave" unicode="&#xc8;" horiz-adv-x="1326" 
d="M386 1818q0 27 18 48.5t44 21.5q62 0 130 -64l246 -252l-2 -3l-324 135q-112 52 -112 114zM1278 0h-1206v3h192v1428h-192v3h1120l10 -376h-3q-3 84 -12.5 143.5t-30 101.5t-45.5 67t-69 38.5t-91 18t-119 4.5h-360v-655h231q59 0 96 10t68.5 39.5t45.5 89t14 153.5h3
v-585h-3q0 84 -14.5 141.5t-45 89.5t-69.5 45.5t-95 13.5h-231v-770h337q167 0 236 16q132 32 187 152q45 100 49 276h3z" />
    <glyph glyph-name="Eacute" unicode="&#xc9;" horiz-adv-x="1326" 
d="M544 1572q132 134 201 201t89.5 83t35.5 22q70 29 101 -22q14 -25 9.5 -50.5t-24.5 -45.5q-11 -12 -34.5 -25t-112.5 -52t-265 -111zM1278 0h-1206v3h192v1428h-192v3h1120l10 -376h-3q-3 84 -12.5 143.5t-30 101.5t-45.5 67t-69 38.5t-91 18t-119 4.5h-360v-655h231
q59 0 96 10t68.5 39.5t45.5 89t14 153.5h3v-585h-3q0 84 -14.5 141.5t-45 89.5t-69.5 45.5t-95 13.5h-231v-770h337q167 0 236 16q132 32 187 152q45 100 49 276h3z" />
    <glyph glyph-name="Ecircumflex" unicode="&#xca;" horiz-adv-x="1326" 
d="M370 1564h-4l298 324l49 54l351 -378h-4l-347 374zM1278 0h-1206v3h192v1428h-192v3h1120l10 -376h-3q-3 84 -12.5 143.5t-30 101.5t-45.5 67t-69 38.5t-91 18t-119 4.5h-360v-655h231q59 0 96 10t68.5 39.5t45.5 89t14 153.5h3v-585h-3q0 84 -14.5 141.5t-45 89.5
t-69.5 45.5t-95 13.5h-231v-770h337q167 0 236 16q132 32 187 152q45 100 49 276h3z" />
    <glyph glyph-name="Edieresis" unicode="&#xcb;" horiz-adv-x="1326" 
d="M373 1659q-25 27 -25 63t25 60q26 24 62 24t61 -24q26 -24 26 -60t-26 -63q-25 -27 -61 -27t-62 27zM871 1659q-25 27 -25 63t25 60q26 24 62 24t61 -24q26 -24 26 -60t-26 -63q-25 -27 -61 -27t-62 27zM1278 0h-1206v3h192v1428h-192v3h1120l10 -376h-3
q-3 84 -12.5 143.5t-30 101.5t-45.5 67t-69 38.5t-91 18t-119 4.5h-360v-655h231q59 0 96 10t68.5 39.5t45.5 89t14 153.5h3v-585h-3q0 84 -14.5 141.5t-45 89.5t-69.5 45.5t-95 13.5h-231v-770h337q167 0 236 16q132 32 187 152q45 100 49 276h3z" />
    <glyph glyph-name="Igrave" unicode="&#xcc;" horiz-adv-x="686" 
d="M70 1818q0 27 18 48.5t44 21.5q62 0 130 -64l246 -252l-2 -3l-324 135q-112 52 -112 114zM664 0h-592v3h192v1428h-192v3h592v-3h-192v-1428h192v-3z" />
    <glyph glyph-name="Iacute" unicode="&#xcd;" horiz-adv-x="686" 
d="M228 1572q132 134 201 201t89.5 83t35.5 22q70 29 101 -22q14 -25 9.5 -50.5t-24.5 -45.5q-11 -12 -34.5 -25t-112.5 -52t-265 -111zM664 0h-592v3h192v1428h-192v3h592v-3h-192v-1428h192v-3z" />
    <glyph glyph-name="Icircumflex" unicode="&#xce;" horiz-adv-x="686" 
d="M54 1564h-4l298 324l49 54l351 -378h-4l-347 374zM664 0h-592v3h192v1428h-192v3h592v-3h-192v-1428h192v-3z" />
    <glyph glyph-name="Idieresis" unicode="&#xcf;" horiz-adv-x="686" 
d="M57 1659q-25 27 -25 63t25 60q26 24 62 24t61 -24q26 -24 26 -60t-26 -63q-25 -27 -61 -27t-62 27zM555 1659q-25 27 -25 63t25 60q26 24 62 24t61 -24q26 -24 26 -60t-26 -63q-25 -27 -61 -27t-62 27zM664 0h-592v3h192v1428h-192v3h592v-3h-192v-1428h192v-3z" />
    <glyph glyph-name="Eth" unicode="&#xd0;" horiz-adv-x="1468" 
d="M745 0h-673v3h192v742h-192v3h192v683h-192v3h674q98 0 208 -30t187 -87q82 -58 144 -143q64 -86 100.5 -206t36.5 -256t-36.5 -255t-100.5 -204q-92 -123 -232 -188t-308 -65zM472 745v-742h273q97 0 176 41.5t129 113.5q49 70 81 172q32 100 44.5 185.5t12.5 196.5
q0 112 -12.5 198t-44.5 187q-47 158 -142.5 246t-243.5 88h-273v-683h287v-3h-287z" />
    <glyph glyph-name="Ntilde" unicode="&#xd1;" horiz-adv-x="1426" 
d="M401 1634l-3 1q93 218 298 175q26 -5 90 -37t130 -58t112 -23q23 1 41.5 10.5t32 28.5t20.5 32t18 39l2 -1q-74 -183 -224 -183q-49 0 -103 21.5t-94 47t-93.5 47t-102.5 21.5q-45 0 -73.5 -33.5t-50.5 -87.5zM463 0h-411v3h204v1428h-204v3h437l671 -1103v1100h-204v3
h411v-3h-204v-1459h-3l-878 1399q-17 29 -17 60h-6v-1428h204v-3z" />
    <glyph glyph-name="Ograve" unicode="&#xd2;" horiz-adv-x="1518" 
d="M486 1818q0 27 18 48.5t44 21.5q62 0 130 -64l246 -252l-2 -3l-324 135q-112 52 -112 114zM96 712q0 148 51.5 285t141 239.5t219 164t276.5 61.5q151 0 281.5 -63t218.5 -168t138 -240t50 -279q0 -149 -52 -285t-142 -236.5t-219 -159.5t-275 -59q-151 0 -281.5 61.5
t-218.5 164.5t-138 236.5t-50 277.5zM330 712q0 -345 117 -541t337 -196q101 0 178.5 33.5t129.5 95t85 154t47 203.5t14 251q0 73 -4.5 141t-18 144.5t-34.5 141t-56.5 125t-81.5 102.5t-112.5 67.5t-146.5 25.5t-146.5 -25t-112.5 -67t-81.5 -102.5t-56.5 -125
t-34.5 -141.5t-18 -144.5t-4.5 -141.5z" />
    <glyph glyph-name="Oacute" unicode="&#xd3;" horiz-adv-x="1518" 
d="M644 1572q132 134 201 201t89.5 83t35.5 22q70 29 101 -22q14 -25 9.5 -50.5t-24.5 -45.5q-11 -12 -34.5 -25t-112.5 -52t-265 -111zM96 712q0 148 51.5 285t141 239.5t219 164t276.5 61.5q151 0 281.5 -63t218.5 -168t138 -240t50 -279q0 -149 -52 -285t-142 -236.5
t-219 -159.5t-275 -59q-151 0 -281.5 61.5t-218.5 164.5t-138 236.5t-50 277.5zM330 712q0 -345 117 -541t337 -196q101 0 178.5 33.5t129.5 95t85 154t47 203.5t14 251q0 73 -4.5 141t-18 144.5t-34.5 141t-56.5 125t-81.5 102.5t-112.5 67.5t-146.5 25.5t-146.5 -25
t-112.5 -67t-81.5 -102.5t-56.5 -125t-34.5 -141.5t-18 -144.5t-4.5 -141.5z" />
    <glyph glyph-name="Ocircumflex" unicode="&#xd4;" horiz-adv-x="1518" 
d="M470 1564h-4l298 324l49 54l351 -378h-4l-347 374zM96 712q0 148 51.5 285t141 239.5t219 164t276.5 61.5q151 0 281.5 -63t218.5 -168t138 -240t50 -279q0 -149 -52 -285t-142 -236.5t-219 -159.5t-275 -59q-151 0 -281.5 61.5t-218.5 164.5t-138 236.5t-50 277.5z
M330 712q0 -345 117 -541t337 -196q101 0 178.5 33.5t129.5 95t85 154t47 203.5t14 251q0 73 -4.5 141t-18 144.5t-34.5 141t-56.5 125t-81.5 102.5t-112.5 67.5t-146.5 25.5t-146.5 -25t-112.5 -67t-81.5 -102.5t-56.5 -125t-34.5 -141.5t-18 -144.5t-4.5 -141.5z" />
    <glyph glyph-name="Otilde" unicode="&#xd5;" horiz-adv-x="1518" 
d="M415 1634l-3 1q93 218 298 175q26 -5 90 -37t130 -58t112 -23q23 1 41.5 10.5t32 28.5t20.5 32t18 39l2 -1q-74 -183 -224 -183q-49 0 -103 21.5t-94 47t-93.5 47t-102.5 21.5q-45 0 -73.5 -33.5t-50.5 -87.5zM96 712q0 148 51.5 285t141 239.5t219 164t276.5 61.5
q151 0 281.5 -63t218.5 -168t138 -240t50 -279q0 -149 -52 -285t-142 -236.5t-219 -159.5t-275 -59q-151 0 -281.5 61.5t-218.5 164.5t-138 236.5t-50 277.5zM330 712q0 -345 117 -541t337 -196q101 0 178.5 33.5t129.5 95t85 154t47 203.5t14 251q0 73 -4.5 141t-18 144.5
t-34.5 141t-56.5 125t-81.5 102.5t-112.5 67.5t-146.5 25.5t-146.5 -25t-112.5 -67t-81.5 -102.5t-56.5 -125t-34.5 -141.5t-18 -144.5t-4.5 -141.5z" />
    <glyph glyph-name="Odieresis" unicode="&#xd6;" horiz-adv-x="1518" 
d="M473 1659q-25 27 -25 63t25 60q26 24 62 24t61 -24q26 -24 26 -60t-26 -63q-25 -27 -61 -27t-62 27zM971 1659q-25 27 -25 63t25 60q26 24 62 24t61 -24q26 -24 26 -60t-26 -63q-25 -27 -61 -27t-62 27zM96 712q0 148 51.5 285t141 239.5t219 164t276.5 61.5
q151 0 281.5 -63t218.5 -168t138 -240t50 -279q0 -149 -52 -285t-142 -236.5t-219 -159.5t-275 -59q-151 0 -281.5 61.5t-218.5 164.5t-138 236.5t-50 277.5zM330 712q0 -345 117 -541t337 -196q101 0 178.5 33.5t129.5 95t85 154t47 203.5t14 251q0 73 -4.5 141t-18 144.5
t-34.5 141t-56.5 125t-81.5 102.5t-112.5 67.5t-146.5 25.5t-146.5 -25t-112.5 -67t-81.5 -102.5t-56.5 -125t-34.5 -141.5t-18 -144.5t-4.5 -141.5z" />
    <glyph glyph-name="multiply" unicode="&#xd7;" horiz-adv-x="1052" 
d="M522 510l-360 -360l-3 3l360 360l-360 360l3 3l360 -360l364 364l3 -3l-364 -364l364 -364l-3 -3z" />
    <glyph glyph-name="Oslash" unicode="&#xd8;" horiz-adv-x="1518" 
d="M125 -3l-2 2l172 188q-95 104 -147 240.5t-52 284.5t51.5 285t141 239.5t219 164t276.5 61.5q144 0 267 -56.5t216 -156.5l174 190l2 -2l-174 -190q97 -106 150 -246t53 -289t-52 -285t-142 -236.5t-219 -159.5t-275 -59q-147 0 -271 56t-216 157zM784 -25
q101 0 178.5 33.5t129.5 95t85 154t47 203.5t14 251q0 260 -60 435l-786 -858q54 -152 153 -233t239 -81zM330 712q0 -250 61 -420l786 858q-108 309 -393 309q-80 0 -146.5 -25t-112.5 -67t-81.5 -102.5t-56.5 -125t-34.5 -141.5t-18 -144.5t-4.5 -141.5z" />
    <glyph glyph-name="Ugrave" unicode="&#xd9;" horiz-adv-x="1440" 
d="M484 1818q0 27 18 48.5t44 21.5q62 0 130 -64l246 -252l-2 -3l-324 135q-112 52 -112 114zM230 1431h-192v3h592v-3h-192v-1118q0 -338 318 -338q215 0 347 111t132 320v1025h-204v3h411v-3h-204v-1025q0 -108 -37.5 -192t-103.5 -136.5t-152.5 -79t-188.5 -26.5
q-526 0 -526 464v995z" />
    <glyph glyph-name="Uacute" unicode="&#xda;" horiz-adv-x="1440" 
d="M642 1572q132 134 201 201t89.5 83t35.5 22q70 29 101 -22q14 -25 9.5 -50.5t-24.5 -45.5q-11 -12 -34.5 -25t-112.5 -52t-265 -111zM230 1431h-192v3h592v-3h-192v-1118q0 -338 318 -338q215 0 347 111t132 320v1025h-204v3h411v-3h-204v-1025q0 -108 -37.5 -192
t-103.5 -136.5t-152.5 -79t-188.5 -26.5q-526 0 -526 464v995z" />
    <glyph glyph-name="Ucircumflex" unicode="&#xdb;" horiz-adv-x="1440" 
d="M468 1564h-4l298 324l49 54l351 -378h-4l-347 374zM230 1431h-192v3h592v-3h-192v-1118q0 -338 318 -338q215 0 347 111t132 320v1025h-204v3h411v-3h-204v-1025q0 -108 -37.5 -192t-103.5 -136.5t-152.5 -79t-188.5 -26.5q-526 0 -526 464v995z" />
    <glyph glyph-name="Udieresis" unicode="&#xdc;" horiz-adv-x="1440" 
d="M471 1659q-25 27 -25 63t25 60q26 24 62 24t61 -24q26 -24 26 -60t-26 -63q-25 -27 -61 -27t-62 27zM969 1659q-25 27 -25 63t25 60q26 24 62 24t61 -24q26 -24 26 -60t-26 -63q-25 -27 -61 -27t-62 27zM230 1431h-192v3h592v-3h-192v-1118q0 -338 318 -338
q215 0 347 111t132 320v1025h-204v3h411v-3h-204v-1025q0 -108 -37.5 -192t-103.5 -136.5t-152.5 -79t-188.5 -26.5q-526 0 -526 464v995z" />
    <glyph glyph-name="Yacute" unicode="&#xdd;" horiz-adv-x="1362" 
d="M666 1572q132 134 201 201t89.5 83t35.5 22q70 29 101 -22q14 -25 9.5 -50.5t-24.5 -45.5q-11 -12 -34.5 -25t-112.5 -52t-265 -111zM181 1431h-163v3h672v-3h-268l422 -779l389 779h-301v3h460v-3h-156l-390 -783v-645h192v-3h-592v3h192v589z" />
    <glyph glyph-name="Thorn" unicode="&#xde;" horiz-adv-x="1200" 
d="M72 0v3h192v1428h-192v3h592v-3h-192v-263h196q217 0 355.5 -117t138.5 -321q0 -180 -118 -294t-286 -114h-286v-319h192v-3h-592zM472 1165v-840h266q63 0 109.5 37t72 99.5t37 133.5t11.5 151q0 92 -18.5 166t-57.5 131.5t-105.5 89.5t-156.5 32h-158z" />
    <glyph glyph-name="germandbls" unicode="&#xdf;" horiz-adv-x="1026" 
d="M334 0h-306v3h142v951q0 79 15 156.5t48.5 150.5t81 128.5t117 89t152.5 33.5q147 0 233 -83q41 -40 63.5 -100.5t22.5 -121.5q0 -71 -28.5 -129t-78.5 -97t-108 -64t-126 -39v-8q179 -42 298.5 -174.5t119.5 -305.5q0 -175 -102.5 -291.5t-269.5 -116.5q-88 0 -151 52.5
t-63 135.5q0 66 37.5 107t98.5 41q38 0 61 -20.5t23 -56.5q0 -31 -15.5 -53.5t-34.5 -33t-34.5 -29.5t-15.5 -43q0 -45 27 -71t67 -26q93 0 140.5 104t47.5 298q0 68 -6.5 129.5t-26 129t-51 116t-86 80t-126.5 31.5h-92v3h112q67 0 118.5 50.5t76 125.5t24.5 159
q0 132 -46 215t-127 83q-105 0 -168.5 -124t-63.5 -329v-1056z" />
    <glyph glyph-name="agrave" unicode="&#xe0;" horiz-adv-x="890" 
d="M62 193q0 113 62.5 174.5t188.5 98.5q63 19 243 73v101v9q0 34 -0.5 51t-3.5 48t-9.5 48t-19 39t-30.5 33.5t-46 20t-64 8.5q-89 0 -133.5 -56.5t-10.5 -134.5q15 -32 15 -62q0 -31 -22.5 -51.5t-62.5 -20.5q-47 0 -71 25t-24 69q0 92 91 162q91 72 221 72q174 0 254 -93
q80 -92 80 -245v-451q0 -32 1.5 -50t7 -35.5t16.5 -24t30.5 -10.5t47.5 -1t69 11v-3q-46 -17 -99 -15t-100 17t-84.5 49.5t-52.5 81.5v7q-52 -79 -111.5 -116.5t-148.5 -37.5q-105 0 -170 56q-64 55 -64 153zM236 209q0 -96 36.5 -151.5t105.5 -55.5q44 0 95.5 43.5
t82.5 98.5v392l-215 -65q-52 -15 -78.5 -85.5t-26.5 -176.5zM214 1396q0 28 19 47t50 19q72 0 103 -101l90 -298l-3 -1l-208 226q-51 55 -51 108z" />
    <glyph glyph-name="aacute" unicode="&#xe1;" horiz-adv-x="890" 
d="M62 193q0 113 62.5 174.5t188.5 98.5q63 19 243 73v101v9q0 34 -0.5 51t-3.5 48t-9.5 48t-19 39t-30.5 33.5t-46 20t-64 8.5q-89 0 -133.5 -56.5t-10.5 -134.5q15 -32 15 -62q0 -31 -22.5 -51.5t-62.5 -20.5q-47 0 -71 25t-24 69q0 92 91 162q91 72 221 72q174 0 254 -93
q80 -92 80 -245v-451q0 -32 1.5 -50t7 -35.5t16.5 -24t30.5 -10.5t47.5 -1t69 11v-3q-46 -17 -99 -15t-100 17t-84.5 49.5t-52.5 81.5v7q-52 -79 -111.5 -116.5t-148.5 -37.5q-105 0 -170 56q-64 55 -64 153zM236 209q0 -96 36.5 -151.5t105.5 -55.5q44 0 95.5 43.5
t82.5 98.5v392l-215 -65q-52 -15 -78.5 -85.5t-26.5 -176.5zM314 1062l-3 1l91 298q31 101 103 101q31 0 50 -19t19 -47q0 -53 -51 -108z" />
    <glyph glyph-name="acircumflex" unicode="&#xe2;" horiz-adv-x="890" 
d="M62 193q0 113 62.5 174.5t188.5 98.5q63 19 243 73v101v9q0 34 -0.5 51t-3.5 48t-9.5 48t-19 39t-30.5 33.5t-46 20t-64 8.5q-89 0 -133.5 -56.5t-10.5 -134.5q15 -32 15 -62q0 -31 -22.5 -51.5t-62.5 -20.5q-47 0 -71 25t-24 69q0 92 91 162q91 72 221 72q174 0 254 -93
q80 -92 80 -245v-451q0 -32 1.5 -50t7 -35.5t16.5 -24t30.5 -10.5t47.5 -1t69 11v-3q-46 -17 -99 -15t-100 17t-84.5 49.5t-52.5 81.5v7q-52 -79 -111.5 -116.5t-148.5 -37.5q-105 0 -170 56q-64 55 -64 153zM236 209q0 -96 36.5 -151.5t105.5 -55.5q44 0 95.5 43.5
t82.5 98.5v392l-215 -65q-52 -15 -78.5 -85.5t-26.5 -176.5zM136 1060h-4l233 374l49 79l288 -453h-4l-284 447z" />
    <glyph glyph-name="atilde" unicode="&#xe3;" horiz-adv-x="890" 
d="M62 193q0 113 62.5 174.5t188.5 98.5q63 19 243 73v101v9q0 34 -0.5 51t-3.5 48t-9.5 48t-19 39t-30.5 33.5t-46 20t-64 8.5q-89 0 -133.5 -56.5t-10.5 -134.5q15 -32 15 -62q0 -31 -22.5 -51.5t-62.5 -20.5q-47 0 -71 25t-24 69q0 92 91 162q91 72 221 72q174 0 254 -93
q80 -92 80 -245v-451q0 -32 1.5 -50t7 -35.5t16.5 -24t30.5 -10.5t47.5 -1t69 11v-3q-46 -17 -99 -15t-100 17t-84.5 49.5t-52.5 81.5v7q-52 -79 -111.5 -116.5t-148.5 -37.5q-105 0 -170 56q-64 55 -64 153zM236 209q0 -96 36.5 -151.5t105.5 -55.5q44 0 95.5 43.5
t82.5 98.5v392l-215 -65q-52 -15 -78.5 -85.5t-26.5 -176.5zM85 1075l-3 1q30 208 176 208q60 0 185 -50.5t182 -50.5q26 0 43.5 19.5t22.5 37t12 47.5l3 -1q-30 -208 -176 -208q-60 0 -185 50.5t-182 50.5q-20 0 -34.5 -9t-23 -28t-12 -31.5t-8.5 -35.5z" />
    <glyph glyph-name="adieresis" unicode="&#xe4;" horiz-adv-x="890" 
d="M62 193q0 113 62.5 174.5t188.5 98.5q63 19 243 73v101v9q0 34 -0.5 51t-3.5 48t-9.5 48t-19 39t-30.5 33.5t-46 20t-64 8.5q-89 0 -133.5 -56.5t-10.5 -134.5q15 -32 15 -62q0 -31 -22.5 -51.5t-62.5 -20.5q-47 0 -71 25t-24 69q0 92 91 162q91 72 221 72q174 0 254 -93
q80 -92 80 -245v-451q0 -32 1.5 -50t7 -35.5t16.5 -24t30.5 -10.5t47.5 -1t69 11v-3q-46 -17 -99 -15t-100 17t-84.5 49.5t-52.5 81.5v7q-52 -79 -111.5 -116.5t-148.5 -37.5q-105 0 -170 56q-64 55 -64 153zM236 209q0 -96 36.5 -151.5t105.5 -55.5q44 0 95.5 43.5
t82.5 98.5v392l-215 -65q-52 -15 -78.5 -85.5t-26.5 -176.5zM123 1139q-27 27 -27 69t27 69t69 27t69 -27t27 -69t-27 -69t-69 -27t-69 27zM527 1139q-27 27 -27 69t27 69t69 27t69 -27t27 -69t-27 -69t-69 -27t-69 27z" />
    <glyph glyph-name="aring" unicode="&#xe5;" horiz-adv-x="890" 
d="M62 193q0 113 62.5 174.5t188.5 98.5q63 19 243 73v101v9q0 34 -0.5 51t-3.5 48t-9.5 48t-19 39t-30.5 33.5t-46 20t-64 8.5q-89 0 -133.5 -56.5t-10.5 -134.5q15 -32 15 -62q0 -31 -22.5 -51.5t-62.5 -20.5q-47 0 -71 25t-24 69q0 92 91 162q91 72 221 72q174 0 254 -93
q80 -92 80 -245v-451q0 -32 1.5 -50t7 -35.5t16.5 -24t30.5 -10.5t47.5 -1t69 11v-3q-46 -17 -99 -15t-100 17t-84.5 49.5t-52.5 81.5v7q-52 -79 -111.5 -116.5t-148.5 -37.5q-105 0 -170 56q-64 55 -64 153zM164 1258q0 98 67 164t163 66q98 0 164 -67.5t66 -162.5
q0 -98 -67.5 -164t-162.5 -66q-99 0 -164.5 67t-65.5 163zM167 1258q0 -92 64.5 -159.5t162.5 -67.5q96 0 161.5 66t65.5 161q0 97 -68 162t-159 65q-93 0 -160 -65t-67 -162zM236 209q0 -96 36.5 -151.5t105.5 -55.5q44 0 95.5 43.5t82.5 98.5v392l-215 -65
q-52 -15 -78.5 -85.5t-26.5 -176.5z" />
    <glyph glyph-name="ae" unicode="&#xe6;" horiz-adv-x="1352" 
d="M62 193q0 115 63.5 179t187.5 94q8 2 29.5 7t28 7t24 6t25 5t23 4t26 4t25.5 2t30 1.5t32 0.5v137v9q0 34 -0.5 51t-3.5 48t-9.5 48t-19 39t-30.5 33.5t-46 20t-64 8.5q-89 0 -133.5 -56.5t-10.5 -134.5q15 -32 15 -62q0 -31 -22.5 -51.5t-62.5 -20.5q-47 0 -71 25
t-24 69q0 92 91 162q91 72 221 72q174 0 254 -93q16 -19 27 -37q123 130 308 130q78 0 145 -31t110 -83q86 -105 86 -206q0 -44 -15.5 -62t-58.5 -18h-516q0 -158 25 -254q18 -67 64.5 -116t105.5 -71t124 -19t120 30.5t94.5 86.5t47.5 141h3q-13 -143 -106 -228.5
t-232 -85.5q-109 0 -196.5 44t-145.5 122h-1q-48 -73 -143.5 -119.5t-189.5 -46.5q-105 0 -170 56q-64 55 -64 153zM236 209q0 -96 36.5 -151.5t105.5 -55.5q51 0 132.5 46t116.5 105q-1 3 -4.5 8t-4.5 8q-32 53 -47.5 136t-14.5 139v56q-27 0 -50.5 -1.5t-38.5 -3t-36 -5.5
t-30 -6t-34.5 -8.5t-35.5 -9.5q-95 -24 -95 -257zM727 503h350q40 0 53.5 21.5t13.5 75.5q0 45 -3 81.5t-15 78.5t-31.5 70.5t-55.5 47.5t-85 19q-59 0 -104 -39.5t-70 -102.5t-37.5 -126t-15.5 -126z" />
    <glyph glyph-name="ccedilla" unicode="&#xe7;" horiz-adv-x="844" 
d="M46 432q0 125 56.5 232t158 171.5t223.5 64.5q70 0 130 -23.5t95 -61.5q71 -74 71 -152q0 -51 -28 -86t-78 -35q-57 -1 -75.5 43t6.5 97q13 33 13 71q0 21 -1 34.5t-8.5 36.5t-21 37t-42 25t-68.5 11q-53 0 -94.5 -21.5t-67 -59t-43.5 -81t-26.5 -96t-12 -94.5t-3.5 -85
q0 -193 70 -305q37 -60 82 -86.5t124 -26.5q158 0 223.5 75t65.5 213h3q-2 -107 -39 -184q-24 -50 -56 -82q-77 -80 -227 -80h-3l-60 -144q96 0 162.5 -38t66.5 -112q0 -83 -54.5 -127.5t-137.5 -44.5q-76 0 -132 38q-27 19 -41.5 41t-16 40t4.5 33.5t16.5 24t22.5 8.5
q21 0 31.5 -18.5t15 -45.5t11.5 -53.5t28.5 -45t59.5 -18.5q51 0 78 49t27 118q0 79 -30 113.5t-116 34.5l61 147q-189 2 -306 124q-118 124 -118 324z" />
    <glyph glyph-name="egrave" unicode="&#xe8;" horiz-adv-x="862" 
d="M272 1396q0 28 19 47t50 19q72 0 103 -101l90 -298l-3 -1l-208 226q-51 55 -51 108zM46 430q0 129 53 236t153 170.5t227 63.5q78 0 145 -31t110 -83q86 -105 86 -206q0 -44 -15.5 -62t-58.5 -18h-516q0 -158 25 -254q18 -67 64.5 -116t105.5 -71t124 -19t120 30.5
t94.5 86.5t47.5 141h3q-13 -143 -106 -228.5t-232 -85.5q-128 0 -227 61t-151 162t-52 223zM231 503h350q40 0 53.5 21.5t13.5 75.5q0 45 -3 81.5t-15 78.5t-31.5 70.5t-55.5 47.5t-85 19q-59 0 -104 -39.5t-70 -102.5t-37.5 -126t-15.5 -126z" />
    <glyph glyph-name="eacute" unicode="&#xe9;" horiz-adv-x="862" 
d="M372 1062l-3 1l91 298q31 101 103 101q31 0 50 -19t19 -47q0 -53 -51 -108zM46 430q0 129 53 236t153 170.5t227 63.5q78 0 145 -31t110 -83q86 -105 86 -206q0 -44 -15.5 -62t-58.5 -18h-516q0 -158 25 -254q18 -67 64.5 -116t105.5 -71t124 -19t120 30.5t94.5 86.5
t47.5 141h3q-13 -143 -106 -228.5t-232 -85.5q-128 0 -227 61t-151 162t-52 223zM231 503h350q40 0 53.5 21.5t13.5 75.5q0 45 -3 81.5t-15 78.5t-31.5 70.5t-55.5 47.5t-85 19q-59 0 -104 -39.5t-70 -102.5t-37.5 -126t-15.5 -126z" />
    <glyph glyph-name="ecircumflex" unicode="&#xea;" horiz-adv-x="862" 
d="M194 1060h-4l233 374l49 79l288 -453h-4l-284 447zM46 430q0 129 53 236t153 170.5t227 63.5q78 0 145 -31t110 -83q86 -105 86 -206q0 -44 -15.5 -62t-58.5 -18h-516q0 -158 25 -254q18 -67 64.5 -116t105.5 -71t124 -19t120 30.5t94.5 86.5t47.5 141h3
q-13 -143 -106 -228.5t-232 -85.5q-128 0 -227 61t-151 162t-52 223zM231 503h350q40 0 53.5 21.5t13.5 75.5q0 45 -3 81.5t-15 78.5t-31.5 70.5t-55.5 47.5t-85 19q-59 0 -104 -39.5t-70 -102.5t-37.5 -126t-15.5 -126z" />
    <glyph glyph-name="edieresis" unicode="&#xeb;" horiz-adv-x="862" 
d="M181 1139q-27 27 -27 69t27 69t69 27t69 -27t27 -69t-27 -69t-69 -27t-69 27zM585 1139q-27 27 -27 69t27 69t69 27t69 -27t27 -69t-27 -69t-69 -27t-69 27zM46 430q0 129 53 236t153 170.5t227 63.5q78 0 145 -31t110 -83q86 -105 86 -206q0 -44 -15.5 -62t-58.5 -18
h-516q0 -158 25 -254q18 -67 64.5 -116t105.5 -71t124 -19t120 30.5t94.5 86.5t47.5 141h3q-13 -143 -106 -228.5t-232 -85.5q-128 0 -227 61t-151 162t-52 223zM231 503h350q40 0 53.5 21.5t13.5 75.5q0 45 -3 81.5t-15 78.5t-31.5 70.5t-55.5 47.5t-85 19
q-59 0 -104 -39.5t-70 -102.5t-37.5 -126t-15.5 -126z" />
    <glyph glyph-name="igrave" unicode="&#xec;" horiz-adv-x="500" 
d="M72 1396q0 28 19 47t50 19q72 0 103 -101l90 -298l-3 -1l-208 226q-51 55 -51 108zM482 0h-448v3h142v878h-142v3h306v-881h142v-3z" />
    <glyph glyph-name="iacute" unicode="&#xed;" horiz-adv-x="500" 
d="M176 1062l-3 1l91 298q31 101 103 101q31 0 50 -19t19 -47q0 -53 -51 -108zM482 0h-448v3h142v878h-142v3h306v-881h142v-3z" />
    <glyph glyph-name="icircumflex" unicode="&#xee;" horiz-adv-x="500" 
d="M-14 1060h-4l213 374l48 85l269 -459h-4l-265 453zM482 0h-448v3h142v878h-142v3h306v-881h142v-3z" />
    <glyph glyph-name="idieresis" unicode="&#xef;" horiz-adv-x="500" 
d="M-3 1139q-27 27 -27 69t27 69t69 27t69 -27t27 -69t-27 -69t-69 -27t-69 27zM373 1139q-27 27 -27 69t27 69t69 27t69 -27t27 -69t-27 -69t-69 -27t-69 27zM482 0h-448v3h142v878h-142v3h306v-881h142v-3z" />
    <glyph glyph-name="eth" unicode="&#xf0;" horiz-adv-x="930" 
d="M762 1423l2 -4q-132 -86 -209 -133q197 -229 278 -450q51 -140 51 -299q0 -82 -15 -160t-47.5 -149.5t-79.5 -125.5t-117.5 -86t-154.5 -32q-95 0 -175.5 38t-134.5 102t-84 146.5t-30 171.5q0 191 120.5 324.5t303.5 133.5q92 0 153 -34l9 8q-15 53 -72 144.5
t-134 187.5q-23 -14 -218 -136l-3 5l218 136q-111 138 -210 223h204q69 -69 134 -143zM230 442q0 -42 2 -80.5t8.5 -85.5t17.5 -86.5t29.5 -78t42.5 -65t60 -43t80 -16.5q58 0 101.5 19t68.5 59.5t40.5 76.5t21.5 96.5t7 92t1 89.5v22q0 60 -4.5 114.5t-20 119.5t-40 111.5
t-70 78t-105.5 31.5q-52 0 -92.5 -22t-66 -61.5t-42.5 -84.5t-25 -100t-11 -98t-3 -89z" />
    <glyph glyph-name="ntilde" unicode="&#xf1;" horiz-adv-x="1072" 
d="M482 0h-448v3h142v878h-142v3h306v-242q49 115 136.5 186.5t187.5 71.5q124 0 193 -85q63 -78 63 -207v-605h142v-3h-448v3h142v641q0 66 -12.5 118t-46 88.5t-85.5 36.5q-41 0 -98.5 -35.5t-97.5 -87.5q-23 -30 -37 -52.5t-25 -45.5t-14 -29v-634h142v-3zM217 1075l-3 1
q30 208 176 208q60 0 185 -50.5t182 -50.5q26 0 43.5 19.5t22.5 37t12 47.5l3 -1q-30 -208 -176 -208q-60 0 -185 50.5t-182 50.5q-20 0 -34.5 -9t-23 -28t-12 -31.5t-8.5 -35.5z" />
    <glyph glyph-name="ograve" unicode="&#xf2;" horiz-adv-x="940" 
d="M290 1396q0 28 19 47t50 19q72 0 103 -101l90 -298l-3 -1l-208 226q-51 55 -51 108zM168 114q-122 131 -122 328t122 328q123 130 302 130q180 0 301 -130q123 -131 123 -328q0 -198 -123 -328q-121 -130 -301 -130q-179 0 -302 130zM232 442q0 -455 238 -455t238 455
t-238 455t-238 -455z" />
    <glyph glyph-name="oacute" unicode="&#xf3;" horiz-adv-x="940" 
d="M390 1062l-3 1l91 298q31 101 103 101q31 0 50 -19t19 -47q0 -53 -51 -108zM168 114q-122 131 -122 328t122 328q123 130 302 130q180 0 301 -130q123 -131 123 -328q0 -198 -123 -328q-121 -130 -301 -130q-179 0 -302 130zM232 442q0 -455 238 -455t238 455t-238 455
t-238 -455z" />
    <glyph glyph-name="ocircumflex" unicode="&#xf4;" horiz-adv-x="940" 
d="M212 1060h-4l233 374l49 79l288 -453h-4l-284 447zM168 114q-122 131 -122 328t122 328q123 130 302 130q180 0 301 -130q123 -131 123 -328q0 -198 -123 -328q-121 -130 -301 -130q-179 0 -302 130zM232 442q0 -455 238 -455t238 455t-238 455t-238 -455z" />
    <glyph glyph-name="otilde" unicode="&#xf5;" horiz-adv-x="940" 
d="M161 1075l-3 1q30 208 176 208q60 0 185 -50.5t182 -50.5q26 0 43.5 19.5t22.5 37t12 47.5l3 -1q-30 -208 -176 -208q-60 0 -185 50.5t-182 50.5q-20 0 -34.5 -9t-23 -28t-12 -31.5t-8.5 -35.5zM168 114q-122 131 -122 328t122 328q123 130 302 130q180 0 301 -130
q123 -131 123 -328q0 -198 -123 -328q-121 -130 -301 -130q-179 0 -302 130zM232 442q0 -455 238 -455t238 455t-238 455t-238 -455z" />
    <glyph glyph-name="odieresis" unicode="&#xf6;" horiz-adv-x="940" 
d="M199 1139q-27 27 -27 69t27 69t69 27t69 -27t27 -69t-27 -69t-69 -27t-69 27zM603 1139q-27 27 -27 69t27 69t69 27t69 -27t27 -69t-27 -69t-69 -27t-69 27zM168 114q-122 131 -122 328t122 328q123 130 302 130q180 0 301 -130q123 -131 123 -328q0 -198 -123 -328
q-121 -130 -301 -130q-179 0 -302 130zM232 442q0 -455 238 -455t238 455t-238 455t-238 -455z" />
    <glyph glyph-name="divide" unicode="&#xf7;" horiz-adv-x="1052" 
d="M435 737q-37 37 -37 91t37 91t91 37t91 -37t37 -91t-37 -91t-91 -37t-91 37zM1040 511h-1028v3h1028v-3zM435 109q-37 37 -37 91t37 91t91 37t91 -37t37 -91t-37 -91t-91 -37t-91 37z" />
    <glyph glyph-name="oslash" unicode="&#xf8;" horiz-adv-x="940" 
d="M58 -6l-2 2l110 120q-120 129 -120 326t122 328q123 130 302 130q178 0 300 -129l110 119l2 -2l-110 -120q122 -131 122 -326q0 -198 -123 -328q-121 -130 -301 -130q-179 0 -302 129zM470 -13q238 0 238 455q0 136 -22 233l-432 -469q49 -219 216 -219zM232 442
q0 -139 21 -233l432 470q-51 218 -215 218q-238 0 -238 -455z" />
    <glyph glyph-name="ugrave" unicode="&#xf9;" horiz-adv-x="1056" 
d="M308 1396q0 28 19 47t50 19q72 0 103 -101l90 -298l-3 -1l-208 226q-51 55 -51 108zM152 881h-142v3h306v-644q0 -98 43 -166t121 -68q66 0 127 52.5t93 115.5t32 107v600h-142v3h306v-881h142v-3h-306v210l-12 3q-48 -111 -128.5 -170t-183.5 -59q-124 0 -193 85
q-63 78 -63 207v605z" />
    <glyph glyph-name="uacute" unicode="&#xfa;" horiz-adv-x="1056" 
d="M408 1062l-3 1l91 298q31 101 103 101q31 0 50 -19t19 -47q0 -53 -51 -108zM152 881h-142v3h306v-644q0 -98 43 -166t121 -68q66 0 127 52.5t93 115.5t32 107v600h-142v3h306v-881h142v-3h-306v210l-12 3q-48 -111 -128.5 -170t-183.5 -59q-124 0 -193 85q-63 78 -63 207
v605z" />
    <glyph glyph-name="ucircumflex" unicode="&#xfb;" horiz-adv-x="1056" 
d="M230 1060h-4l233 374l49 79l288 -453h-4l-284 447zM152 881h-142v3h306v-644q0 -98 43 -166t121 -68q66 0 127 52.5t93 115.5t32 107v600h-142v3h306v-881h142v-3h-306v210l-12 3q-48 -111 -128.5 -170t-183.5 -59q-124 0 -193 85q-63 78 -63 207v605z" />
    <glyph glyph-name="udieresis" unicode="&#xfc;" horiz-adv-x="1056" 
d="M217 1139q-27 27 -27 69t27 69t69 27t69 -27t27 -69t-27 -69t-69 -27t-69 27zM621 1139q-27 27 -27 69t27 69t69 27t69 -27t27 -69t-27 -69t-69 -27t-69 27zM152 881h-142v3h306v-644q0 -98 43 -166t121 -68q66 0 127 52.5t93 115.5t32 107v600h-142v3h306v-881h142v-3
h-306v210l-12 3q-48 -111 -128.5 -170t-183.5 -59q-124 0 -193 85q-63 78 -63 207v605z" />
    <glyph glyph-name="yacute" unicode="&#xfd;" horiz-adv-x="924" 
d="M426 1062l-3 1l91 298q31 101 103 101q31 0 50 -19t19 -47q0 -53 -51 -108zM-2 -465q0 49 29 80t77 31q34 0 55 -20t21 -48q0 -17 -8 -51q-8 -32 -8 -52q0 -49 68 -49q48 0 82.5 43t62.5 126l135 386l-424 900h-98v3h458v-3h-182l328 -665l232 665h-143v3h255v-3h-109
l-449 -1289q-20 -58 -55 -120q-44 -78 -125.5 -94.5t-145.5 35.5q-56 42 -56 122z" />
    <glyph glyph-name="thorn" unicode="&#xfe;" horiz-adv-x="1050" 
d="M28 -612v3h142v2102h-142v3h512v-3h-206v-697l10 -6q73 70 159 95q51 15 108 15q179 0 286 -120q107 -121 107 -338t-107 -338q-107 -120 -286 -120q-63 0 -121 20q-78 26 -146 90l-10 -6v-697h206v-3h-512zM492 7q68 -27 145.5 -7.5t122.5 78.5q60 80 60 364t-60 364
q-43 57 -116 77.5t-140 -2.5q-24 -8 -45 -17.5t-36.5 -19.5t-28.5 -20.5t-22 -20.5t-15.5 -19.5t-10.5 -17t-6.5 -13.5t-3.5 -9l-1 -3v-535q0 -25 1.5 -40t9.5 -40t23.5 -43t46.5 -39t76 -37z" />
    <glyph glyph-name="ydieresis" unicode="&#xff;" horiz-adv-x="924" 
d="M235 1139q-27 27 -27 69t27 69t69 27t69 -27t27 -69t-27 -69t-69 -27t-69 27zM639 1139q-27 27 -27 69t27 69t69 27t69 -27t27 -69t-27 -69t-69 -27t-69 27zM-2 -465q0 49 29 80t77 31q34 0 55 -20t21 -48q0 -17 -8 -51q-8 -32 -8 -52q0 -49 68 -49q48 0 82.5 43
t62.5 126l135 386l-424 900h-98v3h458v-3h-182l328 -665l232 665h-143v3h255v-3h-109l-449 -1289q-20 -58 -55 -120q-44 -78 -125.5 -94.5t-145.5 35.5q-56 42 -56 122z" />
    <glyph glyph-name="Amacron" unicode="&#x100;" horiz-adv-x="1434" 
d="M562 0h-496v3h202l478 1459l543 -1459h163v-3h-672v3h268l-198 533h-404l-175 -533h291v-3zM636 1115l-189 -576h402zM1046 1678h-604v3h604v-3z" />
    <glyph glyph-name="amacron" unicode="&#x101;" horiz-adv-x="890" 
d="M62 193q0 113 62.5 174.5t188.5 98.5q63 19 243 73v101v9q0 34 -0.5 51t-3.5 48t-9.5 48t-19 39t-30.5 33.5t-46 20t-64 8.5q-89 0 -133.5 -56.5t-10.5 -134.5q15 -32 15 -62q0 -31 -22.5 -51.5t-62.5 -20.5q-47 0 -71 25t-24 69q0 92 91 162q91 72 221 72q174 0 254 -93
q80 -92 80 -245v-451q0 -32 1.5 -50t7 -35.5t16.5 -24t30.5 -10.5t47.5 -1t69 11v-3q-46 -17 -99 -15t-100 17t-84.5 49.5t-52.5 81.5v7q-52 -79 -111.5 -116.5t-148.5 -37.5q-105 0 -170 56q-64 55 -64 153zM236 209q0 -96 36.5 -151.5t105.5 -55.5q44 0 95.5 43.5
t82.5 98.5v392l-215 -65q-52 -15 -78.5 -85.5t-26.5 -176.5zM682 1134h-576v3h576v-3z" />
    <glyph glyph-name="Abreve" unicode="&#x102;" horiz-adv-x="1434" 
d="M562 0h-496v3h202l478 1459l543 -1459h163v-3h-672v3h268l-198 533h-404l-175 -533h291v-3zM636 1115l-189 -576h402zM376 1886h3q32 -105 123 -161.5t212 -56.5q118 0 211.5 56.5t125.5 161.5h3q-32 -155 -119 -234.5t-221 -79.5q-133 0 -219 79t-119 235z" />
    <glyph glyph-name="abreve" unicode="&#x103;" horiz-adv-x="890" 
d="M62 193q0 113 62.5 174.5t188.5 98.5q63 19 243 73v101v9q0 34 -0.5 51t-3.5 48t-9.5 48t-19 39t-30.5 33.5t-46 20t-64 8.5q-89 0 -133.5 -56.5t-10.5 -134.5q15 -32 15 -62q0 -31 -22.5 -51.5t-62.5 -20.5q-47 0 -71 25t-24 69q0 92 91 162q91 72 221 72q174 0 254 -93
q80 -92 80 -245v-451q0 -32 1.5 -50t7 -35.5t16.5 -24t30.5 -10.5t47.5 -1t69 11v-3q-46 -17 -99 -15t-100 17t-84.5 49.5t-52.5 81.5v7q-52 -79 -111.5 -116.5t-148.5 -37.5q-105 0 -170 56q-64 55 -64 153zM236 209q0 -96 36.5 -151.5t105.5 -55.5q44 0 95.5 43.5
t82.5 98.5v392l-215 -65q-52 -15 -78.5 -85.5t-26.5 -176.5zM98 1394h3q20 -101 99 -155.5t194 -54.5t194 54.5t99 155.5h3q-17 -136 -93 -221t-203 -85q-130 0 -205.5 87.5t-90.5 218.5z" />
    <glyph glyph-name="Aogonek" unicode="&#x104;" horiz-adv-x="1427" 
d="M789 -350q-1 29 5 58.5t15 52t28.5 49.5t33 43t41.5 42t40.5 37t44 36.5t39.5 31.5h-263v3h268l-198 533h-404l-175 -533h291v-3h-496v3h202l478 1459l543 -1459h163v-3h-403q-36 -30 -60.5 -53t-54 -57t-45 -70t-15.5 -73q0 -73 54.5 -126.5t128.5 -53.5
q58 0 104.5 37.5t46.5 96.5h4q0 -89 -55 -159t-150 -70q-75 0 -141 53.5t-70 124.5zM629 1115l-189 -576h402z" />
    <glyph glyph-name="aogonek" unicode="&#x105;" horiz-adv-x="890" 
d="M495 -322q-1 21 2 42t8 38.5t16.5 37t20 33.5t25.5 32.5t27 29t31 29t30 26t31.5 25.5t28.5 23q-57 15 -99.5 50t-59.5 87v7q-52 -79 -111.5 -116.5t-148.5 -37.5q-105 0 -170 56q-64 55 -64 153q0 113 62.5 174.5t188.5 98.5q63 19 243 73v101v9q0 34 -0.5 51t-3.5 48
t-9.5 48t-19 39t-30.5 33.5t-46 20t-64 8.5q-89 0 -133.5 -56.5t-10.5 -134.5q15 -32 15 -62q0 -31 -22.5 -51.5t-62.5 -20.5q-47 0 -71 25t-24 69q0 92 91 162q91 72 221 72q174 0 254 -93q80 -92 80 -245v-451q0 -32 1.5 -50t7 -35.5t16.5 -24t30.5 -10.5t47.5 -1t69 11
v-3q-85 -28 -174 -5q-32 -27 -54 -48.5t-47 -51t-38 -62t-13 -64.5q0 -67 50.5 -116.5t118.5 -49.5q54 0 96.5 35t42.5 89h3q0 -82 -50 -146.5t-138 -64.5q-69 0 -129.5 49.5t-64.5 114.5zM236 209q0 -96 36.5 -151.5t105.5 -55.5q44 0 95.5 43.5t82.5 98.5v392l-215 -65
q-52 -15 -78.5 -85.5t-26.5 -176.5z" />
    <glyph glyph-name="Cacute" unicode="&#x106;" horiz-adv-x="1386" 
d="M634 1572q132 134 201 201t89.5 83t35.5 22q70 29 101 -22q14 -25 9.5 -50.5t-24.5 -45.5q-11 -12 -34.5 -25t-112.5 -52t-265 -111zM96 712q0 133 37.5 253.5t104.5 212.5q98 134 244 210t302 74q150 0 280 -47q33 -13 63.5 -20.5t66.5 -9t59.5 17.5t27.5 59h3v-471h-3
q0 114 -9 154q-10 52 -42 104q-48 78 -124 137q-42 32 -139.5 52.5t-182.5 20.5q-116 0 -195.5 -55.5t-140.5 -172.5q-62 -119 -90 -237t-28 -282q0 -231 46.5 -393t149.5 -253t258 -91q86 0 183 20.5t138 52.5q72 55 124 141q25 42 37.5 94t13.5 77.5t1 82.5h3v-471h-3
q-14 20 -32 38q-34 34 -91 34q-9 0 -17 -1t-13.5 -2t-15.5 -4t-13.5 -4.5t-17 -6.5t-17.5 -7q-130 -47 -280 -47q-131 0 -254 50.5t-220 143.5q-98 93 -156 235q-58 141 -58 311z" />
    <glyph glyph-name="cacute" unicode="&#x107;" horiz-adv-x="844" 
d="M392 1062l-3 1l91 298q31 101 103 101q31 0 50 -19t19 -47q0 -53 -51 -108zM46 432q0 125 56.5 232t158 171.5t223.5 64.5q70 0 130 -23.5t95 -61.5q71 -74 71 -152q0 -51 -28 -86t-78 -35q-57 -1 -75.5 43t6.5 97q13 33 13 71q0 21 -1 34.5t-8.5 36.5t-21 37t-42 25
t-68.5 11q-53 0 -94.5 -21.5t-67 -59t-43.5 -81t-26.5 -96t-12 -94.5t-3.5 -85q0 -193 70 -305q37 -60 82 -86.5t124 -26.5q158 0 223.5 75t65.5 213h3q-2 -107 -39 -184q-24 -50 -56 -82q-77 -80 -227 -80q-194 0 -312 124t-118 324z" />
    <glyph glyph-name="Ccircumflex" unicode="&#x108;" horiz-adv-x="1386" 
d="M460 1564h-4l298 324l49 54l351 -378h-4l-347 374zM96 712q0 133 37.5 253.5t104.5 212.5q98 134 244 210t302 74q150 0 280 -47q33 -13 63.5 -20.5t66.5 -9t59.5 17.5t27.5 59h3v-471h-3q0 114 -9 154q-10 52 -42 104q-48 78 -124 137q-42 32 -139.5 52.5t-182.5 20.5
q-116 0 -195.5 -55.5t-140.5 -172.5q-62 -119 -90 -237t-28 -282q0 -231 46.5 -393t149.5 -253t258 -91q86 0 183 20.5t138 52.5q72 55 124 141q25 42 37.5 94t13.5 77.5t1 82.5h3v-471h-3q-14 20 -32 38q-34 34 -91 34q-9 0 -17 -1t-13.5 -2t-15.5 -4t-13.5 -4.5t-17 -6.5
t-17.5 -7q-130 -47 -280 -47q-131 0 -254 50.5t-220 143.5q-98 93 -156 235q-58 141 -58 311z" />
    <glyph glyph-name="ccircumflex" unicode="&#x109;" horiz-adv-x="844" 
d="M214 1060h-4l233 374l49 79l288 -453h-4l-284 447zM46 432q0 125 56.5 232t158 171.5t223.5 64.5q70 0 130 -23.5t95 -61.5q71 -74 71 -152q0 -51 -28 -86t-78 -35q-57 -1 -75.5 43t6.5 97q13 33 13 71q0 21 -1 34.5t-8.5 36.5t-21 37t-42 25t-68.5 11q-53 0 -94.5 -21.5
t-67 -59t-43.5 -81t-26.5 -96t-12 -94.5t-3.5 -85q0 -193 70 -305q37 -60 82 -86.5t124 -26.5q158 0 223.5 75t65.5 213h3q-2 -107 -39 -184q-24 -50 -56 -82q-77 -80 -227 -80q-194 0 -312 124t-118 324z" />
    <glyph glyph-name="Cdotaccent" unicode="&#x10a;" horiz-adv-x="1386" 
d="M705 1653q-27 27 -27 69t27 69t69 27t69 -27t27 -69t-27 -69t-69 -27t-69 27zM96 712q0 133 37.5 253.5t104.5 212.5q98 134 244 210t302 74q150 0 280 -47q33 -13 63.5 -20.5t66.5 -9t59.5 17.5t27.5 59h3v-471h-3q0 114 -9 154q-10 52 -42 104q-48 78 -124 137
q-42 32 -139.5 52.5t-182.5 20.5q-116 0 -195.5 -55.5t-140.5 -172.5q-62 -119 -90 -237t-28 -282q0 -231 46.5 -393t149.5 -253t258 -91q86 0 183 20.5t138 52.5q72 55 124 141q25 42 37.5 94t13.5 77.5t1 82.5h3v-471h-3q-14 20 -32 38q-34 34 -91 34q-9 0 -17 -1
t-13.5 -2t-15.5 -4t-13.5 -4.5t-17 -6.5t-17.5 -7q-130 -47 -280 -47q-131 0 -254 50.5t-220 143.5q-98 93 -156 235q-58 141 -58 311z" />
    <glyph glyph-name="cdotaccent" unicode="&#x10b;" horiz-adv-x="844" 
d="M384 1118q-36 36 -36 88t36 88t88 36t88 -36t36 -88t-36 -88t-88 -36t-88 36zM46 432q0 125 56.5 232t158 171.5t223.5 64.5q70 0 130 -23.5t95 -61.5q71 -74 71 -152q0 -51 -28 -86t-78 -35q-57 -1 -75.5 43t6.5 97q13 33 13 71q0 21 -1 34.5t-8.5 36.5t-21 37t-42 25
t-68.5 11q-53 0 -94.5 -21.5t-67 -59t-43.5 -81t-26.5 -96t-12 -94.5t-3.5 -85q0 -193 70 -305q37 -60 82 -86.5t124 -26.5q158 0 223.5 75t65.5 213h3q-2 -107 -39 -184q-24 -50 -56 -82q-77 -80 -227 -80q-194 0 -312 124t-118 324z" />
    <glyph glyph-name="Ccaron" unicode="&#x10c;" horiz-adv-x="1386" 
d="M725 1564l-301 324h5l347 -374l341 374h5l-346 -379zM96 712q0 133 37.5 253.5t104.5 212.5q98 134 244 210t302 74q150 0 280 -47q33 -13 63.5 -20.5t66.5 -9t59.5 17.5t27.5 59h3v-471h-3q0 114 -9 154q-10 52 -42 104q-48 78 -124 137q-42 32 -139.5 52.5t-182.5 20.5
q-116 0 -195.5 -55.5t-140.5 -172.5q-62 -119 -90 -237t-28 -282q0 -231 46.5 -393t149.5 -253t258 -91q86 0 183 20.5t138 52.5q72 55 124 141q25 42 37.5 94t13.5 77.5t1 82.5h3v-471h-3q-14 20 -32 38q-34 34 -91 34q-9 0 -17 -1t-13.5 -2t-15.5 -4t-13.5 -4.5t-17 -6.5
t-17.5 -7q-130 -47 -280 -47q-131 0 -254 50.5t-220 143.5q-98 93 -156 235q-58 141 -58 311z" />
    <glyph glyph-name="ccaron" unicode="&#x10d;" horiz-adv-x="844" 
d="M473 979l-287 455h4l283 -449l279 449h4l-233 -374zM46 432q0 125 56.5 232t158 171.5t223.5 64.5q70 0 130 -23.5t95 -61.5q71 -74 71 -152q0 -51 -28 -86t-78 -35q-57 -1 -75.5 43t6.5 97q13 33 13 71q0 21 -1 34.5t-8.5 36.5t-21 37t-42 25t-68.5 11
q-53 0 -94.5 -21.5t-67 -59t-43.5 -81t-26.5 -96t-12 -94.5t-3.5 -85q0 -193 70 -305q37 -60 82 -86.5t124 -26.5q158 0 223.5 75t65.5 213h3q-2 -107 -39 -184q-24 -50 -56 -82q-77 -80 -227 -80q-194 0 -312 124t-118 324z" />
    <glyph glyph-name="Dcaron" unicode="&#x10e;" horiz-adv-x="1468" 
d="M553 1564l-301 324h5l347 -374l341 374h5l-346 -379zM745 0h-673v3h192v1428h-192v3h674q98 0 208 -30t187 -87q82 -58 144 -143q64 -86 100.5 -206t36.5 -256t-36.5 -255t-100.5 -204q-92 -123 -232 -188t-308 -65zM472 1431v-1428h273q97 0 176 41.5t129 113.5
q49 70 81 172q32 100 44.5 185.5t12.5 196.5q0 112 -12.5 198t-44.5 187q-47 158 -142.5 246t-243.5 88h-273z" />
    <glyph glyph-name="dcaron" unicode="&#x10f;" horiz-adv-x="1166" 
d="M234 850q82 50 181 50q181 0 287 -180l14 2v771h-206v3h370v-1493h142v-3h-306v162l-19 5q-36 -84 -115 -133.5t-167 -49.5q-99 0 -181 50q-90 55 -139 160.5t-49 247.5t49 247.5t139 160.5zM470 -4q49 0 108.5 38t95.5 94q20 30 30 83t11 92t1 113v26q0 244 -17 276
q-40 77 -108.5 125t-120.5 48q-58 0 -103 -33t-70 -81t-41 -112.5t-21 -117.5t-5 -105q0 -55 5.5 -109t21.5 -117t41.5 -110t70 -78.5t101.5 -31.5zM978 1295q-37 37 -37 91q0 53 37.5 90.5t90.5 37.5q65 0 99 -51t34 -116q0 -157 -136 -338l-1 1h-1q59 78 92 158.5
t38 115.5t5 63q0 14 -2 32q-1 -54 -37 -87.5t-91 -33.5q-54 0 -91 37z" />
    <glyph glyph-name="Dcroat" unicode="&#x110;" horiz-adv-x="1468" 
d="M745 0h-673v3h192v1428h-192v3h674q98 0 208 -30t187 -87q82 -58 144 -143q64 -86 100.5 -206t36.5 -256t-36.5 -255t-100.5 -204q-92 -123 -232 -188t-308 -65zM472 1431v-1428h273q97 0 176 41.5t129 113.5q49 70 81 172q32 100 44.5 185.5t12.5 196.5q0 112 -12.5 198
t-44.5 187q-47 158 -142.5 246t-243.5 88h-273z" />
    <glyph glyph-name="dslash" unicode="&#x111;" horiz-adv-x="1066" 
d="M234 850q82 50 181 50q181 0 287 -180l14 2v435h-466v3h466v333h-206v3h370v-336h168v-3h-168v-1154h142v-3h-306v162l-19 5q-36 -84 -115 -133.5t-167 -49.5q-99 0 -181 50q-90 55 -139 160.5t-49 247.5t49 247.5t139 160.5zM470 -4q49 0 108.5 38t95.5 94q20 30 30 83
t11 92t1 113v26q0 244 -17 276q-40 77 -108.5 125t-120.5 48q-58 0 -103 -33t-70 -81t-41 -112.5t-21 -117.5t-5 -105q0 -55 5.5 -109t21.5 -117t41.5 -110t70 -78.5t101.5 -31.5z" />
    <glyph glyph-name="Emacron" unicode="&#x112;" horiz-adv-x="1326" 
d="M996 1678h-604v3h604v-3zM1278 0h-1206v3h192v1428h-192v3h1120l10 -376h-3q-3 84 -12.5 143.5t-30 101.5t-45.5 67t-69 38.5t-91 18t-119 4.5h-360v-655h231q59 0 96 10t68.5 39.5t45.5 89t14 153.5h3v-585h-3q0 84 -14.5 141.5t-45 89.5t-69.5 45.5t-95 13.5h-231v-770
h337q167 0 236 16q132 32 187 152q45 100 49 276h3z" />
    <glyph glyph-name="emacron" unicode="&#x113;" horiz-adv-x="862" 
d="M740 1134h-576v3h576v-3zM46 430q0 129 53 236t153 170.5t227 63.5q78 0 145 -31t110 -83q86 -105 86 -206q0 -44 -15.5 -62t-58.5 -18h-516q0 -158 25 -254q18 -67 64.5 -116t105.5 -71t124 -19t120 30.5t94.5 86.5t47.5 141h3q-13 -143 -106 -228.5t-232 -85.5
q-128 0 -227 61t-151 162t-52 223zM231 503h350q40 0 53.5 21.5t13.5 75.5q0 45 -3 81.5t-15 78.5t-31.5 70.5t-55.5 47.5t-85 19q-59 0 -104 -39.5t-70 -102.5t-37.5 -126t-15.5 -126z" />
    <glyph glyph-name="Ebreve" unicode="&#x114;" horiz-adv-x="1326" 
d="M346 1886h3q32 -105 123 -161.5t212 -56.5q118 0 211.5 56.5t125.5 161.5h3q-32 -155 -119 -234.5t-221 -79.5q-133 0 -219 79t-119 235zM1278 0h-1206v3h192v1428h-192v3h1120l10 -376h-3q-3 84 -12.5 143.5t-30 101.5t-45.5 67t-69 38.5t-91 18t-119 4.5h-360v-655h231
q59 0 96 10t68.5 39.5t45.5 89t14 153.5h3v-585h-3q0 84 -14.5 141.5t-45 89.5t-69.5 45.5t-95 13.5h-231v-770h337q167 0 236 16q132 32 187 152q45 100 49 276h3z" />
    <glyph glyph-name="ebreve" unicode="&#x115;" horiz-adv-x="862" 
d="M156 1394h3q20 -101 99 -155.5t194 -54.5t194 54.5t99 155.5h3q-17 -136 -93 -221t-203 -85q-130 0 -205.5 87.5t-90.5 218.5zM46 430q0 129 53 236t153 170.5t227 63.5q78 0 145 -31t110 -83q86 -105 86 -206q0 -44 -15.5 -62t-58.5 -18h-516q0 -158 25 -254
q18 -67 64.5 -116t105.5 -71t124 -19t120 30.5t94.5 86.5t47.5 141h3q-13 -143 -106 -228.5t-232 -85.5q-128 0 -227 61t-151 162t-52 223zM231 503h350q40 0 53.5 21.5t13.5 75.5q0 45 -3 81.5t-15 78.5t-31.5 70.5t-55.5 47.5t-85 19q-59 0 -104 -39.5t-70 -102.5
t-37.5 -126t-15.5 -126z" />
    <glyph glyph-name="Edotaccent" unicode="&#x116;" horiz-adv-x="1326" 
d="M615 1653q-27 27 -27 69t27 69t69 27t69 -27t27 -69t-27 -69t-69 -27t-69 27zM1278 0h-1206v3h192v1428h-192v3h1120l10 -376h-3q-3 84 -12.5 143.5t-30 101.5t-45.5 67t-69 38.5t-91 18t-119 4.5h-360v-655h231q59 0 96 10t68.5 39.5t45.5 89t14 153.5h3v-585h-3
q0 84 -14.5 141.5t-45 89.5t-69.5 45.5t-95 13.5h-231v-770h337q167 0 236 16q132 32 187 152q45 100 49 276h3z" />
    <glyph glyph-name="edotaccent" unicode="&#x117;" horiz-adv-x="862" 
d="M364 1118q-36 36 -36 88t36 88t88 36t88 -36t36 -88t-36 -88t-88 -36t-88 36zM46 430q0 129 53 236t153 170.5t227 63.5q78 0 145 -31t110 -83q86 -105 86 -206q0 -44 -15.5 -62t-58.5 -18h-516q0 -158 25 -254q18 -67 64.5 -116t105.5 -71t124 -19t120 30.5t94.5 86.5
t47.5 141h3q-13 -143 -106 -228.5t-232 -85.5q-128 0 -227 61t-151 162t-52 223zM231 503h350q40 0 53.5 21.5t13.5 75.5q0 45 -3 81.5t-15 78.5t-31.5 70.5t-55.5 47.5t-85 19q-59 0 -104 -39.5t-70 -102.5t-37.5 -126t-15.5 -126z" />
    <glyph glyph-name="Eogonek" unicode="&#x118;" horiz-adv-x="1434" 
d="M964 0h-892v3h192v1428h-192v3h1120l10 -376h-3q-3 84 -12.5 143.5t-30 101.5t-45.5 67t-69 38.5t-91 18t-119 4.5h-360v-655h231q59 0 96 10t68.5 39.5t45.5 89t14 153.5h3v-585h-3q0 84 -14.5 141.5t-45 89.5t-69.5 45.5t-95 13.5h-231v-770h337q167 0 236 16
q132 32 187 152q45 100 49 276h3l-6 -447h-308q-36 -30 -60.5 -53t-54 -57t-45 -70t-15.5 -73q0 -73 54.5 -126.5t128.5 -53.5q58 0 104.5 37.5t46.5 96.5h4q0 -89 -55 -159t-150 -70q-75 0 -141 53.5t-70 124.5q-1 29 5 58.5t15 52t28.5 49.5t33 43t41.5 42t40.5 37
t44 36.5t39.5 31.5z" />
    <glyph glyph-name="eogonek" unicode="&#x119;" horiz-adv-x="862" 
d="M45 430q0 129 53 236t153 170.5t227 63.5q78 0 145 -31t110 -83q86 -105 86 -206q0 -44 -15.5 -62t-58.5 -18h-516q0 -158 25 -254q18 -67 64.5 -116t105.5 -71t124 -19t120 30.5t94.5 86.5t47.5 141h3q-17 -180 -153 -264q-208 -170 -208 -267q0 -67 50.5 -116.5
t118.5 -49.5q54 0 96.5 35t42.5 89h3q0 -82 -50 -146.5t-138 -64.5q-69 0 -129.5 49.5t-64.5 114.5q-1 23 3 46t16.5 46.5t23 42.5t33.5 43.5t35.5 38t41 38t38.5 33.5t40.5 33t34.5 27q-78 -42 -172 -42q-128 0 -227 61t-151 162t-52 223zM230 503h350q40 0 53.5 21.5
t13.5 75.5q0 45 -3 81.5t-15 78.5t-31.5 70.5t-55.5 47.5t-85 19q-59 0 -104 -39.5t-70 -102.5t-37.5 -126t-15.5 -126z" />
    <glyph glyph-name="Ecaron" unicode="&#x11a;" horiz-adv-x="1326" 
d="M635 1564l-301 324h5l347 -374l341 374h5l-346 -379zM1278 0h-1206v3h192v1428h-192v3h1120l10 -376h-3q-3 84 -12.5 143.5t-30 101.5t-45.5 67t-69 38.5t-91 18t-119 4.5h-360v-655h231q59 0 96 10t68.5 39.5t45.5 89t14 153.5h3v-585h-3q0 84 -14.5 141.5t-45 89.5
t-69.5 45.5t-95 13.5h-231v-770h337q167 0 236 16q132 32 187 152q45 100 49 276h3z" />
    <glyph glyph-name="ecaron" unicode="&#x11b;" horiz-adv-x="862" 
d="M453 979l-287 455h4l283 -449l279 449h4l-233 -374zM46 430q0 129 53 236t153 170.5t227 63.5q78 0 145 -31t110 -83q86 -105 86 -206q0 -44 -15.5 -62t-58.5 -18h-516q0 -158 25 -254q18 -67 64.5 -116t105.5 -71t124 -19t120 30.5t94.5 86.5t47.5 141h3
q-13 -143 -106 -228.5t-232 -85.5q-128 0 -227 61t-151 162t-52 223zM231 503h350q40 0 53.5 21.5t13.5 75.5q0 45 -3 81.5t-15 78.5t-31.5 70.5t-55.5 47.5t-85 19q-59 0 -104 -39.5t-70 -102.5t-37.5 -126t-15.5 -126z" />
    <glyph glyph-name="Gcircumflex" unicode="&#x11c;" horiz-adv-x="1460" 
d="M460 1564h-4l298 324l49 54l351 -378h-4l-347 374zM96 712q0 134 37.5 254.5t104.5 211.5q96 133 242.5 208.5t303.5 75.5q147 0 261 -48q71 -29 127 -29q109 0 109 77h3v-471h-3q0 106 -28 188.5t-74 134.5t-111.5 85.5t-134.5 47t-149 13.5q-217 0 -336 -229
q-62 -119 -90 -237t-28 -282q0 -366 116.5 -551.5t337.5 -185.5q150 0 235 112t85 279v195h-282v3h716v-3h-214l-1 -561h-3q-18 39 -40.5 56.5t-58.5 17.5q-48 0 -141 -33q-103 -38 -167 -53.5t-129 -15.5q-131 0 -254 50.5t-220 143.5q-98 93 -156 235q-58 141 -58 311z
" />
    <glyph glyph-name="gcircumflex" unicode="&#x11d;" horiz-adv-x="1060" 
d="M78 -376q0 144 214 252q-45 0 -89 16q-46 13 -76.5 53t-32.5 109q0 96 47 172t128 114v4q-125 95 -125 240q0 136 105 226t253 90q83 0 155 -30t123 -84q44 62 75 87q31 27 81 27q58 0 92 -35.5t34 -90.5q0 -33 -18.5 -56.5t-47.5 -23.5q-31 0 -47 30t-18.5 66.5
t-11 66.5t-26.5 30q-23 0 -54 -32t-57 -72q78 -74 78 -199q0 -136 -105 -226t-253 -90q-49 0 -112.5 22t-114.5 50q-64 -27 -108.5 -82.5t-58.5 -117.5q-7 -30 27 -53.5t84.5 -35t100.5 -11.5q46 0 161 15q113 15 161 15q136 0 204 -74t68 -209q0 -174 -129 -295
q-130 -122 -329 -122q-70 0 -135.5 15t-121 44.5t-88.5 80t-33 114.5zM713 -474q73 92 73 200q0 74 -46 127t-149 53q-42 0 -133 -8.5t-164 -21.5q-92 -53 -130 -86q-83 -74 -83 -166q0 -71 38.5 -121t98.5 -71t134 -24.5t144 11t129 42.5t88 65zM308 581q0 -49 3 -87.5
t15 -82.5t32 -72.5t57 -48t87 -19.5t87 20.5t57 50t32 74.5t15 82t3 83q0 59 -9 110.5t-29.5 100t-60.5 77t-95 28.5q-59 0 -100 -29.5t-60 -80.5t-26.5 -100t-7.5 -106zM258 1060h-4l233 374l49 79l288 -453h-4l-284 447z" />
    <glyph glyph-name="Gbreve" unicode="&#x11e;" horiz-adv-x="1460" 
d="M436 1886h3q32 -105 123 -161.5t212 -56.5q118 0 211.5 56.5t125.5 161.5h3q-32 -155 -119 -234.5t-221 -79.5q-133 0 -219 79t-119 235zM96 712q0 134 37.5 254.5t104.5 211.5q96 133 242.5 208.5t303.5 75.5q147 0 261 -48q71 -29 127 -29q109 0 109 77h3v-471h-3
q0 106 -28 188.5t-74 134.5t-111.5 85.5t-134.5 47t-149 13.5q-217 0 -336 -229q-62 -119 -90 -237t-28 -282q0 -366 116.5 -551.5t337.5 -185.5q150 0 235 112t85 279v195h-282v3h716v-3h-214l-1 -561h-3q-18 39 -40.5 56.5t-58.5 17.5q-48 0 -141 -33q-103 -38 -167 -53.5
t-129 -15.5q-131 0 -254 50.5t-220 143.5q-98 93 -156 235q-58 141 -58 311z" />
    <glyph glyph-name="gbreve" unicode="&#x11f;" horiz-adv-x="1060" 
d="M78 -376q0 144 214 252q-45 0 -89 16q-46 13 -76.5 53t-32.5 109q0 96 47 172t128 114v4q-125 95 -125 240q0 136 105 226t253 90q83 0 155 -30t123 -84q44 62 75 87q31 27 81 27q58 0 92 -35.5t34 -90.5q0 -33 -18.5 -56.5t-47.5 -23.5q-31 0 -47 30t-18.5 66.5
t-11 66.5t-26.5 30q-23 0 -54 -32t-57 -72q78 -74 78 -199q0 -136 -105 -226t-253 -90q-49 0 -112.5 22t-114.5 50q-64 -27 -108.5 -82.5t-58.5 -117.5q-7 -30 27 -53.5t84.5 -35t100.5 -11.5q46 0 161 15q113 15 161 15q136 0 204 -74t68 -209q0 -174 -129 -295
q-130 -122 -329 -122q-70 0 -135.5 15t-121 44.5t-88.5 80t-33 114.5zM713 -474q73 92 73 200q0 74 -46 127t-149 53q-42 0 -133 -8.5t-164 -21.5q-92 -53 -130 -86q-83 -74 -83 -166q0 -71 38.5 -121t98.5 -71t134 -24.5t144 11t129 42.5t88 65zM308 581q0 -49 3 -87.5
t15 -82.5t32 -72.5t57 -48t87 -19.5t87 20.5t57 50t32 74.5t15 82t3 83q0 59 -9 110.5t-29.5 100t-60.5 77t-95 28.5q-59 0 -100 -29.5t-60 -80.5t-26.5 -100t-7.5 -106zM220 1394h3q20 -101 99 -155.5t194 -54.5t194 54.5t99 155.5h3q-17 -136 -93 -221t-203 -85
q-130 0 -205.5 87.5t-90.5 218.5z" />
    <glyph glyph-name="Gdotaccent" unicode="&#x120;" horiz-adv-x="1460" 
d="M705 1653q-27 27 -27 69t27 69t69 27t69 -27t27 -69t-27 -69t-69 -27t-69 27zM96 712q0 134 37.5 254.5t104.5 211.5q96 133 242.5 208.5t303.5 75.5q147 0 261 -48q71 -29 127 -29q109 0 109 77h3v-471h-3q0 106 -28 188.5t-74 134.5t-111.5 85.5t-134.5 47t-149 13.5
q-217 0 -336 -229q-62 -119 -90 -237t-28 -282q0 -366 116.5 -551.5t337.5 -185.5q150 0 235 112t85 279v195h-282v3h716v-3h-214l-1 -561h-3q-18 39 -40.5 56.5t-58.5 17.5q-48 0 -141 -33q-103 -38 -167 -53.5t-129 -15.5q-131 0 -254 50.5t-220 143.5q-98 93 -156 235
q-58 141 -58 311z" />
    <glyph glyph-name="gdotaccent" unicode="&#x121;" horiz-adv-x="1060" 
d="M78 -376q0 144 214 252q-45 0 -89 16q-46 13 -76.5 53t-32.5 109q0 96 47 172t128 114v4q-125 95 -125 240q0 136 105 226t253 90q83 0 155 -30t123 -84q44 62 75 87q31 27 81 27q58 0 92 -35.5t34 -90.5q0 -33 -18.5 -56.5t-47.5 -23.5q-31 0 -47 30t-18.5 66.5
t-11 66.5t-26.5 30q-23 0 -54 -32t-57 -72q78 -74 78 -199q0 -136 -105 -226t-253 -90q-49 0 -112.5 22t-114.5 50q-64 -27 -108.5 -82.5t-58.5 -117.5q-7 -30 27 -53.5t84.5 -35t100.5 -11.5q46 0 161 15q113 15 161 15q136 0 204 -74t68 -209q0 -174 -129 -295
q-130 -122 -329 -122q-70 0 -135.5 15t-121 44.5t-88.5 80t-33 114.5zM713 -474q73 92 73 200q0 74 -46 127t-149 53q-42 0 -133 -8.5t-164 -21.5q-92 -53 -130 -86q-83 -74 -83 -166q0 -71 38.5 -121t98.5 -71t134 -24.5t144 11t129 42.5t88 65zM308 581q0 -49 3 -87.5
t15 -82.5t32 -72.5t57 -48t87 -19.5t87 20.5t57 50t32 74.5t15 82t3 83q0 59 -9 110.5t-29.5 100t-60.5 77t-95 28.5q-59 0 -100 -29.5t-60 -80.5t-26.5 -100t-7.5 -106zM428 1118q-36 36 -36 88t36 88t88 36t88 -36t36 -88t-36 -88t-88 -36t-88 36z" />
    <glyph glyph-name="Gcommaaccent" unicode="&#x122;" horiz-adv-x="1460" 
d="M96 712q0 134 37.5 254.5t104.5 211.5q96 133 242.5 208.5t303.5 75.5q147 0 261 -48q71 -29 127 -29q109 0 109 77h3v-471h-3q0 106 -28 188.5t-74 134.5t-111.5 85.5t-134.5 47t-149 13.5q-217 0 -336 -229q-62 -119 -90 -237t-28 -282q0 -366 116.5 -551.5
t337.5 -185.5q150 0 235 112t85 279v195h-282v3h716v-3h-214l-1 -561h-3q-18 39 -40.5 56.5t-58.5 17.5q-48 0 -141 -33q-103 -38 -167 -53.5t-129 -15.5q-131 0 -254 50.5t-220 143.5q-98 93 -156 235q-58 141 -58 311zM686 -335q-37 37 -37 91q0 53 37.5 90.5t90.5 37.5
q65 0 99 -51t34 -116q0 -157 -136 -338l-1 1h-1q59 78 92 158.5t38 115.5t5 63q0 14 -2 32q-1 -54 -37 -87.5t-91 -33.5q-54 0 -91 37z" />
    <glyph glyph-name="gcommaaccent" unicode="&#x123;" horiz-adv-x="1060" 
d="M78 -376q0 144 214 252q-45 0 -89 16q-46 13 -76.5 53t-32.5 109q0 96 47 172t128 114v4q-125 95 -125 240q0 136 105 226t253 90q83 0 155 -30t123 -84q44 62 75 87q31 27 81 27q58 0 92 -35.5t34 -90.5q0 -33 -18.5 -56.5t-47.5 -23.5q-31 0 -47 30t-18.5 66.5
t-11 66.5t-26.5 30q-23 0 -54 -32t-57 -72q78 -74 78 -199q0 -136 -105 -226t-253 -90q-49 0 -112.5 22t-114.5 50q-64 -27 -108.5 -82.5t-58.5 -117.5q-7 -30 27 -53.5t84.5 -35t100.5 -11.5q46 0 161 15q113 15 161 15q136 0 204 -74t68 -209q0 -174 -129 -295
q-130 -122 -329 -122q-70 0 -135.5 15t-121 44.5t-88.5 80t-33 114.5zM713 -474q73 92 73 200q0 74 -46 127t-149 53q-42 0 -133 -8.5t-164 -21.5q-92 -53 -130 -86q-83 -74 -83 -166q0 -71 38.5 -121t98.5 -71t134 -24.5t144 11t129 42.5t88 65zM308 581q0 -49 3 -87.5
t15 -82.5t32 -72.5t57 -48t87 -19.5t87 20.5t57 50t32 74.5t15 82t3 83q0 59 -9 110.5t-29.5 100t-60.5 77t-95 28.5q-59 0 -100 -29.5t-60 -80.5t-26.5 -100t-7.5 -106zM595 1206q37 -37 37 -91q0 -53 -37.5 -90.5t-90.5 -37.5q-65 0 -99 51t-34 116q0 157 136 338
q1 0 1 -0.5t1 -0.5q-59 -78 -92 -158.5t-38 -115.5t-5 -63q0 -14 2 -32q1 54 36.5 87.5t91.5 33.5q54 0 91 -37z" />
    <glyph glyph-name="Hcircumflex" unicode="&#x124;" horiz-adv-x="1480" 
d="M446 1564h-4l298 324l49 54l351 -378h-4l-347 374zM664 0h-592v3h192v1428h-192v3h592v-3h-192v-655h576v655h-192v3h592v-3h-192v-1428h192v-3h-592v3h192v770h-576v-770h192v-3z" />
    <glyph glyph-name="hcircumflex" unicode="&#x125;" horiz-adv-x="1066" 
d="M258 1588h-4l233 374l49 79l288 -453h-4l-284 447zM476 0h-448v3h142v1490h-142v3h306v-982q7 178 84 276q86 110 240 110q124 0 193 -85q63 -78 63 -207v-605h142v-3h-448v3h142v641q0 103 -44.5 182t-118.5 64q-102 -21 -167 -102q-49 -62 -67.5 -153.5t-18.5 -222.5
v-409h142v-3z" />
    <glyph glyph-name="Hbar" unicode="&#x126;" horiz-adv-x="1480" 
d="M664 0h-592v3h192v1056h-192v3h192v369h-192v3h592v-3h-192v-369h576v369h-192v3h592v-3h-192v-369h192v-3h-192v-1056h192v-3h-592v3h192v770h-576v-770h192v-3zM472 776h576v283h-576v-283z" />
    <glyph glyph-name="hbar" unicode="&#x127;" horiz-adv-x="1068" 
d="M476 0h-448v3h142v1126h-118v3h118v361h-142v3h306v-364h416v-3h-416v-615q7 178 84 276q86 110 240 110q124 0 193 -85q63 -78 63 -207v-605h142v-3h-448v3h142v641q0 103 -44.5 182t-118.5 64q-102 -21 -167 -102q-49 -62 -67.5 -153.5t-18.5 -222.5v-409h142v-3z" />
    <glyph glyph-name="Itilde" unicode="&#x128;" horiz-adv-x="686" 
d="M-1 1634l-3 1q93 218 298 175q26 -5 90 -37t130 -58t112 -23q23 1 41.5 10.5t32 28.5t20.5 32t18 39l2 -1q-74 -183 -224 -183q-49 0 -103 21.5t-94 47t-93.5 47t-102.5 21.5q-45 0 -73.5 -33.5t-50.5 -87.5zM664 0h-592v3h192v1428h-192v3h592v-3h-192v-1428h192v-3z
" />
    <glyph glyph-name="itilde" unicode="&#x129;" horiz-adv-x="500" 
d="M-29 1103l-3 1q20 89 68 130t109 38t137 -40q92 -45 121 -53q108 -32 132 78l2 8l3 -1q-20 -89 -68 -130t-109 -38t-137 40q-12 6 -36.5 19t-39 20.5t-37 16.5t-37.5 11t-33 -0.5t-30.5 -14t-23.5 -32.5t-18 -53zM482 0h-448v3h142v878h-142v3h306v-881h142v-3z" />
    <glyph glyph-name="Imacron" unicode="&#x12a;" horiz-adv-x="686" 
d="M664 1678h-592v3h592v-3zM664 0h-592v3h192v1428h-192v3h592v-3h-192v-1428h192v-3z" />
    <glyph glyph-name="imacron" unicode="&#x12b;" horiz-adv-x="500" 
d="M492 1134h-512v3h512v-3zM482 0h-448v3h142v878h-142v3h306v-881h142v-3z" />
    <glyph glyph-name="Ibreve" unicode="&#x12c;" horiz-adv-x="686" 
d="M26 1886h3q32 -105 123 -161.5t212 -56.5q118 0 211.5 56.5t125.5 161.5h3q-32 -155 -119 -234.5t-221 -79.5q-133 0 -219 79t-119 235zM664 0h-592v3h192v1428h-192v3h592v-3h-192v-1428h192v-3z" />
    <glyph glyph-name="ibreve" unicode="&#x12d;" horiz-adv-x="500" 
d="M-40 1387h3q23 -94 99.5 -145.5t173.5 -51.5t173.5 51.5t99.5 145.5h3q-18 -140 -90 -216.5t-186 -76.5t-186 76.5t-90 216.5zM482 0h-448v3h142v878h-142v3h306v-881h142v-3z" />
    <glyph glyph-name="Iogonek" unicode="&#x12e;" horiz-adv-x="1434" 
d="M467 0h-395v3h192v1428h-192v3h592v-3h-192v-1428h192v-3h-191q-36 -30 -60.5 -53t-54 -57t-45 -70t-15.5 -73q0 -73 54.5 -126.5t128.5 -53.5q58 0 104.5 37.5t46.5 96.5h4q0 -89 -55 -159t-150 -70q-75 0 -141 53.5t-70 124.5q-1 29 5 58.5t15 52t28.5 49.5t33 43
t41.5 42t40.5 37t44 36.5t39.5 31.5z" />
    <glyph glyph-name="iogonek" unicode="&#x12f;" horiz-adv-x="500" 
d="M109 -322q-1 27 4.5 54t13.5 47.5t26.5 46t30 40t38 38.5t37.5 33t41 33.5t36 29.5h-302v3h142v878h-142v3h306v-881h142v-3h-141q-34 -28 -56 -49t-49.5 -52.5t-41.5 -64.5t-14 -67q0 -67 50.5 -116.5t118.5 -49.5q54 0 96.5 35t42.5 89h3q0 -82 -50 -146.5t-138 -64.5
q-69 0 -129.5 49.5t-64.5 114.5zM172 1270l-4 3l-11 14q-2 4 -4 6l-3 6l-4 8q-2 3 -4 9q0 1 -0.5 2.5t-0.5 2.5q-3 7 -5 24v5v8q0 12 1 18v2q1 3 1 7q5 16 6 19q2 8 6 13q2 5 13 20l5 5l4 4q8 8 19 16q1 1 4 2.5t4 2.5q1 0 2 1l8 4l14 5q18 5 37 5q15 0 30 -3q6 -1 11 -4
l9 -3q3 -2 9 -4q0 -1 2 -1l4 -3q9 -5 19 -15l4 -3q1 -1 16 -19q8 -13 12 -23l5 -16q0 -4 1 -5q0 -2 0.5 -6t0.5 -6q0 -1 1 -3v-2v-8q0 -9 -1 -13q0 -5 -1 -8l-3 -16l-2 -5l-3 -9l-5 -10q-1 -1 -2.5 -4t-2.5 -4l-8 -10q-1 -2 -5 -6l-3 -3l-9 -9l-14 -10l-4 -2l-2 -1
q-9 -5 -22 -9l-10 -3q-1 0 -4 -0.5t-5 -0.5q-1 0 -3 -1h-2h-5h-8h-8q-3 0 -7 0.5t-6 0.5l-9 2q-7 1 -21 7l-8 4q-2 0 -2 1q-15 7 -27 21z" />
    <glyph glyph-name="Idot" unicode="&#x130;" horiz-adv-x="686" 
d="M295 1653q-27 27 -27 69t27 69t69 27t69 -27t27 -69t-27 -69t-69 -27t-69 27zM664 0h-592v3h192v1428h-192v3h592v-3h-192v-1428h192v-3z" />
    <glyph glyph-name="dotlessi" unicode="&#x131;" horiz-adv-x="500" 
d="M482 0h-448v3h142v878h-142v3h306v-881h142v-3z" />
    <glyph glyph-name="IJ" unicode="&#x132;" horiz-adv-x="1527" 
d="M742 192q0 55 37 96q37 42 93 42q47 0 74.5 -27t27.5 -70q0 -20 -10.5 -41t-19.5 -31t-30 -29.5t-23 -21.5q-40 -44 -9.5 -84.5t86.5 -40.5q32 0 60 28.5t44 69t24.5 80t7.5 65.5v1203h-192v3h592v-3h-192v-1045q0 -61 -10.5 -116.5t-35.5 -109t-63.5 -92.5t-98.5 -62.5
t-136 -23.5q-98 0 -162 55t-64 155zM664 0h-592v3h192v1428h-192v3h592v-3h-192v-1428h192v-3z" />
    <glyph glyph-name="ij" unicode="&#x133;" horiz-adv-x="980" 
d="M482 0h-448v3h142v878h-142v3h306v-881h142v-3zM172 1270q-36 36 -36 88t36 88t88 36t88 -36t36 -88t-36 -88t-88 -36t-88 36zM336 -404q0 59 27.5 92t71.5 33q35 0 55.5 -19t20.5 -55q0 -29 -7.5 -66.5t-15.5 -65.5t-11 -56.5t3.5 -46.5t30.5 -28t67 -8q110 5 110 295
v1210h-142v3h306v-1043q0 -220 -79 -344q-78 -125 -212 -125q-92 0 -158 63q-67 61 -67 161zM670 1270q-36 36 -36 88t36 88t88 36t88 -36t36 -88t-36 -88t-88 -36t-88 36z" />
    <glyph glyph-name="Jcircumflex" unicode="&#x134;" horiz-adv-x="830" 
d="M158 1564h-4l298 324l49 54l351 -378h-4l-347 374zM46 192q0 55 37 96q37 42 93 42q47 0 74.5 -27t27.5 -70q0 -20 -10.5 -41t-19.5 -31t-30 -29.5t-23 -21.5q-40 -44 -9.5 -84.5t86.5 -40.5q32 0 60 28.5t44 69t24.5 80t7.5 65.5v1203h-192v3h592v-3h-192v-1045
q0 -61 -10.5 -116.5t-35.5 -109t-63.5 -92.5t-98.5 -62.5t-136 -23.5q-98 0 -162 55t-64 155z" />
    <glyph glyph-name="jcircumflex" unicode="&#x135;" horiz-adv-x="480" 
d="M8 1060h-4l213 374l48 85l269 -459h-4l-265 453zM-164 -404q0 59 27.5 92t71.5 33q35 0 55.5 -19t20.5 -55q0 -29 -7.5 -66.5t-15.5 -65.5t-11 -56.5t3.5 -46.5t30.5 -28t67 -8q110 5 110 295v1210h-142v3h306v-1043q0 -220 -79 -344q-78 -125 -212 -125q-92 0 -158 63
q-67 61 -67 161z" />
    <glyph glyph-name="Kcommaaccent" unicode="&#x136;" horiz-adv-x="1498" 
d="M664 0h-592v3h192v1428h-192v3h592v-3h-192v-714l102 47l511 667h-272v3h505v-3h-229l-377 -492l637 -936h175v-3h-681v3h240l-508 758l-103 -47v-711h192v-3zM680 -335q-37 37 -37 91q0 53 37.5 90.5t90.5 37.5q65 0 99 -51t34 -116q0 -157 -136 -338l-1 1h-1
q59 78 92 158.5t38 115.5t5 63q0 14 -2 32q-1 -54 -37 -87.5t-91 -33.5q-54 0 -91 37z" />
    <glyph glyph-name="kcommaaccent" unicode="&#x137;" horiz-adv-x="1056" 
d="M476 0h-448v3h142v1490h-142v3h306v-1024h97l293 409h-176v3h354v-3h-175l-195 -274l396 -604h126v-3h-496v3h165l-292 466h-97v-466h142v-3zM422 -335q-37 37 -37 91q0 53 37.5 90.5t90.5 37.5q65 0 99 -51t34 -116q0 -157 -136 -338l-1 1h-1q59 78 92 158.5t38 115.5
t5 63q0 14 -2 32q-1 -54 -37 -87.5t-91 -33.5q-54 0 -91 37z" />
    <glyph glyph-name="kgreenlandic" unicode="&#x138;" horiz-adv-x="1062" 
d="M482 0h-448v3h142v878h-142v3h306v-413h111l309 410h-206v3h354v-3h-144l-217 -288l387 -590h126v-3h-496v3h185l-299 465h-110v-465h142v-3z" />
    <glyph glyph-name="Lacute" unicode="&#x139;" horiz-adv-x="1276" 
d="M318 1572q132 134 201 201t89.5 83t35.5 22q70 29 101 -22q14 -25 9.5 -50.5t-24.5 -45.5q-11 -12 -34.5 -25t-112.5 -52t-265 -111zM1232 0h-1160v3h192v1428h-192v3h592v-3h-192v-1428h298q88 0 150 8t116.5 30.5t90 60t62.5 97.5t41.5 143.5t20.5 197.5h3z" />
    <glyph glyph-name="lacute" unicode="&#x13a;" horiz-adv-x="494" 
d="M150 1562l-3 1l91 298q31 101 103 101q31 0 50 -19t19 -47q0 -53 -51 -108zM476 0h-448v3h142v1490h-142v3h306v-1493h142v-3z" />
    <glyph glyph-name="Lcommaaccent" unicode="&#x13b;" horiz-adv-x="1276" 
d="M1232 0h-1160v3h192v1428h-192v3h592v-3h-192v-1428h298q88 0 150 8t116.5 30.5t90 60t62.5 97.5t41.5 143.5t20.5 197.5h3zM596 -335q-37 37 -37 91q0 53 37.5 90.5t90.5 37.5q65 0 99 -51t34 -116q0 -157 -136 -338l-1 1h-1q59 78 92 158.5t38 115.5t5 63q0 14 -2 32
q-1 -54 -37 -87.5t-91 -33.5q-54 0 -91 37z" />
    <glyph glyph-name="lcommaaccent" unicode="&#x13c;" horiz-adv-x="494" 
d="M476 0h-448v3h142v1490h-142v3h306v-1493h142v-3zM154 -335q-37 37 -37 91q0 53 37.5 90.5t90.5 37.5q65 0 99 -51t34 -116q0 -157 -136 -338l-1 1h-1q59 78 92 158.5t38 115.5t5 63q0 14 -2 32q-1 -54 -37 -87.5t-91 -33.5q-54 0 -91 37z" />
    <glyph glyph-name="Lcaron" unicode="&#x13d;" horiz-adv-x="1276" 
d="M1232 0h-1160v3h192v1428h-192v3h592v-3h-192v-1428h298q88 0 150 8t116.5 30.5t90 60t62.5 97.5t41.5 143.5t20.5 197.5h3zM1001 1295q-37 37 -37 91q0 53 37.5 90.5t90.5 37.5q65 0 99 -51t34 -116q0 -157 -136 -338q-1 0 -1 0.5t-1 0.5q59 78 92 158.5t38 115.5t5 63
q0 14 -2 32q-1 -54 -37 -87.5t-91 -33.5q-54 0 -91 37z" />
    <glyph glyph-name="lcaron" unicode="&#x13e;" horiz-adv-x="616" 
d="M476 0h-448v3h142v1490h-142v3h306v-1493h142v-3zM428 1295q-37 37 -37 91q0 53 37.5 90.5t90.5 37.5q65 0 99 -51t34 -116q0 -157 -136 -338l-1 1h-1q59 78 92 158.5t38 115.5t5 63q0 14 -2 32q-1 -54 -37 -87.5t-91 -33.5q-54 0 -91 37z" />
    <glyph glyph-name="Ldot" unicode="&#x13f;" horiz-adv-x="1276" 
d="M977 733q-37 37 -37 91t37 91t91 37t91 -37t37 -91t-37 -91t-91 -37t-91 37zM1232 0h-1160v3h192v1428h-192v3h592v-3h-192v-1428h298q88 0 150 8t116.5 30.5t90 60t62.5 97.5t41.5 143.5t20.5 197.5h3z" />
    <glyph glyph-name="ldot" unicode="&#x140;" horiz-adv-x="739" 
d="M527 628q-36 36 -36 88t36 88t88 36t88 -36t36 -88t-36 -88t-88 -36t-88 36zM476 0h-448v3h142v1490h-142v3h306v-1493h142v-3z" />
    <glyph glyph-name="Lslash" unicode="&#x141;" horiz-adv-x="1276" 
d="M1232 0h-1160v3h192v605l-224 -162l-2 4l226 164v817h-192v3h592v-3h-192v-667l413 300l2 -3l-415 -302v-756h298q88 0 150 8t116.5 30.5t90 60t62.5 97.5t41.5 143.5t20.5 197.5h3z" />
    <glyph glyph-name="lslash" unicode="&#x142;" horiz-adv-x="496" 
d="M476 0h-448v3h142v723l-232 -133l-2 3l234 134v763h-142v3h306v-671l228 131l2 -3l-230 -132v-818h142v-3z" />
    <glyph glyph-name="Nacute" unicode="&#x143;" horiz-adv-x="1426" 
d="M630 1572q132 134 201 201t89.5 83t35.5 22q70 29 101 -22q14 -25 9.5 -50.5t-24.5 -45.5q-11 -12 -34.5 -25t-112.5 -52t-265 -111zM463 0h-411v3h204v1428h-204v3h437l671 -1103v1100h-204v3h411v-3h-204v-1459h-3l-878 1399q-17 29 -17 60h-6v-1428h204v-3z" />
    <glyph glyph-name="nacute" unicode="&#x144;" horiz-adv-x="1072" 
d="M482 0h-448v3h142v878h-142v3h306v-242q49 115 136.5 186.5t187.5 71.5q124 0 193 -85q63 -78 63 -207v-605h142v-3h-448v3h142v641q0 66 -12.5 118t-46 88.5t-85.5 36.5q-41 0 -98.5 -35.5t-97.5 -87.5q-23 -30 -37 -52.5t-25 -45.5t-14 -29v-634h142v-3zM446 1062l-3 1
l91 298q31 101 103 101q31 0 50 -19t19 -47q0 -53 -51 -108z" />
    <glyph glyph-name="Ncommaaccent" unicode="&#x145;" horiz-adv-x="1426" 
d="M463 0h-411v3h204v1428h-204v3h437l671 -1103v1100h-204v3h411v-3h-204v-1459h-3l-878 1399q-17 29 -17 60h-6v-1428h204v-3zM674 -335q-37 37 -37 91q0 53 37.5 90.5t90.5 37.5q65 0 99 -51t34 -116q0 -157 -136 -338l-1 1h-1q59 78 92 158.5t38 115.5t5 63q0 14 -2 32
q-1 -54 -37 -87.5t-91 -33.5q-54 0 -91 37z" />
    <glyph glyph-name="ncommaaccent" unicode="&#x146;" horiz-adv-x="1072" 
d="M482 0h-448v3h142v878h-142v3h306v-242q49 115 136.5 186.5t187.5 71.5q124 0 193 -85q63 -78 63 -207v-605h142v-3h-448v3h142v641q0 66 -12.5 118t-46 88.5t-85.5 36.5q-41 0 -98.5 -35.5t-97.5 -87.5q-23 -30 -37 -52.5t-25 -45.5t-14 -29v-634h142v-3zM450 -335
q-37 37 -37 91q0 53 37.5 90.5t90.5 37.5q65 0 99 -51t34 -116q0 -157 -136 -338l-1 1h-1q59 78 92 158.5t38 115.5t5 63q0 14 -2 32q-1 -54 -37 -87.5t-91 -33.5q-54 0 -91 37z" />
    <glyph glyph-name="Ncaron" unicode="&#x147;" horiz-adv-x="1426" 
d="M721 1564l-301 324h5l347 -374l341 374h5l-346 -379zM463 0h-411v3h204v1428h-204v3h437l671 -1103v1100h-204v3h411v-3h-204v-1459h-3l-878 1399q-17 29 -17 60h-6v-1428h204v-3z" />
    <glyph glyph-name="ncaron" unicode="&#x148;" horiz-adv-x="1072" 
d="M482 0h-448v3h142v878h-142v3h306v-242q49 115 136.5 186.5t187.5 71.5q124 0 193 -85q63 -78 63 -207v-605h142v-3h-448v3h142v641q0 66 -12.5 118t-46 88.5t-85.5 36.5q-41 0 -98.5 -35.5t-97.5 -87.5q-23 -30 -37 -52.5t-25 -45.5t-14 -29v-634h142v-3zM527 979
l-287 455h4l283 -449l279 449h4l-233 -374z" />
    <glyph glyph-name="napostrophe" unicode="&#x149;" horiz-adv-x="1382" 
d="M710 0h-448v3h142v878h-142v3h306v-242q49 115 136.5 186.5t187.5 71.5q124 0 193 -85q63 -78 63 -207v-605h142v-3h-448v3h142v641q0 66 -12.5 118t-46 88.5t-85.5 36.5q-41 0 -98.5 -35.5t-97.5 -87.5q-23 -30 -37 -52.5t-25 -45.5t-14 -29v-634h142v-3zM67 1295
q-37 37 -37 91q0 53 37.5 90.5t90.5 37.5q65 0 99 -51t34 -116q0 -157 -136 -338q-1 0 -1 0.5t-1 0.5q59 78 92 158.5t38 115.5t5 63q0 14 -2 32q-1 -54 -37 -87.5t-91 -33.5q-54 0 -91 37z" />
    <glyph glyph-name="Eng" unicode="&#x14a;" horiz-adv-x="1426" 
d="M463 0h-411v3h204v1428h-204v3h437l671 -1103v1100h-204v3h411v-3h-204v-1655q0 -33 -1 -55.5t-5 -57.5t-11.5 -59t-21.5 -52t-34.5 -44.5t-51.5 -28t-70 -11.5q-108 0 -175 52q-68 51 -68 151q0 55 29.5 90t76.5 35q42 0 62.5 -24.5t20.5 -63.5q0 -23 -16 -65.5
t-16 -64.5q0 -36 21.5 -71.5t64.5 -35.5q44 0 77.5 13.5t53.5 38.5t33 52t18.5 63t7.5 62t2 58v214l-878 1399q-17 29 -17 60h-6v-1428h204v-3z" />
    <glyph glyph-name="eng" unicode="&#x14b;" horiz-adv-x="994" 
d="M482 0h-448v3h142v878h-142v3h306v-242q49 115 136.5 186.5t187.5 71.5q124 0 193 -85q63 -78 63 -207v-806q0 -213 -81.5 -322.5t-230.5 -109.5q-95 0 -168.5 57.5t-73.5 152.5q0 59 28 93t71 34q35 0 55.5 -19t20.5 -55q0 -23 -9.5 -68.5t-9.5 -70.5q0 -48 19.5 -84.5
t66.5 -36.5q27 0 48.5 4.5t36.5 15.5t26 22t18 32t11 37t5.5 45t2 48.5t0.5 54.5v1012q0 66 -12.5 118t-46 88.5t-85.5 36.5q-41 0 -98.5 -35.5t-97.5 -87.5q-23 -30 -37 -52.5t-25 -45.5t-14 -29v-634h142v-3z" />
    <glyph glyph-name="Omacron" unicode="&#x14c;" horiz-adv-x="1518" 
d="M1086 1678h-604v3h604v-3zM96 712q0 148 51.5 285t141 239.5t219 164t276.5 61.5q151 0 281.5 -63t218.5 -168t138 -240t50 -279q0 -149 -52 -285t-142 -236.5t-219 -159.5t-275 -59q-151 0 -281.5 61.5t-218.5 164.5t-138 236.5t-50 277.5zM330 712q0 -345 117 -541
t337 -196q101 0 178.5 33.5t129.5 95t85 154t47 203.5t14 251q0 73 -4.5 141t-18 144.5t-34.5 141t-56.5 125t-81.5 102.5t-112.5 67.5t-146.5 25.5t-146.5 -25t-112.5 -67t-81.5 -102.5t-56.5 -125t-34.5 -141.5t-18 -144.5t-4.5 -141.5z" />
    <glyph glyph-name="omacron" unicode="&#x14d;" horiz-adv-x="940" 
d="M758 1134h-576v3h576v-3zM168 114q-122 131 -122 328t122 328q123 130 302 130q180 0 301 -130q123 -131 123 -328q0 -198 -123 -328q-121 -130 -301 -130q-179 0 -302 130zM232 442q0 -455 238 -455t238 455t-238 455t-238 -455z" />
    <glyph glyph-name="Obreve" unicode="&#x14e;" horiz-adv-x="1518" 
d="M446 1886h3q32 -105 123 -161.5t212 -56.5q118 0 211.5 56.5t125.5 161.5h3q-32 -155 -119 -234.5t-221 -79.5q-133 0 -219 79t-119 235zM96 712q0 148 51.5 285t141 239.5t219 164t276.5 61.5q151 0 281.5 -63t218.5 -168t138 -240t50 -279q0 -149 -52 -285t-142 -236.5
t-219 -159.5t-275 -59q-151 0 -281.5 61.5t-218.5 164.5t-138 236.5t-50 277.5zM330 712q0 -345 117 -541t337 -196q101 0 178.5 33.5t129.5 95t85 154t47 203.5t14 251q0 73 -4.5 141t-18 144.5t-34.5 141t-56.5 125t-81.5 102.5t-112.5 67.5t-146.5 25.5t-146.5 -25
t-112.5 -67t-81.5 -102.5t-56.5 -125t-34.5 -141.5t-18 -144.5t-4.5 -141.5z" />
    <glyph glyph-name="obreve" unicode="&#x14f;" horiz-adv-x="940" 
d="M174 1394h3q20 -101 99 -155.5t194 -54.5t194 54.5t99 155.5h3q-17 -136 -93 -221t-203 -85q-130 0 -205.5 87.5t-90.5 218.5zM168 114q-122 131 -122 328t122 328q123 130 302 130q180 0 301 -130q123 -131 123 -328q0 -198 -123 -328q-121 -130 -301 -130
q-179 0 -302 130zM232 442q0 -455 238 -455t238 455t-238 455t-238 -455z" />
    <glyph glyph-name="Ohungarumlaut" unicode="&#x150;" horiz-adv-x="1518" 
d="M608 1568l-2 2l169 254q28 37 48.5 50.5t51.5 13.5q24 0 38.5 -18t14.5 -40q0 -42 -70 -94zM898 1568l-2 2l169 254q28 37 48.5 50.5t51.5 13.5q24 0 38.5 -18t14.5 -40q0 -42 -70 -94zM96 712q0 148 51.5 285t141 239.5t219 164t276.5 61.5q151 0 281.5 -63t218.5 -168
t138 -240t50 -279q0 -149 -52 -285t-142 -236.5t-219 -159.5t-275 -59q-151 0 -281.5 61.5t-218.5 164.5t-138 236.5t-50 277.5zM330 712q0 -345 117 -541t337 -196q101 0 178.5 33.5t129.5 95t85 154t47 203.5t14 251q0 73 -4.5 141t-18 144.5t-34.5 141t-56.5 125
t-81.5 102.5t-112.5 67.5t-146.5 25.5t-146.5 -25t-112.5 -67t-81.5 -102.5t-56.5 -125t-34.5 -141.5t-18 -144.5t-4.5 -141.5z" />
    <glyph glyph-name="ohungarumlaut" unicode="&#x151;" horiz-adv-x="940" 
d="M316 1062l-3 1l91 298q31 101 103 101q31 0 50 -19t19 -47q0 -53 -51 -108zM590 1062l-3 1l91 298q31 101 103 101q31 0 50 -19t19 -47q0 -53 -51 -108zM168 114q-122 131 -122 328t122 328q123 130 302 130q180 0 301 -130q123 -131 123 -328q0 -198 -123 -328
q-121 -130 -301 -130q-179 0 -302 130zM232 442q0 -455 238 -455t238 455t-238 455t-238 -455z" />
    <glyph glyph-name="OE" unicode="&#x152;" horiz-adv-x="1994" 
d="M96 712q0 148 51.5 285t141 239.5t219 164t276.5 61.5q91 0 155 -28h921l10 -376h-3q-3 84 -12.5 143.5t-30 101.5t-45.5 67t-69 38.5t-91 18t-119 4.5h-360v-655h231q59 0 96 10t68.5 39.5t45.5 89t14 153.5h3v-585h-3q0 84 -14.5 141.5t-45 89.5t-69.5 45.5t-95 13.5
h-231v-770h337q167 0 236 16q132 32 187 152q45 100 49 276h3l-6 -447h-1009q-62 -28 -153 -28q-151 0 -281.5 61.5t-218.5 164.5t-138 236.5t-50 277.5zM330 712q0 -345 117 -541t337 -196q89 0 148 28v1429q-57 27 -148 27q-80 0 -146.5 -25t-112.5 -67t-81.5 -102.5
t-56.5 -125t-34.5 -141.5t-18 -144.5t-4.5 -141.5z" />
    <glyph glyph-name="oe" unicode="&#x153;" horiz-adv-x="1456" 
d="M161 114q-115 130 -115 328t115 328q117 130 287 130t285 -130q19 -22 36 -45q55 82 137.5 128.5t184.5 46.5q73 0 136 -31t103 -83q80 -105 80 -206q0 -44 -14.5 -62t-54.5 -18h-484q0 -157 24 -254q17 -67 60.5 -116t98.5 -71t116 -19t113 30.5t89 86.5t44 141h2
q-11 -142 -98 -228t-218 -86q-104 0 -187 45t-136 125q-10 -14 -32 -40q-115 -130 -285 -130t-287 130zM222 442q0 -455 226 -455q225 0 225 455t-225 455q-226 0 -226 -455zM858 503h328q38 0 50.5 21.5t12.5 75.5q0 45 -3 81.5t-14 78.5t-29.5 70.5t-52 47.5t-79.5 19
q-55 0 -97.5 -39.5t-65.5 -102.5t-35 -126t-15 -126z" />
    <glyph glyph-name="Racute" unicode="&#x154;" horiz-adv-x="1390" 
d="M664 0h-592v3h192v1428h-192v3h604q112 0 200.5 -29.5t139.5 -82.5q100 -101 100 -239q0 -245 -284 -310q131 -21 233 -126q39 -40 60 -96t21 -113v-202q0 -134 34 -188t119 -54q45 0 128 26l1 -3q-100 -33 -209 -33q-100 0 -184 49q-97 58 -97 202v234q0 163 -54 230
q-58 74 -188 74h-224v-770h192v-3zM472 1431v-655h256q107 0 146 81q34 72 34 208q0 138 -55 247q-27 56 -77.5 87.5t-115.5 31.5h-188zM466 1572q132 134 201 201t89.5 83t35.5 22q70 29 101 -22q14 -25 9.5 -50.5t-24.5 -45.5q-11 -12 -34.5 -25t-112.5 -52t-265 -111z
" />
    <glyph glyph-name="racute" unicode="&#x155;" horiz-adv-x="784" 
d="M354 1062l-3 1l91 298q31 101 103 101q31 0 50 -19t19 -47q0 -53 -51 -108zM482 0h-448v3h142v878h-142v3h306v-210l10 -3q51 123 110 176q61 53 152 53q71 0 114.5 -45t43.5 -115q0 -52 -27 -93q-27 -39 -75 -39q-26 0 -44 15.5t-18 40.5q0 22 8 63t8 61
q0 36 -15.5 65.5t-51.5 29.5q-98 0 -173 -152q-30 -58 -36 -90t-6 -120v-518h142v-3z" />
    <glyph glyph-name="Rcommaaccent" unicode="&#x156;" horiz-adv-x="1390" 
d="M664 0h-592v3h192v1428h-192v3h604q112 0 200.5 -29.5t139.5 -82.5q100 -101 100 -239q0 -245 -284 -310q131 -21 233 -126q39 -40 60 -96t21 -113v-202q0 -134 34 -188t119 -54q45 0 128 26l1 -3q-100 -33 -209 -33q-100 0 -184 49q-97 58 -97 202v234q0 163 -54 230
q-58 74 -188 74h-224v-770h192v-3zM472 1431v-655h256q107 0 146 81q34 72 34 208q0 138 -55 247q-27 56 -77.5 87.5t-115.5 31.5h-188zM684 -335q-37 37 -37 91q0 53 37.5 90.5t90.5 37.5q65 0 99 -51t34 -116q0 -157 -136 -338l-1 1h-1q59 78 92 158.5t38 115.5t5 63
q0 14 -2 32q-1 -54 -37 -87.5t-91 -33.5q-54 0 -91 37z" />
    <glyph glyph-name="rcommaaccent" unicode="&#x157;" horiz-adv-x="784" 
d="M482 0h-448v3h142v878h-142v3h306v-210l10 -3q51 123 110 176q61 53 152 53q71 0 114.5 -45t43.5 -115q0 -52 -27 -93q-27 -39 -75 -39q-26 0 -44 15.5t-18 40.5q0 22 8 63t8 61q0 36 -15.5 65.5t-51.5 29.5q-98 0 -173 -152q-30 -58 -36 -90t-6 -120v-518h142v-3z
M160 -335q-37 37 -37 91q0 53 37.5 90.5t90.5 37.5q65 0 99 -51t34 -116q0 -157 -136 -338l-1 1h-1q59 78 92 158.5t38 115.5t5 63q0 14 -2 32q-1 -54 -37 -87.5t-91 -33.5q-54 0 -91 37z" />
    <glyph glyph-name="Rcaron" unicode="&#x158;" horiz-adv-x="1390" 
d="M664 0h-592v3h192v1428h-192v3h604q112 0 200.5 -29.5t139.5 -82.5q100 -101 100 -239q0 -245 -284 -310q131 -21 233 -126q39 -40 60 -96t21 -113v-202q0 -134 34 -188t119 -54q45 0 128 26l1 -3q-100 -33 -209 -33q-100 0 -184 49q-97 58 -97 202v234q0 163 -54 230
q-58 74 -188 74h-224v-770h192v-3zM472 1431v-655h256q107 0 146 81q34 72 34 208q0 138 -55 247q-27 56 -77.5 87.5t-115.5 31.5h-188zM557 1564l-301 324h5l347 -374l341 374h5l-346 -379z" />
    <glyph glyph-name="rcaron" unicode="&#x159;" horiz-adv-x="784" 
d="M435 979l-287 455h4l283 -449l279 449h4l-233 -374zM482 0h-448v3h142v878h-142v3h306v-210l10 -3q51 123 110 176q61 53 152 53q71 0 114.5 -45t43.5 -115q0 -52 -27 -93q-27 -39 -75 -39q-26 0 -44 15.5t-18 40.5q0 22 8 63t8 61q0 36 -15.5 65.5t-51.5 29.5
q-98 0 -173 -152q-30 -58 -36 -90t-6 -120v-518h142v-3z" />
    <glyph glyph-name="Sacute" unicode="&#x15a;" horiz-adv-x="1172" 
d="M486 1572q132 134 201 201t89.5 83t35.5 22q70 29 101 -22q14 -25 9.5 -50.5t-24.5 -45.5q-11 -12 -34.5 -25t-112.5 -52t-265 -111zM148 -28l-10 504h3q1 -141 69.5 -257t181.5 -180t245 -64q155 0 241 90q88 89 88 247q0 141 -84 214.5t-280 123.5q-144 36 -241 92
q-175 100 -179 307q0 185 115 299t317 114q92 0 164 -31q74 -30 101 -30q26 0 58 16.5t38 44.5h3l4 -371h-3q-2 85 -25.5 151t-60 106t-86 66t-98 35.5t-100.5 9.5q-78 0 -136 -26t-91 -70t-48.5 -94.5t-15.5 -107.5q0 -95 75 -161q37 -31 92.5 -56.5t85 -34t101.5 -27.5
q113 -31 189.5 -67.5t134.5 -89.5q118 -106 118 -309q0 -199 -138 -322q-139 -122 -339 -122q-121 0 -251 63q-39 18 -78 27.5t-76 8t-59.5 -26t-21.5 -72.5h-3z" />
    <glyph glyph-name="sacute" unicode="&#x15b;" horiz-adv-x="740" 
d="M298 1062l-3 1l91 298q31 101 103 101q31 0 50 -19t19 -47q0 -53 -51 -108zM78 -16h-2v348h3q0 -142 89.5 -243.5t209.5 -101.5q102 0 155 50.5t53 144.5q0 44 -12 67.5t-41 46.5q-52 43 -191 87q-123 38 -189 94q-75 63 -75 187q0 107 70 171q71 65 166 65q88 0 159 -35
q22 -10 48 -16t51.5 -5t42.5 15t17 41h3v-281h-3q-29 75 -70 149q-71 129 -248 129q-65 0 -98.5 -47.5t-33.5 -119.5q0 -28 6 -47.5t11.5 -27.5t19.5 -24q15 -15 31.5 -26.5t42 -22.5t37 -15.5t45 -16t37.5 -12.5q161 -56 227 -117q67 -61 67 -169q0 -120 -81 -194
q-80 -74 -247 -74q-67 0 -137 38q-25 13 -50 21.5t-52 10t-44 -16t-17 -53.5z" />
    <glyph glyph-name="Scircumflex" unicode="&#x15c;" horiz-adv-x="1172" 
d="M312 1564h-4l298 324l49 54l351 -378h-4l-347 374zM148 -28l-10 504h3q1 -141 69.5 -257t181.5 -180t245 -64q155 0 241 90q88 89 88 247q0 141 -84 214.5t-280 123.5q-144 36 -241 92q-175 100 -179 307q0 185 115 299t317 114q92 0 164 -31q74 -30 101 -30
q26 0 58 16.5t38 44.5h3l4 -371h-3q-2 85 -25.5 151t-60 106t-86 66t-98 35.5t-100.5 9.5q-78 0 -136 -26t-91 -70t-48.5 -94.5t-15.5 -107.5q0 -95 75 -161q37 -31 92.5 -56.5t85 -34t101.5 -27.5q113 -31 189.5 -67.5t134.5 -89.5q118 -106 118 -309q0 -199 -138 -322
q-139 -122 -339 -122q-121 0 -251 63q-39 18 -78 27.5t-76 8t-59.5 -26t-21.5 -72.5h-3z" />
    <glyph glyph-name="scircumflex" unicode="&#x15d;" horiz-adv-x="740" 
d="M120 1060h-4l233 374l49 79l288 -453h-4l-284 447zM78 -16h-2v348h3q0 -142 89.5 -243.5t209.5 -101.5q102 0 155 50.5t53 144.5q0 44 -12 67.5t-41 46.5q-52 43 -191 87q-123 38 -189 94q-75 63 -75 187q0 107 70 171q71 65 166 65q88 0 159 -35q22 -10 48 -16t51.5 -5
t42.5 15t17 41h3v-281h-3q-29 75 -70 149q-71 129 -248 129q-65 0 -98.5 -47.5t-33.5 -119.5q0 -28 6 -47.5t11.5 -27.5t19.5 -24q15 -15 31.5 -26.5t42 -22.5t37 -15.5t45 -16t37.5 -12.5q161 -56 227 -117q67 -61 67 -169q0 -120 -81 -194q-80 -74 -247 -74q-67 0 -137 38
q-25 13 -50 21.5t-52 10t-44 -16t-17 -53.5z" />
    <glyph glyph-name="Scedilla" unicode="&#x15e;" horiz-adv-x="1172" 
d="M148 -28l-10 504h3q1 -141 69.5 -257t181.5 -180t245 -64q155 0 241 90q88 89 88 247q0 141 -84 214.5t-280 123.5q-144 36 -241 92q-175 100 -179 307q0 185 115 299t317 114q92 0 164 -31q74 -30 101 -30q26 0 58 16.5t38 44.5h3l4 -371h-3q-2 85 -25.5 151t-60 106
t-86 66t-98 35.5t-100.5 9.5q-78 0 -136 -26t-91 -70t-48.5 -94.5t-15.5 -107.5q0 -95 75 -161q37 -31 92.5 -56.5t85 -34t101.5 -27.5q113 -31 189.5 -67.5t134.5 -89.5q118 -106 118 -309q0 -199 -138 -322q-134 -118 -324 -122l-83 -197q120 0 202.5 -47.5t82.5 -138.5
q0 -103 -68 -158.5t-171 -55.5q-94 0 -164 47q-34 24 -52 51t-19 49.5t6 41.5t20.5 30t27.5 11q23 0 36 -16.5t17 -41.5t11 -54.5t16.5 -54.5t35 -41.5t65.5 -16.5q64 0 97.5 61t33.5 147q0 98 -37 140.5t-145 42.5l84 201h-11q-121 0 -251 63q-39 18 -78 27.5t-76 8
t-59.5 -26t-21.5 -72.5h-3z" />
    <glyph glyph-name="scedilla" unicode="&#x15f;" horiz-adv-x="740" 
d="M78 -16h-2v348h3q0 -142 89.5 -243.5t209.5 -101.5q102 0 155 50.5t53 144.5q0 44 -12 67.5t-41 46.5q-52 43 -191 87q-123 38 -189 94q-75 63 -75 187q0 107 70 171q71 65 166 65q88 0 159 -35q22 -10 48 -16t51.5 -5t42.5 15t17 41h3v-281h-3q-29 75 -70 149
q-71 129 -248 129q-65 0 -98.5 -47.5t-33.5 -119.5q0 -28 6 -47.5t11.5 -27.5t19.5 -24q15 -15 31.5 -26.5t42 -22.5t37 -15.5t45 -16t37.5 -12.5q161 -56 227 -117q67 -61 67 -169q0 -120 -81 -194q-78 -72 -244 -74l-66 -158q96 0 162.5 -38t66.5 -112q0 -83 -54.5 -127.5
t-137.5 -44.5q-76 0 -132 38q-27 19 -41.5 41t-16 40t4.5 33.5t16.5 24t22.5 8.5q21 0 31.5 -18.5t15 -45.5t11.5 -53.5t28.5 -45t59.5 -18.5q51 0 78 49t27 118q0 79 -30 113.5t-116 34.5l67 161q-67 0 -137 38q-25 13 -50 21.5t-52 10t-44 -16t-17 -53.5z" />
    <glyph glyph-name="Scaron" unicode="&#x160;" horiz-adv-x="1172" 
d="M577 1564l-301 324h5l347 -374l341 374h5l-346 -379zM148 -28l-10 504h3q1 -141 69.5 -257t181.5 -180t245 -64q155 0 241 90q88 89 88 247q0 141 -84 214.5t-280 123.5q-144 36 -241 92q-175 100 -179 307q0 185 115 299t317 114q92 0 164 -31q74 -30 101 -30
q26 0 58 16.5t38 44.5h3l4 -371h-3q-2 85 -25.5 151t-60 106t-86 66t-98 35.5t-100.5 9.5q-78 0 -136 -26t-91 -70t-48.5 -94.5t-15.5 -107.5q0 -95 75 -161q37 -31 92.5 -56.5t85 -34t101.5 -27.5q113 -31 189.5 -67.5t134.5 -89.5q118 -106 118 -309q0 -199 -138 -322
q-139 -122 -339 -122q-121 0 -251 63q-39 18 -78 27.5t-76 8t-59.5 -26t-21.5 -72.5h-3z" />
    <glyph glyph-name="scaron" unicode="&#x161;" horiz-adv-x="740" 
d="M379 979l-287 455h4l283 -449l279 449h4l-233 -374zM78 -16h-2v348h3q0 -142 89.5 -243.5t209.5 -101.5q102 0 155 50.5t53 144.5q0 44 -12 67.5t-41 46.5q-52 43 -191 87q-123 38 -189 94q-75 63 -75 187q0 107 70 171q71 65 166 65q88 0 159 -35q22 -10 48 -16t51.5 -5
t42.5 15t17 41h3v-281h-3q-29 75 -70 149q-71 129 -248 129q-65 0 -98.5 -47.5t-33.5 -119.5q0 -28 6 -47.5t11.5 -27.5t19.5 -24q15 -15 31.5 -26.5t42 -22.5t37 -15.5t45 -16t37.5 -12.5q161 -56 227 -117q67 -61 67 -169q0 -120 -81 -194q-80 -74 -247 -74q-67 0 -137 38
q-25 13 -50 21.5t-52 10t-44 -16t-17 -53.5z" />
    <glyph glyph-name="Tcommaaccent" unicode="&#x162;" horiz-adv-x="1464" 
d="M87 895h-3l24 539h1308l24 -539h-3q-7 111 -19 190t-34.5 141t-54 99.5t-80.5 62t-109.5 34t-145.5 9.5h-128v-1428h192v-3h-281l-84 -199q120 0 202.5 -47.5t82.5 -138.5q0 -103 -68 -158.5t-171 -55.5q-94 0 -164 47q-34 24 -52 51t-19 49.5t6 41.5t20.5 30t27.5 11
q23 0 36 -16.5t17 -41.5t11 -54.5t16.5 -54.5t35 -41.5t65.5 -16.5q64 0 97.5 61t33.5 147q0 98 -37 140.5t-145 42.5l85 203h-307v3h192v1428h-128q-124 0 -201 -23t-129.5 -86t-77 -163t-35.5 -264z" />
    <glyph glyph-name="tcommaaccent" unicode="&#x163;" horiz-adv-x="670" 
d="M180 881h-174v3q89 0 155 23t104 64.5t56 92t18 110.5h3v-290h228v-3h-228v-691q0 -76 30 -133.5t84 -57.5q35 0 73 30t63 75q20 36 32.5 87t12.5 81h3q-4 -56 -19.5 -105.5t-44 -91.5t-74.5 -66.5t-105 -24.5q-13 0 -37 2l-61 -146q96 0 162.5 -38t66.5 -112
q0 -83 -54.5 -127.5t-137.5 -44.5q-76 0 -132 38q-27 19 -41.5 41t-16 40t4.5 33.5t16.5 24t22.5 8.5q21 0 31.5 -18.5t15 -45.5t11.5 -53.5t28.5 -45t59.5 -18.5q51 0 78 49t27 118q0 79 -30 113.5t-116 34.5l62 150q-79 10 -128 60.5t-49 148.5v685z" />
    <glyph glyph-name="Tcaron" unicode="&#x164;" horiz-adv-x="1464" 
d="M713 1564l-301 324h5l347 -374l341 374h5l-346 -379zM87 895h-3l24 539h1308l24 -539h-3q-7 111 -19 190t-34.5 141t-54 99.5t-80.5 62t-109.5 34t-145.5 9.5h-128v-1428h192v-3h-592v3h192v1428h-128q-124 0 -201 -23t-129.5 -86t-77 -163t-35.5 -264z" />
    <glyph glyph-name="tcaron" unicode="&#x165;" horiz-adv-x="670" 
d="M180 881h-174v3q89 0 155 23t104 64.5t56 92t18 110.5h3v-290h228v-3h-228v-691q0 -76 30 -133.5t84 -57.5q35 0 73 30t63 75q20 36 32.5 87t12.5 81h3q-4 -56 -19.5 -105.5t-44 -91.5t-74.5 -66.5t-105 -24.5q-93 0 -155 51t-62 161v685zM436 1295q-37 37 -37 91
q0 53 37.5 90.5t90.5 37.5q65 0 99 -51t34 -116q0 -157 -136 -338l-1 1h-1q59 78 92 158.5t38 115.5t5 63q0 14 -2 32q-1 -54 -37 -87.5t-91 -33.5q-54 0 -91 37z" />
    <glyph glyph-name="Tbar" unicode="&#x166;" horiz-adv-x="1474" 
d="M87 895h-3l24 539h1308l24 -539h-3q-7 111 -19 190t-34.5 141t-54 99.5t-80.5 62t-109.5 34t-145.5 9.5h-128v-682h276v-4h-276v-742h192v-3h-592v3h192v742h-277v4h277v682h-128q-124 0 -201 -23t-129.5 -86t-77 -163t-35.5 -264z" />
    <glyph glyph-name="tbar" unicode="&#x167;" horiz-adv-x="670" 
d="M180 881h-174v3q89 0 155 23t104 64.5t56 92t18 110.5h3v-290h228v-3h-228v-266h228v-4h-228v-421q0 -76 30 -133.5t84 -57.5q35 0 73 30t63 75q20 36 32.5 87t12.5 81h3q-4 -56 -19.5 -105.5t-44 -91.5t-74.5 -66.5t-105 -24.5q-93 0 -155 51t-62 161v415h-174v4h174
v266z" />
    <glyph glyph-name="Utilde" unicode="&#x168;" horiz-adv-x="1440" 
d="M413 1634l-3 1q93 218 298 175q26 -5 90 -37t130 -58t112 -23q23 1 41.5 10.5t32 28.5t20.5 32t18 39l2 -1q-74 -183 -224 -183q-49 0 -103 21.5t-94 47t-93.5 47t-102.5 21.5q-45 0 -73.5 -33.5t-50.5 -87.5zM230 1431h-192v3h592v-3h-192v-1118q0 -338 318 -338
q215 0 347 111t132 320v1025h-204v3h411v-3h-204v-1025q0 -108 -37.5 -192t-103.5 -136.5t-152.5 -79t-188.5 -26.5q-526 0 -526 464v995z" />
    <glyph glyph-name="utilde" unicode="&#x169;" horiz-adv-x="1056" 
d="M179 1075l-3 1q30 208 176 208q60 0 185 -50.5t182 -50.5q26 0 43.5 19.5t22.5 37t12 47.5l3 -1q-30 -208 -176 -208q-60 0 -185 50.5t-182 50.5q-20 0 -34.5 -9t-23 -28t-12 -31.5t-8.5 -35.5zM152 881h-142v3h306v-644q0 -98 43 -166t121 -68q66 0 127 52.5t93 115.5
t32 107v600h-142v3h306v-881h142v-3h-306v210l-12 3q-48 -111 -128.5 -170t-183.5 -59q-124 0 -193 85q-63 78 -63 207v605z" />
    <glyph glyph-name="Umacron" unicode="&#x16a;" horiz-adv-x="1440" 
d="M1084 1678h-604v3h604v-3zM230 1431h-192v3h592v-3h-192v-1118q0 -338 318 -338q215 0 347 111t132 320v1025h-204v3h411v-3h-204v-1025q0 -108 -37.5 -192t-103.5 -136.5t-152.5 -79t-188.5 -26.5q-526 0 -526 464v995z" />
    <glyph glyph-name="umacron" unicode="&#x16b;" horiz-adv-x="1056" 
d="M776 1134h-576v3h576v-3zM152 881h-142v3h306v-644q0 -98 43 -166t121 -68q66 0 127 52.5t93 115.5t32 107v600h-142v3h306v-881h142v-3h-306v210l-12 3q-48 -111 -128.5 -170t-183.5 -59q-124 0 -193 85q-63 78 -63 207v605z" />
    <glyph glyph-name="Ubreve" unicode="&#x16c;" horiz-adv-x="1440" 
d="M444 1886h3q32 -105 123 -161.5t212 -56.5q118 0 211.5 56.5t125.5 161.5h3q-32 -155 -119 -234.5t-221 -79.5q-133 0 -219 79t-119 235zM230 1431h-192v3h592v-3h-192v-1118q0 -338 318 -338q215 0 347 111t132 320v1025h-204v3h411v-3h-204v-1025q0 -108 -37.5 -192
t-103.5 -136.5t-152.5 -79t-188.5 -26.5q-526 0 -526 464v995z" />
    <glyph glyph-name="ubreve" unicode="&#x16d;" horiz-adv-x="1056" 
d="M192 1394h3q20 -101 99 -155.5t194 -54.5t194 54.5t99 155.5h3q-17 -136 -93 -221t-203 -85q-130 0 -205.5 87.5t-90.5 218.5zM152 881h-142v3h306v-644q0 -98 43 -166t121 -68q66 0 127 52.5t93 115.5t32 107v600h-142v3h306v-881h142v-3h-306v210l-12 3
q-48 -111 -128.5 -170t-183.5 -59q-124 0 -193 85q-63 78 -63 207v605z" />
    <glyph glyph-name="Uring" unicode="&#x16e;" horiz-adv-x="1440" 
d="M592 1709q0 98 67 164t163 66q98 0 164 -67.5t66 -162.5q0 -98 -67.5 -164t-162.5 -66q-99 0 -164.5 67t-65.5 163zM595 1709q0 -92 64.5 -159.5t162.5 -67.5q96 0 161.5 66t65.5 161q0 97 -68 162t-159 65q-93 0 -160 -65t-67 -162zM230 1431h-192v3h592v-3h-192v-1118
q0 -338 318 -338q215 0 347 111t132 320v1025h-204v3h411v-3h-204v-1025q0 -108 -37.5 -192t-103.5 -136.5t-152.5 -79t-188.5 -26.5q-526 0 -526 464v995z" />
    <glyph glyph-name="uring" unicode="&#x16f;" horiz-adv-x="1056" 
d="M258 1258q0 98 67 164t163 66q98 0 164 -67.5t66 -162.5q0 -98 -67.5 -164t-162.5 -66q-99 0 -164.5 67t-65.5 163zM261 1258q0 -92 64.5 -159.5t162.5 -67.5q96 0 161.5 66t65.5 161q0 97 -68 162t-159 65q-93 0 -160 -65t-67 -162zM152 881h-142v3h306v-644
q0 -98 43 -166t121 -68q66 0 127 52.5t93 115.5t32 107v600h-142v3h306v-881h142v-3h-306v210l-12 3q-48 -111 -128.5 -170t-183.5 -59q-124 0 -193 85q-63 78 -63 207v605z" />
    <glyph glyph-name="Uhungarumlaut" unicode="&#x170;" horiz-adv-x="1440" 
d="M606 1568l-2 2l169 254q28 37 48.5 50.5t51.5 13.5q24 0 38.5 -18t14.5 -40q0 -42 -70 -94zM896 1568l-2 2l169 254q28 37 48.5 50.5t51.5 13.5q24 0 38.5 -18t14.5 -40q0 -42 -70 -94zM230 1431h-192v3h592v-3h-192v-1118q0 -338 318 -338q215 0 347 111t132 320v1025
h-204v3h411v-3h-204v-1025q0 -108 -37.5 -192t-103.5 -136.5t-152.5 -79t-188.5 -26.5q-526 0 -526 464v995z" />
    <glyph glyph-name="uhungarumlaut" unicode="&#x171;" horiz-adv-x="1056" 
d="M334 1062l-3 1l91 298q31 101 103 101q31 0 50 -19t19 -47q0 -53 -51 -108zM608 1062l-3 1l91 298q31 101 103 101q31 0 50 -19t19 -47q0 -53 -51 -108zM152 881h-142v3h306v-644q0 -98 43 -166t121 -68q66 0 127 52.5t93 115.5t32 107v600h-142v3h306v-881h142v-3h-306
v210l-12 3q-48 -111 -128.5 -170t-183.5 -59q-124 0 -193 85q-63 78 -63 207v605z" />
    <glyph glyph-name="Uogonek" unicode="&#x172;" horiz-adv-x="1440" 
d="M230 1431h-192v3h592v-3h-192v-1118q0 -338 318 -338q215 0 347 111t132 320v1025h-204v3h411v-3h-204v-1025q0 -193 -112 -302t-295 -128q-50 -41 -81.5 -72t-62 -82t-30.5 -99q0 -73 54.5 -126.5t128.5 -53.5q58 0 104.5 37.5t46.5 96.5h4q0 -89 -55 -159t-150 -70
q-75 0 -141 53.5t-70 124.5q-1 29 5 58t15 52t28 49.5t33.5 43.5t41 42t41 37t44 36t39.5 32q-46 -4 -70 -4q-526 0 -526 464v995z" />
    <glyph glyph-name="uogonek" unicode="&#x173;" horiz-adv-x="1064" 
d="M665 -322q-1 27 4.5 54t13.5 47.5t26.5 46t30 40t38 38.5t37.5 33t41 33.5t36 29.5h-160v210l-12 3q-48 -111 -128.5 -170t-183.5 -59q-124 0 -193 85q-63 78 -63 207v605h-142v3h306v-644q0 -98 43 -166t121 -68q66 0 127 52.5t93 115.5t32 107v600h-142v3h306v-881h142
v-3h-141q-34 -28 -56 -49t-49.5 -52.5t-41.5 -64.5t-14 -67q0 -67 50.5 -116.5t118.5 -49.5q54 0 96.5 35t42.5 89h3q0 -82 -50 -146.5t-138 -64.5q-69 0 -129.5 49.5t-64.5 114.5z" />
    <glyph glyph-name="Wcircumflex" unicode="&#x174;" horiz-adv-x="2027" 
d="M159 1431h-141v3h596v-3h-221l378 -1113l269 778l-111 335h-153v3h596v-3h-212l362 -1113l355 1113h-229v3h362v-3h-130l-464 -1459l-374 1119l-386 -1119zM720 1564h-4l298 324l49 54l351 -378h-4l-347 374z" />
    <glyph glyph-name="wcircumflex" unicode="&#x175;" horiz-adv-x="1360" 
d="M129 881h-117v3h436v-3h-142l226 -660l172 575l-29 85h-117v3h400v-3h-142l223 -659l198 659h-129v3h238v-3h-106l-271 -899l-263 809l-240 -809zM483 1060h-4l233 374l49 79l288 -453h-4l-284 447z" />
    <glyph glyph-name="Ycircumflex" unicode="&#x176;" horiz-adv-x="1362" 
d="M472 1564h-4l298 324l49 54l351 -378h-4l-347 374zM181 1431h-163v3h672v-3h-268l422 -779l389 779h-301v3h460v-3h-156l-390 -783v-645h192v-3h-592v3h192v589z" />
    <glyph glyph-name="ycircumflex" unicode="&#x177;" horiz-adv-x="924" 
d="M238 1060h-4l233 374l49 79l288 -453h-4l-284 447zM-2 -465q0 49 29 80t77 31q34 0 55 -20t21 -48q0 -17 -8 -51q-8 -32 -8 -52q0 -49 68 -49q48 0 82.5 43t62.5 126l135 386l-424 900h-98v3h458v-3h-182l328 -665l232 665h-143v3h255v-3h-109l-449 -1289
q-20 -58 -55 -120q-44 -78 -125.5 -94.5t-145.5 35.5q-56 42 -56 122z" />
    <glyph glyph-name="Ydieresis" unicode="&#x178;" horiz-adv-x="1362" 
d="M495 1659q-25 27 -25 63t25 60q26 24 62 24t61 -24q26 -24 26 -60t-26 -63q-25 -27 -61 -27t-62 27zM993 1659q-25 27 -25 63t25 60q26 24 62 24t61 -24q26 -24 26 -60t-26 -63q-25 -27 -61 -27t-62 27zM181 1431h-163v3h672v-3h-268l422 -779l389 779h-301v3h460v-3
h-156l-390 -783v-645h192v-3h-592v3h192v589z" />
    <glyph glyph-name="Zacute" unicode="&#x179;" horiz-adv-x="1300" 
d="M113 921h-3l42 513h1022l-793 -1431h391q73 0 130 8.5t111 29.5t93.5 58.5t70.5 93t49 136t23 184.5h3l-22 -513h-1106l793 1431h-353q-108 0 -183.5 -25t-132.5 -84t-89.5 -157t-45.5 -244zM556 1572q132 134 201 201t89.5 83t35.5 22q70 29 101 -22q14 -25 9.5 -50.5
t-24.5 -45.5q-11 -12 -34.5 -25t-112.5 -52t-265 -111z" />
    <glyph glyph-name="zacute" unicode="&#x17a;" horiz-adv-x="834" 
d="M38 580h-4l22 304h660l-460 -881h266q57 0 94 5t69.5 20t51.5 39.5t33.5 68t21 101t9.5 141.5h3l-14 -378h-720l459 881h-251q-51 0 -82.5 -3.5t-59 -16t-42 -31t-26.5 -55t-18 -80.5t-12 -115zM334 1062l-3 1l91 298q31 101 103 101q31 0 50 -19t19 -47q0 -53 -51 -108z
" />
    <glyph glyph-name="Zdotaccent" unicode="&#x17b;" horiz-adv-x="1300" 
d="M113 921h-3l42 513h1022l-793 -1431h391q73 0 130 8.5t111 29.5t93.5 58.5t70.5 93t49 136t23 184.5h3l-22 -513h-1106l793 1431h-353q-108 0 -183.5 -25t-132.5 -84t-89.5 -157t-45.5 -244zM627 1653q-27 27 -27 69t27 69t69 27t69 -27t27 -69t-27 -69t-69 -27t-69 27z
" />
    <glyph glyph-name="zdotaccent" unicode="&#x17c;" horiz-adv-x="834" 
d="M38 580h-4l22 304h660l-460 -881h266q57 0 94 5t69.5 20t51.5 39.5t33.5 68t21 101t9.5 141.5h3l-14 -378h-720l459 881h-251q-51 0 -82.5 -3.5t-59 -16t-42 -31t-26.5 -55t-18 -80.5t-12 -115zM326 1118q-36 36 -36 88t36 88t88 36t88 -36t36 -88t-36 -88t-88 -36
t-88 36z" />
    <glyph glyph-name="Zcaron" unicode="&#x17d;" horiz-adv-x="1300" 
d="M113 921h-3l42 513h1022l-793 -1431h391q73 0 130 8.5t111 29.5t93.5 58.5t70.5 93t49 136t23 184.5h3l-22 -513h-1106l793 1431h-353q-108 0 -183.5 -25t-132.5 -84t-89.5 -157t-45.5 -244zM647 1564l-301 324h5l347 -374l341 374h5l-346 -379z" />
    <glyph glyph-name="zcaron" unicode="&#x17e;" horiz-adv-x="834" 
d="M38 580h-4l22 304h660l-460 -881h266q57 0 94 5t69.5 20t51.5 39.5t33.5 68t21 101t9.5 141.5h3l-14 -378h-720l459 881h-251q-51 0 -82.5 -3.5t-59 -16t-42 -31t-26.5 -55t-18 -80.5t-12 -115zM415 979l-287 455h4l283 -449l279 449h4l-233 -374z" />
    <glyph glyph-name="longs" unicode="&#x17f;" horiz-adv-x="598" 
d="M486 0h-448v3h142v951q0 219 89 362q52 85 132.5 140.5t168.5 55.5q89 0 151.5 -48.5t62.5 -131.5q0 -59 -28 -94t-71 -35q-76 0 -76 71q0 18 8.5 54.5t14 66t3.5 59t-25 44t-68 10.5q-36 -3 -65 -17.5t-49 -39.5t-35 -51t-23.5 -65t-14 -69t-8 -74.5t-3 -69.5t-0.5 -66
v-1053h142v-3z" />
    <glyph glyph-name="uni01E2" unicode="&#x1e2;" horiz-adv-x="2073" 
d="M568 0h-550v3h221l792 1428h-207v3h1139l10 -376h-3q-3 84 -12.5 143.5t-30 101.5t-45.5 67t-69 38.5t-91 18t-119 4.5h-360v-655h231q59 0 96 10t68.5 39.5t45.5 89t14 153.5h3v-585h-3q0 84 -14.5 141.5t-45 89.5t-69.5 45.5t-95 13.5h-231v-770h337q167 0 236 16
q132 32 187 152q45 100 49 276h3l-6 -447h-1206v3h192v770h-366l-427 -770h326v-3zM1035 1431l-363 -655h363v655zM1649 1678h-604v3h604v-3z" />
    <glyph glyph-name="uni01E3" unicode="&#x1e3;" horiz-adv-x="1352" 
d="M62 193q0 115 63.5 179t187.5 94q8 2 29.5 7t28 7t24 6t25 5t23 4t26 4t25.5 2t30 1.5t32 0.5v137v9q0 34 -0.5 51t-3.5 48t-9.5 48t-19 39t-30.5 33.5t-46 20t-64 8.5q-89 0 -133.5 -56.5t-10.5 -134.5q15 -32 15 -62q0 -31 -22.5 -51.5t-62.5 -20.5q-47 0 -71 25
t-24 69q0 92 91 162q91 72 221 72q174 0 254 -93q16 -19 27 -37q123 130 308 130q78 0 145 -31t110 -83q86 -105 86 -206q0 -44 -15.5 -62t-58.5 -18h-516q0 -158 25 -254q18 -67 64.5 -116t105.5 -71t124 -19t120 30.5t94.5 86.5t47.5 141h3q-13 -143 -106 -228.5
t-232 -85.5q-109 0 -196.5 44t-145.5 122h-1q-48 -73 -143.5 -119.5t-189.5 -46.5q-105 0 -170 56q-64 55 -64 153zM236 209q0 -96 36.5 -151.5t105.5 -55.5q51 0 132.5 46t116.5 105q-1 3 -4.5 8t-4.5 8q-32 53 -47.5 136t-14.5 139v56q-27 0 -50.5 -1.5t-38.5 -3t-36 -5.5
t-30 -6t-34.5 -8.5t-35.5 -9.5q-95 -24 -95 -257zM727 503h350q40 0 53.5 21.5t13.5 75.5q0 45 -3 81.5t-15 78.5t-31.5 70.5t-55.5 47.5t-85 19q-59 0 -104 -39.5t-70 -102.5t-37.5 -126t-15.5 -126zM996 1134h-576v3h576v-3z" />
    <glyph glyph-name="Oogonek" unicode="&#x1ea;" horiz-adv-x="1518" 
d="M96 712q0 148 51.5 285t141 239.5t219 164t276.5 61.5q151 0 281.5 -63t218.5 -168t138 -240t50 -279q0 -194 -83 -359t-232.5 -267.5t-335.5 -112.5q-36 -30 -60.5 -53t-53.5 -56.5t-44 -69.5t-15 -73q0 -73 54.5 -126.5t128.5 -53.5q58 0 104.5 37.5t46.5 96.5h4
q0 -89 -55 -159t-150 -70q-75 0 -141 53.5t-70 124.5q-1 29 5 58t15 51.5t28 49t33 43.5t41 42t41 36.5t43.5 36t39.5 32.5q-11 -1 -32 -1q-151 0 -281.5 61.5t-218.5 164.5t-138 236.5t-50 277.5zM330 712q0 -345 117 -541t337 -196q101 0 178.5 33.5t129.5 95t85 154
t47 203.5t14 251q0 73 -4.5 141t-18 144.5t-34.5 141t-56.5 125t-81.5 102.5t-112.5 67.5t-146.5 25.5t-146.5 -25t-112.5 -67t-81.5 -102.5t-56.5 -125t-34.5 -141.5t-18 -144.5t-4.5 -141.5z" />
    <glyph glyph-name="oogonek" unicode="&#x1eb;" horiz-adv-x="940" 
d="M246 -337q-1 27 4.5 53.5t13 47t26.5 46t30 39.5t38 39t37 33.5t41 33.5t36 29h-2q-179 0 -302 130q-122 131 -122 328t122 328q123 130 302 130q180 0 301 -130q123 -131 123 -328q0 -198 -123 -328q-118 -127 -294 -130q-46 -38 -75 -66t-57 -75t-28 -91
q0 -67 50.5 -116.5t118.5 -49.5q54 0 96.5 35t42.5 89h3q0 -82 -50 -146.5t-138 -64.5q-69 0 -129.5 49.5t-64.5 114.5zM232 442q0 -455 238 -455t238 455t-238 455t-238 -455z" />
    <glyph glyph-name="uni01EC" unicode="&#x1ec;" horiz-adv-x="1518" 
d="M96 712q0 148 51.5 285t141 239.5t219 164t276.5 61.5q151 0 281.5 -63t218.5 -168t138 -240t50 -279q0 -194 -83 -359t-232.5 -267.5t-335.5 -112.5q-36 -30 -60.5 -53t-53.5 -56.5t-44 -69.5t-15 -73q0 -73 54.5 -126.5t128.5 -53.5q58 0 104.5 37.5t46.5 96.5h4
q0 -89 -55 -159t-150 -70q-75 0 -141 53.5t-70 124.5q-1 29 5 58t15 51.5t28 49t33 43.5t41 42t41 36.5t43.5 36t39.5 32.5q-11 -1 -32 -1q-151 0 -281.5 61.5t-218.5 164.5t-138 236.5t-50 277.5zM330 712q0 -345 117 -541t337 -196q101 0 178.5 33.5t129.5 95t85 154
t47 203.5t14 251q0 73 -4.5 141t-18 144.5t-34.5 141t-56.5 125t-81.5 102.5t-112.5 67.5t-146.5 25.5t-146.5 -25t-112.5 -67t-81.5 -102.5t-56.5 -125t-34.5 -141.5t-18 -144.5t-4.5 -141.5zM1086 1678h-604v3h604v-3z" />
    <glyph glyph-name="uni01ED" unicode="&#x1ed;" horiz-adv-x="940" 
d="M246 -337q-1 27 4.5 53.5t13 47t26.5 46t30 39.5t38 39t37 33.5t41 33.5t36 29h-2q-179 0 -302 130q-122 131 -122 328t122 328q123 130 302 130q180 0 301 -130q123 -131 123 -328q0 -198 -123 -328q-118 -127 -294 -130q-46 -38 -75 -66t-57 -75t-28 -91
q0 -67 50.5 -116.5t118.5 -49.5q54 0 96.5 35t42.5 89h3q0 -82 -50 -146.5t-138 -64.5q-69 0 -129.5 49.5t-64.5 114.5zM232 442q0 -455 238 -455t238 455t-238 455t-238 -455zM758 1134h-576v3h576v-3z" />
    <glyph glyph-name="Aringacute" unicode="&#x1fa;" horiz-adv-x="1434" 
d="M562 0h-496v3h202l407 1243q-72 22 -116 82.5t-44 137.5q0 98 67 164t163 66q98 0 164 -67.5t66 -162.5q0 -76 -41.5 -134t-108.5 -82l464 -1247h163v-3h-672v3h268l-198 533h-404l-175 -533h291v-3zM518 1466q0 -75 43.5 -135t114.5 -82l70 213l78 -210q66 24 107 82
t41 132q0 97 -68 162t-159 65q-93 0 -160 -65t-67 -162zM636 1115l-189 -576h402zM587 1733q132 134 201 201t89.5 83t35.5 22q70 29 101 -22q14 -25 9.5 -50.5t-24.5 -45.5q-11 -12 -34.5 -25t-112.5 -52t-265 -111z" />
    <glyph glyph-name="aringacute" unicode="&#x1fb;" horiz-adv-x="890" 
d="M62 193q0 113 62.5 174.5t188.5 98.5q63 19 243 73v101v9q0 34 -0.5 51t-3.5 48t-9.5 48t-19 39t-30.5 33.5t-46 20t-64 8.5q-89 0 -133.5 -56.5t-10.5 -134.5q15 -32 15 -62q0 -31 -22.5 -51.5t-62.5 -20.5q-47 0 -71 25t-24 69q0 92 91 162q91 72 221 72q174 0 254 -93
q80 -92 80 -245v-451q0 -32 1.5 -50t7 -35.5t16.5 -24t30.5 -10.5t47.5 -1t69 11v-3q-46 -17 -99 -15t-100 17t-84.5 49.5t-52.5 81.5v7q-52 -79 -111.5 -116.5t-148.5 -37.5q-105 0 -170 56q-64 55 -64 153zM164 1202q0 98 67 164t163 66q98 0 164 -67.5t66 -162.5
q0 -98 -67.5 -164t-162.5 -66q-99 0 -164.5 67t-65.5 163zM167 1202q0 -92 64.5 -159.5t162.5 -67.5q96 0 161.5 66t65.5 161q0 97 -68 162t-159 65q-93 0 -160 -65t-67 -162zM236 209q0 -96 36.5 -151.5t105.5 -55.5q44 0 95.5 43.5t82.5 98.5v392l-215 -65
q-52 -15 -78.5 -85.5t-26.5 -176.5zM314 1494l-3 1l91 298q31 101 103 101q31 0 50 -19t19 -47q0 -53 -51 -108z" />
    <glyph glyph-name="AEacute" unicode="&#x1fc;" horiz-adv-x="2073" 
d="M568 0h-550v3h221l792 1428h-207v3h1139l10 -376h-3q-3 84 -12.5 143.5t-30 101.5t-45.5 67t-69 38.5t-91 18t-119 4.5h-360v-655h231q59 0 96 10t68.5 39.5t45.5 89t14 153.5h3v-585h-3q0 84 -14.5 141.5t-45 89.5t-69.5 45.5t-95 13.5h-231v-770h337q167 0 236 16
q132 32 187 152q45 100 49 276h3l-6 -447h-1206v3h192v770h-366l-427 -770h326v-3zM1035 1431l-363 -655h363v655zM1207 1572q132 134 201 201t89.5 83t35.5 22q70 29 101 -22q14 -25 9.5 -50.5t-24.5 -45.5q-11 -12 -34.5 -25t-112.5 -52t-265 -111z" />
    <glyph glyph-name="aeacute" unicode="&#x1fd;" horiz-adv-x="1352" 
d="M62 193q0 115 63.5 179t187.5 94q8 2 29.5 7t28 7t24 6t25 5t23 4t26 4t25.5 2t30 1.5t32 0.5v137v9q0 34 -0.5 51t-3.5 48t-9.5 48t-19 39t-30.5 33.5t-46 20t-64 8.5q-89 0 -133.5 -56.5t-10.5 -134.5q15 -32 15 -62q0 -31 -22.5 -51.5t-62.5 -20.5q-47 0 -71 25
t-24 69q0 92 91 162q91 72 221 72q174 0 254 -93q16 -19 27 -37q123 130 308 130q78 0 145 -31t110 -83q86 -105 86 -206q0 -44 -15.5 -62t-58.5 -18h-516q0 -158 25 -254q18 -67 64.5 -116t105.5 -71t124 -19t120 30.5t94.5 86.5t47.5 141h3q-13 -143 -106 -228.5
t-232 -85.5q-109 0 -196.5 44t-145.5 122h-1q-48 -73 -143.5 -119.5t-189.5 -46.5q-105 0 -170 56q-64 55 -64 153zM236 209q0 -96 36.5 -151.5t105.5 -55.5q51 0 132.5 46t116.5 105q-1 3 -4.5 8t-4.5 8q-32 53 -47.5 136t-14.5 139v56q-27 0 -50.5 -1.5t-38.5 -3t-36 -5.5
t-30 -6t-34.5 -8.5t-35.5 -9.5q-95 -24 -95 -257zM727 503h350q40 0 53.5 21.5t13.5 75.5q0 45 -3 81.5t-15 78.5t-31.5 70.5t-55.5 47.5t-85 19q-59 0 -104 -39.5t-70 -102.5t-37.5 -126t-15.5 -126zM628 1062l-3 1l91 298q31 101 103 101q31 0 50 -19t19 -47
q0 -53 -51 -108z" />
    <glyph glyph-name="Oslashacute" unicode="&#x1fe;" horiz-adv-x="1518" 
d="M125 -3l-2 2l172 188q-95 104 -147 240.5t-52 284.5t51.5 285t141 239.5t219 164t276.5 61.5q144 0 267 -56.5t216 -156.5l174 190l2 -2l-174 -190q97 -106 150 -246t53 -289t-52 -285t-142 -236.5t-219 -159.5t-275 -59q-147 0 -271 56t-216 157zM784 -25
q101 0 178.5 33.5t129.5 95t85 154t47 203.5t14 251q0 260 -60 435l-786 -858q54 -152 153 -233t239 -81zM330 712q0 -250 61 -420l786 858q-108 309 -393 309q-80 0 -146.5 -25t-112.5 -67t-81.5 -102.5t-56.5 -125t-34.5 -141.5t-18 -144.5t-4.5 -141.5zM644 1572
q132 134 201 201t89.5 83t35.5 22q70 29 101 -22q14 -25 9.5 -50.5t-24.5 -45.5q-11 -12 -34.5 -25t-112.5 -52t-265 -111z" />
    <glyph glyph-name="oslashacute" unicode="&#x1ff;" horiz-adv-x="940" 
d="M58 -6l-2 2l110 120q-120 129 -120 326t122 328q123 130 302 130q178 0 300 -129l110 119l2 -2l-110 -120q122 -131 122 -326q0 -198 -123 -328q-121 -130 -301 -130q-179 0 -302 129zM470 -13q238 0 238 455q0 136 -22 233l-432 -469q49 -219 216 -219zM232 442
q0 -139 21 -233l432 470q-51 218 -215 218q-238 0 -238 -455zM390 1062l-3 1l91 298q31 101 103 101q31 0 50 -19t19 -47q0 -53 -51 -108z" />
    <glyph glyph-name="Scommaaccent" unicode="&#x218;" horiz-adv-x="1172" 
d="M148 -28l-10 504h3q1 -141 69.5 -257t181.5 -180t245 -64q155 0 241 90q88 89 88 247q0 141 -84 214.5t-280 123.5q-144 36 -241 92q-175 100 -179 307q0 185 115 299t317 114q92 0 164 -31q74 -30 101 -30q26 0 58 16.5t38 44.5h3l4 -371h-3q-2 85 -25.5 151t-60 106
t-86 66t-98 35.5t-100.5 9.5q-78 0 -136 -26t-91 -70t-48.5 -94.5t-15.5 -107.5q0 -95 75 -161q37 -31 92.5 -56.5t85 -34t101.5 -27.5q113 -31 189.5 -67.5t134.5 -89.5q118 -106 118 -309q0 -199 -138 -322q-139 -122 -339 -122q-121 0 -251 63q-39 18 -78 27.5t-76 8
t-59.5 -26t-21.5 -72.5h-3zM562 -335q-37 37 -37 91q0 53 37.5 90.5t90.5 37.5q65 0 99 -51t34 -116q0 -157 -136 -338l-1 1h-1q59 78 92 158.5t38 115.5t5 63q0 14 -2 32q-1 -54 -37 -87.5t-91 -33.5q-54 0 -91 37z" />
    <glyph glyph-name="scommaaccent" unicode="&#x219;" horiz-adv-x="740" 
d="M78 -16h-2v348h3q0 -142 89.5 -243.5t209.5 -101.5q102 0 155 50.5t53 144.5q0 44 -12 67.5t-41 46.5q-52 43 -191 87q-123 38 -189 94q-75 63 -75 187q0 107 70 171q71 65 166 65q88 0 159 -35q22 -10 48 -16t51.5 -5t42.5 15t17 41h3v-281h-3q-29 75 -70 149
q-71 129 -248 129q-65 0 -98.5 -47.5t-33.5 -119.5q0 -28 6 -47.5t11.5 -27.5t19.5 -24q15 -15 31.5 -26.5t42 -22.5t37 -15.5t45 -16t37.5 -12.5q161 -56 227 -117q67 -61 67 -169q0 -120 -81 -194q-80 -74 -247 -74q-67 0 -137 38q-25 13 -50 21.5t-52 10t-44 -16
t-17 -53.5zM302 -335q-37 37 -37 91q0 53 37.5 90.5t90.5 37.5q65 0 99 -51t34 -116q0 -157 -136 -338l-1 1h-1q59 78 92 158.5t38 115.5t5 63q0 14 -2 32q-1 -54 -37 -87.5t-91 -33.5q-54 0 -91 37z" />
    <glyph glyph-name="uni021A" unicode="&#x21a;" horiz-adv-x="1464" 
d="M87 895h-3l24 539h1308l24 -539h-3q-7 111 -19 190t-34.5 141t-54 99.5t-80.5 62t-109.5 34t-145.5 9.5h-128v-1428h192v-3h-592v3h192v1428h-128q-124 0 -201 -23t-129.5 -86t-77 -163t-35.5 -264zM673 -335q-37 37 -37 91q0 53 37.5 90.5t90.5 37.5q65 0 99 -51
t34 -116q0 -157 -136 -338q-1 0 -1 0.5t-1 0.5q59 78 92 158.5t38 115.5t5 63q0 14 -2 32q-1 -54 -37 -87.5t-91 -33.5q-54 0 -91 37z" />
    <glyph glyph-name="uni021B" unicode="&#x21b;" horiz-adv-x="670" 
d="M180 881h-174v3q89 0 155 23t104 64.5t56 92t18 110.5h3v-290h228v-3h-228v-691q0 -76 30 -133.5t84 -57.5q35 0 73 30t63 75q20 36 32.5 87t12.5 81h3q-4 -56 -19.5 -105.5t-44 -91.5t-74.5 -66.5t-105 -24.5q-93 0 -155 51t-62 161v685zM286 -335q-37 37 -37 91
q0 53 37.5 90.5t90.5 37.5q65 0 99 -51t34 -116q0 -157 -136 -338l-1 1h-1q59 78 92 158.5t38 115.5t5 63q0 14 -2 32q-1 -54 -37 -87.5t-91 -33.5q-54 0 -91 37z" />
    <glyph glyph-name="uni0232" unicode="&#x232;" horiz-adv-x="1362" 
d="M1108 1678h-604v3h604v-3zM181 1431h-163v3h672v-3h-268l422 -779l389 779h-301v3h460v-3h-156l-390 -783v-645h192v-3h-592v3h192v589z" />
    <glyph glyph-name="uni0233" unicode="&#x233;" horiz-adv-x="924" 
d="M794 1134h-576v3h576v-3zM-2 -465q0 49 29 80t77 31q34 0 55 -20t21 -48q0 -17 -8 -51q-8 -32 -8 -52q0 -49 68 -49q48 0 82.5 43t62.5 126l135 386l-424 900h-98v3h458v-3h-182l328 -665l232 665h-143v3h255v-3h-109l-449 -1289q-20 -58 -55 -120q-44 -78 -125.5 -94.5
t-145.5 35.5q-56 42 -56 122z" />
    <glyph glyph-name="uni0237" unicode="&#x237;" horiz-adv-x="480" 
d="M-164 -404q0 59 27.5 92t71.5 33q35 0 55.5 -19t20.5 -55q0 -29 -7.5 -66.5t-15.5 -65.5t-11 -56.5t3.5 -46.5t30.5 -28t67 -8q110 5 110 295v1210h-142v3h306v-1043q0 -220 -79 -344q-78 -125 -212 -125q-92 0 -158 63q-67 61 -67 161z" />
    <glyph glyph-name="uni02BB" unicode="&#x2bb;" horiz-adv-x="320" 
d="M255 1206q37 -37 37 -91q0 -53 -37.5 -90.5t-90.5 -37.5q-65 0 -99 51t-34 116q0 157 136 338q1 0 1 -0.5t1 -0.5q-59 -78 -92 -158.5t-38 -115.5t-5 -63q0 -14 2 -34q0 54 36 88.5t92 34.5q54 0 91 -37z" />
    <glyph glyph-name="afii57929" unicode="&#x2bc;" horiz-adv-x="320" 
d="M67 1295q-37 37 -37 91q0 53 37.5 90.5t90.5 37.5q65 0 99 -51t34 -116q0 -157 -136 -338q-1 0 -1 0.5t-1 0.5q59 78 92 158.5t38 115.5t5 63q0 14 -2 32q-1 -54 -37 -87.5t-91 -33.5q-54 0 -91 37z" />
    <glyph glyph-name="afii64937" unicode="&#x2bd;" horiz-adv-x="320" 
d="M26 1335q0 69 39 123q40 54 113 54q46 0 78 -32t32 -80q0 -43 -27.5 -69.5t-68.5 -26.5q-19 0 -43 11q-18 9 -33 9q-32 0 -32 -31q0 -77 38 -140t116 -133l-30 -32q-182 155 -182 347z" />
    <glyph glyph-name="circumflex" unicode="&#x2c6;" horiz-adv-x="780" 
d="M132 1060h-4l233 374l49 79l288 -453h-4l-284 447z" />
    <glyph glyph-name="caron" unicode="&#x2c7;" horiz-adv-x="780" 
d="M391 979l-287 455h4l283 -449l279 449h4l-233 -374z" />
    <glyph glyph-name="uni02C9" unicode="&#x2c9;" horiz-adv-x="780" 
d="M678 1134h-576v3h576v-3z" />
    <glyph glyph-name="uni02CA" unicode="&#x2ca;" horiz-adv-x="780" 
d="M310 1062l-3 1l91 298q31 101 103 101q31 0 50 -19t19 -47q0 -53 -51 -108z" />
    <glyph glyph-name="uni02CB" unicode="&#x2cb;" 
 />
    <glyph glyph-name="breve" unicode="&#x2d8;" horiz-adv-x="780" 
d="M94 1394h3q20 -101 99 -155.5t194 -54.5t194 54.5t99 155.5h3q-17 -136 -93 -221t-203 -85q-130 0 -205.5 87.5t-90.5 218.5z" />
    <glyph glyph-name="dotaccent" unicode="&#x2d9;" horiz-adv-x="780" 
d="M302 1118q-36 36 -36 88t36 88t88 36t88 -36t36 -88t-36 -88t-88 -36t-88 36z" />
    <glyph glyph-name="ring" unicode="&#x2da;" horiz-adv-x="780" 
d="M160 1258q0 98 67 164t163 66q98 0 164 -67.5t66 -162.5q0 -98 -67.5 -164t-162.5 -66q-99 0 -164.5 67t-65.5 163zM163 1258q0 -92 64.5 -159.5t162.5 -67.5q96 0 161.5 66t65.5 161q0 97 -68 162t-159 65q-93 0 -160 -65t-67 -162z" />
    <glyph glyph-name="ogonek" unicode="&#x2db;" horiz-adv-x="780" 
d="M211 -322q-2 31 4 60t22.5 57t30 47.5t42.5 47t42 39.5t47.5 39.5t41.5 33.5l2 -2q-34 -28 -56 -49t-49.5 -52.5t-41.5 -64.5t-14 -67q0 -67 50.5 -116.5t118.5 -49.5q54 0 96.5 35t42.5 89h3q0 -82 -50 -146.5t-138 -64.5q-69 0 -129.5 49.5t-64.5 114.5z" />
    <glyph glyph-name="tilde" unicode="&#x2dc;" horiz-adv-x="780" 
d="M81 1075l-3 1q30 208 176 208q60 0 185 -50.5t182 -50.5q26 0 43.5 19.5t22.5 37t12 47.5l3 -1q-30 -208 -176 -208q-60 0 -185 50.5t-182 50.5q-20 0 -34.5 -9t-23 -28t-12 -31.5t-8.5 -35.5z" />
    <glyph glyph-name="hungarumlaut" unicode="&#x2dd;" horiz-adv-x="780" 
d="M236 1062l-3 1l91 298q31 101 103 101q31 0 50 -19t19 -47q0 -53 -51 -108zM510 1062l-3 1l91 298q31 101 103 101q31 0 50 -19t19 -47q0 -53 -51 -108z" />
    <glyph glyph-name="gravecomb" unicode="&#x300;" 
d="M-670 1396q0 28 19 47t50 19q72 0 103 -101l90 -298l-3 -1l-208 226q-51 55 -51 108z" />
    <glyph glyph-name="acutecomb" unicode="&#x301;" 
d="M-570 1062l-3 1l91 298q31 101 103 101q31 0 50 -19t19 -47q0 -53 -51 -108z" />
    <glyph glyph-name="circumflexcmb" unicode="&#x302;" 
d="M-748 1060h-4l233 374l49 79l288 -453h-4l-284 447z" />
    <glyph glyph-name="tildecomb" unicode="&#x303;" 
d="M-799 1075l-3 1q30 208 176 208q60 0 185 -50.5t182 -50.5q26 0 43.5 19.5t22.5 37t12 47.5l3 -1q-30 -208 -176 -208q-60 0 -185 50.5t-182 50.5q-20 0 -34.5 -9t-23 -28t-12 -31.5t-8.5 -35.5z" />
    <glyph glyph-name="macroncmb" unicode="&#x304;" 
d="M-202 1134h-576v3h576v-3z" />
    <glyph glyph-name="brevecmb" unicode="&#x306;" 
d="M-786 1394h3q20 -101 99 -155.5t194 -54.5t194 54.5t99 155.5h3q-17 -136 -93 -221t-203 -85q-130 0 -205.5 87.5t-90.5 218.5z" />
    <glyph glyph-name="uni0307" unicode="&#x307;" 
d="M-578 1118q-36 36 -36 88t36 88t88 36t88 -36t36 -88t-36 -88t-88 -36t-88 36z" />
    <glyph glyph-name="uni0308" unicode="&#x308;" 
d="M-761 1139q-27 27 -27 69t27 69t69 27t69 -27t27 -69t-27 -69t-69 -27t-69 27zM-357 1139q-27 27 -27 69t27 69t69 27t69 -27t27 -69t-27 -69t-69 -27t-69 27z" />
    <glyph glyph-name="uni030A" unicode="&#x30a;" 
d="M-720 1258q0 98 67 164t163 66q98 0 164 -67.5t66 -162.5q0 -98 -67.5 -164t-162.5 -66q-99 0 -164.5 67t-65.5 163zM-717 1258q0 -92 64.5 -159.5t162.5 -67.5q96 0 161.5 66t65.5 161q0 97 -68 162t-159 65q-93 0 -160 -65t-67 -162z" />
    <glyph glyph-name="uni030B" unicode="&#x30b;" 
d="M-644 1062l-3 1l91 298q31 101 103 101q31 0 50 -19t19 -47q0 -53 -51 -108zM-370 1062l-3 1l91 298q31 101 103 101q31 0 50 -19t19 -47q0 -53 -51 -108z" />
    <glyph glyph-name="uni030C" unicode="&#x30c;" 
d="M-489 979l-287 455h4l283 -449l279 449h4l-233 -374z" />
    <glyph glyph-name="uni0312" unicode="&#x312;" 
d="M-405 1206q37 -37 37 -91q0 -53 -37.5 -90.5t-90.5 -37.5q-65 0 -99 51t-34 116q0 157 136 338q1 0 1 -0.5t1 -0.5q-59 -78 -92 -158.5t-38 -115.5t-5 -63q0 -14 2 -34q0 54 36 88.5t92 34.5q54 0 91 -37z" />
    <glyph glyph-name="uni0313" unicode="&#x313;" 
d="M-593 1295q-37 37 -37 91q0 53 37.5 90.5t90.5 37.5q65 0 99 -51t34 -116q0 -157 -136 -338q-1 0 -1 0.5t-1 0.5q59 78 92 158.5t38 115.5t5 63q0 14 -2 32q-1 -54 -36.5 -87.5t-91.5 -33.5q-54 0 -91 37z" />
    <glyph glyph-name="uni0314" unicode="&#x314;" horiz-adv-x="320" 
d="M-634 1335q0 69 39 123q40 54 113 54q46 0 78 -32t32 -80q0 -43 -27.5 -69.5t-68.5 -26.5q-19 0 -43 11q-18 9 -33 9q-32 0 -32 -31q0 -77 38 -140t116 -133l-30 -32q-182 155 -182 347z" />
    <glyph glyph-name="uni0316" unicode="&#x316;" 
d="M-670 -162q0 28 19 47t50 19q72 0 103 -101l90 -298l-3 -1l-208 226q-51 55 -51 108z" />
    <glyph glyph-name="uni0317" unicode="&#x317;" 
d="M-570 -496l-3 1l91 298q31 101 103 101q31 0 50 -19t19 -47q0 -53 -51 -108z" />
    <glyph glyph-name="dotbelowcomb" unicode="&#x323;" 
d="M-578 -384q-36 36 -36 88t36 88t88 36t88 -36t36 -88t-36 -88t-88 -36t-88 36z" />
    <glyph glyph-name="uni0324" unicode="&#x324;" 
d="M-761 -363q-27 27 -27 69t27 69t69 27t69 -27t27 -69t-27 -69t-69 -27t-69 27zM-357 -363q-27 27 -27 69t27 69t69 27t69 -27t27 -69t-27 -69t-69 -27t-69 27z" />
    <glyph glyph-name="uni0325" unicode="&#x325;" 
d="M-720 -328q0 98 67 164t163 66q98 0 164 -67.5t66 -162.5q0 -98 -67.5 -164t-162.5 -66q-99 0 -164.5 67t-65.5 163zM-717 -328q0 -92 64.5 -159.5t162.5 -67.5q96 0 161.5 66t65.5 161q0 97 -68 162t-159 65q-93 0 -160 -65t-67 -162z" />
    <glyph glyph-name="uni0326" unicode="&#x326;" 
d="M-566 -335q-37 37 -37 91q0 53 37.5 90.5t90.5 37.5q65 0 99 -51t34 -116q0 -157 -136 -338l-1 1h-1q59 78 92 158.5t38 115.5t5 63q0 14 -2 32q-1 -54 -36.5 -87.5t-91.5 -33.5q-54 0 -91 37z" />
    <glyph glyph-name="uni0327" unicode="&#x327;" 
d="M-516 -478q51 0 78 49t27 118q0 79 -30 113.5t-116 34.5l68 163h3l-67 -160q96 0 162.5 -38t66.5 -112q0 -83 -54.5 -127.5t-137.5 -44.5q-76 0 -132 38q-27 19 -41.5 41t-16 40t4.5 33.5t16.5 24t22.5 8.5q21 0 31.5 -18.5t15 -45.5t11.5 -53.5t28.5 -45t59.5 -18.5z
" />
    <glyph glyph-name="uni0328" unicode="&#x328;" 
d="M-669 -322q-2 31 4 60t22.5 57t30 47.5t42.5 47t42 39.5t47.5 39.5t41.5 33.5l2 -2q-34 -28 -56 -49t-49.5 -52.5t-41.5 -64.5t-14 -67q0 -67 50.5 -116.5t118.5 -49.5q54 0 96.5 35t42.5 89h3q0 -82 -50 -146.5t-138 -64.5q-69 0 -129.5 49.5t-64.5 114.5z" />
    <glyph glyph-name="uni032C" unicode="&#x32c;" 
d="M-489 -579l-287 455h4l283 -449l279 449h4l-233 -374z" />
    <glyph glyph-name="uni032D" unicode="&#x32d;" 
d="M-748 -498h-4l233 374l49 79l288 -453h-4l-284 447z" />
    <glyph glyph-name="uni032E" unicode="&#x32e;" 
d="M-770 -132l48 16q33 -97 92 -151.5t140 -54.5t140 54.5t92 151.5l48 -16q-18 -78 -53 -144q-34 -65 -95 -112q-59 -46 -132 -46t-132 46q-108 83 -148 256z" />
    <glyph glyph-name="uni032F" unicode="&#x32f;" 
d="M-722 -434l-48 16q17 77 53 145q34 64 95 111q59 46 132 46t132 -46q108 -83 148 -256l-48 -16q-33 97 -92 151.5t-140 54.5t-140 -54.5t-92 -151.5z" />
    <glyph glyph-name="uni0330" unicode="&#x330;" 
d="M-799 -389l-3 1q30 208 176 208q60 0 185 -50.5t182 -50.5q26 0 43.5 19.5t22.5 37t12 47.5l3 -1q-30 -208 -176 -208q-60 0 -185 50.5t-182 50.5q-20 0 -34.5 -9t-23 -28t-12 -31.5t-8.5 -35.5z" />
    <glyph glyph-name="uni0331" unicode="&#x331;" 
d="M-202 -334h-576v3h576v-3z" />
    <glyph glyph-name="uni0342" unicode="&#x342;" 
d="M-852 1197q0 65 63 112q65 47 143 47q45 0 90 -24.5t109 -79.5q131 -110 184 -110q55 0 55 37q0 23 -35 43q-39 21 -39 58q0 29 21 48.5t49 19.5q38 0 62 -29.5t24 -69.5q0 -66 -64 -112q-64 -47 -142 -47q-45 0 -90 24.5t-109 79.5q-131 110 -184 110q-55 0 -55 -37
q0 -23 35 -43q39 -21 39 -58q0 -29 -21 -48.5t-49 -19.5q-38 0 -62 29.5t-24 69.5z" />
    <glyph glyph-name="uni0343" unicode="&#x343;" 
d="M-682 1368q0 40 35.5 63t86.5 23q78 0 132 -54q54 -52 54 -136q0 -89 -54.5 -153.5t-173.5 -118.5l-23 40q86 42 122.5 77t36.5 86t-27.5 75t-84.5 24q-104 0 -104 74z" />
    <glyph glyph-name="uni0344" unicode="&#x344;" 
d="M-801 1049q-25 27 -25 63t25 60q26 24 62 24t61 -24q26 -24 26 -60t-26 -63q-25 -27 -61 -27t-62 27zM-522 992l-38 16l142 430q21 63 47.5 92.5t66.5 29.5q30 0 50 -21.5t20 -53.5q0 -38 -46 -112zM-303 1049q-25 27 -25 63t25 60q26 24 62 24t61 -24q26 -24 26 -60
t-26 -63q-25 -27 -61 -27t-62 27z" />
    <glyph glyph-name="uni0345" unicode="&#x345;" 
d="M-584 -442q0 27 19 96l41 154q10 42 34 42t34 -42l41 -154q19 -69 19 -96q0 -39 -26.5 -65.5t-67.5 -26.5t-67.5 26.5t-26.5 65.5z" />
    <glyph glyph-name="uni0359" unicode="&#x359;" 
d="M-682 -243q0 18 12 28.5t31 10.5q30 0 67 -43q22 -26 35 -37q31 -29 31 -11q0 36 -16 77q-12 33 -12 51q0 19 13 35t31 16t31 -16t13 -35q0 -18 -12 -51q-16 -41 -16 -77q0 -6 6 -6t25.5 17t34.5 37q37 43 67 43q19 0 31 -10.5t12 -28.5q0 -27 -20 -40.5t-63 -20.5
q-47 -8 -63.5 -18t0 -20t63.5 -18q43 -7 63 -20.5t20 -40.5q0 -18 -12 -28.5t-31 -10.5q-30 0 -67 43q-22 26 -35 37q-31 29 -31 11q0 -36 16 -77q12 -33 12 -51q0 -19 -13 -35t-31 -16t-31 16t-13 35q0 18 12 51q16 41 16 77q0 6 -6 6t-25.5 -17t-34.5 -37q-37 -43 -67 -43
q-19 0 -31 10.5t-12 28.5q0 27 20 40.5t63 20.5q47 8 63.5 18t0 20t-63.5 18q-43 7 -63 20.5t-20 40.5z" />
    <glyph glyph-name="uni0374" unicode="&#x374;" horiz-adv-x="320" 
d="M80 992l-42 14l116 446q12 48 39 78t66 30q31 0 51 -20.5t20 -48.5q0 -43 -30 -99z" />
    <glyph glyph-name="uni0375" unicode="&#x375;" horiz-adv-x="320" 
d="M-10 -491q0 43 30 99l220 400l42 -14l-116 -446q-12 -48 -39 -78t-66 -30q-31 0 -51 20.5t-20 48.5z" />
    <glyph glyph-name="uni037A" unicode="&#x37a;" horiz-adv-x="780" 
d="M296 -442q0 27 19 96l41 154q10 42 34 42t34 -42l41 -154q19 -69 19 -96q0 -39 -26.5 -65.5t-67.5 -26.5t-67.5 26.5t-26.5 65.5z" />
    <glyph glyph-name="uni037E" unicode="&#x37e;" horiz-adv-x="428" 
d="M123 681q-37 37 -37 91t37 91t91 37t91 -37t37 -91t-37 -91t-91 -37t-91 37z" />
    <glyph glyph-name="uni1FFE" unicode="&#x1ffe;" horiz-adv-x="400" 
d="M78 1264q0 84 54 136q54 54 132 54q51 0 86.5 -23t35.5 -63q0 -67 -104 -78q-49 -5 -79.5 -27.5t-30.5 -53.5q0 -65 46 -99t156 -66l-19 -52q-277 70 -277 272z" />
    <glyph glyph-name="uni2000" unicode="&#x2000;" horiz-adv-x="1024" 
 />
    <glyph glyph-name="uni2001" unicode="&#x2001;" horiz-adv-x="2048" 
 />
    <glyph glyph-name="uni2002" unicode="&#x2002;" horiz-adv-x="1024" 
 />
    <glyph glyph-name="uni2003" unicode="&#x2003;" horiz-adv-x="2048" 
 />
    <glyph glyph-name="uni2004" unicode="&#x2004;" horiz-adv-x="682" 
 />
    <glyph glyph-name="uni2005" unicode="&#x2005;" horiz-adv-x="512" 
 />
    <glyph glyph-name="uni2006" unicode="&#x2006;" horiz-adv-x="342" 
 />
    <glyph glyph-name="uni2007" unicode="&#x2007;" horiz-adv-x="1152" 
 />
    <glyph glyph-name="uni2008" unicode="&#x2008;" horiz-adv-x="528" 
 />
    <glyph glyph-name="uni2009" unicode="&#x2009;" horiz-adv-x="372" 
 />
    <glyph glyph-name="uni200A" unicode="&#x200a;" horiz-adv-x="132" 
 />
    <glyph glyph-name="uni200B" unicode="&#x200b;" 
 />
    <glyph glyph-name="afii61664" unicode="&#x200c;" 
 />
    <glyph glyph-name="afii301" unicode="&#x200d;" 
 />
    <glyph glyph-name="endash" unicode="&#x2013;" horiz-adv-x="1132" 
d="M1082 416h-1032v4h1032v-4z" />
    <glyph glyph-name="emdash" unicode="&#x2014;" horiz-adv-x="2172" 
d="M2122 416h-2072v4h2072v-4z" />
    <glyph glyph-name="quoteleft" unicode="&#x2018;" horiz-adv-x="428" 
d="M321 1138q37 -37 37 -91q0 -53 -37.5 -90.5t-90.5 -37.5q-107 0 -130 127q-3 33 -3 40q0 157 136 338q1 0 1 -0.5t1 -0.5q-59 -78 -92 -158.5t-38 -115.5t-5 -63q0 -22 2 -42q0 55 36.5 93t91.5 38q54 0 91 -37z" />
    <glyph glyph-name="quoteright" unicode="&#x2019;" horiz-adv-x="428" 
d="M114 1235q-37 37 -37 91q0 53 37.5 90.5t90.5 37.5q107 0 130 -127q3 -33 3 -40q0 -157 -136 -338l-1 1h-1q59 78 92 158.5t38 115.5t5 63q0 22 -2 42q0 -55 -36.5 -93t-91.5 -38q-54 0 -91 37z" />
    <glyph glyph-name="quotesinglbase" unicode="&#x201a;" horiz-adv-x="428" 
d="M114 -7q-37 37 -37 91q0 53 37.5 90.5t90.5 37.5q107 0 130 -127q3 -33 3 -40q0 -157 -136 -338l-1 1h-1q59 78 92 158.5t38 115.5t5 63q0 22 -2 42q0 -55 -36.5 -93t-91.5 -38q-54 0 -91 37z" />
    <glyph glyph-name="quotereversed" unicode="&#x201b;" horiz-adv-x="428" 
d="M304 1235q-37 -37 -91 -37q-55 0 -91.5 38t-36.5 93q-2 -20 -2 -42q0 -28 5 -63t38 -115.5t92 -158.5h-1l-1 -1q-136 181 -136 338q0 7 3 40q23 127 130 127q53 0 90.5 -37.5t37.5 -90.5q0 -54 -37 -91z" />
    <glyph glyph-name="quotedblleft" unicode="&#x201c;" horiz-adv-x="800" 
d="M693 1138q37 -37 37 -91q0 -53 -37.5 -90.5t-90.5 -37.5q-107 0 -130 127q-3 33 -3 40q0 157 136 338q1 0 1 -0.5t1 -0.5q-59 -78 -92 -158.5t-38 -115.5t-5 -63q0 -22 2 -42q0 55 36.5 93t91.5 38q54 0 91 -37zM321 1138q37 -37 37 -91q0 -53 -37.5 -90.5t-90.5 -37.5
q-107 0 -130 127q-3 33 -3 40q0 157 136 338q1 0 1 -0.5t1 -0.5q-59 -78 -92 -158.5t-38 -115.5t-5 -63q0 -22 2 -42q0 55 36.5 93t91.5 38q54 0 91 -37z" />
    <glyph glyph-name="quotedblright" unicode="&#x201d;" horiz-adv-x="800" 
d="M486 1235q-37 37 -37 91q0 53 37.5 90.5t90.5 37.5q107 0 130 -127q3 -33 3 -40q0 -157 -136 -338l-1 1h-1q59 78 92 158.5t38 115.5t5 63q0 22 -2 42q0 -55 -36.5 -93t-91.5 -38q-54 0 -91 37zM114 1235q-37 37 -37 91q0 53 37.5 90.5t90.5 37.5q107 0 130 -127
q3 -33 3 -40q0 -157 -136 -338l-1 1h-1q59 78 92 158.5t38 115.5t5 63q0 22 -2 42q0 -55 -36.5 -93t-91.5 -38q-54 0 -91 37z" />
    <glyph glyph-name="quotedblbase" unicode="&#x201e;" horiz-adv-x="800" 
d="M486 -7q-37 37 -37 91q0 53 37.5 90.5t90.5 37.5q107 0 130 -127q3 -33 3 -40q0 -157 -136 -338l-1 1h-1q59 78 92 158.5t38 115.5t5 63q0 22 -2 42q0 -55 -36.5 -93t-91.5 -38q-54 0 -91 37zM114 -7q-37 37 -37 91q0 53 37.5 90.5t90.5 37.5q107 0 130 -127q3 -33 3 -40
q0 -157 -136 -338l-1 1h-1q59 78 92 158.5t38 115.5t5 63q0 22 -2 42q0 -55 -36.5 -93t-91.5 -38q-54 0 -91 37z" />
    <glyph glyph-name="uni201F" unicode="&#x201f;" horiz-adv-x="800" 
d="M676 1235q-37 -37 -91 -37q-55 0 -91.5 38t-36.5 93q-2 -20 -2 -42q0 -28 5 -63t38 -115.5t92 -158.5h-1l-1 -1q-136 181 -136 338q0 7 3 40q23 127 130 127q53 0 90.5 -37.5t37.5 -90.5q0 -54 -37 -91zM304 1235q-37 -37 -91 -37q-55 0 -91.5 38t-36.5 93q-2 -20 -2 -42
q0 -28 5 -63t38 -115.5t92 -158.5h-1l-1 -1q-136 181 -136 338q0 7 3 40q23 127 130 127q53 0 90.5 -37.5t37.5 -90.5q0 -54 -37 -91z" />
    <glyph glyph-name="dagger" unicode="&#x2020;" horiz-adv-x="1076" 
d="M213 968q33 0 59 -10q24 -8 79 -35q17 -8 63 -23t83 -25.5t39 -10.5q0 1 -14.5 40.5t-35.5 95t-30 80.5q-46 126 -46 204q0 66 33 113t95 47t95 -47t33 -113q0 -79 -46 -204q-10 -26 -30.5 -81t-35.5 -94.5t-15 -40.5q2 0 39.5 10.5t83.5 25.5t63 23q54 27 78 35
q27 10 60 10q50 0 82.5 -28.5t32.5 -77.5t-32.5 -77.5t-82.5 -28.5q-31 0 -60 9q-27 11 -78 36q-14 8 -60.5 23t-85 26t-40.5 11q0 -2 11 -49t26 -108.5t24 -90.5q31 -100 70 -151q-47 -62 -88.5 -314t-41.5 -668h-3q0 413 -42.5 666.5t-88.5 315.5q39 51 70 151
q9 29 24 90.5t25.5 108.5t10.5 49q-2 0 -40.5 -11t-84.5 -26t-60 -23q-52 -26 -79 -36q-27 -9 -59 -9q-50 0 -82.5 28.5t-32.5 77.5t32.5 77.5t82.5 28.5z" />
    <glyph glyph-name="daggerdbl" unicode="&#x2021;" horiz-adv-x="1076" 
d="M219 -86q-50 0 -82.5 28.5t-32.5 77.5t32.5 77.5t82.5 28.5q32 0 59 -9q27 -10 79 -36q14 -8 60 -23t84.5 -26t40.5 -11q-6 38 -19 67.5t-25.5 46.5t-39 50.5t-46.5 61.5q96 107 129 201q-4 6 -14.5 25t-38.5 60t-76 102q20 28 46.5 61.5t39 50.5t25.5 46.5t19 67.5
q-2 0 -40.5 -11t-84.5 -26t-60 -23q-52 -26 -79 -36q-27 -9 -59 -9q-50 0 -82.5 28.5t-32.5 77.5t32.5 77.5t82.5 28.5q33 0 59 -10q24 -8 79 -35q17 -8 63 -23t83 -25.5t39 -10.5q0 1 -14.5 40.5t-35.5 95t-30 80.5q-46 126 -46 204q0 66 33 113t95 47t95 -47t33 -113
q0 -79 -46 -204q-10 -26 -30.5 -81t-35.5 -94.5t-15 -40.5q2 0 39.5 10.5t83.5 25.5t63 23q54 27 78 35q27 10 60 10q50 0 82.5 -28.5t32.5 -77.5t-32.5 -77.5t-82.5 -28.5q-31 0 -60 9q-27 11 -78 36q-14 8 -60.5 23t-85 26t-40.5 11q7 -40 20.5 -71t25 -47t39.5 -50
t46 -58q-16 -24 -40 -60.5t-33.5 -51.5t-22.5 -34t-20 -27.5t-13 -13.5q19 -54 129 -201q-18 -24 -46 -58t-39.5 -50t-25 -47t-20.5 -71q2 0 40.5 11t85 26t60.5 23q51 25 78 36q29 9 60 9q50 0 82.5 -28.5t32.5 -77.5t-32.5 -77.5t-82.5 -28.5q-33 0 -60 10q-24 8 -78 35
q-17 8 -63 23t-83.5 25.5t-39.5 10.5q0 -1 15 -40.5t35.5 -94.5t30.5 -81q46 -125 46 -204q0 -66 -33 -113t-95 -47t-95 47t-33 113q0 78 46 204q9 25 30 80.5t35.5 95t14.5 40.5q-2 0 -39 -10.5t-83 -25.5t-63 -23q-55 -27 -79 -35q-26 -10 -59 -10z" />
    <glyph glyph-name="bullet" unicode="&#x2022;" horiz-adv-x="1004" 
d="M338 524q-64 64 -64 164q0 99 64 163q65 65 164 65q98 0 163 -65t65 -163q0 -99 -65 -164q-64 -64 -163 -64q-100 0 -164 64z" />
    <glyph glyph-name="ellipsis" unicode="&#x2026;" horiz-adv-x="1484" 
d="M1179 13q-37 37 -37 91t37 91t91 37t91 -37t37 -91t-37 -91t-91 -37t-91 37zM651 13q-37 37 -37 91t37 91t91 37t91 -37t37 -91t-37 -91t-91 -37t-91 37zM123 13q-37 37 -37 91t37 91t91 37t91 -37t37 -91t-37 -91t-91 -37t-91 37z" />
    <glyph glyph-name="guilsinglleft" unicode="&#x2039;" horiz-adv-x="546" 
d="M349 718l2 -3q-95 -59 -95 -273t95 -273l-2 -3q-104 50 -156.5 116t-52.5 160t52.5 160t156.5 116z" />
    <glyph glyph-name="guilsinglright" unicode="&#x203a;" horiz-adv-x="546" 
d="M197 166l-2 3q95 59 95 273t-95 273l2 3q104 -50 156.5 -116t52.5 -160t-52.5 -160t-156.5 -116z" />
    <glyph glyph-name="fraction" unicode="&#x2044;" horiz-adv-x="120" 
d="M-383 -16h-4l892 1478h6z" />
    <glyph glyph-name="foursuperior" unicode="&#x2074;" horiz-adv-x="560" 
d="M282 884h-268q26 28 73 114q31 56 49 120q36 122 36 296q0 104 80 104q30 0 46 -21t16 -56q0 -103 -127 -335q-24 -44 -84 -118.5t-76 -100.5h255v168l128 135v-303h33q74 0 100 145h3l-28 -148h-108v-224h-128v224z" />
    <glyph glyph-name="Euro" unicode="&#x20ac;" horiz-adv-x="1500" 
d="M262 856h-194v3h194q26 176 120 318.5t243 226.5t325 84q130 0 250 -48.5t212 -135.5l-2 -3q-198 184 -460 184q-259 0 -452 -177.5t-233 -448.5h977l-2 -3h-975q-8 -52 -8 -118q0 -74 13 -143h890l-2 -3h-888q22 -120 78 -229t140 -196t204 -139t258 -52q236 0 426 163
l2 -3q-194 -164 -428 -164q-134 0 -252.5 50.5t-205 136.5t-145 197.5t-80.5 235.5h-199v3h198q-12 71 -12 143q0 56 8 118z" />
    <glyph glyph-name="trademark" unicode="&#x2122;" horiz-adv-x="2044" 
d="M37 1175h-3l19 321h834l19 -321h-3q-14 143 -67 222q-64 96 -170 96h-114v-877h142v-4h-448v4h142v877h-114q-106 0 -170 -96q-55 -80 -67 -222zM1245 612h-271v4h134v877h-134v3h293l225 -641l236 641h291v-3h-142v-877h142v-4h-448v4h142v821h-2l-312 -851
q-267 820 -288 907v-877h134v-4z" />
    <glyph glyph-name="minus" unicode="&#x2212;" horiz-adv-x="1052" 
d="M1040 511h-1028v3h1028v-3z" />
    <glyph glyph-name="notequal" unicode="&#x2260;" horiz-adv-x="1052" 
d="M156 -16h-4l221 326h-361v3h363l273 401h-636v4h638l211 309h6l-211 -309h384v-4h-386l-274 -401h660v-3h-662z" />
    <glyph glyph-name="gravecomb.cap" unicode="&#xeb50;" 
d="M-788 1818q0 27 18 48.5t44 21.5q62 0 130 -64l246 -252l-2 -3l-324 135q-112 52 -112 114z" />
    <glyph glyph-name="acutecomb.cap" unicode="&#xeb51;" 
d="M-630 1572q132 134 201 201t89.5 83t35.5 22q70 29 101 -22q14 -25 9.5 -50.5t-24.5 -45.5q-11 -12 -34.5 -25t-112.5 -52t-265 -111z" />
    <glyph glyph-name="circumflexcmb.cap" unicode="&#xeb52;" 
d="M-804 1564h-4l298 324l49 54l351 -378h-4l-347 374z" />
    <glyph glyph-name="tildecomb.cap" unicode="&#xeb53;" 
d="M-859 1634l-3 1q93 218 298 175q26 -5 90 -37t130 -58t112 -23q23 1 41.5 10.5t32 28.5t20.5 32t18 39l2 -1q-73 -183 -224 -183q-49 0 -103 21.5t-94 47t-93.5 47t-102.5 21.5q-45 0 -73.5 -33.5t-50.5 -87.5z" />
    <glyph glyph-name="uni0308.cap" unicode="&#xeb54;" 
d="M-801 1659q-25 27 -25 63t25 60q26 24 62 24t61 -24q26 -24 26 -60t-26 -63q-25 -27 -61 -27t-62 27zM-303 1659q-25 27 -25 63t25 60q26 24 62 24t61 -24q26 -24 26 -60t-26 -63q-25 -27 -61 -27t-62 27z" />
    <glyph glyph-name="uni030B.cap" unicode="&#xeb55;" 
d="M-666 1568l-2 2l169 254q28 37 48.5 50.5t51.5 13.5q24 0 38.5 -18t14.5 -40q0 -42 -70 -94zM-376 1568l-2 2l169 254q28 37 48.5 50.5t51.5 13.5q24 0 38.5 -18t14.5 -40q0 -42 -70 -94z" />
    <glyph glyph-name="uni030A.cap" unicode="&#xeb56;" 
d="M-720 1708q0 98 67 164t163 66q98 0 164 -67.5t66 -162.5q0 -98 -67.5 -164t-162.5 -66q-99 0 -164.5 67t-65.5 163zM-717 1708q0 -92 64.5 -159.5t162.5 -67.5q96 0 161.5 66t65.5 161q0 97 -68 162t-159 65q-93 0 -160 -65t-67 -162z" />
    <glyph glyph-name="uni030C.cap" unicode="&#xeb57;" 
d="M-539 1564l-301 324h5l347 -374l341 374h5l-346 -379z" />
    <glyph glyph-name="brevecmb.cap" unicode="&#xeb58;" 
d="M-828 1886h3q32 -105 123 -161.5t212 -56.5q118 0 211.5 56.5t125.5 161.5h3q-32 -155 -119 -234.5t-221 -79.5q-133 0 -219 79t-119 235z" />
    <glyph glyph-name="macroncmb.cap" unicode="&#xeb59;" 
d="M-188 1678h-604v3h604v-3z" />
    <glyph glyph-name="uni0307.cap" unicode="&#xeb5a;" 
d="M-559 1653q-27 27 -27 69t27 69t69 27t69 -27t27 -69t-27 -69t-69 -27t-69 27z" />
    <glyph glyph-name="uni0327.cap" unicode="&#xeb5b;" 
d="M-513 -594q64 0 97.5 61t33.5 147q0 98 -37 140.5t-145 42.5l85 203h4l-84 -199q120 0 202.5 -47.5t82.5 -138.5q0 -103 -68 -158.5t-171 -55.5q-94 0 -164 47q-34 24 -52 51t-19 49.5t6 41.5t20.5 30t27.5 11q23 0 36 -16.5t17 -41.5t11 -54.5t16.5 -54.5t35 -41.5
t65.5 -16.5z" />
    <glyph glyph-name="uni0328.cap" unicode="&#xeb5c;" 
 />
    <glyph glyph-name="circumflex.i" unicode="&#xeb72;" horiz-adv-x="780" 
d="M140 1060h-4l213 374l48 85l269 -459h-4l-265 453z" />
    <glyph glyph-name="tilde.i" unicode="&#xeb73;" horiz-adv-x="780" 
d="M107 1103l-3 1q20 89 68 130t109 38t137 -40q92 -45 121 -53q108 -32 132 78l2 8l3 -1q-20 -89 -68 -130t-109 -38t-137 40q-12 6 -36.5 19t-39 20.5t-37 16.5t-37.5 11t-33 -0.5t-30.5 -14t-23.5 -32.5t-18 -53z" />
    <glyph glyph-name="dieresis.i" unicode="&#xeb74;" horiz-adv-x="780" 
d="M143 1139q-27 27 -27 69t27 69t69 27t69 -27t27 -69t-27 -69t-69 -27t-69 27zM519 1139q-27 27 -27 69t27 69t69 27t69 -27t27 -69t-27 -69t-69 -27t-69 27z" />
    <glyph glyph-name="breve.i" unicode="&#xeb78;" horiz-adv-x="780" 
d="M114 1387h3q23 -94 99.5 -145.5t173.5 -51.5t173.5 51.5t99.5 145.5h3q-18 -140 -90 -216.5t-186 -76.5t-186 76.5t-90 216.5z" />
    <glyph glyph-name="macron.i" unicode="&#xeb79;" horiz-adv-x="780" 
d="M646 1134h-512v3h512v-3z" />
    <glyph glyph-name="circumflexcmb.i" unicode="&#xeb82;" 
d="M-740 1060h-4l213 374l48 85l269 -459h-4l-265 453z" />
    <glyph glyph-name="tildecomb.i" unicode="&#xeb83;" 
d="M-773 1103l-3 1q20 89 68 130t109 38t137 -40q92 -45 121 -53q108 -32 132 78l2 8l3 -1q-20 -89 -68 -130t-109 -38t-137 40q-12 6 -36.5 19t-39 20.5t-37 16.5t-37.5 11t-33 -0.5t-30.5 -14t-23.5 -32.5t-18 -53z" />
    <glyph glyph-name="uni0308.i" unicode="&#xeb84;" 
d="M-737 1139q-27 27 -27 69t27 69t69 27t69 -27t27 -69t-27 -69t-69 -27t-69 27zM-361 1139q-27 27 -27 69t27 69t69 27t69 -27t27 -69t-27 -69t-69 -27t-69 27z" />
    <glyph glyph-name="brevecmb.i" unicode="&#xeb88;" 
d="M-766 1387h3q23 -94 99.5 -145.5t173.5 -51.5t173.5 51.5t99.5 145.5h3q-18 -140 -90 -216.5t-186 -76.5t-186 76.5t-90 216.5z" />
    <glyph glyph-name="macroncmb.i" unicode="&#xeb89;" 
d="M-234 1134h-512v3h512v-3z" />
    <glyph glyph-name="caroncommaaccent" unicode="&#xec30;" horiz-adv-x="220" 
d="M24 1295q-37 37 -37 91q0 53 37.5 90.5t90.5 37.5q65 0 99 -51t34 -116q0 -157 -136 -338l-1 1h-1q59 78 92 158.5t38 115.5t5 63q0 14 -2 32q-1 -54 -37 -87.5t-91 -33.5q-54 0 -91 37z" />
    <glyph glyph-name="iogonek.dotless" unicode="&#xec54;" horiz-adv-x="500" 
d="M109 -322q-1 27 4.5 54t13.5 47.5t26.5 46t30 40t38 38.5t37.5 33t41 33.5t36 29.5h-302v3h142v878h-142v3h306v-881h142v-3h-141q-34 -28 -56 -49t-49.5 -52.5t-41.5 -64.5t-14 -67q0 -67 50.5 -116.5t118.5 -49.5q54 0 96.5 35t42.5 89h3q0 -82 -50 -146.5t-138 -64.5
q-69 0 -129.5 49.5t-64.5 114.5z" />
    <glyph glyph-name="Dotaccent" unicode="&#xefed;" horiz-adv-x="780" 
d="M321 1653q-27 27 -27 69t27 69t69 27t69 -27t27 -69t-27 -69t-69 -27t-69 27z" />
    <glyph glyph-name="Breve" unicode="&#xefee;" horiz-adv-x="780" 
d="M52 1886h3q32 -105 123 -161.5t212 -56.5q118 0 211.5 56.5t125.5 161.5h3q-32 -155 -119 -234.5t-221 -79.5q-133 0 -219 79t-119 235z" />
    <glyph glyph-name="Ogonek" unicode="&#xeff1;" horiz-adv-x="780" 
d="M205 -350q-1 29 5 58.5t15.5 52.5t28.5 49.5t34 44t41.5 42t41.5 37t44 36t40 32.5l3 -2q-36 -30 -60.5 -53t-54 -57t-45 -70t-15.5 -73q0 -73 54.5 -126.5t128.5 -53.5q58 0 104.5 37.5t46.5 96.5h4q0 -89 -55 -159t-150 -70q-75 0 -141 53.5t-70 124.5z" />
    <glyph glyph-name="Cedilla" unicode="&#xeff2;" horiz-adv-x="906" 
d="M367 -594q64 0 97.5 61t33.5 147q0 98 -37 140.5t-145 42.5l85 203h4l-84 -199q120 0 202.5 -47.5t82.5 -138.5q0 -103 -68 -158.5t-171 -55.5q-94 0 -164 47q-34 24 -52 51t-19 49.5t6 41.5t20.5 30t27.5 11q23 0 36 -16.5t17 -41.5t11 -54.5t16.5 -54.5t35 -41.5
t65.5 -16.5z" />
    <glyph glyph-name="Ring" unicode="&#xeff3;" horiz-adv-x="780" 
d="M160 1708q0 98 67 164t163 66q98 0 164 -67.5t66 -162.5q0 -98 -67.5 -164t-162.5 -66q-99 0 -164.5 67t-65.5 163zM163 1708q0 -92 64.5 -159.5t162.5 -67.5q96 0 161.5 66t65.5 161q0 97 -68 162t-159 65q-93 0 -160 -65t-67 -162z" />
    <glyph glyph-name="Tilde" unicode="&#xeff5;" horiz-adv-x="780" 
d="M21 1634l-3 1q93 218 298 175q26 -5 90 -37t130 -58t112 -23q23 1 41.5 10.5t32 28.5t20.5 32t18 39l2 -1q-74 -183 -224 -183q-49 0 -103 21.5t-94 47t-93.5 47t-102.5 21.5q-45 0 -73.5 -33.5t-50.5 -87.5z" />
    <glyph glyph-name="Circumflex" unicode="&#xeff7;" horiz-adv-x="780" 
d="M76 1564h-4l298 324l49 54l351 -378h-4l-347 374z" />
    <glyph glyph-name="commaaccent" unicode="&#xf6c3;" horiz-adv-x="780" 
d="M314 -335q-37 37 -37 91q0 53 37.5 90.5t90.5 37.5q65 0 99 -51t34 -116q0 -157 -136 -338l-1 1h-1q59 78 92 158.5t38 115.5t5 63q0 14 -2 32q-1 -54 -37 -87.5t-91 -33.5q-54 0 -91 37z" />
    <glyph glyph-name="Acute" unicode="&#xf6c9;" horiz-adv-x="780" 
d="M250 1572q132 134 201 201t89.5 83t35.5 22q70 29 101 -22q14 -25 9.5 -50.5t-24.5 -45.5q-11 -12 -34.5 -25t-112.5 -52t-265 -111z" />
    <glyph glyph-name="Caron" unicode="&#xf6ca;" horiz-adv-x="780" 
d="M341 1564l-301 324h5l347 -374l341 374h5l-346 -379z" />
    <glyph glyph-name="Dieresis" unicode="&#xf6cb;" horiz-adv-x="780" 
d="M79 1659q-25 27 -25 63t25 60q26 24 62 24t61 -24q26 -24 26 -60t-26 -63q-25 -27 -61 -27t-62 27zM577 1659q-25 27 -25 63t25 60q26 24 62 24t61 -24q26 -24 26 -60t-26 -63q-25 -27 -61 -27t-62 27z" />
    <glyph glyph-name="Grave" unicode="&#xf6ce;" horiz-adv-x="780" 
d="M92 1818q0 27 18 48.5t44 21.5q62 0 130 -64l246 -252l-2 -3l-324 135q-112 52 -112 114z" />
    <glyph glyph-name="Hungarumlaut" unicode="&#xf6cf;" horiz-adv-x="780" 
d="M214 1568l-2 2l169 254q28 37 48.5 50.5t51.5 13.5q24 0 38.5 -18t14.5 -40q0 -42 -70 -94zM504 1568l-2 2l169 254q28 37 48.5 50.5t51.5 13.5q24 0 38.5 -18t14.5 -40q0 -42 -70 -94z" />
    <glyph glyph-name="Macron" unicode="&#xf6d0;" horiz-adv-x="780" 
d="M692 1678h-604v3h604v-3z" />
    <glyph glyph-name="dollaroldstyle" unicode="&#xf724;" horiz-adv-x="834" 
d="M448 -130h-3v117q-31 -3 -64 -3q-26 0 -56 3v-117h-3v117q-162 18 -214 138q-22 49 -22.5 116t32.5 108q34 34 89 27.5t74 -46.5q26 -54 1.5 -103.5t-74.5 -52.5q-33 -2 -33 -69q0 -48 39.5 -77t107.5 -37v404q-93 31 -152 82q-75 63 -75 187q0 208 227 232v105h3v-104
q30 3 64 3q20 0 56 -2v103h3v-103q77 -4 123 -24.5t79 -66.5q28 -40 36 -93t-9 -98q-19 -42 -64 -52.5t-79 17.5q-36 32 -30 77.5t44 67.5q29 17 36.5 32t3.5 48q-5 46 -33.5 66t-106.5 24v-365q144 -52 208 -110q67 -61 67 -169q0 -120 -81 -194q-63 -58 -194 -71v-117z
M381 -13q34 0 64 6v359q-47 19 -86 31q-17 4 -34 11v-404q25 -3 56 -3zM603 182q0 44 -12 67.5t-41 46.5q-37 29 -102 55v-357q74 14 114.5 63t40.5 125zM389 897q-31 0 -64 -7v-316q17 -7 104 -36l16 -6v364q-17 1 -56 1zM199 730q0 -28 6 -47.5t11.5 -27.5t19.5 -24
q34 -34 86 -55v313q-123 -29 -123 -159z" />
    <glyph glyph-name="zerooldstyle" unicode="&#xf730;" horiz-adv-x="1052" 
d="M46 442q0 135 66 242.5t173 164.5t234 59q205 3 346 -130.5t141 -335.5q0 -204 -140.5 -338.5t-344.5 -131.5q-207 4 -341 139t-134 331zM254 442q0 -216 69.5 -341.5t202.5 -125.5t202.5 125.5t69.5 341.5q0 214 -71.5 338t-204.5 124q-132 0 -200 -123.5t-68 -338.5z
" />
    <glyph glyph-name="oneoldstyle" unicode="&#xf731;" horiz-adv-x="1052" 
d="M163 557l-1 3q101 36 175 77q170 95 267 263h52v-897h264v-3h-712v3h264l-20 711q-99 -90 -289 -157z" />
    <glyph glyph-name="twooldstyle" unicode="&#xf732;" horiz-adv-x="1052" 
d="M892 0h-786v3q78 33 152 75t147.5 101t127.5 125t87.5 148.5t33.5 169.5q0 37 -6 73t-22 73.5t-41 65.5t-65.5 46t-92.5 18q-100 0 -201 -70q-102 -69 -102 -197q0 -28 27.5 -48t59 -27t60.5 -7q113 0 113 85q0 35 -15 60l2 1q48 -59 48 -138q0 -55 -39 -95
q-38 -41 -97 -41q-84 0 -123.5 59.5t-39.5 149.5q0 126 105 200q111 78 249 78q183 0 286 -89q49 -43 75.5 -94t26.5 -96q0 -73 -29 -136.5t-72 -107t-107.5 -87t-122 -72.5t-128.5 -67t-114 -67h427q98 0 149 57q44 49 61 147h2z" />
    <glyph glyph-name="threeoldstyle" unicode="&#xf733;" horiz-adv-x="1052" 
d="M46 -240q0 67 40 114q41 48 95 48q50 0 82 -26.5t32 -67.5q0 -67 -73 -101q-57 -27 -57 -69q0 -221 301 -221q66 0 117.5 18t84.5 43.5t56 71t34 81t17 94.5t7 90t1 88v5q0 61 -10.5 120.5t-36 116t-62 98.5t-92.5 65.5t-125 18.5q-8 -10 -26.5 -32t-29 -35t-27.5 -32
t-29 -30.5t-26.5 -23t-27 -17t-23.5 -5.5q-29 0 -44 16t-15 41q0 42 58 76q57 33 188 46l315 375h-451q-81 0 -128 -62q-44 -61 -56 -145h-3l36 364h738l-446 -532q106 7 201 -19t167.5 -79t115 -138.5t42.5 -190.5q0 -108 -42 -200.5t-112.5 -155.5t-165 -98.5
t-198.5 -35.5q-114 0 -210 35q-97 36 -154.5 112.5t-57.5 178.5zM453 347q-49 -5 -104 -18t-80 -27q-56 -32 -56 -73q0 -24 14 -38.5t41 -14.5q15 0 32 9t44 37t40.5 43.5t52.5 62.5q11 13 16 19z" />
    <glyph glyph-name="fouroldstyle" unicode="&#xf734;" horiz-adv-x="1052" 
d="M624 0h-536q26 134 128 344.5t229 378.5t207 168q38 0 97 -45t59 -69v-774h238v-3h-238v-380h-184v380zM92 3h532v696q-59 -28 -112.5 -63t-118.5 -95t-118 -132t-102.5 -177.5t-80.5 -228.5z" />
    <glyph glyph-name="fiveoldstyle" unicode="&#xf735;" horiz-adv-x="1052" 
d="M105 -225q0 67 38.5 108.5t95.5 41.5q47 0 78.5 -27.5t31.5 -72.5q0 -32 -8 -55.5t-19.5 -36t-23 -22t-19.5 -21.5t-8 -27q0 -183 218 -183q56 0 102.5 19t77.5 49t54 73.5t36 87t21 95.5t10.5 92t2.5 83q0 62 -16.5 132t-47 135.5t-83.5 108.5t-117 43q-66 0 -159 -28.5
t-140 -49.5q-12 -60 -26.5 -86.5t-41.5 -29.5q-42 -4 -42 38q0 17 16.5 32.5t32.5 23.5t50 22q5 2 7 3l135 622q35 -25 128.5 -59.5t137.5 -34.5q202 0 303 131l2 -1q-76 -136 -177.5 -206t-217.5 -70q-91 0 -218 29l-88 -409q192 78 298 78q203 0 337 -117
q133 -117 133 -298q0 -229 -143.5 -370t-366.5 -141q-93 0 -179 34t-145.5 104t-59.5 160zM225 318q-100 -39 -100 -76q0 -34 36 -34q14 0 25.5 10t18 25.5t10.5 29.5t7 29t3 16z" />
    <glyph glyph-name="sixoldstyle" unicode="&#xf736;" horiz-adv-x="1052" 
d="M86 564q0 179 53 371q28 99 56 173.5t73.5 152.5t99 127.5t132 81.5t174.5 32q66 0 129.5 -27.5t107 -80t43.5 -115.5q0 -150 -86 -150q-41 0 -68 16.5t-37 42t-7 56t19 59.5q119 196 -112 196q-55 0 -101 -14t-79.5 -36.5t-61 -59.5t-45.5 -73.5t-32 -88t-21.5 -94.5
t-13 -101.5t-8 -99.5t-6 -98.5t-5.5 -89.5q76 98 134 126.5t180 28.5q98 0 172.5 -33.5t116.5 -92.5q79 -111 79 -272q0 -132 -58 -250.5t-164 -192.5t-233 -74q-78 0 -143.5 24t-112 66.5t-81 98t-55 121.5t-30 133t-9.5 137zM282 450q0 -90 5.5 -156.5t21 -126.5t41.5 -98
t68 -59.5t100 -21.5q50 0 90 22.5t67 57.5t47 85.5t30.5 99.5t17 107t8.5 100t2 86q0 84 -9 144.5t-31 108.5t-62 72t-99 24t-99 -8t-74.5 -32.5t-55 -46t-61.5 -72.5q0 -50 -3.5 -149.5t-3.5 -136.5z" />
    <glyph glyph-name="sevenoldstyle" unicode="&#xf737;" horiz-adv-x="1052" 
d="M135 521h-3l36 364h748l-30 -156q-38 -197 -70 -339.5t-85 -335t-121.5 -348t-148.5 -263.5q-76 -101 -170 -31q-75 58 -10 152q56 82 131.5 182t126 164.5t109.5 157t98.5 179.5t76 210.5t58.5 270.5h-564q-81 0 -128 -62q-45 -62 -54 -145z" />
    <glyph glyph-name="eightoldstyle" unicode="&#xf738;" horiz-adv-x="1052" 
d="M90 316q0 120 85 229q71 92 245 165q-136 47 -210 141.5t-74 213.5q0 121 54 210q106 175 326 175q140 0 243 -82t103 -210q0 -64 -15 -113t-49.5 -88.5t-74.5 -69.5t-105 -68q165 -63 250 -145q92 -86 92 -238q0 -121 -60.5 -225.5t-161.5 -165t-216 -60.5
q-63 0 -123.5 12.5t-116.5 39t-98.5 64.5t-68 93.5t-25.5 121.5zM222 318q0 -141 77.5 -235.5t222.5 -94.5q91 0 165 57.5t111.5 139t37.5 163.5q0 102 -49 161q-48 60 -163 111l-202 90q-115 -58 -157.5 -156t-42.5 -236zM244 1140q0 -106 61 -161q34 -29 65 -47
q14 -8 88 -42l156 -69q156 115 156 332q0 34 -3.5 65.5t-19 76t-41 76t-74.5 54t-116 22.5q-65 0 -115 -21t-79 -52.5t-47.5 -74.5t-24.5 -81t-6 -78z" />
    <glyph glyph-name="nineoldstyle" unicode="&#xf739;" horiz-adv-x="1052" 
d="M74 -386q0 66 32.5 108t81.5 42q39 0 67.5 -22t28.5 -56q0 -41 -31 -96q-25 -41 -25 -78q0 -47 22.5 -82.5t78.5 -35.5t104.5 16t85 40.5t68 66t52.5 79t40 94.5t29.5 97.5t20.5 102.5t14 95.5t10.5 90t8.5 73.5q-137 -155 -314 -155q-98 0 -172.5 33.5t-116.5 92.5
q-79 111 -79 272q0 97 34 190t92.5 165.5t145 117t183.5 44.5q93 0 168 -35t123 -92t80.5 -133.5t46 -156t13.5 -163.5q0 -178 -50.5 -365.5t-141.5 -322.5q-166 -250 -446 -250q-101 0 -177.5 63.5t-76.5 159.5zM256 386q0 -69 4.5 -122t17 -105t33.5 -86t55.5 -54.5
t81.5 -20.5q48 0 93 12t71.5 23.5t63 41t46 38.5t41.5 41q7 101 7 289q0 78 -3 132.5t-11 111.5t-24.5 93.5t-42.5 66.5t-65 44t-91 14t-95 -20t-71 -52t-49.5 -78t-33 -91t-18 -99.5t-8.5 -94.5t-2 -84z" />
    <glyph glyph-name="ff" unicode="&#xfb00;" horiz-adv-x="1214" 
d="M760 881h-416v-878h142v-3h-448v3h142v878h-146v3h146v94q0 224 90 355q62 90 149 134.5t186 44.5q187 0 264 -166q47 65 115 111q82 55 166 55q92 0 153 -48t61 -132q0 -59 -28 -94t-71 -35q-76 0 -76 71q0 32 27 59q27 26 34.5 67t-17.5 75t-83 34q-64 0 -111.5 -49
t-70.5 -125t-33.5 -146t-10.5 -133v-172h216v-3h-216v-878h142v-3h-448v3h142v878zM604 1509q-57 0 -103 -30t-74.5 -76.5t-48 -105.5t-27 -114t-7.5 -105v-194h416v70q0 219 89 362l18 27q-75 166 -263 166z" />
    <glyph glyph-name="fl" unicode="&#xfb02;" horiz-adv-x="1068" 
d="M180 881h-146v3h146v70q0 236 79 374q105 184 311 184q84 0 140 -22t110 -78l88 100v-1509h142v-3h-448v3h142v1215q0 140 -49.5 215.5t-129.5 75.5q-100 0 -160.5 -121t-60.5 -324v-180h216v-3h-216v-878h142v-3h-448v3h142v878z" />
    <glyph glyph-name="ffl" unicode="&#xfb04;" horiz-adv-x="1648" 
d="M760 881h-416v-878h142v-3h-448v3h142v878h-146v3h146v94q0 224 90 355q62 90 149 134.5t186 44.5q178 0 256 -149q106 149 289 149q84 0 140 -22t110 -78l88 100v-1509h142v-3h-448v3h142v1215q0 140 -49.5 215.5t-129.5 75.5q-100 0 -160.5 -121t-60.5 -324v-180h216
v-3h-216v-878h142v-3h-448v3h142v878zM604 1509q-57 0 -103 -30t-74.5 -76.5t-48 -105.5t-27 -114t-7.5 -105v-194h416v70q0 236 79 374q8 16 20 32q-75 149 -255 149z" />
    <glyph glyph-name="s_t" unicode="&#xfb06;" horiz-adv-x="1410" 
d="M78 -16h-2v348h3q0 -142 89.5 -243.5t209.5 -101.5q102 0 155 50.5t53 144.5q0 44 -12 67.5t-41 46.5q-52 43 -191 87q-123 38 -189 94q-75 63 -75 187q0 107 70 171q71 65 166 65q37 0 71 -7q-115 43 -179 143t-64 232q0 113 69.5 212t178 155t224.5 56q89 0 171.5 -34
t149.5 -97t107 -163t40 -223v-290h228v-3h-228v-691q0 -76 30 -133.5t84 -57.5q35 0 73 30t63 75q20 36 32.5 87t12.5 81h3q-4 -56 -19.5 -105.5t-44 -91.5t-74.5 -66.5t-105 -24.5q-93 0 -155 51t-62 161v685h-174v3q89 0 155 23t104 64.5t56 92t18 110.5q0 122 -40 221.5
t-106 162t-148.5 96.5t-170.5 34q-86 0 -171 -33.5t-150.5 -89t-106.5 -134.5t-41 -163q0 -135 69 -237t190 -142q34 -7 69 -24q22 -10 48 -16t51.5 -5t42.5 15t17 41h3v-281h-3q-29 75 -70 149q-71 129 -248 129q-65 0 -98.5 -47.5t-33.5 -119.5q0 -28 6 -47.5t11.5 -27.5
t19.5 -24q15 -15 31.5 -26.5t42 -22.5t37 -15.5t45 -16t37.5 -12.5q161 -56 227 -117q67 -61 67 -169q0 -120 -81 -194q-80 -74 -247 -74q-67 0 -137 38q-25 13 -50 21.5t-52 10t-44 -16t-17 -53.5z" />
    <glyph glyph-name="c_t" horiz-adv-x="1514" 
d="M46 432q0 125 56.5 232t158 171.5t223.5 64.5q11 0 35 -2q-129 38 -201 135t-72 235q0 113 69.5 212t178 155t224.5 56q89 0 171.5 -34t149.5 -97t107 -163t40 -223v-290h228v-3h-228v-691q0 -76 30 -133.5t84 -57.5q35 0 73 30t63 75q20 36 32.5 87t12.5 81h3
q-4 -56 -19.5 -105.5t-44 -91.5t-74.5 -66.5t-105 -24.5q-93 0 -155 51t-62 161v685h-174v3q89 0 155 23t104 64.5t56 92t18 110.5q0 122 -40 221.5t-106 162t-148.5 96.5t-170.5 34q-86 0 -171 -33.5t-150.5 -89t-106.5 -134.5t-41 -163q0 -142 77 -239.5t213 -132.5
q111 -17 170 -81q71 -74 71 -152q0 -51 -28 -86t-78 -35q-57 -1 -75.5 43t6.5 97q13 33 13 71q0 21 -1 34.5t-8.5 36.5t-21 37t-42 25t-68.5 11q-53 0 -94.5 -21.5t-67 -59t-43.5 -81t-26.5 -96t-12 -94.5t-3.5 -85q0 -193 70 -305q37 -60 82 -86.5t124 -26.5
q158 0 223.5 75t65.5 213h3q-2 -107 -39 -184q-24 -50 -56 -82q-77 -80 -227 -80q-194 0 -312 124t-118 324z" />
    <glyph glyph-name="a_t" horiz-adv-x="1460" 
d="M62 193q0 113 62.5 174.5t188.5 98.5q63 19 243 73v101v9q0 34 -0.5 51t-3.5 48t-9.5 48t-19 39t-30.5 33.5t-46 20t-64 8.5q-89 0 -133.5 -56.5t-10.5 -134.5q15 -32 15 -62q0 -31 -22.5 -51.5t-62.5 -20.5q-47 0 -71 25t-24 69q0 92 91 162q91 72 221 72q36 0 63 -4
q-122 40 -189.5 138t-67.5 234q0 113 69.5 212t178 155t224.5 56q89 0 171.5 -34t149.5 -97t107 -163t40 -223v-290h228v-3h-228v-691q0 -76 30 -133.5t84 -57.5q35 0 73 30t63 75q20 36 32.5 87t12.5 81h3q-4 -56 -19.5 -105.5t-44 -91.5t-74.5 -66.5t-105 -24.5
q-93 0 -155 51t-62 161v685h-174v3q89 0 155 23t104 64.5t56 92t18 110.5q0 122 -40 221.5t-106 162t-148.5 96.5t-170.5 34q-86 0 -171 -33.5t-150.5 -89t-106.5 -134.5t-41 -163q0 -141 72.5 -239.5t204.5 -135.5q109 -18 168 -86q80 -92 80 -245v-451q0 -32 1.5 -50
t7 -35.5t16.5 -24t30.5 -10.5t47.5 -1t69 11v-3q-46 -17 -99 -15t-100 17t-84.5 49.5t-52.5 81.5v7q-52 -79 -111.5 -116.5t-148.5 -37.5q-105 0 -170 56q-64 55 -64 153zM236 209q0 -96 36.5 -151.5t105.5 -55.5q44 0 95.5 43.5t82.5 98.5v392l-215 -65
q-52 -15 -78.5 -85.5t-26.5 -176.5z" />
    <glyph glyph-name="n_quoteright_t" horiz-adv-x="1681" 
d="M482 0h-448v3h142v878h-142v3h306v-242q49 115 136.5 186.5t187.5 71.5q4 0 12 -0.5t12 -0.5q-133 36 -206 132t-73 237q0 113 69.5 212t178 155t224.5 56q89 0 171.5 -34t149.5 -97t107 -163t40 -223v-290h228v-3h-228v-691q0 -76 30 -133.5t84 -57.5q35 0 73 30t63 75
q20 36 32.5 87t12.5 81h3q-4 -56 -19.5 -105.5t-44 -91.5t-74.5 -66.5t-105 -24.5q-93 0 -155 51t-62 161v685h-174v3q89 0 155 23t104 64.5t56 92t18 110.5q0 122 -40 221.5t-106 162t-148.5 96.5t-170.5 34q-86 0 -171 -33.5t-150.5 -89t-106.5 -134.5t-41 -163
q0 -148 81 -245.5t227 -127.5q84 -15 137 -80q63 -78 63 -207v-605h142v-3h-448v3h142v641q0 66 -12.5 118t-46 88.5t-85.5 36.5q-41 0 -98.5 -35.5t-97.5 -87.5q-23 -30 -37 -52.5t-25 -45.5t-14 -29v-634h142v-3zM797 1235q-37 37 -37 91q0 53 37.5 90.5t90.5 37.5
q107 0 130 -127q3 -33 3 -40q0 -157 -136 -338q-1 0 -1 0.5t-1 0.5q59 78 92 158.5t38 115.5t5 63q0 22 -2 42q0 -55 -36.5 -93t-91.5 -38q-54 0 -91 37z" />
    <glyph glyph-name="percent.alt" horiz-adv-x="1440" 
d="M278 -18l-4 2l884 1512l6 -2zM755 314q-3 88 34 172t115 142t178 58q62 0 116.5 -22.5t93 -59.5t66 -84t40.5 -97.5t12 -98.5q-2 -86 -40.5 -165t-114.5 -133t-173 -54q-75 0 -138 32t-102.5 83.5t-62 110t-24.5 116.5zM910 301q2 -47 9 -92.5t24 -103.5t53 -94t86 -36
q172 0 172 354q0 32 -1.5 61t-6.5 74t-17 80t-30 68.5t-48 52t-69 18.5q-48 0 -82.5 -31.5t-51.5 -74.5t-26.5 -102t-11 -97.5t-0.5 -76.5zM46 1141q-3 88 34 172t115 142t178 58q62 0 116.5 -22.5t93 -59.5t66 -84t40.5 -97.5t12 -98.5q-2 -86 -40.5 -165t-114.5 -133
t-173 -54q-75 0 -138 32t-102.5 83.5t-62 110t-24.5 116.5zM201 1128q1 -35 5 -70.5t15.5 -84t29.5 -84.5t49.5 -61.5t72.5 -25.5q172 0 172 354q0 32 -1.5 61t-6.5 74t-17 80t-30 68.5t-48 52t-69 18.5q-48 0 -82.5 -31.5t-51.5 -75t-26.5 -101.5t-11 -97.5t-0.5 -76.5z
" />
    <glyph glyph-name="sterlingoldstyle" horiz-adv-x="908" 
d="M247 450h-139v3h137q-31 68 -39 115q-24 144 74.5 241t264.5 97q35 0 61 -2.5t54.5 -11t47.5 -23.5t33.5 -41.5t18.5 -63.5q9 -81 -33.5 -132.5t-109.5 -51.5q-99 0 -103 78q-3 37 18.5 62.5t51.5 28.5q24 3 39.5 -6.5t21.5 -23t15 -24.5t21 -11q39 0 42 89
q2 36 -8.5 61.5t-25.5 38.5t-42.5 20t-48 8.5t-53.5 1.5q-43 0 -75 -19t-49 -47t-27 -67t-12.5 -72.5t-1.5 -71.5q2 -79 17 -173h316v-3h-315q4 -26 12.5 -74.5t12.5 -73t7 -59t0 -61t-12 -49.5q148 -36 246 -36q54 0 95.5 26t47.5 63.5t-35 79.5l2 2q22 -19 36.5 -47.5
t14.5 -57.5q0 -81 -50.5 -130t-137.5 -49q-47 0 -96 13.5t-79 28t-80 41.5q-51 -83 -201 -83q-56 0 -101 26.5t-45 70.5q0 49 37 77.5t89 28.5q34 0 68 -6.5t75 -19t55 -15.5q4 29 -7 69.5t-25 70.5t-41.5 85t-38.5 79zM38 81q0 -44 44 -69t99 -25q118 0 161 105
q-8 6 -33 24t-37.5 26t-33.5 20t-39.5 17t-37.5 5q-56 0 -89.5 -29t-33.5 -74z" />
    <glyph glyph-name="yenoldstyle" horiz-adv-x="964" 
d="M136 328v3h266v118l-22 34h-244v3h242l-252 395h-104v3h434v-3h-113l246 -395l237 395h-112v3h221v-3h-107l-235 -395h257v-3h-259v-152h259v-3h-259v-325h162v-3h-513v3h162v325h-266z" />
    <glyph glyph-name="Eurooldstyle" horiz-adv-x="1000" 
d="M916 789l-2 -2q-57 53 -132.5 82.5t-157.5 29.5q-166 0 -286 -109.5t-145 -273.5h-3q25 165 146 275.5t288 110.5q171 0 292 -113zM624 -28q-166 0 -283.5 110t-147.5 269h3q30 -158 146.5 -267t281.5 -109q148 0 269 100l2 -2q-122 -101 -271 -101zM809 516h-616v-3h614
zM757 354h-561v-3h560zM185 442q0 42 5 71h3q-5 -29 -5 -71q0 -49 8 -88h-3q-8 39 -8 88zM68 354v-3h125v3h-125zM68 513h122v3h-122v-3z" />
    <glyph glyph-name="g_g" horiz-adv-x="2009" 
d="M988 -376q0 144 214 252q-45 0 -89 16q-46 13 -76.5 53t-32.5 109q0 96 47 172t128 114v4q-125 95 -125 240q0 83 39 149q16 30 16.5 62.5t-12 59t-41 43.5t-66.5 17q-57 -1 -113.5 -40.5t-94.5 -90.5q78 -74 78 -200q0 -136 -105 -226t-253 -90q-49 0 -112.5 22
t-114.5 50q-64 -27 -108.5 -82.5t-58.5 -117.5q-7 -30 27 -53.5t84.5 -35t100.5 -11.5q46 0 161 15q113 15 161 15q136 0 204 -74t68 -209q0 -174 -129 -295q-130 -122 -329 -122q-70 0 -135.5 15t-121 44.5t-88.5 80t-33 114.5q0 144 214 252q-45 0 -89 16q-46 13 -76.5 53
t-32.5 109q0 96 47 172t128 114v4q-125 95 -125 240q0 136 105 226t253 90q83 0 155 -30t123 -84q39 52 96 92t114 40q73 0 104 -53.5t10 -114.5q23 33 55 60q105 90 253 90q83 0 155 -30t123 -84q44 62 75 87q31 27 81 27q58 0 92 -35.5t34 -90.5q0 -33 -18.5 -56.5
t-47.5 -23.5q-31 0 -47 30t-18.5 66.5t-11 66.5t-26.5 30q-23 0 -54 -32t-57 -72q78 -74 78 -199q0 -136 -105 -226t-253 -90q-49 0 -112.5 22t-114.5 50q-64 -27 -108.5 -82.5t-58.5 -117.5q-7 -30 27 -53.5t84.5 -35t100.5 -11.5q46 0 161 15q113 15 161 15q136 0 204 -74
t68 -209q0 -174 -129 -295q-130 -122 -329 -122q-70 0 -135.5 15t-121 44.5t-88.5 80t-33 114.5zM713 -474q73 92 73 200q0 74 -46 127t-149 53q-42 0 -133 -8.5t-164 -21.5q-92 -53 -130 -86q-83 -74 -83 -166q0 -71 38.5 -121t98.5 -71t134 -24.5t144 11t129 42.5t88 65z
M1623 -474q73 92 73 200q0 74 -46 127t-149 53q-42 0 -133 -8.5t-164 -21.5q-92 -53 -130 -86q-83 -74 -83 -166q0 -71 38.5 -121t98.5 -71t134 -24.5t144 11t129 42.5t88 65zM308 581q0 -49 3 -87.5t15 -82.5t32 -72.5t57 -48t87 -19.5t87 20.5t57 50t32 74.5t15 82t3 83
q0 59 -9 110.5t-29.5 100t-60.5 77t-95 28.5q-59 0 -100 -29.5t-60 -80.5t-26.5 -100t-7.5 -106zM1218 581q0 -49 3 -87.5t15 -82.5t32 -72.5t57 -48t87 -19.5t87 20.5t57 50t32 74.5t15 82t3 83q0 59 -9 110.5t-29.5 100t-60.5 77t-95 28.5q-59 0 -100 -29.5t-60 -80.5
t-26.5 -100t-7.5 -106z" />
    <glyph glyph-name="i_t" horiz-adv-x="1130" 
d="M172 1270q-36 36 -36 88t36 88l10 9q97 99 231 109q99 6 190 -48.5t145 -147t54 -194.5v-290h228v-3h-228v-691q0 -76 30 -133.5t84 -57.5q35 0 73 30t63 75q20 36 32.5 87t12.5 81h3q-4 -56 -19.5 -105.5t-44 -91.5t-74.5 -66.5t-105 -24.5q-93 0 -155 51t-62 161v685
h-174v3q89 0 155 23t104 64.5t56 92t18 110.5q0 100 -53.5 192t-143.5 146.5t-189 48.5q-121 -10 -213 -94q26 15 60 15q52 0 88 -36t36 -88t-36 -88t-88 -36t-88 36zM482 0h-448v3h142v878h-142v3h306v-881h142v-3z" />
    <glyph glyph-name="i_f" horiz-adv-x="1098" 
d="M680 881h-146v3h146v70q0 219 89 362q54 87 135 141q58 39 119 51l1 3q-87 8 -156 45t-131 117q-59 77 -124.5 111.5t-155.5 34.5q-145 0 -247 -102.5t-102 -246.5q0 -69 23 -124l5 1v11q0 52 36 88t88 36t88 -36t36 -88t-36 -88t-88 -36t-88 36q-11 10 -22 28
q-45 75 -45 172q0 146 103 249t249 103q91 0 156.5 -34.5t125.5 -112.5q66 -86 142.5 -122.5t175.5 -40.5h13q92 0 153 -48t61 -132q0 -59 -28 -94t-71 -35q-76 0 -76 71q0 32 27 59q27 26 34.5 67t-17.5 75t-83 34q-64 0 -111.5 -49t-70.5 -125t-33.5 -146t-10.5 -133v-172
h216v-3h-216v-878h142v-3h-448v3h142v878zM482 0h-448v3h142v878h-142v3h306v-881h142v-3z" />
    <glyph glyph-name="i_n" horiz-adv-x="1572" 
d="M172 1270q-36 36 -36 88q0 27 8 46q55 154 190.5 250.5t302.5 96.5q142 0 263.5 -70.5t192 -191t70.5 -262.5q0 -111 -43.5 -210.5t-120.5 -172.5q78 56 165 56q119 0 187.5 -78.5t68.5 -213.5v-605h142v-3h-448v3h142v641q0 66 -12.5 118t-46 88.5t-85.5 36.5
q-44 0 -98.5 -36t-93.5 -82q-15 -18 -29.5 -40t-22.5 -37.5t-17 -33.5t-11 -21v-634h142v-3h-448v3h142v878h-142v3h306v-242q31 73 78 129q26 30 53 52q90 74 139.5 181t49.5 223q0 141 -70.5 261t-191 190t-261.5 70q-158 0 -288 -88.5t-191 -230.5q6 9 14 17q36 36 88 36
t88 -36t36 -88t-36 -88t-88 -36t-88 36zM482 0h-448v3h142v878h-142v3h306v-881h142v-3z" />
    <glyph glyph-name="n_g" horiz-adv-x="2132" 
d="M1150 -376q0 144 214 252q-45 0 -89 16q-46 13 -76.5 53t-32.5 109q0 96 47 172t128 114v4q-125 95 -125 240q0 73 30 133l-4 4q-91 -99 -186 -166q-69 -49 -136 -75v-477h142v-3h-448v3h142v437q-10 -1 -29 -1q-137 0 -228 77t-90 173q0 55 32 100l-1 2
q-64 -66 -100 -158v-630h142v-3h-448v3h142v878h-142v3h306v-242q48 113 132 183q89 75 192 75q119 0 187.5 -78.5t68.5 -213.5v-125q53 18 135 75q94 66 217 200q130 142 302 142q83 0 155 -30t123 -84q47 66 77.5 90t78.5 24q58 0 92 -35.5t34 -90.5q0 -33 -18.5 -56.5
t-47.5 -23.5q-31 0 -47 30t-18.5 66.5t-11 66.5t-26.5 30q-23 0 -54 -32t-57 -72q78 -74 78 -199q0 -135 -105.5 -225.5t-252.5 -90.5q-49 0 -112.5 22t-114.5 50q-64 -27 -108.5 -82.5t-58.5 -117.5q-10 -44 61 -72t151 -28q22 0 160 15t162 15q136 0 204 -74t68 -209
q0 -175 -131 -296t-327 -121q-70 0 -135.5 15t-121 44.5t-88.5 80t-33 114.5zM1785 -474q73 92 73 200q0 74 -46 127t-149 53q-42 0 -133 -8.5t-164 -21.5q-92 -53 -130 -86q-83 -74 -83 -166q0 -71 38.5 -121t98.5 -71t134 -24.5t144 11t129 42.5t88 65zM1380 581
q0 -49 3 -87.5t15 -82.5t32 -72.5t57 -48t87 -19.5t87 20.5t57 50t32 74.5t15 82t3 83q0 59 -9 110.5t-29.5 100t-60.5 77t-95 28.5q-59 0 -100 -29.5t-60 -80.5t-26.5 -100t-7.5 -106zM727 442q19 0 29 1v201q0 66 -12.5 118t-46 88.5t-85.5 36.5q-38 0 -91.5 -30.5
t-81.5 -75.5q-27 -43 -27 -92q0 -96 90 -171.5t225 -75.5z" />
    <glyph glyph-name="n_g.alt" horiz-adv-x="2132" 
d="M482 0h-448v3h142v878h-142v3h306v-242q49 115 136.5 186.5t187.5 71.5q90 0 152 -45q-84 98 -84 231q0 150 106 256t256 106q149 0 255 -106t106 -256q0 -146 -104 -253q95 67 223 67q83 0 155 -30t123 -84q44 62 75 87q31 27 81 27q58 0 92 -35.5t34 -90.5
q0 -33 -18.5 -56.5t-47.5 -23.5q-31 0 -47 30t-18.5 66.5t-11 66.5t-26.5 30q-23 0 -54 -32t-57 -72q78 -74 78 -199q0 -136 -105 -226t-253 -90q-49 0 -112.5 22t-114.5 50q-64 -27 -108.5 -82.5t-58.5 -117.5q-7 -30 27 -53.5t84.5 -35t100.5 -11.5q46 0 161 15
q113 15 161 15q136 0 204 -74t68 -209q0 -174 -129 -295q-130 -122 -329 -122q-70 0 -135.5 15t-121 44.5t-88.5 80t-33 114.5q0 144 214 252q-45 0 -89 16q-46 13 -76.5 53t-32.5 109q0 96 47 172t128 114v4q-125 95 -125 240q0 136 105 226q6 6 14 11q117 109 117 265
q0 148 -105 253.5t-253 105.5t-253.5 -105.5t-105.5 -253.5q0 -142 94 -242q10 -9 28 -29q63 -78 63 -207v-605h142v-3h-448v3h142v641q0 66 -12.5 118t-46 88.5t-85.5 36.5q-41 0 -98.5 -35.5t-97.5 -87.5q-23 -30 -37 -52.5t-25 -45.5t-14 -29v-634h142v-3zM1785 -474
q73 92 73 200q0 74 -46 127t-149 53q-42 0 -133 -8.5t-164 -21.5q-92 -53 -130 -86q-83 -74 -83 -166q0 -71 38.5 -121t98.5 -71t134 -24.5t144 11t129 42.5t88 65zM1380 581q0 -49 3 -87.5t15 -82.5t32 -72.5t57 -48t87 -19.5t87 20.5t57 50t32 74.5t15 82t3 83
q0 59 -9 110.5t-29.5 100t-60.5 77t-95 28.5q-59 0 -100 -29.5t-60 -80.5t-26.5 -100t-7.5 -106z" />
    <glyph glyph-name="t_o" horiz-adv-x="1610" 
d="M838 114q-122 131 -122 328t122 328q50 53 109 84q75 54 119 135.5t44 177.5q0 158 -113 271t-271 113q-159 0 -271.5 -113t-112.5 -271v-283h228v-3h-228v-691q0 -76 30 -133.5t84 -57.5q35 0 73 30t63 75q20 36 32.5 87t12.5 81h3q-4 -56 -19.5 -105.5t-44 -91.5
t-74.5 -66.5t-105 -24.5q-93 0 -155 51t-62 161v685h-174v3q88 0 153.5 22.5t103.5 62.5t56.5 89.5t19.5 108.5q0 160 113.5 273.5t273.5 113.5t273.5 -113.5t113.5 -273.5q0 -93 -40 -172t-111 -133q82 38 178 38q180 0 301 -130q123 -131 123 -328q0 -198 -123 -328
q-121 -130 -301 -130q-179 0 -302 130zM902 442q0 -455 238 -455t238 455t-238 455t-238 -455z" />
    <glyph glyph-name="i_f.alt" horiz-adv-x="1088" 
d="M172 1270q-11 10 -22 28q-45 75 -45 172q0 146 103 249t249 103q120 0 210.5 -71.5t123 -179t-0.5 -211.5q45 57 104 97q82 55 166 55q92 0 153 -48t61 -132q0 -59 -28 -94t-71 -35q-76 0 -76 71q0 32 27 59q27 26 34.5 67t-17.5 75t-83 34q-64 0 -111.5 -49t-70.5 -125
t-33.5 -146t-10.5 -133v-172h216v-3h-216v-878h142v-3h-448v3h142v878h-146v3h146v70q0 219 89 362q13 20 25 37q31 83 15.5 166t-59 150t-119 108.5t-164.5 41.5q-145 0 -247 -102.5t-102 -246.5q0 -84 33 -149q-5 14 -5 37q0 52 36 88t88 36t88 -36t36 -88t-36 -88
t-88 -36t-88 36zM482 0h-448v3h142v878h-142v3h306v-881h142v-3z" />
    </font>
</defs>
</svg>
